M48
; DRILL file {KiCad 9.0.7} date 2026-01-21T12:24:12-0600
; FORMAT={-:-/ absolute / metric / decimal}
; #@! TF.CreationDate,2026-01-21T12:24:12-06:00
; #@! TF.GenerationSoftware,Kicad,Pcbnew,9.0.7
; #@! TF.FileFunction,Plated,1,2,PTH
FMAT,2
METRIC
; #@! TA.AperFunction,Plated,PTH,ViaDrill
T1C0.300
; #@! TA.AperFunction,Plated,PTH,ComponentDrill
T2C0.800
; #@! TA.AperFunction,Plated,PTH,ComponentDrill
T3C1.100
; #@! TA.AperFunction,Plated,PTH,ComponentDrill
T4C1.200
; #@! TA.AperFunction,Plated,PTH,ComponentDrill
T5C1.700
; #@! TA.AperFunction,Plated,PTH,ComponentDrill
T6C2.000
; #@! TA.AperFunction,Plated,PTH,ComponentDrill
T7C3.200
%
G90
G05
T1
X125.268Y-136.412
X127.808Y-118.792
X130.131Y-138.194
X131.397Y-139.375
X139.65Y-139.459
X148.469Y-103.802
X148.537Y-119.55
X148.868Y-115.873
X149.0Y-141.611
X163.162Y-112.688
X168.699Y-118.851
T2
X121.5Y-89.64
X121.5Y-92.18
X121.5Y-94.72
X121.5Y-97.26
X121.5Y-99.8
X121.5Y-102.34
X121.5Y-104.88
X121.5Y-107.42
X121.5Y-109.96
X121.5Y-112.5
X121.5Y-115.04
X121.5Y-117.58
X122.0Y-143.0
X124.0Y-143.0
X126.0Y-143.0
X128.0Y-143.0
X130.0Y-143.0
X132.0Y-143.0
X134.0Y-143.0
X136.0Y-143.0
X136.74Y-89.64
X136.74Y-92.18
X136.74Y-94.72
X136.74Y-97.26
X136.74Y-99.8
X136.74Y-102.34
X136.74Y-104.88
X136.74Y-107.42
X136.74Y-109.96
X136.74Y-112.5
X136.74Y-115.04
X136.74Y-117.58
X164.0Y-143.05
X166.0Y-143.05
X168.0Y-143.05
X170.0Y-143.05
X172.0Y-143.05
X174.0Y-143.05
X176.0Y-143.05
X178.0Y-143.05
T3
X147.5Y-93.0
X147.5Y-107.5
X150.0Y-107.5
X152.5Y-93.0
X152.5Y-107.5
T4
X120.65Y-128.0
X120.65Y-131.5
X179.15Y-128.0
T5
X124.8Y-134.0
X126.0Y-125.5
X173.8Y-125.5
X175.0Y-134.0
T7
X121.0Y-150.5
X180.0Y-90.0
T6
G00X144.3Y-99.6
M15
G01X144.3Y-100.4
M16
G05
G00X155.7Y-99.6
M15
G01X155.7Y-100.4
M16
G05
M30
