%TF.GenerationSoftware,KiCad,Pcbnew,9.0.7*%
%TF.CreationDate,2026-01-21T12:24:24-06:00*%
%TF.ProjectId,FADETUBE_MIDI,46414445-5455-4424-955f-4d4944492e6b,rev?*%
%TF.SameCoordinates,Original*%
%TF.FileFunction,Copper,L2,Bot*%
%TF.FilePolarity,Positive*%
%FSLAX46Y46*%
G04 Gerber Fmt 4.6, Leading zero omitted, Abs format (unit mm)*
G04 Created by KiCad (PCBNEW 9.0.7) date 2026-01-21 12:24:24*
%MOMM*%
%LPD*%
G01*
G04 APERTURE LIST*
%TA.AperFunction,ComponentPad*%
%ADD10R,1.308000X1.308000*%
%TD*%
%TA.AperFunction,ComponentPad*%
%ADD11C,1.308000*%
%TD*%
%TA.AperFunction,ComponentPad*%
%ADD12R,1.600000X1.600000*%
%TD*%
%TA.AperFunction,ComponentPad*%
%ADD13O,1.600000X1.600000*%
%TD*%
%TA.AperFunction,ComponentPad*%
%ADD14C,5.600000*%
%TD*%
%TA.AperFunction,ComponentPad*%
%ADD15R,1.800000X1.800000*%
%TD*%
%TA.AperFunction,ComponentPad*%
%ADD16C,1.800000*%
%TD*%
%TA.AperFunction,ComponentPad*%
%ADD17C,2.550000*%
%TD*%
%TA.AperFunction,ComponentPad*%
%ADD18R,1.650000X1.650000*%
%TD*%
%TA.AperFunction,ComponentPad*%
%ADD19C,1.650000*%
%TD*%
%TA.AperFunction,ComponentPad*%
%ADD20O,3.000000X6.000000*%
%TD*%
%TA.AperFunction,ViaPad*%
%ADD21C,0.600000*%
%TD*%
%TA.AperFunction,Conductor*%
%ADD22C,0.500000*%
%TD*%
G04 APERTURE END LIST*
D10*
%TO.P,J2_DECK_B1,1,1*%
%TO.N,Net-(ArduinoProMicroATmega32U4USBC-1-~D6{slash}A7)*%
X164000000Y-143050000D03*
D11*
%TO.P,J2_DECK_B1,2,2*%
%TO.N,Net-(J2_DECK_B1-Pad2)*%
X166000000Y-143050000D03*
%TO.P,J2_DECK_B1,3,3*%
%TO.N,GND*%
X168000000Y-143050000D03*
%TO.P,J2_DECK_B1,4,4*%
X170000000Y-143050000D03*
%TO.P,J2_DECK_B1,5,5*%
%TO.N,Net-(ArduinoProMicroATmega32U4USBC-1-D8{slash}A8)*%
X172000000Y-143050000D03*
%TO.P,J2_DECK_B1,6,6*%
%TO.N,Net-(J2_DECK_B1-Pad6)*%
X174000000Y-143050000D03*
%TO.P,J2_DECK_B1,7,7*%
%TO.N,GND*%
X176000000Y-143050000D03*
%TO.P,J2_DECK_B1,8,8*%
X178000000Y-143050000D03*
%TD*%
D12*
%TO.P,ArduinoProMicroATmega32U4USBC-1,1,D1/TX*%
%TO.N,unconnected-(ArduinoProMicroATmega32U4USBC-1-D1{slash}TX-Pad1)*%
X136740000Y-89640000D03*
D13*
%TO.P,ArduinoProMicroATmega32U4USBC-1,2,D0/RX*%
%TO.N,unconnected-(ArduinoProMicroATmega32U4USBC-1-D0{slash}RX-Pad2)*%
X136740000Y-92180000D03*
%TO.P,ArduinoProMicroATmega32U4USBC-1,3,GND*%
%TO.N,GND*%
X136740000Y-94720000D03*
%TO.P,ArduinoProMicroATmega32U4USBC-1,4,GND*%
X136740000Y-97260000D03*
%TO.P,ArduinoProMicroATmega32U4USBC-1,5,D2*%
%TO.N,Net-(ArduinoProMicroATmega32U4USBC-1-D2)*%
X136740000Y-99800000D03*
%TO.P,ArduinoProMicroATmega32U4USBC-1,6,~D3*%
%TO.N,Net-(ArduinoProMicroATmega32U4USBC-1-~D3)*%
X136740000Y-102340000D03*
%TO.P,ArduinoProMicroATmega32U4USBC-1,7,D4/A6*%
%TO.N,Net-(ArduinoProMicroATmega32U4USBC-1-D4{slash}A6)*%
X136740000Y-104880000D03*
%TO.P,ArduinoProMicroATmega32U4USBC-1,8,~D5*%
%TO.N,Net-(ArduinoProMicroATmega32U4USBC-1-~D5)*%
X136740000Y-107420000D03*
%TO.P,ArduinoProMicroATmega32U4USBC-1,9,~D6/A7*%
%TO.N,Net-(ArduinoProMicroATmega32U4USBC-1-~D6{slash}A7)*%
X136740000Y-109960000D03*
%TO.P,ArduinoProMicroATmega32U4USBC-1,10,D7*%
%TO.N,Net-(ArduinoProMicroATmega32U4USBC-1-D7)*%
X136740000Y-112500000D03*
%TO.P,ArduinoProMicroATmega32U4USBC-1,11,D8/A8*%
%TO.N,Net-(ArduinoProMicroATmega32U4USBC-1-D8{slash}A8)*%
X136740000Y-115040000D03*
%TO.P,ArduinoProMicroATmega32U4USBC-1,12,~D9/A9*%
%TO.N,Net-(ArduinoProMicroATmega32U4USBC-1-~D9{slash}A9)*%
X136740000Y-117580000D03*
%TO.P,ArduinoProMicroATmega32U4USBC-1,13,~D10/A10*%
%TO.N,Net-(ArduinoProMicroATmega32U4USBC-1-~D10{slash}A10)*%
X121500000Y-117580000D03*
%TO.P,ArduinoProMicroATmega32U4USBC-1,14,D16*%
%TO.N,Net-(ArduinoProMicroATmega32U4USBC-1-D16)*%
X121500000Y-115040000D03*
%TO.P,ArduinoProMicroATmega32U4USBC-1,15,D14*%
%TO.N,Net-(ArduinoProMicroATmega32U4USBC-1-D14)*%
X121500000Y-112500000D03*
%TO.P,ArduinoProMicroATmega32U4USBC-1,16,D15*%
%TO.N,unconnected-(ArduinoProMicroATmega32U4USBC-1-D15-Pad16)*%
X121500000Y-109960000D03*
%TO.P,ArduinoProMicroATmega32U4USBC-1,17,D18/A0*%
%TO.N,Net-(ArduinoProMicroATmega32U4USBC-1-D18{slash}A0)*%
X121500000Y-107420000D03*
%TO.P,ArduinoProMicroATmega32U4USBC-1,18,D19/A1*%
%TO.N,unconnected-(ArduinoProMicroATmega32U4USBC-1-D19{slash}A1-Pad18)*%
X121500000Y-104880000D03*
%TO.P,ArduinoProMicroATmega32U4USBC-1,19,D20/A2*%
%TO.N,unconnected-(ArduinoProMicroATmega32U4USBC-1-D20{slash}A2-Pad19)*%
X121500000Y-102340000D03*
%TO.P,ArduinoProMicroATmega32U4USBC-1,20,D21/A3*%
%TO.N,unconnected-(ArduinoProMicroATmega32U4USBC-1-D21{slash}A3-Pad20)*%
X121500000Y-99800000D03*
%TO.P,ArduinoProMicroATmega32U4USBC-1,21,VCC*%
%TO.N,Net-(ArduinoProMicroATmega32U4USBC-1-VCC)*%
X121500000Y-97260000D03*
%TO.P,ArduinoProMicroATmega32U4USBC-1,22,RST*%
%TO.N,unconnected-(ArduinoProMicroATmega32U4USBC-1-RST-Pad22)*%
X121500000Y-94720000D03*
%TO.P,ArduinoProMicroATmega32U4USBC-1,23,GND*%
%TO.N,unconnected-(ArduinoProMicroATmega32U4USBC-1-GND-Pad23)*%
X121500000Y-92180000D03*
%TO.P,ArduinoProMicroATmega32U4USBC-1,24,RAW*%
%TO.N,unconnected-(ArduinoProMicroATmega32U4USBC-1-RAW-Pad24)*%
X121500000Y-89640000D03*
%TD*%
D10*
%TO.P,J1_DECK_A1,1,1*%
%TO.N,Net-(ArduinoProMicroATmega32U4USBC-1-~D5)*%
X122000000Y-143000000D03*
D11*
%TO.P,J1_DECK_A1,2,2*%
%TO.N,Net-(J1_DECK_A1-Pad2)*%
X124000000Y-143000000D03*
%TO.P,J1_DECK_A1,3,3*%
%TO.N,GND*%
X126000000Y-143000000D03*
%TO.P,J1_DECK_A1,4,4*%
X128000000Y-143000000D03*
%TO.P,J1_DECK_A1,5,5*%
%TO.N,Net-(ArduinoProMicroATmega32U4USBC-1-D7)*%
X130000000Y-143000000D03*
%TO.P,J1_DECK_A1,6,6*%
%TO.N,Net-(J1_DECK_A1-Pad6)*%
X132000000Y-143000000D03*
%TO.P,J1_DECK_A1,7,7*%
%TO.N,GND*%
X134000000Y-143000000D03*
%TO.P,J1_DECK_A1,8,8*%
X136000000Y-143000000D03*
%TD*%
D14*
%TO.P,MH1,1*%
%TO.N,N/C*%
X180000000Y-90000000D03*
%TD*%
%TO.P,MH2,1*%
%TO.N,N/C*%
X121000000Y-150500000D03*
%TD*%
D15*
%TO.P,FADER1,1*%
%TO.N,GND*%
X120650000Y-128000000D03*
D16*
%TO.P,FADER1,2*%
%TO.N,Net-(ArduinoProMicroATmega32U4USBC-1-D18{slash}A0)*%
X120650000Y-131500000D03*
%TO.P,FADER1,3*%
%TO.N,Net-(ArduinoProMicroATmega32U4USBC-1-VCC)*%
X179150000Y-128000000D03*
D17*
%TO.P,FADER1,SH1,SHIELD*%
%TO.N,Net-(FADER1-SHIELD-PadSH1)*%
X126000000Y-125500000D03*
%TO.P,FADER1,SH2,SHIELD*%
X124800000Y-134000000D03*
%TO.P,FADER1,SH3,SHIELD*%
X173800000Y-125500000D03*
%TO.P,FADER1,SH4,SHIELD*%
X175000000Y-134000000D03*
%TD*%
D18*
%TO.P,ROTARY_ENCODER_BTN1,1*%
%TO.N,GND*%
X147500000Y-93000000D03*
D19*
%TO.P,ROTARY_ENCODER_BTN1,2*%
%TO.N,Net-(ArduinoProMicroATmega32U4USBC-1-D4{slash}A6)*%
X152500000Y-93000000D03*
%TO.P,ROTARY_ENCODER_BTN1,A,A*%
%TO.N,Net-(ArduinoProMicroATmega32U4USBC-1-D2)*%
X147500000Y-107500000D03*
%TO.P,ROTARY_ENCODER_BTN1,B,B*%
%TO.N,Net-(ArduinoProMicroATmega32U4USBC-1-~D3)*%
X152500000Y-107500000D03*
%TO.P,ROTARY_ENCODER_BTN1,C,COM*%
%TO.N,GND*%
X150000000Y-107500000D03*
D20*
%TO.P,ROTARY_ENCODER_BTN1,SH1,SHIELD*%
%TO.N,Net-(ROTARY_ENCODER_BTN1-SHIELD-PadSH1)*%
X144300000Y-100000000D03*
%TO.P,ROTARY_ENCODER_BTN1,SH2,SHIELD*%
X155700000Y-100000000D03*
%TD*%
D21*
%TO.N,Net-(ArduinoProMicroATmega32U4USBC-1-D8{slash}A8)*%
X168699400Y-118850600D03*
%TO.N,Net-(ArduinoProMicroATmega32U4USBC-1-VCC)*%
X127807700Y-118792300D03*
%TO.N,Net-(ArduinoProMicroATmega32U4USBC-1-~D10{slash}A10)*%
X125268400Y-136412500D03*
%TO.N,Net-(ArduinoProMicroATmega32U4USBC-1-~D9{slash}A9)*%
X139650000Y-139459500D03*
%TO.N,Net-(ArduinoProMicroATmega32U4USBC-1-~D6{slash}A7)*%
X163162500Y-112687500D03*
%TO.N,Net-(ArduinoProMicroATmega32U4USBC-1-~D5)*%
X131397400Y-139375000D03*
%TO.N,Net-(ArduinoProMicroATmega32U4USBC-1-D16)*%
X130131300Y-138194100D03*
%TO.N,Net-(ArduinoProMicroATmega32U4USBC-1-D2)*%
X148468800Y-103802300D03*
%TO.N,Net-(ArduinoProMicroATmega32U4USBC-1-D14)*%
X148537500Y-119550300D03*
X149000000Y-141610700D03*
%TO.N,GND*%
X148867500Y-115872700D03*
%TD*%
D22*
%TO.N,Net-(ArduinoProMicroATmega32U4USBC-1-D8{slash}A8)*%
X168699400Y-139749400D02*
X172000000Y-143050000D01*
X168699400Y-118850600D02*
X168699400Y-139749400D01*
%TO.N,Net-(ArduinoProMicroATmega32U4USBC-1-VCC)*%
X127807700Y-103567700D02*
X121500000Y-97260000D01*
X127807700Y-118792300D02*
X127807700Y-103567700D01*
%TO.N,Net-(ArduinoProMicroATmega32U4USBC-1-~D10{slash}A10)*%
X121500000Y-117580000D02*
X121500000Y-119131700D01*
X122301700Y-119933400D02*
X121500000Y-119131700D01*
X122301700Y-128633200D02*
X122301700Y-119933400D01*
X126862200Y-133193700D02*
X122301700Y-128633200D01*
X126862200Y-134818700D02*
X126862200Y-133193700D01*
X125268400Y-136412500D02*
X126862200Y-134818700D01*
%TO.N,Net-(ArduinoProMicroATmega32U4USBC-1-~D9{slash}A9)*%
X139650000Y-122041700D02*
X136740000Y-119131700D01*
X139650000Y-139459500D02*
X139650000Y-122041700D01*
X136740000Y-117580000D02*
X136740000Y-119131700D01*
%TO.N,Net-(ArduinoProMicroATmega32U4USBC-1-~D6{slash}A7)*%
X164000000Y-113525000D02*
X163162500Y-112687500D01*
X164000000Y-143050000D02*
X164000000Y-113525000D01*
%TO.N,Net-(ArduinoProMicroATmega32U4USBC-1-~D5)*%
X131397400Y-112762600D02*
X136740000Y-107420000D01*
X131397400Y-139375000D02*
X131397400Y-112762600D01*
%TO.N,Net-(ArduinoProMicroATmega32U4USBC-1-D4{slash}A6)*%
X152500000Y-96560800D02*
X152500000Y-93000000D01*
X144180800Y-104880000D02*
X152500000Y-96560800D01*
X136740000Y-104880000D02*
X144180800Y-104880000D01*
%TO.N,Net-(ArduinoProMicroATmega32U4USBC-1-D7)*%
X133976800Y-115263200D02*
X136740000Y-112500000D01*
X133976800Y-139023200D02*
X133976800Y-115263200D01*
X130000000Y-143000000D02*
X133976800Y-139023200D01*
%TO.N,Net-(ArduinoProMicroATmega32U4USBC-1-D16)*%
X130131300Y-123671300D02*
X121500000Y-115040000D01*
X130131300Y-138194100D02*
X130131300Y-123671300D01*
%TO.N,Net-(ArduinoProMicroATmega32U4USBC-1-D18{slash}A0)*%
X118969500Y-109950500D02*
X121500000Y-107420000D01*
X118969500Y-129819500D02*
X118969500Y-109950500D01*
X120650000Y-131500000D02*
X118969500Y-129819500D01*
%TO.N,Net-(ArduinoProMicroATmega32U4USBC-1-D2)*%
X147500000Y-104771100D02*
X148537500Y-103733600D01*
X147500000Y-107500000D02*
X147500000Y-104771100D01*
X148537500Y-103733600D02*
X148468800Y-103802300D01*
X148468800Y-103802300D02*
X148537500Y-103802300D01*
X148537500Y-103802300D02*
X148468800Y-103802300D01*
%TO.N,Net-(ArduinoProMicroATmega32U4USBC-1-D14)*%
X148537500Y-141148200D02*
X149000000Y-141610700D01*
X148537500Y-119550300D02*
X148537500Y-141148200D01*
X148537500Y-119550300D02*
X148537500Y-119975300D01*
X148537500Y-119975300D02*
X148537500Y-119550300D01*
X148537500Y-119550300D02*
X148539100Y-119550300D01*
X148539100Y-119550300D02*
X148537500Y-119550300D01*
%TO.N,GND*%
X120650000Y-128000000D02*
X120650000Y-129651700D01*
X136740000Y-94720000D02*
X136740000Y-97260000D01*
X150653400Y-91423300D02*
X149076700Y-93000000D01*
X153223100Y-91423300D02*
X150653400Y-91423300D01*
X154119700Y-92319900D02*
X153223100Y-91423300D01*
X154119700Y-96666200D02*
X154119700Y-92319900D01*
X150000000Y-100785900D02*
X154119700Y-96666200D01*
X150000000Y-107500000D02*
X150000000Y-100785900D01*
X147500000Y-93000000D02*
X149076700Y-93000000D01*
X150000000Y-114740200D02*
X148867500Y-115872700D01*
X150000000Y-107500000D02*
X150000000Y-114740200D01*
X139111300Y-143000000D02*
X136000000Y-143000000D01*
X141569900Y-140541400D02*
X139111300Y-143000000D01*
X141569900Y-123170300D02*
X141569900Y-140541400D01*
X148867500Y-115872700D02*
X141569900Y-123170300D01*
X121198400Y-129651700D02*
X120650000Y-129651700D01*
X122301900Y-130755200D02*
X121198400Y-129651700D01*
X122301900Y-139301900D02*
X122301900Y-130755200D01*
X126000000Y-143000000D02*
X122301900Y-139301900D01*
%TO.N,Net-(FADER1-SHIELD-PadSH1)*%
X173800000Y-132800000D02*
X173800000Y-125500000D01*
X175000000Y-134000000D02*
X173800000Y-132800000D01*
%TD*%
M02*
