%TF.GenerationSoftware,KiCad,Pcbnew,9.0.7*%
%TF.CreationDate,2026-01-21T12:24:24-06:00*%
%TF.ProjectId,FADETUBE_MIDI,46414445-5455-4424-955f-4d4944492e6b,rev?*%
%TF.SameCoordinates,Original*%
%TF.FileFunction,Legend,Top*%
%TF.FilePolarity,Positive*%
%FSLAX46Y46*%
G04 Gerber Fmt 4.6, Leading zero omitted, Abs format (unit mm)*
G04 Created by KiCad (PCBNEW 9.0.7) date 2026-01-21 12:24:24*
%MOMM*%
%LPD*%
G01*
G04 APERTURE LIST*
G04 Aperture macros list*
%AMRoundRect*
0 Rectangle with rounded corners*
0 $1 Rounding radius*
0 $2 $3 $4 $5 $6 $7 $8 $9 X,Y pos of 4 corners*
0 Add a 4 corners polygon primitive as box body*
4,1,4,$2,$3,$4,$5,$6,$7,$8,$9,$2,$3,0*
0 Add four circle primitives for the rounded corners*
1,1,$1+$1,$2,$3*
1,1,$1+$1,$4,$5*
1,1,$1+$1,$6,$7*
1,1,$1+$1,$8,$9*
0 Add four rect primitives between the rounded corners*
20,1,$1+$1,$2,$3,$4,$5,0*
20,1,$1+$1,$4,$5,$6,$7,0*
20,1,$1+$1,$6,$7,$8,$9,0*
20,1,$1+$1,$8,$9,$2,$3,0*%
G04 Aperture macros list end*
%ADD10C,0.118517*%
%ADD11C,0.098552*%
%ADD12C,0.150000*%
%ADD13C,0.098425*%
%ADD14C,0.000000*%
%ADD15C,0.127000*%
%ADD16C,0.200000*%
%ADD17RoundRect,0.102000X0.500000X-0.550000X0.500000X0.550000X-0.500000X0.550000X-0.500000X-0.550000X0*%
%ADD18RoundRect,0.102000X0.654000X0.654000X-0.654000X0.654000X-0.654000X-0.654000X0.654000X-0.654000X0*%
%ADD19C,1.512000*%
%ADD20R,1.600000X1.600000*%
%ADD21O,1.600000X1.600000*%
%ADD22C,5.600000*%
%ADD23RoundRect,0.102000X-0.900000X-0.900000X0.900000X-0.900000X0.900000X0.900000X-0.900000X0.900000X0*%
%ADD24C,2.004000*%
%ADD25C,2.754000*%
%ADD26RoundRect,0.102000X-0.825000X-0.825000X0.825000X-0.825000X0.825000X0.825000X-0.825000X0.825000X0*%
%ADD27C,1.854000*%
%ADD28O,3.204000X6.204000*%
%ADD29RoundRect,0.102000X0.735000X-0.580000X0.735000X0.580000X-0.735000X0.580000X-0.735000X-0.580000X0*%
G04 APERTURE END LIST*
D10*
X140168000Y-114329010D02*
X140190575Y-114351585D01*
X140190575Y-114351585D02*
X140213149Y-114419308D01*
X140213149Y-114419308D02*
X140213149Y-114464458D01*
X140213149Y-114464458D02*
X140190575Y-114532182D01*
X140190575Y-114532182D02*
X140145425Y-114577331D01*
X140145425Y-114577331D02*
X140100276Y-114599905D01*
X140100276Y-114599905D02*
X140009978Y-114622480D01*
X140009978Y-114622480D02*
X139942254Y-114622480D01*
X139942254Y-114622480D02*
X139851955Y-114599905D01*
X139851955Y-114599905D02*
X139806806Y-114577331D01*
X139806806Y-114577331D02*
X139761657Y-114532182D01*
X139761657Y-114532182D02*
X139739082Y-114464458D01*
X139739082Y-114464458D02*
X139739082Y-114419308D01*
X139739082Y-114419308D02*
X139761657Y-114351585D01*
X139761657Y-114351585D02*
X139784231Y-114329010D01*
X140213149Y-113877518D02*
X140213149Y-114148413D01*
X140213149Y-114012965D02*
X139739082Y-114012965D01*
X139739082Y-114012965D02*
X139806806Y-114058115D01*
X139806806Y-114058115D02*
X139851955Y-114103264D01*
X139851955Y-114103264D02*
X139874530Y-114148413D01*
D11*
X151427242Y-144545247D02*
X151239525Y-144676649D01*
X151427242Y-144770508D02*
X151033036Y-144770508D01*
X151033036Y-144770508D02*
X151033036Y-144620334D01*
X151033036Y-144620334D02*
X151051808Y-144582791D01*
X151051808Y-144582791D02*
X151070580Y-144564019D01*
X151070580Y-144564019D02*
X151108123Y-144545247D01*
X151108123Y-144545247D02*
X151164438Y-144545247D01*
X151164438Y-144545247D02*
X151201982Y-144564019D01*
X151201982Y-144564019D02*
X151220753Y-144582791D01*
X151220753Y-144582791D02*
X151239525Y-144620334D01*
X151239525Y-144620334D02*
X151239525Y-144770508D01*
X151464786Y-144470161D02*
X151464786Y-144169813D01*
X151427242Y-143888238D02*
X151427242Y-144075955D01*
X151427242Y-144075955D02*
X151033036Y-144075955D01*
X151033036Y-143681749D02*
X151033036Y-143606662D01*
X151033036Y-143606662D02*
X151051808Y-143569119D01*
X151051808Y-143569119D02*
X151089351Y-143531575D01*
X151089351Y-143531575D02*
X151164438Y-143512804D01*
X151164438Y-143512804D02*
X151295840Y-143512804D01*
X151295840Y-143512804D02*
X151370927Y-143531575D01*
X151370927Y-143531575D02*
X151408471Y-143569119D01*
X151408471Y-143569119D02*
X151427242Y-143606662D01*
X151427242Y-143606662D02*
X151427242Y-143681749D01*
X151427242Y-143681749D02*
X151408471Y-143719293D01*
X151408471Y-143719293D02*
X151370927Y-143756836D01*
X151370927Y-143756836D02*
X151295840Y-143775608D01*
X151295840Y-143775608D02*
X151164438Y-143775608D01*
X151164438Y-143775608D02*
X151089351Y-143756836D01*
X151089351Y-143756836D02*
X151051808Y-143719293D01*
X151051808Y-143719293D02*
X151033036Y-143681749D01*
X151314612Y-143362630D02*
X151314612Y-143174913D01*
X151427242Y-143400173D02*
X151033036Y-143268771D01*
X151033036Y-143268771D02*
X151427242Y-143137369D01*
X151427242Y-143005967D02*
X151033036Y-143005967D01*
X151033036Y-143005967D02*
X151033036Y-142912108D01*
X151033036Y-142912108D02*
X151051808Y-142855793D01*
X151051808Y-142855793D02*
X151089351Y-142818250D01*
X151089351Y-142818250D02*
X151126895Y-142799478D01*
X151126895Y-142799478D02*
X151201982Y-142780706D01*
X151201982Y-142780706D02*
X151258297Y-142780706D01*
X151258297Y-142780706D02*
X151333384Y-142799478D01*
X151333384Y-142799478D02*
X151370927Y-142818250D01*
X151370927Y-142818250D02*
X151408471Y-142855793D01*
X151408471Y-142855793D02*
X151427242Y-142912108D01*
X151427242Y-142912108D02*
X151427242Y-143005967D01*
X151464786Y-142705620D02*
X151464786Y-142405272D01*
X151220753Y-142180012D02*
X151239525Y-142123697D01*
X151239525Y-142123697D02*
X151258297Y-142104925D01*
X151258297Y-142104925D02*
X151295840Y-142086153D01*
X151295840Y-142086153D02*
X151352155Y-142086153D01*
X151352155Y-142086153D02*
X151389699Y-142104925D01*
X151389699Y-142104925D02*
X151408471Y-142123697D01*
X151408471Y-142123697D02*
X151427242Y-142161240D01*
X151427242Y-142161240D02*
X151427242Y-142311414D01*
X151427242Y-142311414D02*
X151033036Y-142311414D01*
X151033036Y-142311414D02*
X151033036Y-142180012D01*
X151033036Y-142180012D02*
X151051808Y-142142469D01*
X151051808Y-142142469D02*
X151070580Y-142123697D01*
X151070580Y-142123697D02*
X151108123Y-142104925D01*
X151108123Y-142104925D02*
X151145667Y-142104925D01*
X151145667Y-142104925D02*
X151183210Y-142123697D01*
X151183210Y-142123697D02*
X151201982Y-142142469D01*
X151201982Y-142142469D02*
X151220753Y-142180012D01*
X151220753Y-142180012D02*
X151220753Y-142311414D01*
X151427242Y-141710719D02*
X151427242Y-141935980D01*
X151427242Y-141823349D02*
X151033036Y-141823349D01*
X151033036Y-141823349D02*
X151089351Y-141860893D01*
X151089351Y-141860893D02*
X151126895Y-141898436D01*
X151126895Y-141898436D02*
X151145667Y-141935980D01*
X159677242Y-141757703D02*
X159489525Y-141889105D01*
X159677242Y-141982964D02*
X159283036Y-141982964D01*
X159283036Y-141982964D02*
X159283036Y-141832790D01*
X159283036Y-141832790D02*
X159301808Y-141795247D01*
X159301808Y-141795247D02*
X159320580Y-141776475D01*
X159320580Y-141776475D02*
X159358123Y-141757703D01*
X159358123Y-141757703D02*
X159414438Y-141757703D01*
X159414438Y-141757703D02*
X159451982Y-141776475D01*
X159451982Y-141776475D02*
X159470753Y-141795247D01*
X159470753Y-141795247D02*
X159489525Y-141832790D01*
X159489525Y-141832790D02*
X159489525Y-141982964D01*
X159714786Y-141682617D02*
X159714786Y-141382269D01*
X159677242Y-141288411D02*
X159283036Y-141288411D01*
X159283036Y-141288411D02*
X159283036Y-141138237D01*
X159283036Y-141138237D02*
X159301808Y-141100694D01*
X159301808Y-141100694D02*
X159320580Y-141081922D01*
X159320580Y-141081922D02*
X159358123Y-141063150D01*
X159358123Y-141063150D02*
X159414438Y-141063150D01*
X159414438Y-141063150D02*
X159451982Y-141081922D01*
X159451982Y-141081922D02*
X159470753Y-141100694D01*
X159470753Y-141100694D02*
X159489525Y-141138237D01*
X159489525Y-141138237D02*
X159489525Y-141288411D01*
X159677242Y-140706488D02*
X159677242Y-140894205D01*
X159677242Y-140894205D02*
X159283036Y-140894205D01*
X159564612Y-140593858D02*
X159564612Y-140406141D01*
X159677242Y-140631401D02*
X159283036Y-140499999D01*
X159283036Y-140499999D02*
X159677242Y-140368597D01*
X159489525Y-140162108D02*
X159677242Y-140162108D01*
X159283036Y-140293510D02*
X159489525Y-140162108D01*
X159489525Y-140162108D02*
X159283036Y-140030706D01*
X159714786Y-139993163D02*
X159714786Y-139692815D01*
X159470753Y-139467555D02*
X159489525Y-139411240D01*
X159489525Y-139411240D02*
X159508297Y-139392468D01*
X159508297Y-139392468D02*
X159545840Y-139373696D01*
X159545840Y-139373696D02*
X159602155Y-139373696D01*
X159602155Y-139373696D02*
X159639699Y-139392468D01*
X159639699Y-139392468D02*
X159658471Y-139411240D01*
X159658471Y-139411240D02*
X159677242Y-139448783D01*
X159677242Y-139448783D02*
X159677242Y-139598957D01*
X159677242Y-139598957D02*
X159283036Y-139598957D01*
X159283036Y-139598957D02*
X159283036Y-139467555D01*
X159283036Y-139467555D02*
X159301808Y-139430012D01*
X159301808Y-139430012D02*
X159320580Y-139411240D01*
X159320580Y-139411240D02*
X159358123Y-139392468D01*
X159358123Y-139392468D02*
X159395667Y-139392468D01*
X159395667Y-139392468D02*
X159433210Y-139411240D01*
X159433210Y-139411240D02*
X159451982Y-139430012D01*
X159451982Y-139430012D02*
X159470753Y-139467555D01*
X159470753Y-139467555D02*
X159470753Y-139598957D01*
X159677242Y-138998262D02*
X159677242Y-139223523D01*
X159677242Y-139110892D02*
X159283036Y-139110892D01*
X159283036Y-139110892D02*
X159339351Y-139148436D01*
X159339351Y-139148436D02*
X159376895Y-139185979D01*
X159376895Y-139185979D02*
X159395667Y-139223523D01*
X142927242Y-142979546D02*
X142739525Y-143110948D01*
X142927242Y-143204807D02*
X142533036Y-143204807D01*
X142533036Y-143204807D02*
X142533036Y-143054633D01*
X142533036Y-143054633D02*
X142551808Y-143017090D01*
X142551808Y-143017090D02*
X142570580Y-142998318D01*
X142570580Y-142998318D02*
X142608123Y-142979546D01*
X142608123Y-142979546D02*
X142664438Y-142979546D01*
X142664438Y-142979546D02*
X142701982Y-142998318D01*
X142701982Y-142998318D02*
X142720753Y-143017090D01*
X142720753Y-143017090D02*
X142739525Y-143054633D01*
X142739525Y-143054633D02*
X142739525Y-143204807D01*
X142964786Y-142904460D02*
X142964786Y-142604112D01*
X142927242Y-142510254D02*
X142533036Y-142510254D01*
X142533036Y-142510254D02*
X142533036Y-142360080D01*
X142533036Y-142360080D02*
X142551808Y-142322537D01*
X142551808Y-142322537D02*
X142570580Y-142303765D01*
X142570580Y-142303765D02*
X142608123Y-142284993D01*
X142608123Y-142284993D02*
X142664438Y-142284993D01*
X142664438Y-142284993D02*
X142701982Y-142303765D01*
X142701982Y-142303765D02*
X142720753Y-142322537D01*
X142720753Y-142322537D02*
X142739525Y-142360080D01*
X142739525Y-142360080D02*
X142739525Y-142510254D01*
X142927242Y-141928331D02*
X142927242Y-142116048D01*
X142927242Y-142116048D02*
X142533036Y-142116048D01*
X142814612Y-141815701D02*
X142814612Y-141627984D01*
X142927242Y-141853244D02*
X142533036Y-141721842D01*
X142533036Y-141721842D02*
X142927242Y-141590440D01*
X142739525Y-141383951D02*
X142927242Y-141383951D01*
X142533036Y-141515353D02*
X142739525Y-141383951D01*
X142739525Y-141383951D02*
X142533036Y-141252549D01*
X142964786Y-141215006D02*
X142964786Y-140914658D01*
X142814612Y-140839572D02*
X142814612Y-140651855D01*
X142927242Y-140877115D02*
X142533036Y-140745713D01*
X142533036Y-140745713D02*
X142927242Y-140614311D01*
X142927242Y-140276420D02*
X142927242Y-140501681D01*
X142927242Y-140389050D02*
X142533036Y-140389050D01*
X142533036Y-140389050D02*
X142589351Y-140426594D01*
X142589351Y-140426594D02*
X142626895Y-140464137D01*
X142626895Y-140464137D02*
X142645667Y-140501681D01*
X146677242Y-140017089D02*
X146489525Y-140148491D01*
X146677242Y-140242350D02*
X146283036Y-140242350D01*
X146283036Y-140242350D02*
X146283036Y-140092176D01*
X146283036Y-140092176D02*
X146301808Y-140054633D01*
X146301808Y-140054633D02*
X146320580Y-140035861D01*
X146320580Y-140035861D02*
X146358123Y-140017089D01*
X146358123Y-140017089D02*
X146414438Y-140017089D01*
X146414438Y-140017089D02*
X146451982Y-140035861D01*
X146451982Y-140035861D02*
X146470753Y-140054633D01*
X146470753Y-140054633D02*
X146489525Y-140092176D01*
X146489525Y-140092176D02*
X146489525Y-140242350D01*
X146714786Y-139942003D02*
X146714786Y-139641655D01*
X146677242Y-139360080D02*
X146677242Y-139547797D01*
X146677242Y-139547797D02*
X146283036Y-139547797D01*
X146283036Y-139153591D02*
X146283036Y-139078504D01*
X146283036Y-139078504D02*
X146301808Y-139040961D01*
X146301808Y-139040961D02*
X146339351Y-139003417D01*
X146339351Y-139003417D02*
X146414438Y-138984646D01*
X146414438Y-138984646D02*
X146545840Y-138984646D01*
X146545840Y-138984646D02*
X146620927Y-139003417D01*
X146620927Y-139003417D02*
X146658471Y-139040961D01*
X146658471Y-139040961D02*
X146677242Y-139078504D01*
X146677242Y-139078504D02*
X146677242Y-139153591D01*
X146677242Y-139153591D02*
X146658471Y-139191135D01*
X146658471Y-139191135D02*
X146620927Y-139228678D01*
X146620927Y-139228678D02*
X146545840Y-139247450D01*
X146545840Y-139247450D02*
X146414438Y-139247450D01*
X146414438Y-139247450D02*
X146339351Y-139228678D01*
X146339351Y-139228678D02*
X146301808Y-139191135D01*
X146301808Y-139191135D02*
X146283036Y-139153591D01*
X146564612Y-138834472D02*
X146564612Y-138646755D01*
X146677242Y-138872015D02*
X146283036Y-138740613D01*
X146283036Y-138740613D02*
X146677242Y-138609211D01*
X146677242Y-138477809D02*
X146283036Y-138477809D01*
X146283036Y-138477809D02*
X146283036Y-138383950D01*
X146283036Y-138383950D02*
X146301808Y-138327635D01*
X146301808Y-138327635D02*
X146339351Y-138290092D01*
X146339351Y-138290092D02*
X146376895Y-138271320D01*
X146376895Y-138271320D02*
X146451982Y-138252548D01*
X146451982Y-138252548D02*
X146508297Y-138252548D01*
X146508297Y-138252548D02*
X146583384Y-138271320D01*
X146583384Y-138271320D02*
X146620927Y-138290092D01*
X146620927Y-138290092D02*
X146658471Y-138327635D01*
X146658471Y-138327635D02*
X146677242Y-138383950D01*
X146677242Y-138383950D02*
X146677242Y-138477809D01*
X146714786Y-138177462D02*
X146714786Y-137877114D01*
X146564612Y-137802028D02*
X146564612Y-137614311D01*
X146677242Y-137839571D02*
X146283036Y-137708169D01*
X146283036Y-137708169D02*
X146677242Y-137576767D01*
X146677242Y-137238876D02*
X146677242Y-137464137D01*
X146677242Y-137351506D02*
X146283036Y-137351506D01*
X146283036Y-137351506D02*
X146339351Y-137389050D01*
X146339351Y-137389050D02*
X146376895Y-137426593D01*
X146376895Y-137426593D02*
X146395667Y-137464137D01*
D12*
X120460714Y-122271009D02*
X120127381Y-122271009D01*
X120127381Y-122794819D02*
X120127381Y-121794819D01*
X120127381Y-121794819D02*
X120603571Y-121794819D01*
X120936905Y-122509104D02*
X121413095Y-122509104D01*
X120841667Y-122794819D02*
X121175000Y-121794819D01*
X121175000Y-121794819D02*
X121508333Y-122794819D01*
X121841667Y-122794819D02*
X121841667Y-121794819D01*
X121841667Y-121794819D02*
X122079762Y-121794819D01*
X122079762Y-121794819D02*
X122222619Y-121842438D01*
X122222619Y-121842438D02*
X122317857Y-121937676D01*
X122317857Y-121937676D02*
X122365476Y-122032914D01*
X122365476Y-122032914D02*
X122413095Y-122223390D01*
X122413095Y-122223390D02*
X122413095Y-122366247D01*
X122413095Y-122366247D02*
X122365476Y-122556723D01*
X122365476Y-122556723D02*
X122317857Y-122651961D01*
X122317857Y-122651961D02*
X122222619Y-122747200D01*
X122222619Y-122747200D02*
X122079762Y-122794819D01*
X122079762Y-122794819D02*
X121841667Y-122794819D01*
X122841667Y-122271009D02*
X123175000Y-122271009D01*
X123317857Y-122794819D02*
X122841667Y-122794819D01*
X122841667Y-122794819D02*
X122841667Y-121794819D01*
X122841667Y-121794819D02*
X123317857Y-121794819D01*
X124317857Y-122794819D02*
X123984524Y-122318628D01*
X123746429Y-122794819D02*
X123746429Y-121794819D01*
X123746429Y-121794819D02*
X124127381Y-121794819D01*
X124127381Y-121794819D02*
X124222619Y-121842438D01*
X124222619Y-121842438D02*
X124270238Y-121890057D01*
X124270238Y-121890057D02*
X124317857Y-121985295D01*
X124317857Y-121985295D02*
X124317857Y-122128152D01*
X124317857Y-122128152D02*
X124270238Y-122223390D01*
X124270238Y-122223390D02*
X124222619Y-122271009D01*
X124222619Y-122271009D02*
X124127381Y-122318628D01*
X124127381Y-122318628D02*
X123746429Y-122318628D01*
X125270238Y-122794819D02*
X124698810Y-122794819D01*
X124984524Y-122794819D02*
X124984524Y-121794819D01*
X124984524Y-121794819D02*
X124889286Y-121937676D01*
X124889286Y-121937676D02*
X124794048Y-122032914D01*
X124794048Y-122032914D02*
X124698810Y-122080533D01*
X142952380Y-90954819D02*
X142619047Y-90478628D01*
X142380952Y-90954819D02*
X142380952Y-89954819D01*
X142380952Y-89954819D02*
X142761904Y-89954819D01*
X142761904Y-89954819D02*
X142857142Y-90002438D01*
X142857142Y-90002438D02*
X142904761Y-90050057D01*
X142904761Y-90050057D02*
X142952380Y-90145295D01*
X142952380Y-90145295D02*
X142952380Y-90288152D01*
X142952380Y-90288152D02*
X142904761Y-90383390D01*
X142904761Y-90383390D02*
X142857142Y-90431009D01*
X142857142Y-90431009D02*
X142761904Y-90478628D01*
X142761904Y-90478628D02*
X142380952Y-90478628D01*
X143571428Y-89954819D02*
X143761904Y-89954819D01*
X143761904Y-89954819D02*
X143857142Y-90002438D01*
X143857142Y-90002438D02*
X143952380Y-90097676D01*
X143952380Y-90097676D02*
X143999999Y-90288152D01*
X143999999Y-90288152D02*
X143999999Y-90621485D01*
X143999999Y-90621485D02*
X143952380Y-90811961D01*
X143952380Y-90811961D02*
X143857142Y-90907200D01*
X143857142Y-90907200D02*
X143761904Y-90954819D01*
X143761904Y-90954819D02*
X143571428Y-90954819D01*
X143571428Y-90954819D02*
X143476190Y-90907200D01*
X143476190Y-90907200D02*
X143380952Y-90811961D01*
X143380952Y-90811961D02*
X143333333Y-90621485D01*
X143333333Y-90621485D02*
X143333333Y-90288152D01*
X143333333Y-90288152D02*
X143380952Y-90097676D01*
X143380952Y-90097676D02*
X143476190Y-90002438D01*
X143476190Y-90002438D02*
X143571428Y-89954819D01*
X144285714Y-89954819D02*
X144857142Y-89954819D01*
X144571428Y-90954819D02*
X144571428Y-89954819D01*
X145142857Y-90669104D02*
X145619047Y-90669104D01*
X145047619Y-90954819D02*
X145380952Y-89954819D01*
X145380952Y-89954819D02*
X145714285Y-90954819D01*
X146619047Y-90954819D02*
X146285714Y-90478628D01*
X146047619Y-90954819D02*
X146047619Y-89954819D01*
X146047619Y-89954819D02*
X146428571Y-89954819D01*
X146428571Y-89954819D02*
X146523809Y-90002438D01*
X146523809Y-90002438D02*
X146571428Y-90050057D01*
X146571428Y-90050057D02*
X146619047Y-90145295D01*
X146619047Y-90145295D02*
X146619047Y-90288152D01*
X146619047Y-90288152D02*
X146571428Y-90383390D01*
X146571428Y-90383390D02*
X146523809Y-90431009D01*
X146523809Y-90431009D02*
X146428571Y-90478628D01*
X146428571Y-90478628D02*
X146047619Y-90478628D01*
X147238095Y-90478628D02*
X147238095Y-90954819D01*
X146904762Y-89954819D02*
X147238095Y-90478628D01*
X147238095Y-90478628D02*
X147571428Y-89954819D01*
X147666667Y-91050057D02*
X148428571Y-91050057D01*
X148666667Y-90431009D02*
X149000000Y-90431009D01*
X149142857Y-90954819D02*
X148666667Y-90954819D01*
X148666667Y-90954819D02*
X148666667Y-89954819D01*
X148666667Y-89954819D02*
X149142857Y-89954819D01*
X149571429Y-90954819D02*
X149571429Y-89954819D01*
X149571429Y-89954819D02*
X150142857Y-90954819D01*
X150142857Y-90954819D02*
X150142857Y-89954819D01*
X151190476Y-90859580D02*
X151142857Y-90907200D01*
X151142857Y-90907200D02*
X151000000Y-90954819D01*
X151000000Y-90954819D02*
X150904762Y-90954819D01*
X150904762Y-90954819D02*
X150761905Y-90907200D01*
X150761905Y-90907200D02*
X150666667Y-90811961D01*
X150666667Y-90811961D02*
X150619048Y-90716723D01*
X150619048Y-90716723D02*
X150571429Y-90526247D01*
X150571429Y-90526247D02*
X150571429Y-90383390D01*
X150571429Y-90383390D02*
X150619048Y-90192914D01*
X150619048Y-90192914D02*
X150666667Y-90097676D01*
X150666667Y-90097676D02*
X150761905Y-90002438D01*
X150761905Y-90002438D02*
X150904762Y-89954819D01*
X150904762Y-89954819D02*
X151000000Y-89954819D01*
X151000000Y-89954819D02*
X151142857Y-90002438D01*
X151142857Y-90002438D02*
X151190476Y-90050057D01*
X151809524Y-89954819D02*
X152000000Y-89954819D01*
X152000000Y-89954819D02*
X152095238Y-90002438D01*
X152095238Y-90002438D02*
X152190476Y-90097676D01*
X152190476Y-90097676D02*
X152238095Y-90288152D01*
X152238095Y-90288152D02*
X152238095Y-90621485D01*
X152238095Y-90621485D02*
X152190476Y-90811961D01*
X152190476Y-90811961D02*
X152095238Y-90907200D01*
X152095238Y-90907200D02*
X152000000Y-90954819D01*
X152000000Y-90954819D02*
X151809524Y-90954819D01*
X151809524Y-90954819D02*
X151714286Y-90907200D01*
X151714286Y-90907200D02*
X151619048Y-90811961D01*
X151619048Y-90811961D02*
X151571429Y-90621485D01*
X151571429Y-90621485D02*
X151571429Y-90288152D01*
X151571429Y-90288152D02*
X151619048Y-90097676D01*
X151619048Y-90097676D02*
X151714286Y-90002438D01*
X151714286Y-90002438D02*
X151809524Y-89954819D01*
X152666667Y-90954819D02*
X152666667Y-89954819D01*
X152666667Y-89954819D02*
X152904762Y-89954819D01*
X152904762Y-89954819D02*
X153047619Y-90002438D01*
X153047619Y-90002438D02*
X153142857Y-90097676D01*
X153142857Y-90097676D02*
X153190476Y-90192914D01*
X153190476Y-90192914D02*
X153238095Y-90383390D01*
X153238095Y-90383390D02*
X153238095Y-90526247D01*
X153238095Y-90526247D02*
X153190476Y-90716723D01*
X153190476Y-90716723D02*
X153142857Y-90811961D01*
X153142857Y-90811961D02*
X153047619Y-90907200D01*
X153047619Y-90907200D02*
X152904762Y-90954819D01*
X152904762Y-90954819D02*
X152666667Y-90954819D01*
X153666667Y-90431009D02*
X154000000Y-90431009D01*
X154142857Y-90954819D02*
X153666667Y-90954819D01*
X153666667Y-90954819D02*
X153666667Y-89954819D01*
X153666667Y-89954819D02*
X154142857Y-89954819D01*
X155142857Y-90954819D02*
X154809524Y-90478628D01*
X154571429Y-90954819D02*
X154571429Y-89954819D01*
X154571429Y-89954819D02*
X154952381Y-89954819D01*
X154952381Y-89954819D02*
X155047619Y-90002438D01*
X155047619Y-90002438D02*
X155095238Y-90050057D01*
X155095238Y-90050057D02*
X155142857Y-90145295D01*
X155142857Y-90145295D02*
X155142857Y-90288152D01*
X155142857Y-90288152D02*
X155095238Y-90383390D01*
X155095238Y-90383390D02*
X155047619Y-90431009D01*
X155047619Y-90431009D02*
X154952381Y-90478628D01*
X154952381Y-90478628D02*
X154571429Y-90478628D01*
X155333334Y-91050057D02*
X156095238Y-91050057D01*
X156666667Y-90431009D02*
X156809524Y-90478628D01*
X156809524Y-90478628D02*
X156857143Y-90526247D01*
X156857143Y-90526247D02*
X156904762Y-90621485D01*
X156904762Y-90621485D02*
X156904762Y-90764342D01*
X156904762Y-90764342D02*
X156857143Y-90859580D01*
X156857143Y-90859580D02*
X156809524Y-90907200D01*
X156809524Y-90907200D02*
X156714286Y-90954819D01*
X156714286Y-90954819D02*
X156333334Y-90954819D01*
X156333334Y-90954819D02*
X156333334Y-89954819D01*
X156333334Y-89954819D02*
X156666667Y-89954819D01*
X156666667Y-89954819D02*
X156761905Y-90002438D01*
X156761905Y-90002438D02*
X156809524Y-90050057D01*
X156809524Y-90050057D02*
X156857143Y-90145295D01*
X156857143Y-90145295D02*
X156857143Y-90240533D01*
X156857143Y-90240533D02*
X156809524Y-90335771D01*
X156809524Y-90335771D02*
X156761905Y-90383390D01*
X156761905Y-90383390D02*
X156666667Y-90431009D01*
X156666667Y-90431009D02*
X156333334Y-90431009D01*
X157190477Y-89954819D02*
X157761905Y-89954819D01*
X157476191Y-90954819D02*
X157476191Y-89954819D01*
X158095239Y-90954819D02*
X158095239Y-89954819D01*
X158095239Y-89954819D02*
X158666667Y-90954819D01*
X158666667Y-90954819D02*
X158666667Y-89954819D01*
X159666667Y-90954819D02*
X159095239Y-90954819D01*
X159380953Y-90954819D02*
X159380953Y-89954819D01*
X159380953Y-89954819D02*
X159285715Y-90097676D01*
X159285715Y-90097676D02*
X159190477Y-90192914D01*
X159190477Y-90192914D02*
X159095239Y-90240533D01*
D13*
X149889519Y-116815616D02*
X149908267Y-116834364D01*
X149908267Y-116834364D02*
X149927014Y-116890607D01*
X149927014Y-116890607D02*
X149927014Y-116928102D01*
X149927014Y-116928102D02*
X149908267Y-116984345D01*
X149908267Y-116984345D02*
X149870771Y-117021841D01*
X149870771Y-117021841D02*
X149833276Y-117040588D01*
X149833276Y-117040588D02*
X149758285Y-117059336D01*
X149758285Y-117059336D02*
X149702042Y-117059336D01*
X149702042Y-117059336D02*
X149627052Y-117040588D01*
X149627052Y-117040588D02*
X149589556Y-117021841D01*
X149589556Y-117021841D02*
X149552061Y-116984345D01*
X149552061Y-116984345D02*
X149533313Y-116928102D01*
X149533313Y-116928102D02*
X149533313Y-116890607D01*
X149533313Y-116890607D02*
X149552061Y-116834364D01*
X149552061Y-116834364D02*
X149570809Y-116815616D01*
X149570809Y-116665635D02*
X149552061Y-116646887D01*
X149552061Y-116646887D02*
X149533313Y-116609392D01*
X149533313Y-116609392D02*
X149533313Y-116515654D01*
X149533313Y-116515654D02*
X149552061Y-116478158D01*
X149552061Y-116478158D02*
X149570809Y-116459411D01*
X149570809Y-116459411D02*
X149608304Y-116440663D01*
X149608304Y-116440663D02*
X149645799Y-116440663D01*
X149645799Y-116440663D02*
X149702042Y-116459411D01*
X149702042Y-116459411D02*
X149927014Y-116684383D01*
X149927014Y-116684383D02*
X149927014Y-116440663D01*
D14*
%TO.C,FADETUBE-LOGO*%
G36*
X167997127Y-150057911D02*
G01*
X167997127Y-150141382D01*
X167842551Y-150141382D01*
X167687974Y-150141382D01*
X167687974Y-150564922D01*
X167687974Y-150988461D01*
X167579771Y-150988461D01*
X167471567Y-150988461D01*
X167471567Y-150564922D01*
X167471567Y-150141382D01*
X167320082Y-150141382D01*
X167168598Y-150141382D01*
X167168598Y-150057911D01*
X167168598Y-149974440D01*
X167582862Y-149974440D01*
X167997127Y-149974440D01*
X167997127Y-150057911D01*
G37*
G36*
X168584518Y-150611145D02*
G01*
X168584518Y-150988461D01*
X168485589Y-150988461D01*
X168386660Y-150988461D01*
X168386660Y-150954461D01*
X168386660Y-150920460D01*
X168351085Y-150948086D01*
X168326918Y-150964511D01*
X168299947Y-150979365D01*
X168279684Y-150988039D01*
X168239311Y-150998064D01*
X168193398Y-151003344D01*
X168148007Y-151003409D01*
X168121052Y-151000326D01*
X168069382Y-150985780D01*
X168025298Y-150961907D01*
X167989399Y-150929130D01*
X167963068Y-150889429D01*
X167955397Y-150873849D01*
X167948975Y-150859175D01*
X167943693Y-150844171D01*
X167939439Y-150827601D01*
X167936103Y-150808229D01*
X167933573Y-150784817D01*
X167931739Y-150756128D01*
X167930489Y-150720928D01*
X167929713Y-150677978D01*
X167929299Y-150626042D01*
X167929137Y-150563885D01*
X167929114Y-150511067D01*
X167929114Y-150234128D01*
X168031134Y-150234128D01*
X168133154Y-150234128D01*
X168133154Y-150498689D01*
X168133167Y-150562799D01*
X168133244Y-150615749D01*
X168133441Y-150658747D01*
X168133818Y-150692999D01*
X168134430Y-150719713D01*
X168135336Y-150740096D01*
X168136593Y-150755354D01*
X168138259Y-150766695D01*
X168140391Y-150775325D01*
X168143047Y-150782451D01*
X168146283Y-150789281D01*
X168147066Y-150790839D01*
X168164142Y-150815350D01*
X168187076Y-150831013D01*
X168217675Y-150838771D01*
X168241358Y-150840024D01*
X168280148Y-150837599D01*
X168310574Y-150829655D01*
X168335822Y-150815092D01*
X168349898Y-150802633D01*
X168374164Y-150778367D01*
X168375774Y-150507793D01*
X168377385Y-150237220D01*
X168480951Y-150235524D01*
X168584518Y-150233829D01*
X168584518Y-150611145D01*
G37*
G36*
X166525560Y-150453627D02*
G01*
X166525560Y-150988461D01*
X166433535Y-150988461D01*
X166396469Y-150988414D01*
X166369986Y-150987703D01*
X166352306Y-150985469D01*
X166341646Y-150980856D01*
X166336226Y-150973005D01*
X166334264Y-150961061D01*
X166333980Y-150944166D01*
X166333969Y-150940542D01*
X166332907Y-150926856D01*
X166330434Y-150920503D01*
X166330156Y-150920447D01*
X166324003Y-150924278D01*
X166311507Y-150934306D01*
X166295850Y-150947939D01*
X166256104Y-150975656D01*
X166209627Y-150994438D01*
X166158761Y-151003751D01*
X166105848Y-151003063D01*
X166075749Y-150998010D01*
X166022336Y-150979882D01*
X165975399Y-150951245D01*
X165934992Y-150912154D01*
X165901166Y-150862668D01*
X165873975Y-150802842D01*
X165862491Y-150767721D01*
X165857225Y-150748069D01*
X165853456Y-150729378D01*
X165850947Y-150708978D01*
X165849460Y-150684200D01*
X165848759Y-150652373D01*
X165848668Y-150627897D01*
X166052400Y-150627897D01*
X166053629Y-150666796D01*
X166056409Y-150701575D01*
X166060726Y-150729118D01*
X166064149Y-150741139D01*
X166083171Y-150780924D01*
X166106038Y-150810602D01*
X166128283Y-150827273D01*
X166157208Y-150836949D01*
X166191727Y-150840135D01*
X166226917Y-150836843D01*
X166257856Y-150827091D01*
X166258292Y-150826881D01*
X166279442Y-150813049D01*
X166298922Y-150794621D01*
X166303525Y-150788855D01*
X166321519Y-150764016D01*
X166321519Y-150610346D01*
X166321519Y-150456677D01*
X166292149Y-150426400D01*
X166265155Y-150402966D01*
X166240152Y-150389976D01*
X166238047Y-150389356D01*
X166195117Y-150382908D01*
X166156524Y-150387890D01*
X166122866Y-150403949D01*
X166094739Y-150430727D01*
X166072743Y-150467870D01*
X166063214Y-150493422D01*
X166058127Y-150517641D01*
X166054637Y-150550204D01*
X166052732Y-150587994D01*
X166052400Y-150627897D01*
X165848668Y-150627897D01*
X165848607Y-150611295D01*
X165849635Y-150554639D01*
X165852952Y-150507590D01*
X165859072Y-150467514D01*
X165868505Y-150431780D01*
X165881764Y-150397757D01*
X165895546Y-150369856D01*
X165928694Y-150319219D01*
X165968441Y-150278979D01*
X166014408Y-150249348D01*
X166066219Y-150230539D01*
X166123495Y-150222765D01*
X166156490Y-150223224D01*
X166204326Y-150229585D01*
X166244893Y-150243015D01*
X166281904Y-150264900D01*
X166294748Y-150274850D01*
X166321519Y-150296787D01*
X166321519Y-150107789D01*
X166321519Y-149918792D01*
X166423539Y-149918792D01*
X166525560Y-149918792D01*
X166525560Y-150453627D01*
G37*
G36*
X166952958Y-150226600D02*
G01*
X167013773Y-150241132D01*
X167067056Y-150265468D01*
X167112834Y-150299624D01*
X167151131Y-150343617D01*
X167181974Y-150397465D01*
X167195575Y-150430749D01*
X167207568Y-150472760D01*
X167216644Y-150522121D01*
X167222146Y-150574024D01*
X167223421Y-150623660D01*
X167223110Y-150632935D01*
X167221154Y-150676217D01*
X166981460Y-150677835D01*
X166741767Y-150679454D01*
X166745704Y-150696384D01*
X166762249Y-150743338D01*
X166787548Y-150782050D01*
X166820572Y-150811840D01*
X166860292Y-150832028D01*
X166905678Y-150841935D01*
X166955701Y-150840881D01*
X166962960Y-150839829D01*
X167006691Y-150829115D01*
X167044052Y-150810946D01*
X167079715Y-150783049D01*
X167079743Y-150783023D01*
X167107137Y-150757772D01*
X167151779Y-150805988D01*
X167170637Y-150826593D01*
X167186440Y-150844302D01*
X167197213Y-150856873D01*
X167200772Y-150861533D01*
X167200486Y-150872400D01*
X167190810Y-150887288D01*
X167173500Y-150904862D01*
X167150313Y-150923786D01*
X167123004Y-150942726D01*
X167093331Y-150960347D01*
X167063049Y-150975314D01*
X167038649Y-150984784D01*
X166993354Y-150996011D01*
X166941979Y-151002651D01*
X166890101Y-151004255D01*
X166844177Y-151000511D01*
X166776654Y-150984302D01*
X166716141Y-150958113D01*
X166663173Y-150922421D01*
X166618289Y-150877707D01*
X166582024Y-150824449D01*
X166554914Y-150763126D01*
X166546235Y-150734509D01*
X166539970Y-150700132D01*
X166536539Y-150657614D01*
X166535894Y-150610842D01*
X166537984Y-150563700D01*
X166542507Y-150522380D01*
X166747674Y-150522380D01*
X166751569Y-150529219D01*
X166761580Y-150533550D01*
X166778973Y-150535938D01*
X166805011Y-150536948D01*
X166840956Y-150537146D01*
X166885042Y-150537098D01*
X167021934Y-150537098D01*
X167018394Y-150502800D01*
X167009069Y-150461447D01*
X166990758Y-150428376D01*
X166963925Y-150404052D01*
X166929031Y-150388939D01*
X166900314Y-150384109D01*
X166859348Y-150385631D01*
X166824676Y-150397500D01*
X166795872Y-150420009D01*
X166772511Y-150453455D01*
X166760061Y-150481151D01*
X166753184Y-150498911D01*
X166748634Y-150512465D01*
X166747674Y-150522380D01*
X166542507Y-150522380D01*
X166542760Y-150520073D01*
X166549388Y-150486746D01*
X166572107Y-150422000D01*
X166603724Y-150365306D01*
X166643535Y-150317222D01*
X166690835Y-150278304D01*
X166744918Y-150249110D01*
X166805080Y-150230196D01*
X166870616Y-150222120D01*
X166884587Y-150221853D01*
X166952958Y-150226600D01*
G37*
G36*
X165264216Y-150057911D02*
G01*
X165264216Y-150141382D01*
X165038534Y-150141382D01*
X164812853Y-150141382D01*
X164812853Y-150274318D01*
X164812853Y-150407254D01*
X165013287Y-150407254D01*
X165071331Y-150407361D01*
X165118019Y-150407710D01*
X165154362Y-150408338D01*
X165181367Y-150409283D01*
X165200045Y-150410584D01*
X165211405Y-150412279D01*
X165216456Y-150414407D01*
X165216840Y-150414983D01*
X165219549Y-150417015D01*
X165220446Y-150411685D01*
X165224932Y-150394361D01*
X165235796Y-150371608D01*
X165250928Y-150346993D01*
X165268219Y-150324082D01*
X165279403Y-150312000D01*
X165321507Y-150279183D01*
X165371710Y-150253443D01*
X165427776Y-150235062D01*
X165487472Y-150224323D01*
X165548564Y-150221507D01*
X165608819Y-150226896D01*
X165666001Y-150240772D01*
X165707604Y-150257956D01*
X165744378Y-150281954D01*
X165778321Y-150314107D01*
X165806082Y-150350801D01*
X165821590Y-150380996D01*
X165825157Y-150390375D01*
X165828095Y-150399731D01*
X165830486Y-150410374D01*
X165832415Y-150423613D01*
X165833963Y-150440757D01*
X165835214Y-150463116D01*
X165836252Y-150491999D01*
X165837159Y-150528714D01*
X165838019Y-150574573D01*
X165838915Y-150630882D01*
X165839363Y-150660759D01*
X165840314Y-150722557D01*
X165841203Y-150773316D01*
X165842112Y-150814363D01*
X165843121Y-150847026D01*
X165844311Y-150872631D01*
X165845762Y-150892504D01*
X165847556Y-150907974D01*
X165849774Y-150920366D01*
X165852495Y-150931008D01*
X165855802Y-150941226D01*
X165856577Y-150943439D01*
X165863501Y-150963507D01*
X165868393Y-150978569D01*
X165870155Y-150985175D01*
X165864308Y-150986255D01*
X165848107Y-150987187D01*
X165823564Y-150987905D01*
X165792693Y-150988348D01*
X165765523Y-150988461D01*
X165660891Y-150988461D01*
X165653758Y-150965275D01*
X165648397Y-150947949D01*
X165644305Y-150934899D01*
X165643806Y-150933338D01*
X165639482Y-150930054D01*
X165630192Y-150935401D01*
X165621090Y-150943508D01*
X165590080Y-150966650D01*
X165551436Y-150985811D01*
X165509761Y-150998789D01*
X165502425Y-151000274D01*
X165472150Y-151004927D01*
X165446567Y-151006051D01*
X165420127Y-151003512D01*
X165388840Y-150997514D01*
X165334151Y-150980484D01*
X165288357Y-150954961D01*
X165251163Y-150920728D01*
X165222275Y-150877566D01*
X165219616Y-150872312D01*
X165209907Y-150851525D01*
X165203904Y-150834463D01*
X165200738Y-150816819D01*
X165199538Y-150794284D01*
X165199405Y-150772163D01*
X165199472Y-150768535D01*
X165402187Y-150768535D01*
X165408157Y-150797687D01*
X165420942Y-150819037D01*
X165444334Y-150837067D01*
X165474781Y-150847204D01*
X165509620Y-150849203D01*
X165546186Y-150842817D01*
X165571830Y-150833011D01*
X165593000Y-150819683D01*
X165612737Y-150802331D01*
X165616658Y-150797914D01*
X165625029Y-150787163D01*
X165630406Y-150777341D01*
X165633450Y-150765382D01*
X165634824Y-150748217D01*
X165635188Y-150722779D01*
X165635199Y-150711906D01*
X165635199Y-150648393D01*
X165571823Y-150648427D01*
X165531029Y-150649380D01*
X165499846Y-150652638D01*
X165475627Y-150658877D01*
X165455726Y-150668772D01*
X165437950Y-150682585D01*
X165417462Y-150707952D01*
X165405415Y-150737613D01*
X165402187Y-150768535D01*
X165199472Y-150768535D01*
X165199964Y-150742032D01*
X165201999Y-150720018D01*
X165206255Y-150701895D01*
X165213475Y-150683436D01*
X165215983Y-150677946D01*
X165242671Y-150635092D01*
X165279625Y-150599128D01*
X165326841Y-150570058D01*
X165384312Y-150547885D01*
X165392032Y-150545650D01*
X165419264Y-150540324D01*
X165458514Y-150536197D01*
X165509492Y-150533296D01*
X165532399Y-150532506D01*
X165636732Y-150529453D01*
X165633871Y-150485357D01*
X165627644Y-150443741D01*
X165614656Y-150412165D01*
X165594332Y-150389955D01*
X165566094Y-150376442D01*
X165535784Y-150371317D01*
X165496516Y-150372852D01*
X165464331Y-150383221D01*
X165440165Y-150401852D01*
X165424949Y-150428174D01*
X165421442Y-150441443D01*
X165417416Y-150462901D01*
X165316084Y-150462901D01*
X165214751Y-150462901D01*
X165214751Y-150518549D01*
X165214751Y-150574196D01*
X165013802Y-150574196D01*
X164812853Y-150574196D01*
X164812853Y-150781329D01*
X164812853Y-150988461D01*
X164704649Y-150988461D01*
X164596446Y-150988461D01*
X164596446Y-150481450D01*
X164596446Y-149974440D01*
X164930331Y-149974440D01*
X165264216Y-149974440D01*
X165264216Y-150057911D01*
G37*
G36*
X168819474Y-150108016D02*
G01*
X168819474Y-150297240D01*
X168842378Y-150277129D01*
X168861481Y-150262911D01*
X168885397Y-150248450D01*
X168899571Y-150241266D01*
X168941466Y-150227867D01*
X168989234Y-150222222D01*
X169039298Y-150224113D01*
X169088080Y-150233320D01*
X169132001Y-150249626D01*
X169144307Y-150256226D01*
X169180945Y-150283862D01*
X169214780Y-150321085D01*
X169243943Y-150365151D01*
X169266563Y-150413317D01*
X169278876Y-150453752D01*
X169286941Y-150489263D01*
X169295048Y-150462170D01*
X169318908Y-150402961D01*
X169352396Y-150350714D01*
X169394421Y-150306228D01*
X169443891Y-150270300D01*
X169499713Y-150243730D01*
X169560795Y-150227315D01*
X169623682Y-150221853D01*
X169692053Y-150226600D01*
X169752867Y-150241132D01*
X169806151Y-150265468D01*
X169851929Y-150299624D01*
X169890226Y-150343617D01*
X169921068Y-150397465D01*
X169934669Y-150430749D01*
X169946663Y-150472760D01*
X169955738Y-150522121D01*
X169961241Y-150574024D01*
X169962516Y-150623660D01*
X169962204Y-150632935D01*
X169960248Y-150676217D01*
X169720555Y-150677835D01*
X169480862Y-150679454D01*
X169484799Y-150696384D01*
X169501343Y-150743338D01*
X169526642Y-150782050D01*
X169559667Y-150811840D01*
X169599387Y-150832028D01*
X169644773Y-150841935D01*
X169694796Y-150840881D01*
X169702054Y-150839829D01*
X169745785Y-150829115D01*
X169783146Y-150810946D01*
X169818809Y-150783049D01*
X169818837Y-150783023D01*
X169846232Y-150757772D01*
X169890874Y-150805988D01*
X169909732Y-150826593D01*
X169925535Y-150844302D01*
X169936307Y-150856873D01*
X169939866Y-150861533D01*
X169939635Y-150872499D01*
X169929943Y-150887440D01*
X169912515Y-150905056D01*
X169889074Y-150924045D01*
X169861345Y-150943108D01*
X169831052Y-150960944D01*
X169799919Y-150976252D01*
X169774756Y-150986079D01*
X169749811Y-150993841D01*
X169727635Y-150998812D01*
X169703976Y-151001587D01*
X169674586Y-151002761D01*
X169654187Y-151002940D01*
X169599510Y-151001040D01*
X169552526Y-150994461D01*
X169509165Y-150982355D01*
X169465362Y-150963870D01*
X169463917Y-150963168D01*
X169416043Y-150933470D01*
X169372445Y-150894072D01*
X169335302Y-150847460D01*
X169306798Y-150796121D01*
X169298046Y-150774090D01*
X169286832Y-150742119D01*
X169273957Y-150786456D01*
X169253345Y-150844094D01*
X169227616Y-150891504D01*
X169195854Y-150930088D01*
X169161975Y-150957999D01*
X169119321Y-150980773D01*
X169069854Y-150996289D01*
X169017272Y-151003804D01*
X168965274Y-151002574D01*
X168950717Y-151000456D01*
X168905436Y-150986993D01*
X168862705Y-150964110D01*
X168831629Y-150938786D01*
X168807108Y-150914264D01*
X168807108Y-150932041D01*
X168805810Y-150951787D01*
X168803243Y-150969139D01*
X168799379Y-150988461D01*
X168707406Y-150988461D01*
X168615433Y-150988461D01*
X168615433Y-150610388D01*
X168819474Y-150610388D01*
X168819574Y-150660441D01*
X168820052Y-150699762D01*
X168821173Y-150729985D01*
X168823201Y-150752743D01*
X168826400Y-150769671D01*
X168831037Y-150782401D01*
X168837375Y-150792567D01*
X168845680Y-150801803D01*
X168851392Y-150807274D01*
X168878321Y-150824919D01*
X168912229Y-150836210D01*
X168949238Y-150840719D01*
X168985472Y-150838016D01*
X169017055Y-150827674D01*
X169020284Y-150825936D01*
X169045976Y-150804296D01*
X169065961Y-150771760D01*
X169080210Y-150728418D01*
X169088694Y-150674360D01*
X169091385Y-150611295D01*
X169088181Y-150547781D01*
X169083636Y-150522380D01*
X169486769Y-150522380D01*
X169490663Y-150529219D01*
X169500675Y-150533550D01*
X169518068Y-150535938D01*
X169544105Y-150536948D01*
X169580051Y-150537146D01*
X169624136Y-150537098D01*
X169761029Y-150537098D01*
X169757489Y-150502800D01*
X169748163Y-150461447D01*
X169729853Y-150428376D01*
X169703020Y-150404052D01*
X169668125Y-150388939D01*
X169639409Y-150384109D01*
X169598442Y-150385631D01*
X169563770Y-150397500D01*
X169534967Y-150420009D01*
X169511606Y-150453455D01*
X169499155Y-150481151D01*
X169492278Y-150498911D01*
X169487728Y-150512465D01*
X169486769Y-150522380D01*
X169083636Y-150522380D01*
X169078695Y-150494765D01*
X169062862Y-150452055D01*
X169040618Y-150419459D01*
X169021407Y-150402701D01*
X169006775Y-150393650D01*
X168992700Y-150388477D01*
X168974836Y-150386144D01*
X168949847Y-150385613D01*
X168908095Y-150389424D01*
X168874629Y-150401356D01*
X168847805Y-150422160D01*
X168835016Y-150438046D01*
X168819474Y-150460474D01*
X168819474Y-150610388D01*
X168615433Y-150610388D01*
X168615433Y-150460474D01*
X168615433Y-150453627D01*
X168615433Y-149918792D01*
X168717453Y-149918792D01*
X168819474Y-149918792D01*
X168819474Y-150108016D01*
G37*
G36*
X163291626Y-150013517D02*
G01*
X163372376Y-150015111D01*
X163450061Y-150017751D01*
X163523141Y-150021458D01*
X163590077Y-150026251D01*
X163637227Y-150030777D01*
X163695941Y-150039633D01*
X163743801Y-150052440D01*
X163781831Y-150069705D01*
X163811054Y-150091933D01*
X163832493Y-150119631D01*
X163838060Y-150130112D01*
X163847181Y-150150331D01*
X163854746Y-150170583D01*
X163860896Y-150192233D01*
X163865769Y-150216646D01*
X163869508Y-150245187D01*
X163872251Y-150279221D01*
X163874140Y-150320114D01*
X163875315Y-150369231D01*
X163875915Y-150427937D01*
X163876082Y-150497597D01*
X163876082Y-150500000D01*
X163876009Y-150561617D01*
X163875773Y-150612327D01*
X163875314Y-150653587D01*
X163874574Y-150686854D01*
X163873493Y-150713588D01*
X163872013Y-150735244D01*
X163870074Y-150753283D01*
X163867618Y-150769160D01*
X163864585Y-150784334D01*
X163864566Y-150784420D01*
X163853087Y-150828629D01*
X163838956Y-150864873D01*
X163820851Y-150894096D01*
X163797449Y-150917240D01*
X163767428Y-150935248D01*
X163729466Y-150949062D01*
X163682241Y-150959625D01*
X163624430Y-150967880D01*
X163604065Y-150970126D01*
X163585815Y-150971411D01*
X163556771Y-150972676D01*
X163518505Y-150973903D01*
X163472589Y-150975073D01*
X163420594Y-150976167D01*
X163364093Y-150977168D01*
X163304658Y-150978056D01*
X163243860Y-150978814D01*
X163183271Y-150979422D01*
X163124464Y-150979862D01*
X163069010Y-150980115D01*
X163018481Y-150980164D01*
X162974450Y-150979989D01*
X162938488Y-150979571D01*
X162912167Y-150978894D01*
X162902288Y-150978398D01*
X162829331Y-150972963D01*
X162767613Y-150967003D01*
X162716006Y-150960158D01*
X162673383Y-150952067D01*
X162638619Y-150942371D01*
X162610585Y-150930708D01*
X162588156Y-150916719D01*
X162570205Y-150900044D01*
X162555604Y-150880323D01*
X162546919Y-150864800D01*
X162537247Y-150842752D01*
X162529551Y-150817845D01*
X162523424Y-150787916D01*
X162518459Y-150750800D01*
X162514248Y-150704336D01*
X162512708Y-150682994D01*
X162512255Y-150674537D01*
X162730037Y-150674537D01*
X162740708Y-150691458D01*
X162749257Y-150697925D01*
X162767195Y-150704388D01*
X162794407Y-150708742D01*
X162827981Y-150710994D01*
X162865007Y-150711147D01*
X162902574Y-150709207D01*
X162937772Y-150705179D01*
X162967689Y-150699068D01*
X162972961Y-150697541D01*
X162995299Y-150689575D01*
X163014157Y-150679712D01*
X163033360Y-150665521D01*
X163056731Y-150644568D01*
X163057863Y-150643501D01*
X163101705Y-150602143D01*
X163065771Y-150569488D01*
X163048295Y-150554319D01*
X163034163Y-150543366D01*
X163025892Y-150538544D01*
X163025062Y-150538511D01*
X163018671Y-150543127D01*
X163005377Y-150554173D01*
X162987424Y-150569754D01*
X162975474Y-150580379D01*
X162930661Y-150620569D01*
X162842899Y-150623661D01*
X162807129Y-150625131D01*
X162781575Y-150626824D01*
X162764088Y-150629056D01*
X162752519Y-150632144D01*
X162744718Y-150636407D01*
X162742150Y-150638531D01*
X162730406Y-150655957D01*
X162730037Y-150674537D01*
X162512255Y-150674537D01*
X162509306Y-150619495D01*
X162507429Y-150552966D01*
X162507016Y-150485453D01*
X162508001Y-150419000D01*
X162510322Y-150355652D01*
X162511576Y-150335339D01*
X162728595Y-150335339D01*
X162735562Y-150353471D01*
X162745454Y-150363524D01*
X162753657Y-150368986D01*
X162763473Y-150372648D01*
X162777418Y-150374859D01*
X162798006Y-150375969D01*
X162827754Y-150376326D01*
X162837797Y-150376338D01*
X162868537Y-150376781D01*
X162895848Y-150377985D01*
X162916741Y-150379766D01*
X162928163Y-150381914D01*
X162935986Y-150387447D01*
X162951492Y-150400538D01*
X162973505Y-150420117D01*
X163000851Y-150445114D01*
X163032352Y-150474458D01*
X163066833Y-150507082D01*
X163087780Y-150527128D01*
X163133958Y-150571282D01*
X163172619Y-150607509D01*
X163205001Y-150636614D01*
X163232339Y-150659406D01*
X163255871Y-150676691D01*
X163276834Y-150689275D01*
X163296465Y-150697967D01*
X163316000Y-150703571D01*
X163336677Y-150706896D01*
X163359733Y-150708748D01*
X163366779Y-150709112D01*
X163421665Y-150711736D01*
X163421665Y-150735993D01*
X163426759Y-150761736D01*
X163441268Y-150779933D01*
X163464036Y-150789451D01*
X163477438Y-150790603D01*
X163497117Y-150788918D01*
X163513459Y-150784753D01*
X163515877Y-150783635D01*
X163525751Y-150777444D01*
X163543212Y-150765626D01*
X163565856Y-150749837D01*
X163591277Y-150731736D01*
X163593102Y-150730422D01*
X163619591Y-150711137D01*
X163637514Y-150697257D01*
X163648454Y-150687121D01*
X163653989Y-150679066D01*
X163655702Y-150671428D01*
X163655418Y-150664868D01*
X163653292Y-150655629D01*
X163647715Y-150646376D01*
X163637012Y-150635409D01*
X163619506Y-150621027D01*
X163593523Y-150601531D01*
X163591699Y-150600191D01*
X163557856Y-150575825D01*
X163531757Y-150558422D01*
X163511546Y-150547150D01*
X163495368Y-150541178D01*
X163481368Y-150539672D01*
X163467691Y-150541801D01*
X163463921Y-150542858D01*
X163440073Y-150554888D01*
X163426160Y-150574083D01*
X163421665Y-150601002D01*
X163421665Y-150625056D01*
X163379032Y-150622647D01*
X163336400Y-150620238D01*
X163245721Y-150533841D01*
X163194580Y-150485139D01*
X163151514Y-150444243D01*
X163115655Y-150410417D01*
X163101371Y-150397114D01*
X163168607Y-150397114D01*
X163203936Y-150429729D01*
X163221442Y-150445252D01*
X163235832Y-150456846D01*
X163244470Y-150462415D01*
X163245292Y-150462622D01*
X163252029Y-150458642D01*
X163265166Y-150447723D01*
X163282476Y-150431783D01*
X163293172Y-150421370D01*
X163335024Y-150379839D01*
X163378345Y-150377391D01*
X163421665Y-150374943D01*
X163421665Y-150397688D01*
X163425093Y-150423926D01*
X163436410Y-150442071D01*
X163456395Y-150454328D01*
X163472744Y-150459041D01*
X163489703Y-150458804D01*
X163509055Y-150452905D01*
X163532582Y-150440632D01*
X163562069Y-150421274D01*
X163590153Y-150400946D01*
X163621894Y-150376928D01*
X163643611Y-150358189D01*
X163655341Y-150342819D01*
X163657122Y-150328909D01*
X163648993Y-150314548D01*
X163630990Y-150297828D01*
X163603152Y-150276838D01*
X163592759Y-150269330D01*
X163561821Y-150247169D01*
X163538866Y-150231271D01*
X163521898Y-150220598D01*
X163508920Y-150214113D01*
X163497934Y-150210777D01*
X163486943Y-150209553D01*
X163477438Y-150209396D01*
X163451075Y-150214361D01*
X163432553Y-150228592D01*
X163422874Y-150251091D01*
X163421665Y-150264762D01*
X163421665Y-150289776D01*
X163382774Y-150289776D01*
X163345133Y-150292398D01*
X163307653Y-150299578D01*
X163274540Y-150310283D01*
X163252418Y-150321756D01*
X163237929Y-150332934D01*
X163218978Y-150349240D01*
X163200844Y-150366032D01*
X163168607Y-150397114D01*
X163101371Y-150397114D01*
X163086135Y-150382925D01*
X163062087Y-150361033D01*
X163042643Y-150344004D01*
X163026934Y-150331104D01*
X163014093Y-150321597D01*
X163003251Y-150314748D01*
X162993542Y-150309822D01*
X162984097Y-150306083D01*
X162974048Y-150302795D01*
X162972440Y-150302297D01*
X162944200Y-150295824D01*
X162910026Y-150291418D01*
X162872834Y-150289083D01*
X162835539Y-150288822D01*
X162801055Y-150290637D01*
X162772300Y-150294531D01*
X162752188Y-150300507D01*
X162749257Y-150302074D01*
X162733210Y-150317409D01*
X162728595Y-150335339D01*
X162511576Y-150335339D01*
X162513916Y-150297454D01*
X162518717Y-150246451D01*
X162524664Y-150204687D01*
X162528098Y-150187690D01*
X162542872Y-150142347D01*
X162564685Y-150106164D01*
X162594588Y-150078147D01*
X162633634Y-150057300D01*
X162681096Y-150043020D01*
X162720120Y-150036082D01*
X162769941Y-150030012D01*
X162829019Y-150024831D01*
X162895813Y-150020559D01*
X162968784Y-150017215D01*
X163046390Y-150014819D01*
X163127093Y-150013391D01*
X163209352Y-150012951D01*
X163291626Y-150013517D01*
G37*
%TO.C,ONDAAUDIO-LOGO*%
G36*
X178338844Y-151577520D02*
G01*
X178338844Y-152222190D01*
X178268238Y-152222190D01*
X178197631Y-152222190D01*
X178197631Y-151577520D01*
X178197631Y-150932850D01*
X178268238Y-150932850D01*
X178338844Y-150932850D01*
X178338844Y-151577520D01*
G37*
G36*
X176275900Y-149784723D02*
G01*
X176275900Y-150644283D01*
X176111428Y-150644283D01*
X175946956Y-150644283D01*
X175523550Y-150128795D01*
X175100145Y-149613306D01*
X175098575Y-150128795D01*
X175097005Y-150644283D01*
X174897499Y-150644283D01*
X174697993Y-150644283D01*
X174697993Y-149784723D01*
X174697993Y-148925163D01*
X174865301Y-148925513D01*
X175032608Y-148925862D01*
X175456248Y-149443788D01*
X175879888Y-149961713D01*
X175881458Y-149443438D01*
X175883028Y-148925163D01*
X176079464Y-148925163D01*
X176275900Y-148925163D01*
X176275900Y-149784723D01*
G37*
G36*
X174538441Y-151345746D02*
G01*
X174538476Y-151427724D01*
X174538563Y-151498416D01*
X174538726Y-151558814D01*
X174538992Y-151609909D01*
X174539385Y-151652696D01*
X174539930Y-151688165D01*
X174540654Y-151717311D01*
X174541581Y-151741124D01*
X174542736Y-151760599D01*
X174544144Y-151776727D01*
X174545832Y-151790501D01*
X174547823Y-151802914D01*
X174550143Y-151814957D01*
X174550395Y-151816184D01*
X174569010Y-151882874D01*
X174595648Y-151940712D01*
X174630680Y-151990446D01*
X174642947Y-152003968D01*
X174684061Y-152040644D01*
X174729349Y-152068721D01*
X174780287Y-152088732D01*
X174838348Y-152101208D01*
X174905007Y-152106684D01*
X174928233Y-152107044D01*
X174968403Y-152106532D01*
X175000144Y-152104589D01*
X175027260Y-152100834D01*
X175053557Y-152094886D01*
X175056024Y-152094227D01*
X175119077Y-152071533D01*
X175173803Y-152039839D01*
X175219997Y-151999359D01*
X175257451Y-151950306D01*
X175285957Y-151892893D01*
X175302247Y-151840816D01*
X175306531Y-151821565D01*
X175310231Y-151800888D01*
X175313388Y-151777788D01*
X175316043Y-151751271D01*
X175318237Y-151720341D01*
X175320011Y-151684004D01*
X175321404Y-151641264D01*
X175322457Y-151591125D01*
X175323212Y-151532593D01*
X175323709Y-151464672D01*
X175323987Y-151386367D01*
X175324086Y-151305837D01*
X175324244Y-150932850D01*
X175391781Y-150932850D01*
X175459318Y-150932850D01*
X175459301Y-151327326D01*
X175459243Y-151414558D01*
X175459047Y-151490537D01*
X175458664Y-151556289D01*
X175458049Y-151612842D01*
X175457155Y-151661221D01*
X175455933Y-151702452D01*
X175454337Y-151737563D01*
X175452320Y-151767579D01*
X175449836Y-151793528D01*
X175446836Y-151816435D01*
X175443274Y-151837326D01*
X175439102Y-151857228D01*
X175434275Y-151877168D01*
X175434053Y-151878034D01*
X175409603Y-151949884D01*
X175374987Y-152015359D01*
X175330955Y-152073715D01*
X175278253Y-152124207D01*
X175217631Y-152166090D01*
X175149837Y-152198620D01*
X175094005Y-152216620D01*
X175060682Y-152223108D01*
X175018677Y-152228024D01*
X174971501Y-152231260D01*
X174922662Y-152232702D01*
X174875672Y-152232240D01*
X174834040Y-152229763D01*
X174804466Y-152225798D01*
X174734968Y-152208920D01*
X174674214Y-152185928D01*
X174619645Y-152155506D01*
X174568702Y-152116339D01*
X174541140Y-152090432D01*
X174503350Y-152048930D01*
X174473161Y-152006613D01*
X174448813Y-151960332D01*
X174428544Y-151906937D01*
X174417242Y-151868834D01*
X174400590Y-151807759D01*
X174398566Y-151370304D01*
X174396542Y-150932850D01*
X174467452Y-150932850D01*
X174538361Y-150932850D01*
X174538441Y-151345746D01*
G37*
G36*
X179425229Y-148926616D02*
G01*
X179624430Y-148928233D01*
X180006969Y-149783795D01*
X180050348Y-149880829D01*
X180092341Y-149974794D01*
X180132676Y-150065079D01*
X180171081Y-150151075D01*
X180207284Y-150232173D01*
X180241015Y-150307763D01*
X180272000Y-150377235D01*
X180299968Y-150439979D01*
X180324647Y-150495387D01*
X180345766Y-150542848D01*
X180363053Y-150581752D01*
X180376235Y-150611491D01*
X180385042Y-150631455D01*
X180389202Y-150641034D01*
X180389509Y-150641820D01*
X180383603Y-150642395D01*
X180366823Y-150642914D01*
X180340572Y-150643362D01*
X180306256Y-150643724D01*
X180265278Y-150643983D01*
X180219044Y-150644124D01*
X180179224Y-150644142D01*
X179968939Y-150644000D01*
X179893062Y-150459950D01*
X179817185Y-150275900D01*
X179420304Y-150276025D01*
X179023422Y-150276149D01*
X178947295Y-150460216D01*
X178871168Y-150644283D01*
X178665892Y-150644283D01*
X178612470Y-150644122D01*
X178565502Y-150643657D01*
X178526057Y-150642918D01*
X178495208Y-150641934D01*
X178474025Y-150640735D01*
X178463581Y-150639351D01*
X178462662Y-150638693D01*
X178465352Y-150632544D01*
X178472769Y-150615793D01*
X178484640Y-150589054D01*
X178500691Y-150552941D01*
X178520650Y-150508067D01*
X178544242Y-150455046D01*
X178571196Y-150394492D01*
X178601237Y-150327018D01*
X178634093Y-150253239D01*
X178669490Y-150173766D01*
X178707155Y-150089216D01*
X178746815Y-150000200D01*
X178760755Y-149968915D01*
X179154599Y-149968915D01*
X179422173Y-149968915D01*
X179689746Y-149968915D01*
X179681526Y-149948961D01*
X179639653Y-149847406D01*
X179602184Y-149756726D01*
X179568905Y-149676418D01*
X179539600Y-149605979D01*
X179514053Y-149544906D01*
X179492051Y-149492697D01*
X179473377Y-149448849D01*
X179457817Y-149412859D01*
X179445155Y-149384224D01*
X179435175Y-149362442D01*
X179427664Y-149347009D01*
X179422406Y-149337424D01*
X179419185Y-149333183D01*
X179417980Y-149333201D01*
X179414565Y-149340730D01*
X179406995Y-149358318D01*
X179395807Y-149384674D01*
X179381539Y-149418509D01*
X179364727Y-149458534D01*
X179345909Y-149503459D01*
X179325620Y-149551994D01*
X179304399Y-149602851D01*
X179282783Y-149654738D01*
X179261307Y-149706368D01*
X179240510Y-149756449D01*
X179220929Y-149803694D01*
X179203100Y-149846811D01*
X179187560Y-149884513D01*
X179174847Y-149915508D01*
X179165497Y-149938508D01*
X179160048Y-149952222D01*
X179158936Y-149955250D01*
X179154599Y-149968915D01*
X178760755Y-149968915D01*
X178788196Y-149907333D01*
X178831027Y-149811228D01*
X178845368Y-149779051D01*
X179226027Y-148924999D01*
X179425229Y-148926616D01*
G37*
G36*
X176602840Y-150934419D02*
G01*
X176675540Y-150934945D01*
X176737082Y-150935453D01*
X176788588Y-150935988D01*
X176831179Y-150936596D01*
X176865978Y-150937326D01*
X176894105Y-150938222D01*
X176916682Y-150939331D01*
X176934831Y-150940700D01*
X176949673Y-150942375D01*
X176962330Y-150944402D01*
X176973923Y-150946828D01*
X176985574Y-150949699D01*
X176988107Y-150950356D01*
X177080267Y-150979752D01*
X177163691Y-151017490D01*
X177238161Y-151063324D01*
X177303460Y-151117009D01*
X177359370Y-151178300D01*
X177405672Y-151246953D01*
X177442149Y-151322722D01*
X177468582Y-151405362D01*
X177484755Y-151494628D01*
X177486490Y-151510673D01*
X177489826Y-151602829D01*
X177481760Y-151691140D01*
X177462743Y-151774979D01*
X177433224Y-151853720D01*
X177393650Y-151926737D01*
X177344473Y-151993401D01*
X177286141Y-152053088D01*
X177219102Y-152105171D01*
X177143807Y-152149022D01*
X177060704Y-152184017D01*
X176988499Y-152205312D01*
X176976371Y-152208115D01*
X176964170Y-152210493D01*
X176950770Y-152212489D01*
X176935045Y-152214148D01*
X176915870Y-152215515D01*
X176892120Y-152216633D01*
X176862670Y-152217548D01*
X176826393Y-152218302D01*
X176782165Y-152218942D01*
X176728861Y-152219511D01*
X176665354Y-152220054D01*
X176602840Y-152220526D01*
X176269760Y-152222953D01*
X176269760Y-152100137D01*
X176410974Y-152100137D01*
X176664237Y-152097944D01*
X176727259Y-152097365D01*
X176779337Y-152096778D01*
X176821809Y-152096114D01*
X176856009Y-152095303D01*
X176883274Y-152094278D01*
X176904939Y-152092969D01*
X176922341Y-152091306D01*
X176936816Y-152089223D01*
X176949700Y-152086649D01*
X176962329Y-152083515D01*
X176966618Y-152082360D01*
X176993488Y-152073659D01*
X177026192Y-152061038D01*
X177059797Y-152046477D01*
X177079296Y-152037155D01*
X177142687Y-151999140D01*
X177199725Y-151952292D01*
X177248919Y-151898188D01*
X177288775Y-151838408D01*
X177311127Y-151792062D01*
X177329967Y-151734141D01*
X177342911Y-151669134D01*
X177349551Y-151600941D01*
X177349479Y-151533460D01*
X177343791Y-151479284D01*
X177325577Y-151403426D01*
X177296741Y-151333255D01*
X177257830Y-151269362D01*
X177209395Y-151212336D01*
X177151985Y-151162770D01*
X177086148Y-151121253D01*
X177012434Y-151088376D01*
X176966618Y-151073592D01*
X176953887Y-151070163D01*
X176941494Y-151067332D01*
X176928103Y-151065028D01*
X176912381Y-151063178D01*
X176892993Y-151061710D01*
X176868606Y-151060552D01*
X176837886Y-151059634D01*
X176799497Y-151058882D01*
X176752107Y-151058224D01*
X176694380Y-151057589D01*
X176664237Y-151057288D01*
X176410974Y-151054795D01*
X176410974Y-151577466D01*
X176410974Y-152100137D01*
X176269760Y-152100137D01*
X176269760Y-151577520D01*
X176269760Y-151577466D01*
X176269760Y-150932086D01*
X176602840Y-150934419D01*
G37*
G36*
X173161320Y-150934199D02*
G01*
X173231122Y-150935920D01*
X173509032Y-151543751D01*
X173546624Y-151625970D01*
X173583016Y-151705561D01*
X173617854Y-151781752D01*
X173650785Y-151853769D01*
X173681454Y-151920839D01*
X173709509Y-151982189D01*
X173734595Y-152037045D01*
X173756359Y-152084634D01*
X173774448Y-152124182D01*
X173788507Y-152154917D01*
X173798183Y-152176064D01*
X173803122Y-152186851D01*
X173803224Y-152187073D01*
X173819506Y-152222564D01*
X173744618Y-152220842D01*
X173669730Y-152219120D01*
X173593442Y-152048694D01*
X173517153Y-151878269D01*
X173158375Y-151879852D01*
X172799597Y-151881436D01*
X172724197Y-152050278D01*
X172648797Y-152219120D01*
X172577456Y-152220850D01*
X172549510Y-152221142D01*
X172526698Y-152220645D01*
X172511428Y-152219465D01*
X172506102Y-152217780D01*
X172508604Y-152211678D01*
X172515898Y-152195117D01*
X172527665Y-152168801D01*
X172543586Y-152133435D01*
X172563340Y-152089724D01*
X172586608Y-152038373D01*
X172613070Y-151980086D01*
X172642406Y-151915568D01*
X172674296Y-151845525D01*
X172708420Y-151770661D01*
X172712528Y-151761658D01*
X172856079Y-151761658D01*
X172862198Y-151763261D01*
X172880476Y-151764629D01*
X172910796Y-151765758D01*
X172953038Y-151766647D01*
X173007086Y-151767294D01*
X173072822Y-151767695D01*
X173150127Y-151767849D01*
X173159995Y-151767851D01*
X173219779Y-151767765D01*
X173275666Y-151767520D01*
X173326488Y-151767132D01*
X173371076Y-151766617D01*
X173408262Y-151765993D01*
X173436877Y-151765276D01*
X173455754Y-151764483D01*
X173463724Y-151763631D01*
X173463911Y-151763478D01*
X173461488Y-151757439D01*
X173454572Y-151741377D01*
X173443688Y-151716476D01*
X173429365Y-151683920D01*
X173412129Y-151644891D01*
X173392508Y-151600572D01*
X173371028Y-151552149D01*
X173348217Y-151500802D01*
X173324601Y-151447717D01*
X173300709Y-151394076D01*
X173277066Y-151341064D01*
X173254200Y-151289862D01*
X173232638Y-151241655D01*
X173212907Y-151197626D01*
X173195534Y-151158958D01*
X173181047Y-151126835D01*
X173169972Y-151102440D01*
X173162837Y-151086957D01*
X173160192Y-151081585D01*
X173157447Y-151086619D01*
X173150260Y-151101712D01*
X173139153Y-151125691D01*
X173124652Y-151157384D01*
X173107279Y-151195619D01*
X173087560Y-151239226D01*
X173066018Y-151287031D01*
X173043177Y-151337862D01*
X173019561Y-151390549D01*
X172995695Y-151443919D01*
X172972102Y-151496800D01*
X172949306Y-151548020D01*
X172927832Y-151596407D01*
X172908203Y-151640790D01*
X172890943Y-151679997D01*
X172876577Y-151712856D01*
X172865629Y-151738194D01*
X172858622Y-151754841D01*
X172856081Y-151761623D01*
X172856079Y-151761658D01*
X172712528Y-151761658D01*
X172744459Y-151691681D01*
X172782092Y-151609289D01*
X172798803Y-151572729D01*
X173091517Y-150932479D01*
X173161320Y-150934199D01*
G37*
G36*
X177124716Y-148925283D02*
G01*
X177215962Y-148925361D01*
X177295769Y-148925551D01*
X177364976Y-148925868D01*
X177424422Y-148926326D01*
X177474946Y-148926940D01*
X177517388Y-148927725D01*
X177552587Y-148928693D01*
X177581383Y-148929860D01*
X177604614Y-148931241D01*
X177623121Y-148932849D01*
X177632777Y-148933991D01*
X177738109Y-148953290D01*
X177838384Y-148982189D01*
X177932851Y-149020202D01*
X178020758Y-149066840D01*
X178101356Y-149121618D01*
X178173892Y-149184048D01*
X178237615Y-149253643D01*
X178291776Y-149329916D01*
X178319790Y-149379502D01*
X178349436Y-149442077D01*
X178372332Y-149502281D01*
X178389222Y-149563168D01*
X178400853Y-149627789D01*
X178407971Y-149699197D01*
X178410539Y-149750955D01*
X178410587Y-149842143D01*
X178403911Y-149925199D01*
X178390041Y-150002558D01*
X178368507Y-150076656D01*
X178338840Y-150149926D01*
X178329915Y-150168773D01*
X178281835Y-150253739D01*
X178224027Y-150331592D01*
X178157082Y-150401880D01*
X178081589Y-150464148D01*
X177998137Y-150517944D01*
X177907315Y-150562815D01*
X177809714Y-150598306D01*
X177750269Y-150614407D01*
X177727080Y-150619792D01*
X177705030Y-150624485D01*
X177683121Y-150628534D01*
X177660354Y-150631987D01*
X177635729Y-150634890D01*
X177608248Y-150637292D01*
X177576911Y-150639239D01*
X177540721Y-150640780D01*
X177498677Y-150641962D01*
X177449781Y-150642832D01*
X177393034Y-150643438D01*
X177327438Y-150643827D01*
X177251992Y-150644048D01*
X177165698Y-150644146D01*
X177124716Y-150644163D01*
X176681121Y-150644283D01*
X176681121Y-150312739D01*
X177080203Y-150312739D01*
X177306694Y-150312739D01*
X177370506Y-150312631D01*
X177423402Y-150312276D01*
X177466747Y-150311628D01*
X177501903Y-150310639D01*
X177530233Y-150309261D01*
X177553099Y-150307448D01*
X177571866Y-150305152D01*
X177583681Y-150303160D01*
X177661592Y-150283181D01*
X177733223Y-150254257D01*
X177797528Y-150216980D01*
X177853461Y-150171942D01*
X177893926Y-150127634D01*
X177937706Y-150062108D01*
X177970894Y-149990670D01*
X177993319Y-149913901D01*
X178004810Y-149832383D01*
X178005268Y-149747894D01*
X177995120Y-149665714D01*
X177974741Y-149589473D01*
X177944474Y-149519707D01*
X177904662Y-149456951D01*
X177855648Y-149401741D01*
X177797773Y-149354611D01*
X177731380Y-149316097D01*
X177727943Y-149314454D01*
X177701364Y-149302039D01*
X177677789Y-149291707D01*
X177655758Y-149283254D01*
X177633808Y-149276474D01*
X177610478Y-149271163D01*
X177584308Y-149267117D01*
X177553835Y-149264131D01*
X177517598Y-149262000D01*
X177474136Y-149260520D01*
X177421988Y-149259485D01*
X177359693Y-149258692D01*
X177327326Y-149258353D01*
X177080203Y-149255841D01*
X177080203Y-149784290D01*
X177080203Y-150312739D01*
X176681121Y-150312739D01*
X176681121Y-149784723D01*
X176681121Y-149784290D01*
X176681121Y-148925163D01*
X177124716Y-148925283D01*
G37*
G36*
X179800290Y-150924233D02*
G01*
X179887130Y-150938272D01*
X179970505Y-150962222D01*
X180049370Y-150995741D01*
X180122683Y-151038486D01*
X180189398Y-151090116D01*
X180248472Y-151150288D01*
X180280400Y-151191170D01*
X180325637Y-151263848D01*
X180359904Y-151340032D01*
X180383615Y-151420950D01*
X180397181Y-151507829D01*
X180399974Y-151546821D01*
X180399584Y-151631790D01*
X180389428Y-151711293D01*
X180368935Y-151788006D01*
X180337529Y-151864605D01*
X180327673Y-151884506D01*
X180282581Y-151959491D01*
X180228408Y-152026564D01*
X180165871Y-152085215D01*
X180095683Y-152134934D01*
X180018562Y-152175214D01*
X179935223Y-152205544D01*
X179849045Y-152224988D01*
X179809803Y-152229637D01*
X179763272Y-152232477D01*
X179713804Y-152233460D01*
X179665750Y-152232536D01*
X179623463Y-152229658D01*
X179607216Y-152227675D01*
X179524305Y-152209792D01*
X179442633Y-152181046D01*
X179364657Y-152142598D01*
X179292835Y-152095611D01*
X179245859Y-152056731D01*
X179196833Y-152004809D01*
X179152128Y-151943754D01*
X179113440Y-151876428D01*
X179082465Y-151805694D01*
X179065299Y-151752063D01*
X179059389Y-151728949D01*
X179055095Y-151708663D01*
X179052158Y-151688478D01*
X179050323Y-151665664D01*
X179049330Y-151637493D01*
X179048925Y-151601236D01*
X179048860Y-151577520D01*
X179048888Y-151565196D01*
X179183318Y-151565196D01*
X179186715Y-151638917D01*
X179201154Y-151717829D01*
X179226243Y-151791840D01*
X179261207Y-151860114D01*
X179305271Y-151921816D01*
X179357661Y-151976109D01*
X179417604Y-152022157D01*
X179484324Y-152059124D01*
X179557048Y-152086174D01*
X179612835Y-152099065D01*
X179659462Y-152106260D01*
X179699391Y-152109875D01*
X179737620Y-152110071D01*
X179779147Y-152107010D01*
X179797027Y-152105003D01*
X179877026Y-152089604D01*
X179951327Y-152063759D01*
X180019261Y-152028225D01*
X180080160Y-151983758D01*
X180133358Y-151931114D01*
X180178185Y-151871049D01*
X180213976Y-151804318D01*
X180240061Y-151731679D01*
X180255774Y-151653887D01*
X180260494Y-151580182D01*
X180255051Y-151496248D01*
X180238547Y-151417526D01*
X180211058Y-151344188D01*
X180172660Y-151276404D01*
X180123431Y-151214348D01*
X180077825Y-151170258D01*
X180037811Y-151140448D01*
X179989487Y-151112158D01*
X179936816Y-151087358D01*
X179883759Y-151068023D01*
X179858424Y-151061044D01*
X179802873Y-151051406D01*
X179741337Y-151047130D01*
X179678568Y-151048217D01*
X179619318Y-151054670D01*
X179588276Y-151060912D01*
X179510900Y-151085746D01*
X179440235Y-151120373D01*
X179376872Y-151163938D01*
X179321407Y-151215588D01*
X179274433Y-151274468D01*
X179236544Y-151339723D01*
X179208332Y-151410499D01*
X179190393Y-151485942D01*
X179183318Y-151565196D01*
X179048888Y-151565196D01*
X179048954Y-151535838D01*
X179049514Y-151503748D01*
X179050785Y-151478565D01*
X179053011Y-151457604D01*
X179056439Y-151438180D01*
X179061313Y-151417607D01*
X179064571Y-151405299D01*
X179093323Y-151321746D01*
X179132463Y-151243903D01*
X179181166Y-151172588D01*
X179238604Y-151108619D01*
X179303951Y-151052815D01*
X179376381Y-151005994D01*
X179455067Y-150968974D01*
X179529416Y-150945004D01*
X179620389Y-150927257D01*
X179711028Y-150920447D01*
X179800290Y-150924233D01*
G37*
G36*
X173562824Y-148769222D02*
G01*
X173615307Y-148772279D01*
X173661489Y-148777008D01*
X173695057Y-148782662D01*
X173803757Y-148812283D01*
X173906821Y-148852394D01*
X174003660Y-148902469D01*
X174093683Y-148961978D01*
X174176302Y-149030394D01*
X174250927Y-149107187D01*
X174316969Y-149191831D01*
X174373838Y-149283796D01*
X174420944Y-149382553D01*
X174448656Y-149458099D01*
X174462656Y-149503209D01*
X174473373Y-149542805D01*
X174481215Y-149579799D01*
X174486594Y-149617101D01*
X174489919Y-149657625D01*
X174491600Y-149704283D01*
X174492047Y-149759984D01*
X174492039Y-149766304D01*
X174491325Y-149826076D01*
X174489118Y-149876605D01*
X174484956Y-149920884D01*
X174478377Y-149961906D01*
X174468919Y-150002663D01*
X174456120Y-150046148D01*
X174442621Y-150086476D01*
X174400418Y-150189791D01*
X174348229Y-150286336D01*
X174286632Y-150375601D01*
X174216203Y-150457080D01*
X174137521Y-150530262D01*
X174051161Y-150594640D01*
X173957702Y-150649705D01*
X173857720Y-150694948D01*
X173751793Y-150729862D01*
X173697220Y-150743191D01*
X173670379Y-150748295D01*
X173641877Y-150752089D01*
X173609071Y-150754788D01*
X173569318Y-150756610D01*
X173519975Y-150757770D01*
X173519168Y-150757783D01*
X173480542Y-150758249D01*
X173444794Y-150758383D01*
X173414259Y-150758198D01*
X173391269Y-150757711D01*
X173378157Y-150756934D01*
X173377955Y-150756908D01*
X173280388Y-150738747D01*
X173182387Y-150710269D01*
X173086916Y-150672604D01*
X172996942Y-150626879D01*
X172935496Y-150588419D01*
X172846772Y-150520399D01*
X172805029Y-150480492D01*
X173276649Y-150480492D01*
X173322697Y-150491708D01*
X173400271Y-150506877D01*
X173474721Y-150513242D01*
X173551111Y-150511151D01*
X173574426Y-150509005D01*
X173668110Y-150493042D01*
X173759423Y-150465331D01*
X173846979Y-150426365D01*
X173909663Y-150389846D01*
X173949183Y-150361041D01*
X173991646Y-150324576D01*
X174034263Y-150283288D01*
X174074242Y-150240011D01*
X174108793Y-150197582D01*
X174132168Y-150163722D01*
X174177793Y-150078628D01*
X174211935Y-149990240D01*
X174234603Y-149899527D01*
X174245806Y-149807453D01*
X174245555Y-149714986D01*
X174233858Y-149623090D01*
X174210725Y-149532733D01*
X174176165Y-149444881D01*
X174130188Y-149360499D01*
X174124291Y-149351251D01*
X174095486Y-149311731D01*
X174059021Y-149269267D01*
X174017733Y-149226651D01*
X173974456Y-149186672D01*
X173932027Y-149152121D01*
X173898167Y-149128745D01*
X173817035Y-149085258D01*
X173731351Y-149051775D01*
X173642703Y-149028554D01*
X173552679Y-149015854D01*
X173462868Y-149013930D01*
X173374855Y-149023041D01*
X173319627Y-149034933D01*
X173276649Y-149046218D01*
X173307348Y-149050565D01*
X173380099Y-149065138D01*
X173454706Y-149087893D01*
X173527248Y-149117337D01*
X173593802Y-149151974D01*
X173624342Y-149171272D01*
X173664168Y-149201612D01*
X173706536Y-149239598D01*
X173748279Y-149282007D01*
X173786228Y-149325615D01*
X173817213Y-149367199D01*
X173817780Y-149368049D01*
X173860383Y-149439233D01*
X173892599Y-149510166D01*
X173915258Y-149583473D01*
X173929188Y-149661776D01*
X173934948Y-149738675D01*
X173935960Y-149782791D01*
X173935476Y-149818229D01*
X173933326Y-149848520D01*
X173929336Y-149877195D01*
X173927751Y-149886028D01*
X173904173Y-149978914D01*
X173869122Y-150067496D01*
X173822771Y-150151355D01*
X173807089Y-150174951D01*
X173783678Y-150205234D01*
X173753140Y-150239572D01*
X173718440Y-150275036D01*
X173682544Y-150308696D01*
X173648419Y-150337624D01*
X173624342Y-150355420D01*
X173560312Y-150393048D01*
X173488357Y-150425864D01*
X173412372Y-150452388D01*
X173336251Y-150471137D01*
X173307348Y-150476024D01*
X173276649Y-150480492D01*
X172805029Y-150480492D01*
X172767165Y-150444294D01*
X172696984Y-150360571D01*
X172636535Y-150269697D01*
X172586126Y-150172141D01*
X172546064Y-150068369D01*
X172516656Y-149958850D01*
X172514277Y-149947426D01*
X172512865Y-149937961D01*
X172868274Y-149937961D01*
X172885201Y-149941695D01*
X172899825Y-149945253D01*
X172908267Y-149947780D01*
X172921403Y-149949040D01*
X172941993Y-149947165D01*
X172965832Y-149942867D01*
X172988711Y-149936857D01*
X173002189Y-149931888D01*
X173042934Y-149908080D01*
X173074121Y-149876675D01*
X173096173Y-149837170D01*
X173105115Y-149809691D01*
X173110890Y-149763719D01*
X173105000Y-149719122D01*
X173088058Y-149677568D01*
X173060675Y-149640724D01*
X173034859Y-149618066D01*
X173010478Y-149604327D01*
X172980275Y-149593233D01*
X172948943Y-149586049D01*
X172921172Y-149584040D01*
X172912132Y-149584965D01*
X172889215Y-149589271D01*
X172877238Y-149593558D01*
X172875085Y-149600142D01*
X172881639Y-149611338D01*
X172892619Y-149625445D01*
X172920450Y-149669965D01*
X172937054Y-149717792D01*
X172942432Y-149767264D01*
X172936584Y-149816719D01*
X172919512Y-149864493D01*
X172892429Y-149907403D01*
X172868274Y-149937961D01*
X172512865Y-149937961D01*
X172508627Y-149909551D01*
X172504763Y-149862605D01*
X172502664Y-149809664D01*
X172502306Y-149753800D01*
X172503667Y-149698089D01*
X172506724Y-149645606D01*
X172511453Y-149599425D01*
X172517107Y-149565856D01*
X172546864Y-149456728D01*
X172587132Y-149353449D01*
X172593486Y-149341193D01*
X173013651Y-149341193D01*
X173049984Y-149351689D01*
X173116039Y-149376927D01*
X173175963Y-149412118D01*
X173228912Y-149456132D01*
X173274044Y-149507841D01*
X173310515Y-149566112D01*
X173337482Y-149629818D01*
X173354100Y-149697829D01*
X173359536Y-149766304D01*
X173353718Y-149839406D01*
X173336592Y-149908319D01*
X173308648Y-149972258D01*
X173270376Y-150030436D01*
X173222267Y-150082066D01*
X173164811Y-150126364D01*
X173118304Y-150153088D01*
X173093615Y-150164760D01*
X173070381Y-150174417D01*
X173052701Y-150180388D01*
X173049286Y-150181176D01*
X173035481Y-150185053D01*
X173032432Y-150189788D01*
X173040510Y-150195763D01*
X173060089Y-150203357D01*
X173075885Y-150208360D01*
X173137111Y-150223638D01*
X173194271Y-150230566D01*
X173251904Y-150229560D01*
X173278106Y-150226771D01*
X173352337Y-150211181D01*
X173421587Y-150184375D01*
X173485722Y-150146422D01*
X173544606Y-150097389D01*
X173552937Y-150089123D01*
X173600569Y-150033960D01*
X173637255Y-149975575D01*
X173663840Y-149912203D01*
X173681165Y-149842076D01*
X173685858Y-149810386D01*
X173688321Y-149741121D01*
X173679353Y-149671985D01*
X173659723Y-149604504D01*
X173630200Y-149540200D01*
X173591553Y-149480597D01*
X173544552Y-149427221D01*
X173489964Y-149381593D01*
X173459494Y-149361823D01*
X173394166Y-149330122D01*
X173324319Y-149308855D01*
X173251881Y-149298153D01*
X173178781Y-149298153D01*
X173106948Y-149308987D01*
X173038309Y-149330790D01*
X173034635Y-149332322D01*
X173013651Y-149341193D01*
X172593486Y-149341193D01*
X172637366Y-149256559D01*
X172697020Y-149166598D01*
X172765545Y-149084105D01*
X172804635Y-149046218D01*
X172842398Y-149009618D01*
X172927030Y-148943678D01*
X173018895Y-148886823D01*
X173117448Y-148839593D01*
X173222142Y-148802527D01*
X173313488Y-148779832D01*
X173351362Y-148774182D01*
X173398308Y-148770318D01*
X173451250Y-148768219D01*
X173507113Y-148767861D01*
X173562824Y-148769222D01*
G37*
D15*
%TO.C,FADER1*%
X119900000Y-125250000D02*
X124405000Y-125250000D01*
X119900000Y-126780000D02*
X119900000Y-125250000D01*
X119900000Y-134250000D02*
X119900000Y-132720000D01*
X123205000Y-134250000D02*
X119900000Y-134250000D01*
X126395000Y-134250000D02*
X173405000Y-134250000D01*
X127595000Y-125250000D02*
X172205000Y-125250000D01*
X175395000Y-125250000D02*
X179900000Y-125250000D01*
X179900000Y-125250000D02*
X179900000Y-126780000D01*
X179900000Y-134250000D02*
X176595000Y-134250000D01*
X179900000Y-134250000D02*
X179900000Y-129220000D01*
D16*
X118850000Y-128000000D02*
G75*
G02*
X118650000Y-128000000I-100000J0D01*
G01*
X118650000Y-128000000D02*
G75*
G02*
X118850000Y-128000000I100000J0D01*
G01*
D15*
%TO.C,ROTARY_ENCODER_BTN1*%
X143750000Y-93300000D02*
X146300000Y-93300000D01*
X143750000Y-96600000D02*
X143750000Y-93300000D01*
X143750000Y-103400000D02*
X143750000Y-106700000D01*
X143750000Y-106700000D02*
X146300000Y-106700000D01*
X153700000Y-93300000D02*
X156250000Y-93300000D01*
X153700000Y-106700000D02*
X156250000Y-106700000D01*
X156250000Y-93300000D02*
X156250000Y-96600000D01*
X156250000Y-106700000D02*
X156250000Y-103400000D01*
D16*
X147600000Y-91650000D02*
G75*
G02*
X147400000Y-91650000I-100000J0D01*
G01*
X147400000Y-91650000D02*
G75*
G02*
X147600000Y-91650000I100000J0D01*
G01*
%TD*%
%LPC*%
D17*
%TO.C,C1*%
X142500000Y-115850000D03*
X142500000Y-114150000D03*
%TD*%
%TO.C,R_LOAD_B1*%
X153500000Y-141150000D03*
X153500000Y-142850000D03*
%TD*%
%TO.C,R_PLAY_B1*%
X158000000Y-141150000D03*
X158000000Y-142850000D03*
%TD*%
%TO.C,R_PLAY_A1*%
X141500000Y-142700000D03*
X141500000Y-141000000D03*
%TD*%
%TO.C,R_LOAD_A1*%
X147500000Y-142850000D03*
X147500000Y-141150000D03*
%TD*%
D18*
%TO.C,J2_DECK_B1*%
X164000000Y-143050000D03*
D19*
X166000000Y-143050000D03*
X168000000Y-143050000D03*
X170000000Y-143050000D03*
X172000000Y-143050000D03*
X174000000Y-143050000D03*
X176000000Y-143050000D03*
X178000000Y-143050000D03*
%TD*%
D20*
%TO.C,ArduinoProMicroATmega32U4USBC-1*%
X136740000Y-89640000D03*
D21*
X136740000Y-92180000D03*
X136740000Y-94720000D03*
X136740000Y-97260000D03*
X136740000Y-99800000D03*
X136740000Y-102340000D03*
X136740000Y-104880000D03*
X136740000Y-107420000D03*
X136740000Y-109960000D03*
X136740000Y-112500000D03*
X136740000Y-115040000D03*
X136740000Y-117580000D03*
X121500000Y-117580000D03*
X121500000Y-115040000D03*
X121500000Y-112500000D03*
X121500000Y-109960000D03*
X121500000Y-107420000D03*
X121500000Y-104880000D03*
X121500000Y-102340000D03*
X121500000Y-99800000D03*
X121500000Y-97260000D03*
X121500000Y-94720000D03*
X121500000Y-92180000D03*
X121500000Y-89640000D03*
%TD*%
D18*
%TO.C,J1_DECK_A1*%
X122000000Y-143000000D03*
D19*
X124000000Y-143000000D03*
X126000000Y-143000000D03*
X128000000Y-143000000D03*
X130000000Y-143000000D03*
X132000000Y-143000000D03*
X134000000Y-143000000D03*
X136000000Y-143000000D03*
%TD*%
D22*
%TO.C,MH1*%
X180000000Y-90000000D03*
%TD*%
%TO.C,MH2*%
X121000000Y-150500000D03*
%TD*%
D23*
%TO.C,FADER1*%
X120650000Y-128000000D03*
D24*
X120650000Y-131500000D03*
X179150000Y-128000000D03*
D25*
X126000000Y-125500000D03*
X124800000Y-134000000D03*
X173800000Y-125500000D03*
X175000000Y-134000000D03*
%TD*%
D26*
%TO.C,ROTARY_ENCODER_BTN1*%
X147500000Y-93000000D03*
D27*
X152500000Y-93000000D03*
X147500000Y-107500000D03*
X152500000Y-107500000D03*
X150000000Y-107500000D03*
D28*
X144300000Y-100000000D03*
X155700000Y-100000000D03*
%TD*%
D29*
%TO.C,C2*%
X147000000Y-115840400D03*
X147000000Y-114090400D03*
%TD*%
%LPD*%
M02*
