%TF.GenerationSoftware,KiCad,Pcbnew,9.0.7*%
%TF.CreationDate,2026-01-21T12:24:25-06:00*%
%TF.ProjectId,FADETUBE_MIDI,46414445-5455-4424-955f-4d4944492e6b,rev?*%
%TF.SameCoordinates,Original*%
%TF.FileFunction,Soldermask,Top*%
%TF.FilePolarity,Negative*%
%FSLAX46Y46*%
G04 Gerber Fmt 4.6, Leading zero omitted, Abs format (unit mm)*
G04 Created by KiCad (PCBNEW 9.0.7) date 2026-01-21 12:24:25*
%MOMM*%
%LPD*%
G01*
G04 APERTURE LIST*
G04 Aperture macros list*
%AMRoundRect*
0 Rectangle with rounded corners*
0 $1 Rounding radius*
0 $2 $3 $4 $5 $6 $7 $8 $9 X,Y pos of 4 corners*
0 Add a 4 corners polygon primitive as box body*
4,1,4,$2,$3,$4,$5,$6,$7,$8,$9,$2,$3,0*
0 Add four circle primitives for the rounded corners*
1,1,$1+$1,$2,$3*
1,1,$1+$1,$4,$5*
1,1,$1+$1,$6,$7*
1,1,$1+$1,$8,$9*
0 Add four rect primitives between the rounded corners*
20,1,$1+$1,$2,$3,$4,$5,0*
20,1,$1+$1,$4,$5,$6,$7,0*
20,1,$1+$1,$6,$7,$8,$9,0*
20,1,$1+$1,$8,$9,$2,$3,0*%
G04 Aperture macros list end*
%ADD10RoundRect,0.102000X0.500000X-0.550000X0.500000X0.550000X-0.500000X0.550000X-0.500000X-0.550000X0*%
%ADD11RoundRect,0.102000X0.654000X0.654000X-0.654000X0.654000X-0.654000X-0.654000X0.654000X-0.654000X0*%
%ADD12C,1.512000*%
%ADD13R,1.600000X1.600000*%
%ADD14O,1.600000X1.600000*%
%ADD15C,5.600000*%
%ADD16RoundRect,0.102000X-0.900000X-0.900000X0.900000X-0.900000X0.900000X0.900000X-0.900000X0.900000X0*%
%ADD17C,2.004000*%
%ADD18C,2.754000*%
%ADD19RoundRect,0.102000X-0.825000X-0.825000X0.825000X-0.825000X0.825000X0.825000X-0.825000X0.825000X0*%
%ADD20C,1.854000*%
%ADD21O,3.204000X6.204000*%
%ADD22RoundRect,0.102000X0.735000X-0.580000X0.735000X0.580000X-0.735000X0.580000X-0.735000X-0.580000X0*%
G04 APERTURE END LIST*
D10*
%TO.C,C1*%
X142500000Y-115850000D03*
X142500000Y-114150000D03*
%TD*%
%TO.C,R_LOAD_B1*%
X153500000Y-141150000D03*
X153500000Y-142850000D03*
%TD*%
%TO.C,R_PLAY_B1*%
X158000000Y-141150000D03*
X158000000Y-142850000D03*
%TD*%
%TO.C,R_PLAY_A1*%
X141500000Y-142700000D03*
X141500000Y-141000000D03*
%TD*%
%TO.C,R_LOAD_A1*%
X147500000Y-142850000D03*
X147500000Y-141150000D03*
%TD*%
D11*
%TO.C,J2_DECK_B1*%
X164000000Y-143050000D03*
D12*
X166000000Y-143050000D03*
X168000000Y-143050000D03*
X170000000Y-143050000D03*
X172000000Y-143050000D03*
X174000000Y-143050000D03*
X176000000Y-143050000D03*
X178000000Y-143050000D03*
%TD*%
D13*
%TO.C,ArduinoProMicroATmega32U4USBC-1*%
X136740000Y-89640000D03*
D14*
X136740000Y-92180000D03*
X136740000Y-94720000D03*
X136740000Y-97260000D03*
X136740000Y-99800000D03*
X136740000Y-102340000D03*
X136740000Y-104880000D03*
X136740000Y-107420000D03*
X136740000Y-109960000D03*
X136740000Y-112500000D03*
X136740000Y-115040000D03*
X136740000Y-117580000D03*
X121500000Y-117580000D03*
X121500000Y-115040000D03*
X121500000Y-112500000D03*
X121500000Y-109960000D03*
X121500000Y-107420000D03*
X121500000Y-104880000D03*
X121500000Y-102340000D03*
X121500000Y-99800000D03*
X121500000Y-97260000D03*
X121500000Y-94720000D03*
X121500000Y-92180000D03*
X121500000Y-89640000D03*
%TD*%
D11*
%TO.C,J1_DECK_A1*%
X122000000Y-143000000D03*
D12*
X124000000Y-143000000D03*
X126000000Y-143000000D03*
X128000000Y-143000000D03*
X130000000Y-143000000D03*
X132000000Y-143000000D03*
X134000000Y-143000000D03*
X136000000Y-143000000D03*
%TD*%
D15*
%TO.C,MH1*%
X180000000Y-90000000D03*
%TD*%
%TO.C,MH2*%
X121000000Y-150500000D03*
%TD*%
D16*
%TO.C,FADER1*%
X120650000Y-128000000D03*
D17*
X120650000Y-131500000D03*
X179150000Y-128000000D03*
D18*
X126000000Y-125500000D03*
X124800000Y-134000000D03*
X173800000Y-125500000D03*
X175000000Y-134000000D03*
%TD*%
D19*
%TO.C,ROTARY_ENCODER_BTN1*%
X147500000Y-93000000D03*
D20*
X152500000Y-93000000D03*
X147500000Y-107500000D03*
X152500000Y-107500000D03*
X150000000Y-107500000D03*
D21*
X144300000Y-100000000D03*
X155700000Y-100000000D03*
%TD*%
D22*
%TO.C,C2*%
X147000000Y-115840400D03*
X147000000Y-114090400D03*
%TD*%
M02*
