%TF.GenerationSoftware,KiCad,Pcbnew,9.0.7*%
%TF.CreationDate,2026-01-26T22:48:02-06:00*%
%TF.ProjectId,FADETUBE_MIDI,46414445-5455-4424-955f-4d4944492e6b,rev?*%
%TF.SameCoordinates,Original*%
%TF.FileFunction,Copper,L2,Bot*%
%TF.FilePolarity,Positive*%
%FSLAX46Y46*%
G04 Gerber Fmt 4.6, Leading zero omitted, Abs format (unit mm)*
G04 Created by KiCad (PCBNEW 9.0.7) date 2026-01-26 22:48:02*
%MOMM*%
%LPD*%
G01*
G04 APERTURE LIST*
G04 Aperture macros list*
%AMRoundRect*
0 Rectangle with rounded corners*
0 $1 Rounding radius*
0 $2 $3 $4 $5 $6 $7 $8 $9 X,Y pos of 4 corners*
0 Add a 4 corners polygon primitive as box body*
4,1,4,$2,$3,$4,$5,$6,$7,$8,$9,$2,$3,0*
0 Add four circle primitives for the rounded corners*
1,1,$1+$1,$2,$3*
1,1,$1+$1,$4,$5*
1,1,$1+$1,$6,$7*
1,1,$1+$1,$8,$9*
0 Add four rect primitives between the rounded corners*
20,1,$1+$1,$2,$3,$4,$5,0*
20,1,$1+$1,$4,$5,$6,$7,0*
20,1,$1+$1,$6,$7,$8,$9,0*
20,1,$1+$1,$8,$9,$2,$3,0*%
G04 Aperture macros list end*
%TA.AperFunction,ComponentPad*%
%ADD10C,1.600000*%
%TD*%
%TA.AperFunction,ComponentPad*%
%ADD11R,1.650000X1.650000*%
%TD*%
%TA.AperFunction,ComponentPad*%
%ADD12C,1.650000*%
%TD*%
%TA.AperFunction,ComponentPad*%
%ADD13O,3.000000X6.000000*%
%TD*%
%TA.AperFunction,ComponentPad*%
%ADD14RoundRect,0.250000X-0.550000X0.550000X-0.550000X-0.550000X0.550000X-0.550000X0.550000X0.550000X0*%
%TD*%
%TA.AperFunction,ComponentPad*%
%ADD15C,1.700000*%
%TD*%
%TA.AperFunction,ComponentPad*%
%ADD16R,1.800000X1.800000*%
%TD*%
%TA.AperFunction,ComponentPad*%
%ADD17C,1.800000*%
%TD*%
%TA.AperFunction,ComponentPad*%
%ADD18C,2.550000*%
%TD*%
%TA.AperFunction,ComponentPad*%
%ADD19R,1.308000X1.308000*%
%TD*%
%TA.AperFunction,ComponentPad*%
%ADD20C,1.308000*%
%TD*%
%TA.AperFunction,ComponentPad*%
%ADD21R,1.600000X1.600000*%
%TD*%
%TA.AperFunction,ComponentPad*%
%ADD22O,1.600000X1.600000*%
%TD*%
%TA.AperFunction,ViaPad*%
%ADD23C,0.600000*%
%TD*%
%TA.AperFunction,Conductor*%
%ADD24C,0.400000*%
%TD*%
G04 APERTURE END LIST*
D10*
%TO.P,C1,1*%
%TO.N,GND*%
X-4630000Y4980000D03*
%TO.P,C1,2*%
%TO.N,Net-(ArduinoProMicroATmega32U4USBC-1-VCC)*%
X-4630000Y7480000D03*
%TD*%
D11*
%TO.P,ROTARY_ENCODER_BTN1,1*%
%TO.N,GND*%
X-2500000Y27000000D03*
D12*
%TO.P,ROTARY_ENCODER_BTN1,2*%
%TO.N,Net-(ArduinoProMicroATmega32U4USBC-1-D4{slash}A6)*%
X2500000Y27000000D03*
%TO.P,ROTARY_ENCODER_BTN1,A,A*%
%TO.N,Net-(ArduinoProMicroATmega32U4USBC-1-D2)*%
X-2500000Y12500000D03*
%TO.P,ROTARY_ENCODER_BTN1,B,B*%
%TO.N,Net-(ArduinoProMicroATmega32U4USBC-1-~D3)*%
X2500000Y12500000D03*
%TO.P,ROTARY_ENCODER_BTN1,C,COM*%
%TO.N,GND*%
X0Y12500000D03*
D13*
%TO.P,ROTARY_ENCODER_BTN1,SH1,SHIELD*%
%TO.N,Net-(ROTARY_ENCODER_BTN1-SHIELD-PadSH1)*%
X-5700000Y20000000D03*
%TO.P,ROTARY_ENCODER_BTN1,SH2,SHIELD*%
X5700000Y20000000D03*
%TD*%
D14*
%TO.P,C2,1*%
%TO.N,GND*%
X4580000Y7135100D03*
D10*
%TO.P,C2,2*%
%TO.N,Net-(ArduinoProMicroATmega32U4USBC-1-VCC)*%
X4580000Y5135100D03*
%TD*%
D15*
%TO.P,BTN_B_LOOP_IN1,1,A*%
%TO.N,Net-(ArduinoProMicroATmega32U4USBC-1-D15)*%
X36000000Y30000000D03*
X42500000Y30000000D03*
%TO.P,BTN_B_LOOP_IN1,2,B*%
%TO.N,GND*%
X36000000Y25500000D03*
X42500000Y25500000D03*
%TD*%
D16*
%TO.P,FADER_TEMPO_A1,1*%
%TO.N,GND*%
X79750000Y31250000D03*
D17*
%TO.P,FADER_TEMPO_A1,2*%
%TO.N,Net-(ArduinoProMicroATmega32U4USBC-1-D19{slash}A1)*%
X76250000Y31250000D03*
%TO.P,FADER_TEMPO_A1,3*%
%TO.N,Net-(ArduinoProMicroATmega32U4USBC-1-VCC)*%
X79750000Y-27250000D03*
D18*
%TO.P,FADER_TEMPO_A1,SH1,SHIELD*%
%TO.N,Net-(FADER_TEMPO_A1-SHIELD-PadSH1)*%
X82250000Y25900000D03*
%TO.P,FADER_TEMPO_A1,SH2,SHIELD*%
X73750000Y27100000D03*
%TO.P,FADER_TEMPO_A1,SH3,SHIELD*%
X82250000Y-21900000D03*
%TO.P,FADER_TEMPO_A1,SH4,SHIELD*%
X73750000Y-23100000D03*
%TD*%
D10*
%TO.P,R_PLAY_A1,1*%
%TO.N,Net-(J1_DECK_A1-Pad2)*%
X-8100000Y-24990000D03*
%TO.P,R_PLAY_A1,2*%
%TO.N,Net-(ArduinoProMicroATmega32U4USBC-1-~D9{slash}A9)*%
X-8100000Y-17370000D03*
%TD*%
D16*
%TO.P,FADER_CROSSFADER1,1*%
%TO.N,GND*%
X-29250000Y-8250000D03*
D17*
%TO.P,FADER_CROSSFADER1,2*%
%TO.N,Net-(ArduinoProMicroATmega32U4USBC-1-D18{slash}A0)*%
X-29250000Y-11750000D03*
%TO.P,FADER_CROSSFADER1,3*%
%TO.N,Net-(ArduinoProMicroATmega32U4USBC-1-VCC)*%
X29250000Y-8250000D03*
D18*
%TO.P,FADER_CROSSFADER1,SH1,SHIELD*%
%TO.N,Net-(FADER_CROSSFADER1-SHIELD-PadSH1)*%
X-23900000Y-5750000D03*
%TO.P,FADER_CROSSFADER1,SH2,SHIELD*%
X-25100000Y-14250000D03*
%TO.P,FADER_CROSSFADER1,SH3,SHIELD*%
X23900000Y-5750000D03*
%TO.P,FADER_CROSSFADER1,SH4,SHIELD*%
X25100000Y-14250000D03*
%TD*%
D15*
%TO.P,BTN_A_LOOP_IN1,1,A*%
%TO.N,GND*%
X-54000000Y30000000D03*
X-47500000Y30000000D03*
%TO.P,BTN_A_LOOP_IN1,2,B*%
%TO.N,Net-(ArduinoProMicroATmega32U4USBC-1-D0{slash}RX)*%
X-54000000Y25500000D03*
X-47500000Y25500000D03*
%TD*%
D10*
%TO.P,R_LOAD_A1,1*%
%TO.N,Net-(J1_DECK_A1-Pad6)*%
X-2100000Y-25140000D03*
%TO.P,R_LOAD_A1,2*%
%TO.N,Net-(ArduinoProMicroATmega32U4USBC-1-D16)*%
X-2100000Y-17520000D03*
%TD*%
D15*
%TO.P,BTN_B_LOOP_OUT1,1,A*%
%TO.N,Net-(ArduinoProMicroATmega32U4USBC-1-D21{slash}A3)*%
X48000000Y30000000D03*
X54500000Y30000000D03*
%TO.P,BTN_B_LOOP_OUT1,2,B*%
%TO.N,GND*%
X48000000Y25500000D03*
X54500000Y25500000D03*
%TD*%
%TO.P,BTN_A_LOOP_OUT1,1,A*%
%TO.N,GND*%
X-42000000Y30000000D03*
X-35500000Y30000000D03*
%TO.P,BTN_A_LOOP_OUT1,2,B*%
%TO.N,Net-(ArduinoProMicroATmega32U4USBC-1-D1{slash}TX)*%
X-42000000Y25500000D03*
X-35500000Y25500000D03*
%TD*%
D10*
%TO.P,R_LOAD_B1,1*%
%TO.N,Net-(J2_DECK_B1-Pad6)*%
X3900000Y-25140000D03*
%TO.P,R_LOAD_B1,2*%
%TO.N,Net-(ArduinoProMicroATmega32U4USBC-1-D14)*%
X3900000Y-17520000D03*
%TD*%
%TO.P,R_PLAY_B1,1*%
%TO.N,Net-(J2_DECK_B1-Pad2)*%
X8400000Y-25140000D03*
%TO.P,R_PLAY_B1,2*%
%TO.N,Net-(ArduinoProMicroATmega32U4USBC-1-~D10{slash}A10)*%
X8400000Y-17520000D03*
%TD*%
D16*
%TO.P,FADER_TEMPO_B1,1*%
%TO.N,GND*%
X-76250000Y31250000D03*
D17*
%TO.P,FADER_TEMPO_B1,2*%
%TO.N,Net-(ArduinoProMicroATmega32U4USBC-1-D20{slash}A2)*%
X-79750000Y31250000D03*
%TO.P,FADER_TEMPO_B1,3*%
%TO.N,Net-(ArduinoProMicroATmega32U4USBC-1-VCC)*%
X-76250000Y-27250000D03*
D18*
%TO.P,FADER_TEMPO_B1,SH1,SHIELD*%
%TO.N,Net-(FADER_TEMPO_B1-SHIELD-PadSH1)*%
X-73750000Y25900000D03*
%TO.P,FADER_TEMPO_B1,SH2,SHIELD*%
X-82250000Y27100000D03*
%TO.P,FADER_TEMPO_B1,SH3,SHIELD*%
X-73750000Y-21900000D03*
%TO.P,FADER_TEMPO_B1,SH4,SHIELD*%
X-82250000Y-23100000D03*
%TD*%
D19*
%TO.P,J1_DECK_A1,1,1*%
%TO.N,Net-(ArduinoProMicroATmega32U4USBC-1-~D5)*%
X-28000000Y-20550000D03*
D20*
%TO.P,J1_DECK_A1,2,2*%
%TO.N,Net-(J1_DECK_A1-Pad2)*%
X-26000000Y-20550000D03*
%TO.P,J1_DECK_A1,3,3*%
%TO.N,GND*%
X-24000000Y-20550000D03*
%TO.P,J1_DECK_A1,4,4*%
X-22000000Y-20550000D03*
%TO.P,J1_DECK_A1,5,5*%
%TO.N,Net-(ArduinoProMicroATmega32U4USBC-1-D7)*%
X-20000000Y-20550000D03*
%TO.P,J1_DECK_A1,6,6*%
%TO.N,Net-(J1_DECK_A1-Pad6)*%
X-18000000Y-20550000D03*
%TO.P,J1_DECK_A1,7,7*%
%TO.N,GND*%
X-16000000Y-20550000D03*
%TO.P,J1_DECK_A1,8,8*%
X-14000000Y-20550000D03*
%TD*%
D21*
%TO.P,ArduinoProMicroATmega32U4USBC-1,1,D1/TX*%
%TO.N,Net-(ArduinoProMicroATmega32U4USBC-1-D1{slash}TX)*%
X-12760000Y30440000D03*
D22*
%TO.P,ArduinoProMicroATmega32U4USBC-1,2,D0/RX*%
%TO.N,Net-(ArduinoProMicroATmega32U4USBC-1-D0{slash}RX)*%
X-12760000Y27900000D03*
%TO.P,ArduinoProMicroATmega32U4USBC-1,3,GND*%
%TO.N,GND*%
X-12760000Y25360000D03*
%TO.P,ArduinoProMicroATmega32U4USBC-1,4,GND*%
X-12760000Y22820000D03*
%TO.P,ArduinoProMicroATmega32U4USBC-1,5,D2*%
%TO.N,Net-(ArduinoProMicroATmega32U4USBC-1-D2)*%
X-12760000Y20280000D03*
%TO.P,ArduinoProMicroATmega32U4USBC-1,6,~D3*%
%TO.N,Net-(ArduinoProMicroATmega32U4USBC-1-~D3)*%
X-12760000Y17740000D03*
%TO.P,ArduinoProMicroATmega32U4USBC-1,7,D4/A6*%
%TO.N,Net-(ArduinoProMicroATmega32U4USBC-1-D4{slash}A6)*%
X-12760000Y15200000D03*
%TO.P,ArduinoProMicroATmega32U4USBC-1,8,~D5*%
%TO.N,Net-(ArduinoProMicroATmega32U4USBC-1-~D5)*%
X-12760000Y12660000D03*
%TO.P,ArduinoProMicroATmega32U4USBC-1,9,~D6/A7*%
%TO.N,Net-(ArduinoProMicroATmega32U4USBC-1-~D6{slash}A7)*%
X-12760000Y10120000D03*
%TO.P,ArduinoProMicroATmega32U4USBC-1,10,D7*%
%TO.N,Net-(ArduinoProMicroATmega32U4USBC-1-D7)*%
X-12760000Y7580000D03*
%TO.P,ArduinoProMicroATmega32U4USBC-1,11,D8/A8*%
%TO.N,Net-(ArduinoProMicroATmega32U4USBC-1-D8{slash}A8)*%
X-12760000Y5040000D03*
%TO.P,ArduinoProMicroATmega32U4USBC-1,12,~D9/A9*%
%TO.N,Net-(ArduinoProMicroATmega32U4USBC-1-~D9{slash}A9)*%
X-12760000Y2500000D03*
%TO.P,ArduinoProMicroATmega32U4USBC-1,13,~D10/A10*%
%TO.N,Net-(ArduinoProMicroATmega32U4USBC-1-~D10{slash}A10)*%
X-28000000Y2500000D03*
%TO.P,ArduinoProMicroATmega32U4USBC-1,14,D16*%
%TO.N,Net-(ArduinoProMicroATmega32U4USBC-1-D16)*%
X-28000000Y5040000D03*
%TO.P,ArduinoProMicroATmega32U4USBC-1,15,D14*%
%TO.N,Net-(ArduinoProMicroATmega32U4USBC-1-D14)*%
X-28000000Y7580000D03*
%TO.P,ArduinoProMicroATmega32U4USBC-1,16,D15*%
%TO.N,Net-(ArduinoProMicroATmega32U4USBC-1-D15)*%
X-28000000Y10120000D03*
%TO.P,ArduinoProMicroATmega32U4USBC-1,17,D18/A0*%
%TO.N,Net-(ArduinoProMicroATmega32U4USBC-1-D18{slash}A0)*%
X-28000000Y12660000D03*
%TO.P,ArduinoProMicroATmega32U4USBC-1,18,D19/A1*%
%TO.N,Net-(ArduinoProMicroATmega32U4USBC-1-D19{slash}A1)*%
X-28000000Y15200000D03*
%TO.P,ArduinoProMicroATmega32U4USBC-1,19,D20/A2*%
%TO.N,Net-(ArduinoProMicroATmega32U4USBC-1-D20{slash}A2)*%
X-28000000Y17740000D03*
%TO.P,ArduinoProMicroATmega32U4USBC-1,20,D21/A3*%
%TO.N,Net-(ArduinoProMicroATmega32U4USBC-1-D21{slash}A3)*%
X-28000000Y20280000D03*
%TO.P,ArduinoProMicroATmega32U4USBC-1,21,VCC*%
%TO.N,Net-(ArduinoProMicroATmega32U4USBC-1-VCC)*%
X-28000000Y22820000D03*
%TO.P,ArduinoProMicroATmega32U4USBC-1,22,RST*%
%TO.N,unconnected-(ArduinoProMicroATmega32U4USBC-1-RST-Pad22)*%
X-28000000Y25360000D03*
%TO.P,ArduinoProMicroATmega32U4USBC-1,23,GND*%
%TO.N,unconnected-(ArduinoProMicroATmega32U4USBC-1-GND-Pad23)*%
X-28000000Y27900000D03*
%TO.P,ArduinoProMicroATmega32U4USBC-1,24,RAW*%
%TO.N,unconnected-(ArduinoProMicroATmega32U4USBC-1-RAW-Pad24)*%
X-28000000Y30440000D03*
%TD*%
D19*
%TO.P,J2_DECK_B1,1,1*%
%TO.N,Net-(ArduinoProMicroATmega32U4USBC-1-~D6{slash}A7)*%
X14000000Y-20550000D03*
D20*
%TO.P,J2_DECK_B1,2,2*%
%TO.N,Net-(J2_DECK_B1-Pad2)*%
X16000000Y-20550000D03*
%TO.P,J2_DECK_B1,3,3*%
%TO.N,GND*%
X18000000Y-20550000D03*
%TO.P,J2_DECK_B1,4,4*%
X20000000Y-20550000D03*
%TO.P,J2_DECK_B1,5,5*%
%TO.N,Net-(ArduinoProMicroATmega32U4USBC-1-D8{slash}A8)*%
X22000000Y-20550000D03*
%TO.P,J2_DECK_B1,6,6*%
%TO.N,Net-(J2_DECK_B1-Pad6)*%
X24000000Y-20550000D03*
%TO.P,J2_DECK_B1,7,7*%
%TO.N,GND*%
X26000000Y-20550000D03*
%TO.P,J2_DECK_B1,8,8*%
X28000000Y-20550000D03*
%TD*%
D23*
%TO.N,GND*%
X14800500Y7342400D03*
%TO.N,Net-(ArduinoProMicroATmega32U4USBC-1-D14)*%
X-26112500Y-11068700D03*
%TO.N,Net-(ArduinoProMicroATmega32U4USBC-1-D16)*%
X-14903700Y4387500D03*
%TO.N,Net-(ArduinoProMicroATmega32U4USBC-1-D4{slash}A6)*%
X-481900Y14060700D03*
%TO.N,Net-(ArduinoProMicroATmega32U4USBC-1-~D6{slash}A7)*%
X8862400Y10237500D03*
%TO.N,Net-(ArduinoProMicroATmega32U4USBC-1-D19{slash}A1)*%
X-17586800Y30688000D03*
%TO.N,Net-(ArduinoProMicroATmega32U4USBC-1-~D10{slash}A10)*%
X-5908100Y-1462500D03*
%TO.N,Net-(ArduinoProMicroATmega32U4USBC-1-VCC)*%
X-31909000Y-10237500D03*
X5908300Y-10237500D03*
%TO.N,Net-(ArduinoProMicroATmega32U4USBC-1-D8{slash}A8)*%
X16881100Y3543900D03*
%TO.N,Net-(ArduinoProMicroATmega32U4USBC-1-D15)*%
X-16887700Y32743600D03*
%TO.N,Net-(ArduinoProMicroATmega32U4USBC-1-D1{slash}TX)*%
X-17828000Y32150500D03*
%TO.N,Net-(ArduinoProMicroATmega32U4USBC-1-D21{slash}A3)*%
X-19866700Y31285400D03*
%TD*%
D24*
%TO.N,GND*%
X-2500000Y14803700D02*
X-196300Y12500000D01*
X-12760000Y22820000D02*
X-12760000Y25360000D01*
X-28916400Y-21854000D02*
X-30751700Y-20018700D01*
X-30751700Y-20018700D02*
X-30751700Y-11065600D01*
X-196300Y12500000D02*
X0Y12500000D01*
X-22000000Y-20550000D02*
X-20675600Y-21874400D01*
X21285600Y-21835600D02*
X20000000Y-20550000D01*
X-42000000Y30000000D02*
X-47500000Y30000000D01*
X-24000000Y-20550000D02*
X-25304000Y-21854000D01*
X-29250000Y-8250000D02*
X-29250000Y-9751700D01*
X-17324400Y-21874400D02*
X-16000000Y-20550000D01*
X-30751700Y-11065600D02*
X-29437800Y-9751700D01*
X24714400Y-21835600D02*
X21285600Y-21835600D01*
X26000000Y-20550000D02*
X24714400Y-21835600D01*
X-20675600Y-21874400D02*
X-17324400Y-21874400D01*
X-2500000Y27000000D02*
X-2500000Y14803700D01*
X0Y11500000D02*
X945000Y10555000D01*
X-25304000Y-21854000D02*
X-28916400Y-21854000D01*
X-29437800Y-9751700D02*
X-29250000Y-9751700D01*
X18000000Y-20550000D02*
X15673600Y-18223600D01*
X0Y12500000D02*
X0Y11500000D01*
X945000Y10555000D02*
X-4630000Y4980000D01*
X15673600Y6469300D02*
X14800500Y7342400D01*
X1160100Y10555000D02*
X945000Y10555000D01*
X4580000Y7135100D02*
X1160100Y10555000D01*
X15673600Y-18223600D02*
X15673600Y6469300D01*
%TO.N,Net-(J2_DECK_B1-Pad2)*%
X11638600Y-25140000D02*
X16000000Y-20778600D01*
X16000000Y-20778600D02*
X16000000Y-20550000D01*
X8400000Y-25140000D02*
X11638600Y-25140000D01*
%TO.N,Net-(ArduinoProMicroATmega32U4USBC-1-D14)*%
X-28000000Y7580000D02*
X-26112500Y5692500D01*
X-26112500Y5692500D02*
X-26112500Y-11068700D01*
%TO.N,Net-(ArduinoProMicroATmega32U4USBC-1-D2)*%
X-11358300Y20280000D02*
X-3578300Y12500000D01*
X-12760000Y20280000D02*
X-11358300Y20280000D01*
X-3578300Y12500000D02*
X-2500000Y12500000D01*
%TO.N,Net-(ArduinoProMicroATmega32U4USBC-1-D18{slash}A0)*%
X-29402200Y11257800D02*
X-29402200Y-3761100D01*
X-28000000Y12660000D02*
X-29402200Y11257800D01*
X-27704200Y-10204200D02*
X-29250000Y-11750000D01*
X-29402200Y-3761100D02*
X-27704200Y-5459100D01*
X-27704200Y-5459100D02*
X-27704200Y-10204200D01*
%TO.N,Net-(ArduinoProMicroATmega32U4USBC-1-D16)*%
X-8668100Y-18793500D02*
X-3373500Y-18793500D01*
X-14903700Y-12557900D02*
X-8668100Y-18793500D01*
X-3373500Y-18793500D02*
X-2100000Y-17520000D01*
X-14903700Y4387500D02*
X-14903700Y-12557900D01*
%TO.N,Net-(ArduinoProMicroATmega32U4USBC-1-D7)*%
X-20000000Y1741700D02*
X-14161700Y7580000D01*
X-12760000Y7580000D02*
X-14161700Y7580000D01*
X-20000000Y-20550000D02*
X-20000000Y1741700D01*
%TO.N,Net-(ArduinoProMicroATmega32U4USBC-1-D4{slash}A6)*%
X2500000Y17042600D02*
X-481900Y14060700D01*
X2500000Y27000000D02*
X2500000Y17042600D01*
%TO.N,Net-(ArduinoProMicroATmega32U4USBC-1-~D5)*%
X-28000000Y-20550000D02*
X-28000000Y-19294300D01*
X-21393400Y4026600D02*
X-12760000Y12660000D01*
X-28000000Y-19294300D02*
X-27450600Y-19294300D01*
X-21393400Y-13237100D02*
X-21393400Y4026600D01*
X-27450600Y-19294300D02*
X-21393400Y-13237100D01*
%TO.N,Net-(ArduinoProMicroATmega32U4USBC-1-~D6{slash}A7)*%
X14000000Y5099900D02*
X14000000Y-20550000D01*
X8862400Y10237500D02*
X14000000Y5099900D01*
%TO.N,Net-(ArduinoProMicroATmega32U4USBC-1-~D9{slash}A9)*%
X-12760000Y2500000D02*
X-12760000Y1098300D01*
X-8100000Y-17370000D02*
X-8100000Y-3561700D01*
X-8100000Y-3561700D02*
X-12760000Y1098300D01*
%TO.N,Net-(ArduinoProMicroATmega32U4USBC-1-D19{slash}A1)*%
X-17586800Y30688000D02*
X-17587900Y30686900D01*
X-28000000Y15200000D02*
X-26598300Y15200000D01*
X-17586800Y24211500D02*
X-26598300Y15200000D01*
X-17587900Y30686900D02*
X-17586800Y30688000D01*
X-17586800Y30688000D02*
X-17586800Y24211500D01*
%TO.N,Net-(ArduinoProMicroATmega32U4USBC-1-~D10{slash}A10)*%
X8400000Y-15770600D02*
X-5908100Y-1462500D01*
X8400000Y-17520000D02*
X8400000Y-15770600D01*
%TO.N,Net-(ArduinoProMicroATmega32U4USBC-1-VCC)*%
X-76250000Y-27250000D02*
X-74799000Y-28701000D01*
X-33709600Y-28701000D02*
X-33000000Y-27991400D01*
X33688600Y-28680000D02*
X33709600Y-28701000D01*
X78320000Y-28680000D02*
X79750000Y-27250000D01*
X32740000Y-11740000D02*
X32740000Y-28680000D01*
X-33000000Y-27991400D02*
X-33000000Y-10828500D01*
X29250000Y-8250000D02*
X32740000Y-11740000D01*
X33709600Y-28701000D02*
X70290400Y-28701000D01*
X-32409000Y-10237500D02*
X-31909000Y-10237500D01*
X32740000Y-28680000D02*
X33688600Y-28680000D01*
X-31180000Y22820000D02*
X-28000000Y22820000D01*
X-33000000Y-10828500D02*
X-32409000Y-10237500D01*
X4580000Y5135100D02*
X4580000Y-8909200D01*
X4580000Y-8909200D02*
X5908300Y-10237500D01*
X-33000000Y21750000D02*
X-32250000Y21750000D01*
X70311400Y-28680000D02*
X78320000Y-28680000D01*
X-74799000Y-28701000D02*
X-33709600Y-28701000D01*
X70290400Y-28701000D02*
X70311400Y-28680000D01*
X-33000000Y-10828500D02*
X-33000000Y21750000D01*
X-32250000Y21750000D02*
X-31180000Y22820000D01*
%TO.N,Net-(ArduinoProMicroATmega32U4USBC-1-D8{slash}A8)*%
X22000000Y-1575000D02*
X22000000Y-20550000D01*
X16881100Y3543900D02*
X22000000Y-1575000D01*
%TO.N,Net-(ArduinoProMicroATmega32U4USBC-1-D15)*%
X-16856000Y32711900D02*
X-16887700Y32743600D01*
X-16661900Y21458100D02*
X-16661900Y32517800D01*
X-16661900Y32517800D02*
X-16887700Y32743600D01*
X-28000000Y10120000D02*
X-16661900Y21458100D01*
X-16887700Y32743600D02*
X-16856000Y32711900D01*
%TO.N,Net-(ArduinoProMicroATmega32U4USBC-1-D1{slash}TX)*%
X-28812900Y32187100D02*
X-35500000Y25500000D01*
X-17864600Y32187100D02*
X-28812900Y32187100D01*
X-17828000Y32150500D02*
X-17864600Y32187100D01*
%TO.N,Net-(ArduinoProMicroATmega32U4USBC-1-D21{slash}A3)*%
X-19866700Y28413300D02*
X-28000000Y20280000D01*
X-19866700Y31285400D02*
X-19866700Y28413300D01*
%TO.N,Net-(FADER_CROSSFADER1-SHIELD-PadSH1)*%
X-23900000Y-5750000D02*
X-25100000Y-6950000D01*
X-25100000Y-6950000D02*
X-25100000Y-14250000D01*
X25100000Y-14250000D02*
X23900000Y-13050000D01*
X23900000Y-13050000D02*
X23900000Y-5750000D01*
%TO.N,Net-(FADER_TEMPO_A1-SHIELD-PadSH1)*%
X82250000Y-21900000D02*
X82250000Y25900000D01*
%TO.N,Net-(FADER_TEMPO_B1-SHIELD-PadSH1)*%
X-73750000Y-21900000D02*
X-73750000Y25900000D01*
%TD*%
M02*
