%TF.GenerationSoftware,KiCad,Pcbnew,9.0.7*%
%TF.CreationDate,2026-01-26T22:48:02-06:00*%
%TF.ProjectId,FADETUBE_MIDI,46414445-5455-4424-955f-4d4944492e6b,rev?*%
%TF.SameCoordinates,Original*%
%TF.FileFunction,Copper,L1,Top*%
%TF.FilePolarity,Positive*%
%FSLAX46Y46*%
G04 Gerber Fmt 4.6, Leading zero omitted, Abs format (unit mm)*
G04 Created by KiCad (PCBNEW 9.0.7) date 2026-01-26 22:48:02*
%MOMM*%
%LPD*%
G01*
G04 APERTURE LIST*
G04 Aperture macros list*
%AMRoundRect*
0 Rectangle with rounded corners*
0 $1 Rounding radius*
0 $2 $3 $4 $5 $6 $7 $8 $9 X,Y pos of 4 corners*
0 Add a 4 corners polygon primitive as box body*
4,1,4,$2,$3,$4,$5,$6,$7,$8,$9,$2,$3,0*
0 Add four circle primitives for the rounded corners*
1,1,$1+$1,$2,$3*
1,1,$1+$1,$4,$5*
1,1,$1+$1,$6,$7*
1,1,$1+$1,$8,$9*
0 Add four rect primitives between the rounded corners*
20,1,$1+$1,$2,$3,$4,$5,0*
20,1,$1+$1,$4,$5,$6,$7,0*
20,1,$1+$1,$6,$7,$8,$9,0*
20,1,$1+$1,$8,$9,$2,$3,0*%
G04 Aperture macros list end*
%TA.AperFunction,NonConductor*%
%ADD10C,1.500000*%
%TD*%
%TA.AperFunction,Conductor*%
%ADD11C,1.500000*%
%TD*%
%ADD12C,0.187500*%
%TA.AperFunction,ComponentPad*%
%ADD13C,1.600000*%
%TD*%
%TA.AperFunction,ComponentPad*%
%ADD14R,1.650000X1.650000*%
%TD*%
%TA.AperFunction,ComponentPad*%
%ADD15C,1.650000*%
%TD*%
%TA.AperFunction,ComponentPad*%
%ADD16O,3.000000X6.000000*%
%TD*%
%TA.AperFunction,ComponentPad*%
%ADD17RoundRect,0.250000X-0.550000X0.550000X-0.550000X-0.550000X0.550000X-0.550000X0.550000X0.550000X0*%
%TD*%
%TA.AperFunction,ComponentPad*%
%ADD18C,1.700000*%
%TD*%
%TA.AperFunction,ComponentPad*%
%ADD19R,1.800000X1.800000*%
%TD*%
%TA.AperFunction,ComponentPad*%
%ADD20C,1.800000*%
%TD*%
%TA.AperFunction,ComponentPad*%
%ADD21C,2.550000*%
%TD*%
%TA.AperFunction,ComponentPad*%
%ADD22R,1.308000X1.308000*%
%TD*%
%TA.AperFunction,ComponentPad*%
%ADD23C,1.308000*%
%TD*%
%TA.AperFunction,ComponentPad*%
%ADD24R,1.600000X1.600000*%
%TD*%
%TA.AperFunction,ComponentPad*%
%ADD25O,1.600000X1.600000*%
%TD*%
%TA.AperFunction,ViaPad*%
%ADD26C,0.600000*%
%TD*%
%TA.AperFunction,Conductor*%
%ADD27C,0.400000*%
%TD*%
G04 APERTURE END LIST*
D10*
X18510000Y20000000D02*
G75*
G02*
X14510000Y20000000I-2000000J0D01*
G01*
X14510000Y20000000D02*
G75*
G02*
X18510000Y20000000I2000000J0D01*
G01*
D11*
%TO.N,GND*%
X26146039Y20000000D02*
G75*
G02*
X14146039Y20000000I-6000000J0D01*
G01*
X14146039Y20000000D02*
G75*
G02*
X26146039Y20000000I6000000J0D01*
G01*
D10*
X16010000Y20000000D02*
G75*
G02*
X15010000Y20000000I-500000J0D01*
G01*
X15010000Y20000000D02*
G75*
G02*
X16010000Y20000000I500000J0D01*
G01*
D11*
X22146039Y20000000D02*
G75*
G02*
X14146039Y20000000I-4000000J0D01*
G01*
X14146039Y20000000D02*
G75*
G02*
X22146039Y20000000I4000000J0D01*
G01*
D12*
G36*
X-14351883Y-31033523D02*
G01*
X-14278777Y-31033523D01*
X-14216940Y-31064440D01*
X-14197262Y-31084119D01*
X-14282132Y-31084119D01*
X-14343967Y-31053201D01*
X-14364930Y-31032238D01*
X-14351883Y-31033523D01*
G37*
G36*
X-14074082Y-30302537D02*
G01*
X-14007965Y-30368654D01*
X-13969443Y-30522744D01*
X-13969443Y-30832993D01*
X-14007965Y-30987082D01*
X-14018550Y-30997667D01*
X-14095116Y-30921101D01*
X-14102304Y-30915200D01*
X-14103927Y-30913330D01*
X-14106745Y-30911555D01*
X-14109322Y-30909441D01*
X-14111611Y-30908492D01*
X-14119481Y-30903539D01*
X-14214719Y-30855920D01*
X-14231883Y-30849352D01*
X-14235242Y-30849113D01*
X-14238355Y-30847824D01*
X-14256645Y-30846023D01*
X-14351883Y-30846023D01*
X-14370173Y-30847824D01*
X-14403968Y-30861823D01*
X-14429833Y-30887688D01*
X-14433014Y-30895369D01*
X-14448609Y-30832993D01*
X-14448609Y-30522744D01*
X-14410086Y-30368654D01*
X-14343970Y-30302538D01*
X-14282132Y-30271619D01*
X-14135920Y-30271619D01*
X-14074082Y-30302537D01*
G37*
G36*
X-18121701Y-30302537D02*
G01*
X-18055584Y-30368654D01*
X-18017062Y-30522744D01*
X-18017062Y-30832993D01*
X-18055584Y-30987082D01*
X-18121703Y-31053201D01*
X-18183539Y-31084119D01*
X-18329751Y-31084119D01*
X-18391586Y-31053201D01*
X-18457705Y-30987081D01*
X-18496228Y-30832993D01*
X-18496228Y-30522744D01*
X-18457705Y-30368654D01*
X-18391589Y-30302538D01*
X-18329751Y-30271619D01*
X-18183539Y-30271619D01*
X-18121701Y-30302537D01*
G37*
G36*
X-16402524Y-30307428D02*
G01*
X-16333695Y-30376258D01*
X-16297481Y-30448686D01*
X-16255157Y-30617982D01*
X-16255157Y-30737755D01*
X-16297481Y-30907051D01*
X-16333695Y-30979479D01*
X-16402525Y-31048309D01*
X-16509953Y-31084119D01*
X-16639085Y-31084119D01*
X-16639085Y-30271619D01*
X-16509953Y-30271619D01*
X-16402524Y-30307428D01*
G37*
G36*
X-10502654Y-30302537D02*
G01*
X-10436537Y-30368654D01*
X-10398015Y-30522744D01*
X-10398015Y-30832993D01*
X-10436537Y-30987082D01*
X-10502656Y-31053201D01*
X-10564492Y-31084119D01*
X-10710704Y-31084119D01*
X-10772539Y-31053201D01*
X-10838658Y-30987081D01*
X-10877181Y-30832993D01*
X-10877181Y-30522744D01*
X-10838658Y-30368654D01*
X-10772542Y-30302538D01*
X-10710704Y-30271619D01*
X-10564492Y-30271619D01*
X-10502654Y-30302537D01*
G37*
G36*
X-5931225Y-30302537D02*
G01*
X-5865108Y-30368654D01*
X-5826586Y-30522744D01*
X-5826586Y-30832993D01*
X-5865108Y-30987082D01*
X-5931227Y-31053201D01*
X-5993063Y-31084119D01*
X-6139275Y-31084119D01*
X-6201110Y-31053201D01*
X-6267229Y-30987081D01*
X-6305752Y-30832993D01*
X-6305752Y-30522744D01*
X-6267229Y-30368654D01*
X-6201113Y-30302538D01*
X-6139275Y-30271619D01*
X-5993063Y-30271619D01*
X-5931225Y-30302537D01*
G37*
G36*
X-3926334Y-30307428D02*
G01*
X-3857505Y-30376258D01*
X-3821291Y-30448686D01*
X-3778967Y-30617982D01*
X-3778967Y-30737755D01*
X-3821291Y-30907051D01*
X-3857505Y-30979479D01*
X-3926335Y-31048309D01*
X-4033763Y-31084119D01*
X-4162895Y-31084119D01*
X-4162895Y-30271619D01*
X-4033763Y-30271619D01*
X-3926334Y-30307428D01*
G37*
G36*
X-164429Y-30307428D02*
G01*
X-95600Y-30376257D01*
X-59387Y-30448685D01*
X-17063Y-30617982D01*
X-17063Y-30737755D01*
X-59387Y-30907051D01*
X-95600Y-30979479D01*
X-164430Y-31048309D01*
X-271858Y-31084119D01*
X-400990Y-31084119D01*
X-400990Y-30271619D01*
X-271858Y-30271619D01*
X-164429Y-30307428D01*
G37*
G36*
X1402106Y-30302537D02*
G01*
X1468223Y-30368654D01*
X1506746Y-30522744D01*
X1506746Y-30832993D01*
X1468223Y-30987082D01*
X1402104Y-31053201D01*
X1340269Y-31084119D01*
X1194057Y-31084119D01*
X1132221Y-31053201D01*
X1066102Y-30987081D01*
X1027580Y-30832993D01*
X1027580Y-30522744D01*
X1066102Y-30368654D01*
X1132219Y-30302538D01*
X1194057Y-30271619D01*
X1340269Y-30271619D01*
X1402106Y-30302537D01*
G37*
G36*
X-19597892Y-30302536D02*
G01*
X-19571789Y-30328640D01*
X-19540871Y-30390477D01*
X-19540871Y-30489070D01*
X-19571789Y-30550906D01*
X-19597892Y-30577010D01*
X-19659729Y-30607928D01*
X-19924799Y-30607928D01*
X-19924799Y-30271619D01*
X-19659729Y-30271619D01*
X-19597892Y-30302536D01*
G37*
G36*
X-11502655Y-30302536D02*
G01*
X-11476552Y-30328640D01*
X-11445634Y-30390477D01*
X-11445634Y-30489070D01*
X-11476552Y-30550906D01*
X-11502655Y-30577010D01*
X-11564492Y-30607928D01*
X-11829562Y-30607928D01*
X-11829562Y-30271619D01*
X-11564492Y-30271619D01*
X-11502655Y-30302536D01*
G37*
G36*
X-20577192Y-30798404D02*
G01*
X-20793240Y-30798404D01*
X-20685215Y-30474332D01*
X-20577192Y-30798404D01*
G37*
G36*
X-2958145Y-30798404D02*
G01*
X-3174193Y-30798404D01*
X-3066168Y-30474332D01*
X-2958145Y-30798404D01*
G37*
G36*
X-2101002Y-30798404D02*
G01*
X-2317050Y-30798404D01*
X-2209025Y-30474332D01*
X-2101002Y-30798404D01*
G37*
G36*
X-19973952Y-28697484D02*
G01*
X-19905123Y-28766314D01*
X-19868909Y-28838742D01*
X-19826585Y-29008038D01*
X-19826585Y-29127811D01*
X-19868909Y-29297107D01*
X-19905123Y-29369535D01*
X-19973953Y-29438365D01*
X-20081381Y-29474175D01*
X-20210513Y-29474175D01*
X-20210513Y-28661675D01*
X-20081381Y-28661675D01*
X-19973952Y-28697484D01*
G37*
G36*
X-16164428Y-29173674D02*
G01*
X-16143217Y-29194886D01*
X-16112299Y-29256723D01*
X-16112299Y-29355316D01*
X-16143218Y-29417154D01*
X-16169321Y-29443257D01*
X-16231157Y-29474175D01*
X-16496227Y-29474175D01*
X-16496227Y-29137865D01*
X-16271857Y-29137865D01*
X-16164428Y-29173674D01*
G37*
G36*
X-16216939Y-28692592D02*
G01*
X-16190836Y-28718696D01*
X-16159918Y-28780533D01*
X-16159918Y-28831507D01*
X-16190836Y-28893343D01*
X-16216939Y-28919447D01*
X-16278776Y-28950365D01*
X-16496227Y-28950365D01*
X-16496227Y-28661675D01*
X-16278776Y-28661675D01*
X-16216939Y-28692592D01*
G37*
G36*
X-13592999Y-28697484D02*
G01*
X-13524170Y-28766314D01*
X-13487956Y-28838742D01*
X-13445632Y-29008038D01*
X-13445632Y-29127811D01*
X-13487956Y-29297107D01*
X-13524170Y-29369535D01*
X-13593000Y-29438365D01*
X-13700428Y-29474175D01*
X-13829560Y-29474175D01*
X-13829560Y-28661675D01*
X-13700428Y-28661675D01*
X-13592999Y-28697484D01*
G37*
G36*
X-9450142Y-28697484D02*
G01*
X-9381313Y-28766314D01*
X-9345099Y-28838742D01*
X-9302775Y-29008038D01*
X-9302775Y-29127811D01*
X-9345099Y-29297107D01*
X-9381313Y-29369535D01*
X-9450143Y-29438365D01*
X-9557571Y-29474175D01*
X-9686703Y-29474175D01*
X-9686703Y-28661675D01*
X-9557571Y-28661675D01*
X-9450142Y-28697484D01*
G37*
G36*
X-6121700Y-28692593D02*
G01*
X-6055583Y-28758710D01*
X-6017061Y-28912800D01*
X-6017061Y-29223049D01*
X-6055583Y-29377138D01*
X-6121702Y-29443257D01*
X-6183538Y-29474175D01*
X-6329750Y-29474175D01*
X-6391585Y-29443257D01*
X-6457704Y-29377137D01*
X-6496227Y-29223049D01*
X-6496227Y-28912800D01*
X-6457704Y-28758710D01*
X-6391588Y-28692594D01*
X-6329750Y-28661675D01*
X-6183538Y-28661675D01*
X-6121700Y-28692593D01*
G37*
G36*
X-2264557Y-28692593D02*
G01*
X-2198440Y-28758710D01*
X-2159918Y-28912800D01*
X-2159918Y-29223049D01*
X-2198440Y-29377138D01*
X-2264559Y-29443257D01*
X-2326395Y-29474175D01*
X-2472607Y-29474175D01*
X-2534442Y-29443257D01*
X-2600561Y-29377137D01*
X-2639084Y-29223049D01*
X-2639084Y-28912800D01*
X-2600561Y-28758710D01*
X-2534445Y-28692594D01*
X-2472607Y-28661675D01*
X-2326395Y-28661675D01*
X-2264557Y-28692593D01*
G37*
G36*
X3735441Y-28692592D02*
G01*
X3761544Y-28718696D01*
X3797758Y-28791123D01*
X3840082Y-28960419D01*
X3840082Y-29175430D01*
X3797758Y-29344726D01*
X3761544Y-29417154D01*
X3735440Y-29443257D01*
X3673605Y-29474175D01*
X3622631Y-29474175D01*
X3560795Y-29443257D01*
X3534690Y-29417151D01*
X3498478Y-29344726D01*
X3456154Y-29175430D01*
X3456154Y-28960419D01*
X3498478Y-28791122D01*
X3534690Y-28718696D01*
X3560794Y-28692593D01*
X3622631Y-28661675D01*
X3673605Y-28661675D01*
X3735441Y-28692592D01*
G37*
G36*
X6116393Y-28692592D02*
G01*
X6142496Y-28718696D01*
X6178710Y-28791123D01*
X6221034Y-28960419D01*
X6221034Y-29175430D01*
X6178710Y-29344726D01*
X6142496Y-29417154D01*
X6116392Y-29443257D01*
X6054557Y-29474175D01*
X6003583Y-29474175D01*
X5941747Y-29443257D01*
X5915642Y-29417151D01*
X5879430Y-29344726D01*
X5837106Y-29175430D01*
X5837106Y-28960419D01*
X5879430Y-28791122D01*
X5915642Y-28718696D01*
X5941746Y-28692593D01*
X6003583Y-28661675D01*
X6054557Y-28661675D01*
X6116393Y-28692592D01*
G37*
G36*
X7068774Y-28692592D02*
G01*
X7094877Y-28718696D01*
X7131091Y-28791123D01*
X7173415Y-28960419D01*
X7173415Y-29175430D01*
X7131091Y-29344726D01*
X7094877Y-29417154D01*
X7068773Y-29443257D01*
X7006938Y-29474175D01*
X6955964Y-29474175D01*
X6894128Y-29443257D01*
X6868023Y-29417151D01*
X6831811Y-29344726D01*
X6789487Y-29175430D01*
X6789487Y-28960419D01*
X6831811Y-28791122D01*
X6868023Y-28718696D01*
X6894127Y-28692593D01*
X6955964Y-28661675D01*
X7006938Y-28661675D01*
X7068774Y-28692592D01*
G37*
G36*
X-3264558Y-28692592D02*
G01*
X-3238455Y-28718696D01*
X-3207537Y-28780533D01*
X-3207537Y-28879126D01*
X-3238455Y-28940962D01*
X-3264558Y-28967066D01*
X-3326395Y-28997984D01*
X-3591465Y-28997984D01*
X-3591465Y-28661675D01*
X-3326395Y-28661675D01*
X-3264558Y-28692592D01*
G37*
G36*
X1306869Y-28692592D02*
G01*
X1332972Y-28718696D01*
X1363891Y-28780533D01*
X1363891Y-28879126D01*
X1332972Y-28940962D01*
X1306869Y-28967066D01*
X1245033Y-28997984D01*
X979963Y-28997984D01*
X979963Y-28661675D01*
X1245033Y-28661675D01*
X1306869Y-28692592D01*
G37*
G36*
X-20862906Y-29188460D02*
G01*
X-21078954Y-29188460D01*
X-20970929Y-28864388D01*
X-20862906Y-29188460D01*
G37*
G36*
X7472026Y-31620825D02*
G01*
X-22223410Y-31620825D01*
X-22223410Y-31416062D01*
X-8398014Y-31416062D01*
X-8390840Y-31451931D01*
X-8370486Y-31482325D01*
X-8340050Y-31502616D01*
X-8304166Y-31509714D01*
X-8268297Y-31502540D01*
X-8237903Y-31482186D01*
X-8226259Y-31467967D01*
X-7588416Y-30511202D01*
X-6493252Y-30511202D01*
X-6493252Y-30844535D01*
X-6492938Y-30847722D01*
X-6493142Y-30849092D01*
X-6492128Y-30855944D01*
X-6491451Y-30862825D01*
X-6490921Y-30864102D01*
X-6490453Y-30867273D01*
X-6442834Y-31057749D01*
X-6436651Y-31075056D01*
X-6432500Y-31080657D01*
X-6429834Y-31087095D01*
X-6418175Y-31101302D01*
X-6322936Y-31196541D01*
X-6315747Y-31202441D01*
X-6314125Y-31204312D01*
X-6311306Y-31206086D01*
X-6308730Y-31208201D01*
X-6306440Y-31209149D01*
X-6298571Y-31214103D01*
X-6203334Y-31261721D01*
X-6186169Y-31268290D01*
X-6182809Y-31268528D01*
X-6179697Y-31269818D01*
X-6161407Y-31271619D01*
X-5970931Y-31271619D01*
X-5952641Y-31269818D01*
X-5949528Y-31268528D01*
X-5946169Y-31268290D01*
X-5929005Y-31261722D01*
X-5833767Y-31214103D01*
X-5825893Y-31209146D01*
X-5823608Y-31208200D01*
X-5821034Y-31206088D01*
X-5818213Y-31204312D01*
X-5816590Y-31202440D01*
X-5809401Y-31196541D01*
X-5714163Y-31101302D01*
X-5702504Y-31087095D01*
X-5699837Y-31080657D01*
X-5695687Y-31075056D01*
X-5689504Y-31057749D01*
X-5641885Y-30867273D01*
X-5641416Y-30864102D01*
X-5640887Y-30862825D01*
X-5640209Y-30855944D01*
X-5639196Y-30849092D01*
X-5639399Y-30847722D01*
X-5639086Y-30844535D01*
X-5639086Y-30511202D01*
X-5639399Y-30508014D01*
X-5639196Y-30506645D01*
X-5640209Y-30499792D01*
X-5640887Y-30492912D01*
X-5641416Y-30491634D01*
X-5641885Y-30488464D01*
X-5689504Y-30297988D01*
X-5695687Y-30280681D01*
X-5699836Y-30275080D01*
X-5702504Y-30268641D01*
X-5714164Y-30254435D01*
X-5790730Y-30177869D01*
X-5398014Y-30177869D01*
X-5398014Y-31177869D01*
X-5396213Y-31196159D01*
X-5382214Y-31229954D01*
X-5356349Y-31255819D01*
X-5322554Y-31269818D01*
X-5285974Y-31269818D01*
X-5252179Y-31255819D01*
X-5226314Y-31229954D01*
X-5212315Y-31196159D01*
X-5210514Y-31177869D01*
X-5210514Y-30530891D01*
X-4814234Y-31224382D01*
X-4811496Y-31228238D01*
X-4810786Y-31229954D01*
X-4809038Y-31231701D01*
X-4803596Y-31239369D01*
X-4793733Y-31247006D01*
X-4784921Y-31255819D01*
X-4779400Y-31258105D01*
X-4774674Y-31261766D01*
X-4762645Y-31265046D01*
X-4751126Y-31269818D01*
X-4745148Y-31269818D01*
X-4739384Y-31271390D01*
X-4727016Y-31269818D01*
X-4714546Y-31269818D01*
X-4709026Y-31267531D01*
X-4703097Y-31266778D01*
X-4692265Y-31260588D01*
X-4680751Y-31255819D01*
X-4676527Y-31251595D01*
X-4671336Y-31248629D01*
X-4663698Y-31238766D01*
X-4654886Y-31229954D01*
X-4652599Y-31224433D01*
X-4648939Y-31219707D01*
X-4645658Y-31207677D01*
X-4640887Y-31196159D01*
X-4639965Y-31186804D01*
X-4639315Y-31184418D01*
X-4639549Y-31182574D01*
X-4639086Y-31177869D01*
X-4639086Y-30177869D01*
X-4350395Y-30177869D01*
X-4350395Y-31177869D01*
X-4348594Y-31196158D01*
X-4348594Y-31196159D01*
X-4334595Y-31229954D01*
X-4308730Y-31255819D01*
X-4274935Y-31269818D01*
X-4256645Y-31271619D01*
X-4018550Y-31271619D01*
X-4009293Y-31270707D01*
X-4006825Y-31270883D01*
X-4003578Y-31270144D01*
X-4000260Y-31269818D01*
X-3997970Y-31268869D01*
X-3988904Y-31266808D01*
X-3846047Y-31219189D01*
X-3829265Y-31211697D01*
X-3826718Y-31209488D01*
X-3823608Y-31208200D01*
X-3809401Y-31196541D01*
X-3779004Y-31166144D01*
X-3492516Y-31166144D01*
X-3489923Y-31202631D01*
X-3473564Y-31235348D01*
X-3445930Y-31259316D01*
X-3411227Y-31270883D01*
X-3374740Y-31268290D01*
X-3342023Y-31251931D01*
X-3318055Y-31224297D01*
X-3310563Y-31207515D01*
X-3236693Y-30985904D01*
X-2895645Y-30985904D01*
X-2821775Y-31207515D01*
X-2814283Y-31224297D01*
X-2790315Y-31251931D01*
X-2757598Y-31268289D01*
X-2721111Y-31270883D01*
X-2686408Y-31259315D01*
X-2658774Y-31235348D01*
X-2642416Y-31202631D01*
X-2639822Y-31166144D01*
X-2635373Y-31166144D01*
X-2632780Y-31202631D01*
X-2616421Y-31235348D01*
X-2588787Y-31259316D01*
X-2554084Y-31270883D01*
X-2517597Y-31268290D01*
X-2484880Y-31251931D01*
X-2460912Y-31224297D01*
X-2453420Y-31207515D01*
X-2379550Y-30985904D01*
X-2038502Y-30985904D01*
X-1964632Y-31207515D01*
X-1957140Y-31224297D01*
X-1933172Y-31251931D01*
X-1900455Y-31268289D01*
X-1863968Y-31270883D01*
X-1829265Y-31259315D01*
X-1801631Y-31235348D01*
X-1785273Y-31202631D01*
X-1782679Y-31166143D01*
X-1786754Y-31148222D01*
X-2110205Y-30177869D01*
X-1636109Y-30177869D01*
X-1636109Y-30987392D01*
X-1634308Y-31005682D01*
X-1633018Y-31008794D01*
X-1632780Y-31012154D01*
X-1626212Y-31029318D01*
X-1578593Y-31124556D01*
X-1573638Y-31132427D01*
X-1572691Y-31134714D01*
X-1570577Y-31137289D01*
X-1568802Y-31140110D01*
X-1566931Y-31141732D01*
X-1561032Y-31148921D01*
X-1513413Y-31196540D01*
X-1506224Y-31202440D01*
X-1504601Y-31204312D01*
X-1501781Y-31206086D01*
X-1499207Y-31208200D01*
X-1496919Y-31209147D01*
X-1489047Y-31214103D01*
X-1393810Y-31261721D01*
X-1376645Y-31268290D01*
X-1373285Y-31268528D01*
X-1370173Y-31269818D01*
X-1351883Y-31271619D01*
X-1161407Y-31271619D01*
X-1143117Y-31269818D01*
X-1140004Y-31268528D01*
X-1136645Y-31268290D01*
X-1119481Y-31261722D01*
X-1024243Y-31214103D01*
X-1016370Y-31209147D01*
X-1014083Y-31208200D01*
X-1011507Y-31206086D01*
X-1008689Y-31204312D01*
X-1007067Y-31202442D01*
X-999877Y-31196541D01*
X-952258Y-31148921D01*
X-946358Y-31141732D01*
X-944488Y-31140110D01*
X-942712Y-31137289D01*
X-940599Y-31134714D01*
X-939651Y-31132427D01*
X-934697Y-31124556D01*
X-887079Y-31029319D01*
X-880510Y-31012154D01*
X-880271Y-31008794D01*
X-878982Y-31005682D01*
X-877181Y-30987392D01*
X-877181Y-30177869D01*
X-588490Y-30177869D01*
X-588490Y-31177869D01*
X-586689Y-31196158D01*
X-586689Y-31196159D01*
X-572690Y-31229954D01*
X-546825Y-31255819D01*
X-513030Y-31269818D01*
X-494740Y-31271619D01*
X-256645Y-31271619D01*
X-247388Y-31270707D01*
X-244920Y-31270883D01*
X-241673Y-31270144D01*
X-238355Y-31269818D01*
X-236065Y-31268869D01*
X-226999Y-31266808D01*
X-84142Y-31219189D01*
X-67360Y-31211697D01*
X-64813Y-31209488D01*
X-61703Y-31208200D01*
X-47496Y-31196541D01*
X47742Y-31101302D01*
X53641Y-31094112D01*
X55513Y-31092490D01*
X57288Y-31089668D01*
X59401Y-31087095D01*
X60347Y-31084809D01*
X65303Y-31076937D01*
X112921Y-30981698D01*
X113431Y-30980363D01*
X113836Y-30979818D01*
X116586Y-30972119D01*
X119489Y-30964534D01*
X119536Y-30963860D01*
X120019Y-30962511D01*
X167638Y-30772035D01*
X168106Y-30768864D01*
X168636Y-30767587D01*
X169313Y-30760706D01*
X170327Y-30753854D01*
X170123Y-30752484D01*
X170437Y-30749297D01*
X170437Y-30606440D01*
X170123Y-30603252D01*
X170327Y-30601883D01*
X169313Y-30595030D01*
X168636Y-30588150D01*
X168106Y-30586872D01*
X167638Y-30583702D01*
X120019Y-30393226D01*
X119536Y-30391876D01*
X119489Y-30391203D01*
X116586Y-30383617D01*
X113836Y-30375919D01*
X113431Y-30375373D01*
X112921Y-30374039D01*
X65303Y-30278800D01*
X60348Y-30270929D01*
X59401Y-30268641D01*
X57287Y-30266065D01*
X55513Y-30263247D01*
X53641Y-30261623D01*
X47741Y-30254435D01*
X-28825Y-30177869D01*
X411509Y-30177869D01*
X411509Y-31177869D01*
X413310Y-31196159D01*
X427309Y-31229954D01*
X453174Y-31255819D01*
X486969Y-31269818D01*
X523549Y-31269818D01*
X557344Y-31255819D01*
X583209Y-31229954D01*
X597208Y-31196159D01*
X599009Y-31177869D01*
X599009Y-30511202D01*
X840080Y-30511202D01*
X840080Y-30844535D01*
X840393Y-30847722D01*
X840190Y-30849092D01*
X841203Y-30855944D01*
X841881Y-30862825D01*
X842410Y-30864102D01*
X842879Y-30867273D01*
X890498Y-31057749D01*
X896681Y-31075056D01*
X900831Y-31080657D01*
X903498Y-31087095D01*
X915157Y-31101302D01*
X1010396Y-31196541D01*
X1017584Y-31202441D01*
X1019207Y-31204312D01*
X1022025Y-31206086D01*
X1024602Y-31208201D01*
X1026891Y-31209149D01*
X1034761Y-31214103D01*
X1129998Y-31261721D01*
X1147163Y-31268290D01*
X1150522Y-31268528D01*
X1153635Y-31269818D01*
X1171925Y-31271619D01*
X1362401Y-31271619D01*
X1380691Y-31269818D01*
X1383803Y-31268528D01*
X1387163Y-31268290D01*
X1404327Y-31261722D01*
X1499565Y-31214103D01*
X1507438Y-31209146D01*
X1509724Y-31208200D01*
X1512297Y-31206088D01*
X1515119Y-31204312D01*
X1516741Y-31202440D01*
X1523931Y-31196541D01*
X1608510Y-31111961D01*
X1889500Y-31111961D01*
X1889500Y-31148539D01*
X1903498Y-31182335D01*
X1915158Y-31196541D01*
X1962776Y-31244160D01*
X1976977Y-31255814D01*
X1976983Y-31255820D01*
X1999726Y-31265240D01*
X2010778Y-31269818D01*
X2010779Y-31269818D01*
X2047357Y-31269818D01*
X2047358Y-31269818D01*
X2058410Y-31265240D01*
X2081153Y-31255820D01*
X2095359Y-31244160D01*
X2142978Y-31196542D01*
X2154637Y-31182335D01*
X2168635Y-31148540D01*
X2168635Y-31131356D01*
X2168636Y-31111962D01*
X2154638Y-31078166D01*
X2142979Y-31063959D01*
X2095360Y-31016339D01*
X2081154Y-31004680D01*
X2071255Y-31000579D01*
X2047358Y-30990681D01*
X2010778Y-30990681D01*
X1986880Y-31000579D01*
X1976982Y-31004680D01*
X1962776Y-31016340D01*
X1915157Y-31063959D01*
X1903502Y-31078160D01*
X1903498Y-31078165D01*
X1889500Y-31111961D01*
X1608510Y-31111961D01*
X1619169Y-31101302D01*
X1630828Y-31087095D01*
X1633494Y-31080657D01*
X1637645Y-31075056D01*
X1643828Y-31057749D01*
X1691447Y-30867273D01*
X1691915Y-30864102D01*
X1692445Y-30862825D01*
X1693122Y-30855944D01*
X1694136Y-30849092D01*
X1693932Y-30847722D01*
X1694246Y-30844535D01*
X1694246Y-30511202D01*
X1693932Y-30508014D01*
X1694136Y-30506645D01*
X1693122Y-30499792D01*
X1692445Y-30492912D01*
X1691915Y-30491634D01*
X1691447Y-30488464D01*
X1643828Y-30297988D01*
X1637645Y-30280681D01*
X1633495Y-30275080D01*
X1630828Y-30268641D01*
X1619168Y-30254435D01*
X1542602Y-30177869D01*
X2411508Y-30177869D01*
X2411508Y-31177869D01*
X2413309Y-31196159D01*
X2427308Y-31229954D01*
X2453173Y-31255819D01*
X2486968Y-31269818D01*
X2523548Y-31269818D01*
X2557343Y-31255819D01*
X2583208Y-31229954D01*
X2597207Y-31196159D01*
X2599008Y-31177869D01*
X2599008Y-30600454D01*
X2753636Y-30931800D01*
X2757605Y-30938501D01*
X2758429Y-30940765D01*
X2759895Y-30942366D01*
X2763003Y-30947612D01*
X2773512Y-30957236D01*
X2783133Y-30967742D01*
X2786907Y-30969503D01*
X2789980Y-30972317D01*
X2803370Y-30977186D01*
X2816281Y-30983211D01*
X2820442Y-30983393D01*
X2824356Y-30984817D01*
X2838591Y-30984191D01*
X2852826Y-30984817D01*
X2856739Y-30983393D01*
X2860901Y-30983211D01*
X2873817Y-30977183D01*
X2887202Y-30972316D01*
X2890272Y-30969504D01*
X2894049Y-30967742D01*
X2903673Y-30957232D01*
X2914179Y-30947612D01*
X2917284Y-30942369D01*
X2918754Y-30940765D01*
X2919578Y-30938497D01*
X2923546Y-30931800D01*
X3078174Y-30600453D01*
X3078174Y-31177869D01*
X3079975Y-31196159D01*
X3093974Y-31229954D01*
X3119839Y-31255819D01*
X3153634Y-31269818D01*
X3190214Y-31269818D01*
X3224009Y-31255819D01*
X3249874Y-31229954D01*
X3263873Y-31196159D01*
X3265674Y-31177869D01*
X3265674Y-30177869D01*
X3265664Y-30177770D01*
X3459127Y-30177770D01*
X3466225Y-30213655D01*
X3474872Y-30229872D01*
X3773536Y-30677869D01*
X3474872Y-31125866D01*
X3466225Y-31142083D01*
X3459127Y-31177968D01*
X3466301Y-31213836D01*
X3486655Y-31244230D01*
X3517091Y-31264521D01*
X3552976Y-31271619D01*
X3588844Y-31264445D01*
X3619238Y-31244091D01*
X3630882Y-31229872D01*
X3886210Y-30846879D01*
X4141538Y-31229872D01*
X4153182Y-31244091D01*
X4183576Y-31264445D01*
X4219444Y-31271619D01*
X4255329Y-31264521D01*
X4285765Y-31244230D01*
X4306119Y-31213836D01*
X4313293Y-31177967D01*
X4306195Y-31142083D01*
X4297548Y-31125866D01*
X3998883Y-30677869D01*
X4297548Y-30229872D01*
X4306195Y-30213655D01*
X4313293Y-30177771D01*
X4306119Y-30141902D01*
X4285765Y-30111508D01*
X4255329Y-30091217D01*
X4219444Y-30084119D01*
X4183576Y-30091293D01*
X4153182Y-30111647D01*
X4141538Y-30125866D01*
X3886210Y-30508858D01*
X3630882Y-30125866D01*
X3619238Y-30111647D01*
X3588844Y-30091293D01*
X3552976Y-30084119D01*
X3517091Y-30091217D01*
X3486655Y-30111508D01*
X3466301Y-30141902D01*
X3459127Y-30177770D01*
X3265664Y-30177770D01*
X3264489Y-30165843D01*
X3264587Y-30163634D01*
X3264155Y-30162447D01*
X3263873Y-30159579D01*
X3257648Y-30144551D01*
X3252087Y-30129258D01*
X3250673Y-30127714D01*
X3249874Y-30125784D01*
X3238375Y-30114285D01*
X3227382Y-30102281D01*
X3225486Y-30101396D01*
X3224009Y-30099919D01*
X3208981Y-30093693D01*
X3194234Y-30086812D01*
X3192145Y-30086720D01*
X3190214Y-30085920D01*
X3173936Y-30085920D01*
X3157689Y-30085206D01*
X3155725Y-30085920D01*
X3153634Y-30085920D01*
X3138606Y-30092144D01*
X3123313Y-30097706D01*
X3121769Y-30099119D01*
X3119839Y-30099919D01*
X3108340Y-30111417D01*
X3096336Y-30122411D01*
X3094866Y-30124891D01*
X3093974Y-30125784D01*
X3093128Y-30127826D01*
X3086969Y-30138223D01*
X2838590Y-30670461D01*
X2590213Y-30138223D01*
X2584053Y-30127826D01*
X2583208Y-30125784D01*
X2582315Y-30124891D01*
X2580846Y-30122411D01*
X2568846Y-30111422D01*
X2557343Y-30099919D01*
X2555410Y-30099118D01*
X2553869Y-30097707D01*
X2538586Y-30092149D01*
X2523548Y-30085920D01*
X2521456Y-30085920D01*
X2519493Y-30085206D01*
X2503246Y-30085920D01*
X2486968Y-30085920D01*
X2485036Y-30086720D01*
X2482948Y-30086812D01*
X2468200Y-30093693D01*
X2453173Y-30099919D01*
X2451695Y-30101396D01*
X2449800Y-30102281D01*
X2438811Y-30114280D01*
X2427308Y-30125784D01*
X2426507Y-30127716D01*
X2425096Y-30129258D01*
X2419538Y-30144540D01*
X2413309Y-30159579D01*
X2413026Y-30162447D01*
X2412595Y-30163634D01*
X2412692Y-30165843D01*
X2411508Y-30177869D01*
X1542602Y-30177869D01*
X1523930Y-30159197D01*
X1516741Y-30153296D01*
X1515119Y-30151426D01*
X1512300Y-30149651D01*
X1509724Y-30147537D01*
X1507434Y-30146588D01*
X1499565Y-30141635D01*
X1404327Y-30094016D01*
X1387163Y-30087448D01*
X1383803Y-30087209D01*
X1380691Y-30085920D01*
X1362401Y-30084119D01*
X1171925Y-30084119D01*
X1153635Y-30085920D01*
X1150522Y-30087209D01*
X1147163Y-30087448D01*
X1129998Y-30094017D01*
X1034761Y-30141635D01*
X1026891Y-30146588D01*
X1024602Y-30147537D01*
X1022025Y-30149651D01*
X1019207Y-30151426D01*
X1017584Y-30153296D01*
X1010396Y-30159197D01*
X915158Y-30254435D01*
X903498Y-30268641D01*
X900830Y-30275080D01*
X896681Y-30280681D01*
X890498Y-30297988D01*
X842879Y-30488464D01*
X842410Y-30491634D01*
X841881Y-30492912D01*
X841203Y-30499792D01*
X840190Y-30506645D01*
X840393Y-30508014D01*
X840080Y-30511202D01*
X599009Y-30511202D01*
X599009Y-30177869D01*
X597208Y-30159579D01*
X583209Y-30125784D01*
X557344Y-30099919D01*
X523549Y-30085920D01*
X486969Y-30085920D01*
X453174Y-30099919D01*
X427309Y-30125784D01*
X413310Y-30159579D01*
X411509Y-30177869D01*
X-28825Y-30177869D01*
X-47497Y-30159197D01*
X-61703Y-30147537D01*
X-64815Y-30146247D01*
X-67360Y-30144041D01*
X-84142Y-30136549D01*
X-226999Y-30088930D01*
X-236065Y-30086868D01*
X-238355Y-30085920D01*
X-241673Y-30085593D01*
X-244920Y-30084855D01*
X-247388Y-30085030D01*
X-256645Y-30084119D01*
X-494740Y-30084119D01*
X-513030Y-30085920D01*
X-546825Y-30099919D01*
X-572690Y-30125784D01*
X-586689Y-30159579D01*
X-588490Y-30177869D01*
X-877181Y-30177869D01*
X-878982Y-30159579D01*
X-892981Y-30125784D01*
X-918846Y-30099919D01*
X-952641Y-30085920D01*
X-989221Y-30085920D01*
X-1023016Y-30099919D01*
X-1048881Y-30125784D01*
X-1062880Y-30159579D01*
X-1064681Y-30177869D01*
X-1064681Y-30965260D01*
X-1095600Y-31027098D01*
X-1121703Y-31053201D01*
X-1183539Y-31084119D01*
X-1329751Y-31084119D01*
X-1391586Y-31053201D01*
X-1417691Y-31027095D01*
X-1448609Y-30965260D01*
X-1448609Y-30177869D01*
X-1450410Y-30159579D01*
X-1464409Y-30125784D01*
X-1490274Y-30099919D01*
X-1524069Y-30085920D01*
X-1560649Y-30085920D01*
X-1594444Y-30099919D01*
X-1620309Y-30125784D01*
X-1634308Y-30159579D01*
X-1636109Y-30177869D01*
X-2110205Y-30177869D01*
X-2120087Y-30148223D01*
X-2127579Y-30131441D01*
X-2131969Y-30126378D01*
X-2134964Y-30120390D01*
X-2143843Y-30112688D01*
X-2151547Y-30103807D01*
X-2157538Y-30100811D01*
X-2162598Y-30096423D01*
X-2173747Y-30092706D01*
X-2184264Y-30087448D01*
X-2190946Y-30086973D01*
X-2197301Y-30084855D01*
X-2209023Y-30085688D01*
X-2220751Y-30084855D01*
X-2227108Y-30086974D01*
X-2233788Y-30087449D01*
X-2244296Y-30092702D01*
X-2255454Y-30096422D01*
X-2260516Y-30100812D01*
X-2266505Y-30103807D01*
X-2274207Y-30112687D01*
X-2283088Y-30120390D01*
X-2286082Y-30126379D01*
X-2290473Y-30131441D01*
X-2297965Y-30148223D01*
X-2631298Y-31148223D01*
X-2635373Y-31166144D01*
X-2639822Y-31166144D01*
X-2639822Y-31166143D01*
X-2643897Y-31148222D01*
X-2977230Y-30148223D01*
X-2984722Y-30131441D01*
X-2989112Y-30126378D01*
X-2992107Y-30120390D01*
X-3000986Y-30112688D01*
X-3008690Y-30103807D01*
X-3014681Y-30100811D01*
X-3019741Y-30096423D01*
X-3030890Y-30092706D01*
X-3041407Y-30087448D01*
X-3048089Y-30086973D01*
X-3054444Y-30084855D01*
X-3066166Y-30085688D01*
X-3077894Y-30084855D01*
X-3084251Y-30086974D01*
X-3090931Y-30087449D01*
X-3101439Y-30092702D01*
X-3112597Y-30096422D01*
X-3117659Y-30100812D01*
X-3123648Y-30103807D01*
X-3131350Y-30112687D01*
X-3140231Y-30120390D01*
X-3143225Y-30126379D01*
X-3147616Y-30131441D01*
X-3155108Y-30148223D01*
X-3488441Y-31148223D01*
X-3492516Y-31166144D01*
X-3779004Y-31166144D01*
X-3714163Y-31101302D01*
X-3708263Y-31094113D01*
X-3706393Y-31092491D01*
X-3704617Y-31089670D01*
X-3702504Y-31087095D01*
X-3701556Y-31084808D01*
X-3696602Y-31076937D01*
X-3648984Y-30981700D01*
X-3648472Y-30980364D01*
X-3648068Y-30979818D01*
X-3645319Y-30972123D01*
X-3642415Y-30964535D01*
X-3642367Y-30963860D01*
X-3641885Y-30962511D01*
X-3594266Y-30772035D01*
X-3593797Y-30768864D01*
X-3593268Y-30767587D01*
X-3592590Y-30760706D01*
X-3591577Y-30753854D01*
X-3591780Y-30752484D01*
X-3591467Y-30749297D01*
X-3591467Y-30606440D01*
X-3591780Y-30603252D01*
X-3591577Y-30601883D01*
X-3592590Y-30595030D01*
X-3593268Y-30588150D01*
X-3593797Y-30586872D01*
X-3594266Y-30583702D01*
X-3641885Y-30393226D01*
X-3642367Y-30391876D01*
X-3642415Y-30391202D01*
X-3645319Y-30383613D01*
X-3648068Y-30375919D01*
X-3648472Y-30375372D01*
X-3648984Y-30374037D01*
X-3696602Y-30278800D01*
X-3701555Y-30270930D01*
X-3702504Y-30268641D01*
X-3704618Y-30266064D01*
X-3706393Y-30263246D01*
X-3708263Y-30261623D01*
X-3714164Y-30254435D01*
X-3809402Y-30159197D01*
X-3823608Y-30147537D01*
X-3826720Y-30146247D01*
X-3829265Y-30144041D01*
X-3846047Y-30136549D01*
X-3988904Y-30088930D01*
X-3997970Y-30086868D01*
X-4000260Y-30085920D01*
X-4003578Y-30085593D01*
X-4006825Y-30084855D01*
X-4009293Y-30085030D01*
X-4018550Y-30084119D01*
X-4256645Y-30084119D01*
X-4274935Y-30085920D01*
X-4308730Y-30099919D01*
X-4334595Y-30125784D01*
X-4348594Y-30159579D01*
X-4350395Y-30177869D01*
X-4639086Y-30177869D01*
X-4640887Y-30159579D01*
X-4654886Y-30125784D01*
X-4680751Y-30099919D01*
X-4714546Y-30085920D01*
X-4751126Y-30085920D01*
X-4784921Y-30099919D01*
X-4810786Y-30125784D01*
X-4824785Y-30159579D01*
X-4826586Y-30177869D01*
X-4826586Y-30824846D01*
X-5222866Y-30131356D01*
X-5225603Y-30127499D01*
X-5226314Y-30125784D01*
X-5228061Y-30124036D01*
X-5233504Y-30116369D01*
X-5243364Y-30108733D01*
X-5252179Y-30099919D01*
X-5257701Y-30097631D01*
X-5262426Y-30093973D01*
X-5274450Y-30090693D01*
X-5285974Y-30085920D01*
X-5291952Y-30085920D01*
X-5297716Y-30084348D01*
X-5310082Y-30085920D01*
X-5322554Y-30085920D01*
X-5328076Y-30088207D01*
X-5334003Y-30088961D01*
X-5344829Y-30095147D01*
X-5356349Y-30099919D01*
X-5360572Y-30104142D01*
X-5365764Y-30107109D01*
X-5373399Y-30116969D01*
X-5382214Y-30125784D01*
X-5384501Y-30131306D01*
X-5388160Y-30136031D01*
X-5391439Y-30148055D01*
X-5396213Y-30159579D01*
X-5397134Y-30168935D01*
X-5397785Y-30171321D01*
X-5397550Y-30173164D01*
X-5398014Y-30177869D01*
X-5790730Y-30177869D01*
X-5809402Y-30159197D01*
X-5816590Y-30153296D01*
X-5818213Y-30151426D01*
X-5821031Y-30149651D01*
X-5823608Y-30147537D01*
X-5825897Y-30146588D01*
X-5833767Y-30141635D01*
X-5929005Y-30094016D01*
X-5946169Y-30087448D01*
X-5949528Y-30087209D01*
X-5952641Y-30085920D01*
X-5970931Y-30084119D01*
X-6161407Y-30084119D01*
X-6179697Y-30085920D01*
X-6182809Y-30087209D01*
X-6186169Y-30087448D01*
X-6203334Y-30094017D01*
X-6298571Y-30141635D01*
X-6306440Y-30146588D01*
X-6308730Y-30147537D01*
X-6311306Y-30149651D01*
X-6314125Y-30151426D01*
X-6315747Y-30153296D01*
X-6322936Y-30159197D01*
X-6418174Y-30254435D01*
X-6429834Y-30268641D01*
X-6432501Y-30275080D01*
X-6436651Y-30280681D01*
X-6442834Y-30297988D01*
X-6490453Y-30488464D01*
X-6490921Y-30491634D01*
X-6491451Y-30492912D01*
X-6492128Y-30499792D01*
X-6493142Y-30506645D01*
X-6492938Y-30508014D01*
X-6493252Y-30511202D01*
X-7588416Y-30511202D01*
X-7369117Y-30182253D01*
X-7360470Y-30166036D01*
X-7353372Y-30130151D01*
X-7360546Y-30094283D01*
X-7380899Y-30063889D01*
X-7411336Y-30043598D01*
X-7447220Y-30036500D01*
X-7483089Y-30043673D01*
X-7513482Y-30064027D01*
X-7525126Y-30078247D01*
X-8382269Y-31363961D01*
X-8390916Y-31380178D01*
X-8398014Y-31416062D01*
X-22223410Y-31416062D01*
X-22223410Y-30177869D01*
X-22112299Y-30177869D01*
X-22112299Y-31177869D01*
X-22110498Y-31196159D01*
X-22096499Y-31229954D01*
X-22070634Y-31255819D01*
X-22036839Y-31269818D01*
X-22000259Y-31269818D01*
X-21966464Y-31255819D01*
X-21940599Y-31229954D01*
X-21926600Y-31196159D01*
X-21924799Y-31177869D01*
X-21924799Y-30600454D01*
X-21770171Y-30931800D01*
X-21766201Y-30938501D01*
X-21765378Y-30940765D01*
X-21763911Y-30942366D01*
X-21760804Y-30947612D01*
X-21750294Y-30957236D01*
X-21740674Y-30967742D01*
X-21736899Y-30969503D01*
X-21733827Y-30972317D01*
X-21720436Y-30977186D01*
X-21707526Y-30983211D01*
X-21703364Y-30983393D01*
X-21699451Y-30984817D01*
X-21685216Y-30984191D01*
X-21670981Y-30984817D01*
X-21667067Y-30983393D01*
X-21662906Y-30983211D01*
X-21649989Y-30977183D01*
X-21636605Y-30972316D01*
X-21633534Y-30969504D01*
X-21629758Y-30967742D01*
X-21620133Y-30957232D01*
X-21609628Y-30947612D01*
X-21606522Y-30942369D01*
X-21605053Y-30940765D01*
X-21604228Y-30938497D01*
X-21600261Y-30931800D01*
X-21445633Y-30600453D01*
X-21445633Y-31177869D01*
X-21443832Y-31196159D01*
X-21429833Y-31229954D01*
X-21403968Y-31255819D01*
X-21370173Y-31269818D01*
X-21333593Y-31269818D01*
X-21299798Y-31255819D01*
X-21273933Y-31229954D01*
X-21259934Y-31196159D01*
X-21258133Y-31177869D01*
X-21258133Y-31166144D01*
X-21111563Y-31166144D01*
X-21108970Y-31202631D01*
X-21092611Y-31235348D01*
X-21064977Y-31259316D01*
X-21030274Y-31270883D01*
X-20993787Y-31268290D01*
X-20961070Y-31251931D01*
X-20937102Y-31224297D01*
X-20929610Y-31207515D01*
X-20855740Y-30985904D01*
X-20514692Y-30985904D01*
X-20440822Y-31207515D01*
X-20433330Y-31224297D01*
X-20409362Y-31251931D01*
X-20376645Y-31268289D01*
X-20340158Y-31270883D01*
X-20305455Y-31259315D01*
X-20277821Y-31235348D01*
X-20261463Y-31202631D01*
X-20258869Y-31166143D01*
X-20262944Y-31148222D01*
X-20586395Y-30177869D01*
X-20112299Y-30177869D01*
X-20112299Y-31177869D01*
X-20110498Y-31196159D01*
X-20096499Y-31229954D01*
X-20070634Y-31255819D01*
X-20036839Y-31269818D01*
X-20000259Y-31269818D01*
X-19966464Y-31255819D01*
X-19940599Y-31229954D01*
X-19926600Y-31196159D01*
X-19924799Y-31177869D01*
X-19924799Y-30795428D01*
X-19829265Y-30795428D01*
X-19523924Y-31231631D01*
X-19511960Y-31245582D01*
X-19481111Y-31265240D01*
X-19445089Y-31271597D01*
X-19409375Y-31263685D01*
X-19379408Y-31242708D01*
X-19359750Y-31211860D01*
X-19353393Y-31175838D01*
X-19361305Y-31140124D01*
X-19370318Y-31124107D01*
X-19604859Y-30789047D01*
X-19595671Y-30785531D01*
X-19500433Y-30737912D01*
X-19492563Y-30732958D01*
X-19490274Y-30732010D01*
X-19487697Y-30729895D01*
X-19484879Y-30728121D01*
X-19483256Y-30726250D01*
X-19476068Y-30720350D01*
X-19428449Y-30672732D01*
X-19422549Y-30665542D01*
X-19420678Y-30663920D01*
X-19418901Y-30661098D01*
X-19416790Y-30658525D01*
X-19415843Y-30656239D01*
X-19410887Y-30648366D01*
X-19363269Y-30553129D01*
X-19356700Y-30535964D01*
X-19356461Y-30532604D01*
X-19355172Y-30529492D01*
X-19353371Y-30511202D01*
X-19353371Y-30368345D01*
X-19355172Y-30350055D01*
X-19356461Y-30346942D01*
X-19356700Y-30343583D01*
X-19363269Y-30326418D01*
X-19410887Y-30231181D01*
X-19415843Y-30223307D01*
X-19416790Y-30221022D01*
X-19418901Y-30218448D01*
X-19420678Y-30215627D01*
X-19422549Y-30214004D01*
X-19428449Y-30206815D01*
X-19457396Y-30177869D01*
X-19112299Y-30177869D01*
X-19112299Y-31177869D01*
X-19110498Y-31196159D01*
X-19096499Y-31229954D01*
X-19070634Y-31255819D01*
X-19036839Y-31269818D01*
X-19000259Y-31269818D01*
X-18966464Y-31255819D01*
X-18940599Y-31229954D01*
X-18926600Y-31196159D01*
X-18924799Y-31177869D01*
X-18924799Y-30511202D01*
X-18683728Y-30511202D01*
X-18683728Y-30844535D01*
X-18683414Y-30847722D01*
X-18683618Y-30849092D01*
X-18682604Y-30855944D01*
X-18681927Y-30862825D01*
X-18681397Y-30864102D01*
X-18680929Y-30867273D01*
X-18633310Y-31057749D01*
X-18627127Y-31075056D01*
X-18622976Y-31080657D01*
X-18620310Y-31087095D01*
X-18608651Y-31101302D01*
X-18513412Y-31196541D01*
X-18506223Y-31202441D01*
X-18504601Y-31204312D01*
X-18501782Y-31206086D01*
X-18499206Y-31208201D01*
X-18496916Y-31209149D01*
X-18489047Y-31214103D01*
X-18393810Y-31261721D01*
X-18376645Y-31268290D01*
X-18373285Y-31268528D01*
X-18370173Y-31269818D01*
X-18351883Y-31271619D01*
X-18161407Y-31271619D01*
X-18143117Y-31269818D01*
X-18140004Y-31268528D01*
X-18136645Y-31268290D01*
X-18119481Y-31261722D01*
X-18024243Y-31214103D01*
X-18016369Y-31209146D01*
X-18014084Y-31208200D01*
X-18011510Y-31206088D01*
X-18008689Y-31204312D01*
X-18007066Y-31202440D01*
X-17999877Y-31196541D01*
X-17904639Y-31101302D01*
X-17892980Y-31087095D01*
X-17890313Y-31080657D01*
X-17886163Y-31075056D01*
X-17879980Y-31057749D01*
X-17832361Y-30867273D01*
X-17831892Y-30864102D01*
X-17831363Y-30862825D01*
X-17830685Y-30855944D01*
X-17829672Y-30849092D01*
X-17829875Y-30847722D01*
X-17829562Y-30844535D01*
X-17829562Y-30511202D01*
X-17829875Y-30508014D01*
X-17829672Y-30506645D01*
X-17830685Y-30499792D01*
X-17831363Y-30492912D01*
X-17831892Y-30491634D01*
X-17832361Y-30488464D01*
X-17879980Y-30297988D01*
X-17886163Y-30280681D01*
X-17890312Y-30275080D01*
X-17892980Y-30268641D01*
X-17904640Y-30254435D01*
X-17981206Y-30177869D01*
X-16826585Y-30177869D01*
X-16826585Y-31177869D01*
X-16824784Y-31196158D01*
X-16824784Y-31196159D01*
X-16810785Y-31229954D01*
X-16784920Y-31255819D01*
X-16751125Y-31269818D01*
X-16732835Y-31271619D01*
X-16494740Y-31271619D01*
X-16485483Y-31270707D01*
X-16483015Y-31270883D01*
X-16479768Y-31270144D01*
X-16476450Y-31269818D01*
X-16474160Y-31268869D01*
X-16465094Y-31266808D01*
X-16322237Y-31219189D01*
X-16305455Y-31211697D01*
X-16302908Y-31209488D01*
X-16299798Y-31208200D01*
X-16285591Y-31196541D01*
X-16201012Y-31111961D01*
X-15872403Y-31111961D01*
X-15872403Y-31148539D01*
X-15858405Y-31182335D01*
X-15846745Y-31196541D01*
X-15799127Y-31244160D01*
X-15784925Y-31255814D01*
X-15784920Y-31255820D01*
X-15762177Y-31265240D01*
X-15751125Y-31269818D01*
X-15751124Y-31269818D01*
X-15714546Y-31269818D01*
X-15714545Y-31269818D01*
X-15703493Y-31265240D01*
X-15680750Y-31255820D01*
X-15666544Y-31244160D01*
X-15618925Y-31196542D01*
X-15607266Y-31182335D01*
X-15593268Y-31148540D01*
X-15593268Y-31131356D01*
X-15593267Y-31111962D01*
X-15607265Y-31078166D01*
X-15618924Y-31063959D01*
X-15666543Y-31016339D01*
X-15680749Y-31004680D01*
X-15690647Y-31000579D01*
X-15714545Y-30990681D01*
X-15751125Y-30990681D01*
X-15775022Y-31000579D01*
X-15784921Y-31004680D01*
X-15799127Y-31016340D01*
X-15846746Y-31063959D01*
X-15858400Y-31078160D01*
X-15858405Y-31078165D01*
X-15872403Y-31111961D01*
X-16201012Y-31111961D01*
X-16190353Y-31101302D01*
X-16184453Y-31094113D01*
X-16182583Y-31092491D01*
X-16180807Y-31089670D01*
X-16178694Y-31087095D01*
X-16177746Y-31084808D01*
X-16172792Y-31076937D01*
X-16125174Y-30981700D01*
X-16124662Y-30980364D01*
X-16124258Y-30979818D01*
X-16121509Y-30972123D01*
X-16118605Y-30964535D01*
X-16118557Y-30963860D01*
X-16118075Y-30962511D01*
X-16070456Y-30772035D01*
X-16069987Y-30768864D01*
X-16069458Y-30767587D01*
X-16068780Y-30760706D01*
X-16067767Y-30753854D01*
X-16067970Y-30752484D01*
X-16067657Y-30749297D01*
X-16067657Y-30606440D01*
X-16067970Y-30603252D01*
X-16067767Y-30601883D01*
X-16068780Y-30595030D01*
X-16069458Y-30588150D01*
X-16069987Y-30586872D01*
X-16070456Y-30583702D01*
X-16088581Y-30511202D01*
X-14636109Y-30511202D01*
X-14636109Y-30844535D01*
X-14635795Y-30847722D01*
X-14635999Y-30849092D01*
X-14634985Y-30855944D01*
X-14634308Y-30862825D01*
X-14633778Y-30864102D01*
X-14633310Y-30867273D01*
X-14585691Y-31057749D01*
X-14579508Y-31075056D01*
X-14575357Y-31080657D01*
X-14572691Y-31087095D01*
X-14561032Y-31101302D01*
X-14465793Y-31196541D01*
X-14458604Y-31202441D01*
X-14456982Y-31204312D01*
X-14454163Y-31206086D01*
X-14451587Y-31208201D01*
X-14449297Y-31209149D01*
X-14441428Y-31214103D01*
X-14346191Y-31261721D01*
X-14329026Y-31268290D01*
X-14325666Y-31268528D01*
X-14322554Y-31269818D01*
X-14304264Y-31271619D01*
X-14113788Y-31271619D01*
X-14095498Y-31269818D01*
X-14092385Y-31268528D01*
X-14089026Y-31268290D01*
X-14071862Y-31261722D01*
X-14037060Y-31244321D01*
X-13989603Y-31291779D01*
X-13982414Y-31297679D01*
X-13980792Y-31299550D01*
X-13977973Y-31301324D01*
X-13975397Y-31303439D01*
X-13973107Y-31304387D01*
X-13965238Y-31309341D01*
X-13870001Y-31356959D01*
X-13852836Y-31363528D01*
X-13816348Y-31366121D01*
X-13781647Y-31354553D01*
X-13754012Y-31330587D01*
X-13737653Y-31297869D01*
X-13735061Y-31261381D01*
X-13746628Y-31226679D01*
X-13770594Y-31199045D01*
X-13786148Y-31189254D01*
X-13867780Y-31148438D01*
X-13885967Y-31130250D01*
X-13857020Y-31101302D01*
X-13845361Y-31087095D01*
X-13842694Y-31080657D01*
X-13838544Y-31075056D01*
X-13832361Y-31057749D01*
X-13784742Y-30867273D01*
X-13784273Y-30864102D01*
X-13783744Y-30862825D01*
X-13783066Y-30855944D01*
X-13782053Y-30849092D01*
X-13782256Y-30847722D01*
X-13781943Y-30844535D01*
X-13781943Y-30511202D01*
X-13782256Y-30508014D01*
X-13782053Y-30506645D01*
X-13783066Y-30499792D01*
X-13783744Y-30492912D01*
X-13784273Y-30491634D01*
X-13784742Y-30488464D01*
X-13832361Y-30297988D01*
X-13838544Y-30280681D01*
X-13842693Y-30275080D01*
X-13845361Y-30268641D01*
X-13857021Y-30254435D01*
X-13933587Y-30177869D01*
X-13540871Y-30177869D01*
X-13540871Y-30987392D01*
X-13539070Y-31005682D01*
X-13537780Y-31008794D01*
X-13537542Y-31012154D01*
X-13530974Y-31029318D01*
X-13483355Y-31124556D01*
X-13478400Y-31132427D01*
X-13477453Y-31134714D01*
X-13475339Y-31137289D01*
X-13473564Y-31140110D01*
X-13471693Y-31141732D01*
X-13465794Y-31148921D01*
X-13418175Y-31196540D01*
X-13410986Y-31202440D01*
X-13409363Y-31204312D01*
X-13406543Y-31206086D01*
X-13403969Y-31208200D01*
X-13401681Y-31209147D01*
X-13393809Y-31214103D01*
X-13298572Y-31261721D01*
X-13281407Y-31268290D01*
X-13278047Y-31268528D01*
X-13274935Y-31269818D01*
X-13256645Y-31271619D01*
X-13066169Y-31271619D01*
X-13047879Y-31269818D01*
X-13044766Y-31268528D01*
X-13041407Y-31268290D01*
X-13024243Y-31261722D01*
X-12929005Y-31214103D01*
X-12921132Y-31209147D01*
X-12918845Y-31208200D01*
X-12916269Y-31206086D01*
X-12913451Y-31204312D01*
X-12911829Y-31202442D01*
X-12904639Y-31196541D01*
X-12857020Y-31148921D01*
X-12851120Y-31141732D01*
X-12849250Y-31140110D01*
X-12847474Y-31137289D01*
X-12845361Y-31134714D01*
X-12844413Y-31132427D01*
X-12839459Y-31124556D01*
X-12791841Y-31029319D01*
X-12785272Y-31012154D01*
X-12785033Y-31008794D01*
X-12783744Y-31005682D01*
X-12781943Y-30987392D01*
X-12781943Y-30177869D01*
X-12493252Y-30177869D01*
X-12493252Y-31177869D01*
X-12491451Y-31196159D01*
X-12477452Y-31229954D01*
X-12451587Y-31255819D01*
X-12417792Y-31269818D01*
X-12381212Y-31269818D01*
X-12347417Y-31255819D01*
X-12321552Y-31229954D01*
X-12307553Y-31196159D01*
X-12305752Y-31177869D01*
X-12305752Y-30177869D01*
X-12017062Y-30177869D01*
X-12017062Y-31177869D01*
X-12015261Y-31196159D01*
X-12001262Y-31229954D01*
X-11975397Y-31255819D01*
X-11941602Y-31269818D01*
X-11905022Y-31269818D01*
X-11871227Y-31255819D01*
X-11845362Y-31229954D01*
X-11831363Y-31196159D01*
X-11829562Y-31177869D01*
X-11829562Y-30795428D01*
X-11734028Y-30795428D01*
X-11428687Y-31231631D01*
X-11416723Y-31245582D01*
X-11385874Y-31265240D01*
X-11349852Y-31271597D01*
X-11314138Y-31263685D01*
X-11284171Y-31242708D01*
X-11264513Y-31211860D01*
X-11258156Y-31175838D01*
X-11266068Y-31140124D01*
X-11275081Y-31124107D01*
X-11509622Y-30789047D01*
X-11500434Y-30785531D01*
X-11405196Y-30737912D01*
X-11397326Y-30732958D01*
X-11395037Y-30732010D01*
X-11392460Y-30729895D01*
X-11389642Y-30728121D01*
X-11388019Y-30726250D01*
X-11380831Y-30720350D01*
X-11333212Y-30672732D01*
X-11327312Y-30665542D01*
X-11325441Y-30663920D01*
X-11323664Y-30661098D01*
X-11321553Y-30658525D01*
X-11320606Y-30656239D01*
X-11315650Y-30648366D01*
X-11268032Y-30553129D01*
X-11261463Y-30535964D01*
X-11261224Y-30532604D01*
X-11259935Y-30529492D01*
X-11258134Y-30511202D01*
X-11064681Y-30511202D01*
X-11064681Y-30844535D01*
X-11064367Y-30847722D01*
X-11064571Y-30849092D01*
X-11063557Y-30855944D01*
X-11062880Y-30862825D01*
X-11062350Y-30864102D01*
X-11061882Y-30867273D01*
X-11014263Y-31057749D01*
X-11008080Y-31075056D01*
X-11003929Y-31080657D01*
X-11001263Y-31087095D01*
X-10989604Y-31101302D01*
X-10894365Y-31196541D01*
X-10887176Y-31202441D01*
X-10885554Y-31204312D01*
X-10882735Y-31206086D01*
X-10880159Y-31208201D01*
X-10877869Y-31209149D01*
X-10870000Y-31214103D01*
X-10774763Y-31261721D01*
X-10757598Y-31268290D01*
X-10754238Y-31268528D01*
X-10751126Y-31269818D01*
X-10732836Y-31271619D01*
X-10542360Y-31271619D01*
X-10524070Y-31269818D01*
X-10520957Y-31268528D01*
X-10517598Y-31268290D01*
X-10500434Y-31261722D01*
X-10405196Y-31214103D01*
X-10397322Y-31209146D01*
X-10395037Y-31208200D01*
X-10392463Y-31206088D01*
X-10389642Y-31204312D01*
X-10388019Y-31202440D01*
X-10380830Y-31196541D01*
X-10362257Y-31177968D01*
X-10064681Y-31177968D01*
X-10062880Y-31186972D01*
X-10062880Y-31196159D01*
X-10059327Y-31204736D01*
X-10057507Y-31213836D01*
X-10052396Y-31221467D01*
X-10048881Y-31229954D01*
X-10042318Y-31236516D01*
X-10037153Y-31244230D01*
X-10029508Y-31249326D01*
X-10023016Y-31255819D01*
X-10014443Y-31259370D01*
X-10006717Y-31264521D01*
X-9997705Y-31266303D01*
X-9989221Y-31269818D01*
X-9970931Y-31271619D01*
X-9970832Y-31271619D01*
X-9304265Y-31271619D01*
X-9285975Y-31269818D01*
X-9252180Y-31255819D01*
X-9226315Y-31229954D01*
X-9212316Y-31196159D01*
X-9212316Y-31159579D01*
X-9226315Y-31125784D01*
X-9252180Y-31099919D01*
X-9285975Y-31085920D01*
X-9304265Y-31084119D01*
X-9795757Y-31084119D01*
X-9226260Y-30229872D01*
X-9217613Y-30213655D01*
X-9215830Y-30204643D01*
X-9212316Y-30196159D01*
X-9212316Y-30186875D01*
X-9210515Y-30177771D01*
X-9212316Y-30168766D01*
X-9212316Y-30159579D01*
X-9215869Y-30151001D01*
X-9217689Y-30141902D01*
X-9222799Y-30134270D01*
X-9226315Y-30125784D01*
X-9232877Y-30119221D01*
X-9238043Y-30111508D01*
X-9245687Y-30106411D01*
X-9252180Y-30099919D01*
X-9260752Y-30096367D01*
X-9268479Y-30091217D01*
X-9277490Y-30089434D01*
X-9285975Y-30085920D01*
X-9304265Y-30084119D01*
X-9970931Y-30084119D01*
X-9989221Y-30085920D01*
X-10023016Y-30099919D01*
X-10048881Y-30125784D01*
X-10062880Y-30159579D01*
X-10062880Y-30196159D01*
X-10048881Y-30229954D01*
X-10023016Y-30255819D01*
X-9989221Y-30269818D01*
X-9970931Y-30271619D01*
X-9479439Y-30271619D01*
X-10048936Y-31125866D01*
X-10057583Y-31142083D01*
X-10059365Y-31151094D01*
X-10062880Y-31159579D01*
X-10062880Y-31168862D01*
X-10064681Y-31177968D01*
X-10362257Y-31177968D01*
X-10285592Y-31101302D01*
X-10273933Y-31087095D01*
X-10271266Y-31080657D01*
X-10267116Y-31075056D01*
X-10260933Y-31057749D01*
X-10213314Y-30867273D01*
X-10212845Y-30864102D01*
X-10212316Y-30862825D01*
X-10211638Y-30855944D01*
X-10210625Y-30849092D01*
X-10210828Y-30847722D01*
X-10210515Y-30844535D01*
X-10210515Y-30511202D01*
X-10210828Y-30508014D01*
X-10210625Y-30506645D01*
X-10211638Y-30499792D01*
X-10212316Y-30492912D01*
X-10212845Y-30491634D01*
X-10213314Y-30488464D01*
X-10260933Y-30297988D01*
X-10267116Y-30280681D01*
X-10271265Y-30275080D01*
X-10273933Y-30268641D01*
X-10285593Y-30254435D01*
X-10380831Y-30159197D01*
X-10388019Y-30153296D01*
X-10389642Y-30151426D01*
X-10392460Y-30149651D01*
X-10395037Y-30147537D01*
X-10397326Y-30146588D01*
X-10405196Y-30141635D01*
X-10500434Y-30094016D01*
X-10517598Y-30087448D01*
X-10520957Y-30087209D01*
X-10524070Y-30085920D01*
X-10542360Y-30084119D01*
X-10732836Y-30084119D01*
X-10751126Y-30085920D01*
X-10754238Y-30087209D01*
X-10757598Y-30087448D01*
X-10774763Y-30094017D01*
X-10870000Y-30141635D01*
X-10877869Y-30146588D01*
X-10880159Y-30147537D01*
X-10882735Y-30149651D01*
X-10885554Y-30151426D01*
X-10887176Y-30153296D01*
X-10894365Y-30159197D01*
X-10989603Y-30254435D01*
X-11001263Y-30268641D01*
X-11003930Y-30275080D01*
X-11008080Y-30280681D01*
X-11014263Y-30297988D01*
X-11061882Y-30488464D01*
X-11062350Y-30491634D01*
X-11062880Y-30492912D01*
X-11063557Y-30499792D01*
X-11064571Y-30506645D01*
X-11064367Y-30508014D01*
X-11064681Y-30511202D01*
X-11258134Y-30511202D01*
X-11258134Y-30368345D01*
X-11259935Y-30350055D01*
X-11261224Y-30346942D01*
X-11261463Y-30343583D01*
X-11268032Y-30326418D01*
X-11315650Y-30231181D01*
X-11320606Y-30223307D01*
X-11321553Y-30221022D01*
X-11323664Y-30218448D01*
X-11325441Y-30215627D01*
X-11327312Y-30214004D01*
X-11333212Y-30206815D01*
X-11380831Y-30159197D01*
X-11388019Y-30153296D01*
X-11389642Y-30151426D01*
X-11392460Y-30149651D01*
X-11395037Y-30147537D01*
X-11397326Y-30146588D01*
X-11405196Y-30141635D01*
X-11500434Y-30094016D01*
X-11517598Y-30087448D01*
X-11520957Y-30087209D01*
X-11524070Y-30085920D01*
X-11542360Y-30084119D01*
X-11923312Y-30084119D01*
X-11941602Y-30085920D01*
X-11975397Y-30099919D01*
X-12001262Y-30125784D01*
X-12015261Y-30159579D01*
X-12017062Y-30177869D01*
X-12305752Y-30177869D01*
X-12307553Y-30159579D01*
X-12321552Y-30125784D01*
X-12347417Y-30099919D01*
X-12381212Y-30085920D01*
X-12417792Y-30085920D01*
X-12451587Y-30099919D01*
X-12477452Y-30125784D01*
X-12491451Y-30159579D01*
X-12493252Y-30177869D01*
X-12781943Y-30177869D01*
X-12783744Y-30159579D01*
X-12797743Y-30125784D01*
X-12823608Y-30099919D01*
X-12857403Y-30085920D01*
X-12893983Y-30085920D01*
X-12927778Y-30099919D01*
X-12953643Y-30125784D01*
X-12967642Y-30159579D01*
X-12969443Y-30177869D01*
X-12969443Y-30965260D01*
X-13000362Y-31027098D01*
X-13026465Y-31053201D01*
X-13088301Y-31084119D01*
X-13234513Y-31084119D01*
X-13296348Y-31053201D01*
X-13322453Y-31027095D01*
X-13353371Y-30965260D01*
X-13353371Y-30177869D01*
X-13355172Y-30159579D01*
X-13369171Y-30125784D01*
X-13395036Y-30099919D01*
X-13428831Y-30085920D01*
X-13465411Y-30085920D01*
X-13499206Y-30099919D01*
X-13525071Y-30125784D01*
X-13539070Y-30159579D01*
X-13540871Y-30177869D01*
X-13933587Y-30177869D01*
X-13952259Y-30159197D01*
X-13959447Y-30153296D01*
X-13961070Y-30151426D01*
X-13963888Y-30149651D01*
X-13966465Y-30147537D01*
X-13968754Y-30146588D01*
X-13976624Y-30141635D01*
X-14071862Y-30094016D01*
X-14089026Y-30087448D01*
X-14092385Y-30087209D01*
X-14095498Y-30085920D01*
X-14113788Y-30084119D01*
X-14304264Y-30084119D01*
X-14322554Y-30085920D01*
X-14325666Y-30087209D01*
X-14329026Y-30087448D01*
X-14346191Y-30094017D01*
X-14441428Y-30141635D01*
X-14449297Y-30146588D01*
X-14451587Y-30147537D01*
X-14454163Y-30149651D01*
X-14456982Y-30151426D01*
X-14458604Y-30153296D01*
X-14465793Y-30159197D01*
X-14561031Y-30254435D01*
X-14572691Y-30268641D01*
X-14575358Y-30275080D01*
X-14579508Y-30280681D01*
X-14585691Y-30297988D01*
X-14633310Y-30488464D01*
X-14633778Y-30491634D01*
X-14634308Y-30492912D01*
X-14634985Y-30499792D01*
X-14635999Y-30506645D01*
X-14635795Y-30508014D01*
X-14636109Y-30511202D01*
X-16088581Y-30511202D01*
X-16118075Y-30393226D01*
X-16118557Y-30391876D01*
X-16118605Y-30391202D01*
X-16121509Y-30383613D01*
X-16124258Y-30375919D01*
X-16124662Y-30375372D01*
X-16125174Y-30374037D01*
X-16172792Y-30278800D01*
X-16177745Y-30270930D01*
X-16178694Y-30268641D01*
X-16180808Y-30266064D01*
X-16182583Y-30263246D01*
X-16184453Y-30261623D01*
X-16190354Y-30254435D01*
X-16285592Y-30159197D01*
X-16299798Y-30147537D01*
X-16302910Y-30146247D01*
X-16305455Y-30144041D01*
X-16322237Y-30136549D01*
X-16465094Y-30088930D01*
X-16474160Y-30086868D01*
X-16476450Y-30085920D01*
X-16479768Y-30085593D01*
X-16483015Y-30084855D01*
X-16485483Y-30085030D01*
X-16494740Y-30084119D01*
X-16732835Y-30084119D01*
X-16751125Y-30085920D01*
X-16784920Y-30099919D01*
X-16810785Y-30125784D01*
X-16824784Y-30159579D01*
X-16826585Y-30177869D01*
X-17981206Y-30177869D01*
X-17999878Y-30159197D01*
X-18007066Y-30153296D01*
X-18008689Y-30151426D01*
X-18011507Y-30149651D01*
X-18014084Y-30147537D01*
X-18016373Y-30146588D01*
X-18024243Y-30141635D01*
X-18119481Y-30094016D01*
X-18136645Y-30087448D01*
X-18140004Y-30087209D01*
X-18143117Y-30085920D01*
X-18161407Y-30084119D01*
X-18351883Y-30084119D01*
X-18370173Y-30085920D01*
X-18373285Y-30087209D01*
X-18376645Y-30087448D01*
X-18393810Y-30094017D01*
X-18489047Y-30141635D01*
X-18496916Y-30146588D01*
X-18499206Y-30147537D01*
X-18501782Y-30149651D01*
X-18504601Y-30151426D01*
X-18506223Y-30153296D01*
X-18513412Y-30159197D01*
X-18608650Y-30254435D01*
X-18620310Y-30268641D01*
X-18622977Y-30275080D01*
X-18627127Y-30280681D01*
X-18633310Y-30297988D01*
X-18680929Y-30488464D01*
X-18681397Y-30491634D01*
X-18681927Y-30492912D01*
X-18682604Y-30499792D01*
X-18683618Y-30506645D01*
X-18683414Y-30508014D01*
X-18683728Y-30511202D01*
X-18924799Y-30511202D01*
X-18924799Y-30177869D01*
X-18926600Y-30159579D01*
X-18940599Y-30125784D01*
X-18966464Y-30099919D01*
X-19000259Y-30085920D01*
X-19036839Y-30085920D01*
X-19070634Y-30099919D01*
X-19096499Y-30125784D01*
X-19110498Y-30159579D01*
X-19112299Y-30177869D01*
X-19457396Y-30177869D01*
X-19476068Y-30159197D01*
X-19483256Y-30153296D01*
X-19484879Y-30151426D01*
X-19487697Y-30149651D01*
X-19490274Y-30147537D01*
X-19492563Y-30146588D01*
X-19500433Y-30141635D01*
X-19595671Y-30094016D01*
X-19612835Y-30087448D01*
X-19616194Y-30087209D01*
X-19619307Y-30085920D01*
X-19637597Y-30084119D01*
X-20018549Y-30084119D01*
X-20036839Y-30085920D01*
X-20070634Y-30099919D01*
X-20096499Y-30125784D01*
X-20110498Y-30159579D01*
X-20112299Y-30177869D01*
X-20586395Y-30177869D01*
X-20596277Y-30148223D01*
X-20603769Y-30131441D01*
X-20608159Y-30126378D01*
X-20611154Y-30120390D01*
X-20620033Y-30112688D01*
X-20627737Y-30103807D01*
X-20633728Y-30100811D01*
X-20638788Y-30096423D01*
X-20649937Y-30092706D01*
X-20660454Y-30087448D01*
X-20667136Y-30086973D01*
X-20673491Y-30084855D01*
X-20685213Y-30085688D01*
X-20696941Y-30084855D01*
X-20703298Y-30086974D01*
X-20709978Y-30087449D01*
X-20720486Y-30092702D01*
X-20731644Y-30096422D01*
X-20736706Y-30100812D01*
X-20742695Y-30103807D01*
X-20750397Y-30112687D01*
X-20759278Y-30120390D01*
X-20762272Y-30126379D01*
X-20766663Y-30131441D01*
X-20774155Y-30148223D01*
X-21107488Y-31148223D01*
X-21111563Y-31166144D01*
X-21258133Y-31166144D01*
X-21258133Y-30177869D01*
X-21259317Y-30165843D01*
X-21259220Y-30163634D01*
X-21259651Y-30162447D01*
X-21259934Y-30159579D01*
X-21266158Y-30144551D01*
X-21271720Y-30129258D01*
X-21273133Y-30127714D01*
X-21273933Y-30125784D01*
X-21285431Y-30114285D01*
X-21296425Y-30102281D01*
X-21298320Y-30101396D01*
X-21299798Y-30099919D01*
X-21314825Y-30093693D01*
X-21329573Y-30086812D01*
X-21331661Y-30086720D01*
X-21333593Y-30085920D01*
X-21349871Y-30085920D01*
X-21366118Y-30085206D01*
X-21368082Y-30085920D01*
X-21370173Y-30085920D01*
X-21385200Y-30092144D01*
X-21400494Y-30097706D01*
X-21402037Y-30099119D01*
X-21403968Y-30099919D01*
X-21415466Y-30111417D01*
X-21427471Y-30122411D01*
X-21428940Y-30124891D01*
X-21429833Y-30125784D01*
X-21430678Y-30127826D01*
X-21436838Y-30138223D01*
X-21685216Y-30670461D01*
X-21933594Y-30138223D01*
X-21939753Y-30127826D01*
X-21940599Y-30125784D01*
X-21941491Y-30124891D01*
X-21942961Y-30122411D01*
X-21954960Y-30111422D01*
X-21966464Y-30099919D01*
X-21968396Y-30099118D01*
X-21969938Y-30097707D01*
X-21985220Y-30092149D01*
X-22000259Y-30085920D01*
X-22002351Y-30085920D01*
X-22004314Y-30085206D01*
X-22020561Y-30085920D01*
X-22036839Y-30085920D01*
X-22038770Y-30086720D01*
X-22040859Y-30086812D01*
X-22055606Y-30093693D01*
X-22070634Y-30099919D01*
X-22072111Y-30101396D01*
X-22074007Y-30102281D01*
X-22084995Y-30114280D01*
X-22096499Y-30125784D01*
X-22097299Y-30127716D01*
X-22098711Y-30129258D01*
X-22104268Y-30144540D01*
X-22110498Y-30159579D01*
X-22110780Y-30162447D01*
X-22111212Y-30163634D01*
X-22111114Y-30165843D01*
X-22112299Y-30177869D01*
X-22223410Y-30177869D01*
X-22223410Y-28567925D01*
X-22112299Y-28567925D01*
X-22112299Y-29567925D01*
X-22110498Y-29586215D01*
X-22096499Y-29620010D01*
X-22070634Y-29645875D01*
X-22036839Y-29659874D01*
X-22000259Y-29659874D01*
X-21966464Y-29645875D01*
X-21940599Y-29620010D01*
X-21926600Y-29586215D01*
X-21924799Y-29567925D01*
X-21924799Y-29556200D01*
X-21397277Y-29556200D01*
X-21394684Y-29592687D01*
X-21378325Y-29625404D01*
X-21350691Y-29649372D01*
X-21315988Y-29660939D01*
X-21279501Y-29658346D01*
X-21246784Y-29641987D01*
X-21222816Y-29614353D01*
X-21215324Y-29597571D01*
X-21141454Y-29375960D01*
X-20800406Y-29375960D01*
X-20726536Y-29597571D01*
X-20719044Y-29614353D01*
X-20695076Y-29641987D01*
X-20662359Y-29658345D01*
X-20625872Y-29660939D01*
X-20591169Y-29649371D01*
X-20563535Y-29625404D01*
X-20547177Y-29592687D01*
X-20544583Y-29556199D01*
X-20548658Y-29538278D01*
X-20872109Y-28567925D01*
X-20398013Y-28567925D01*
X-20398013Y-29567925D01*
X-20396212Y-29586214D01*
X-20396212Y-29586215D01*
X-20382213Y-29620010D01*
X-20356348Y-29645875D01*
X-20322553Y-29659874D01*
X-20304263Y-29661675D01*
X-20066168Y-29661675D01*
X-20056911Y-29660763D01*
X-20054443Y-29660939D01*
X-20051196Y-29660200D01*
X-20047878Y-29659874D01*
X-20045588Y-29658925D01*
X-20036522Y-29656864D01*
X-19893665Y-29609245D01*
X-19876883Y-29601753D01*
X-19874336Y-29599544D01*
X-19871226Y-29598256D01*
X-19857019Y-29586597D01*
X-19761781Y-29491358D01*
X-19755881Y-29484169D01*
X-19754011Y-29482547D01*
X-19752235Y-29479726D01*
X-19750122Y-29477151D01*
X-19749174Y-29474864D01*
X-19744220Y-29466993D01*
X-19696602Y-29371756D01*
X-19696090Y-29370420D01*
X-19695686Y-29369874D01*
X-19692937Y-29362179D01*
X-19690033Y-29354591D01*
X-19689985Y-29353916D01*
X-19689503Y-29352567D01*
X-19641884Y-29162091D01*
X-19641415Y-29158920D01*
X-19640886Y-29157643D01*
X-19640208Y-29150762D01*
X-19639195Y-29143910D01*
X-19639398Y-29142540D01*
X-19639085Y-29139353D01*
X-19639085Y-28996496D01*
X-19639398Y-28993308D01*
X-19639195Y-28991939D01*
X-19640208Y-28985086D01*
X-19640886Y-28978206D01*
X-19641415Y-28976928D01*
X-19641884Y-28973758D01*
X-19689503Y-28783282D01*
X-19689985Y-28781932D01*
X-19690033Y-28781258D01*
X-19692937Y-28773669D01*
X-19695686Y-28765975D01*
X-19696090Y-28765428D01*
X-19696602Y-28764093D01*
X-19744220Y-28668856D01*
X-19749173Y-28660986D01*
X-19750122Y-28658697D01*
X-19752236Y-28656120D01*
X-19754011Y-28653302D01*
X-19755881Y-28651679D01*
X-19761782Y-28644491D01*
X-19838348Y-28567925D01*
X-19398013Y-28567925D01*
X-19398013Y-29567925D01*
X-19396212Y-29586214D01*
X-19396212Y-29586215D01*
X-19382213Y-29620010D01*
X-19356348Y-29645875D01*
X-19322553Y-29659874D01*
X-19304263Y-29661675D01*
X-18828073Y-29661675D01*
X-18809783Y-29659874D01*
X-18775988Y-29645875D01*
X-18750123Y-29620010D01*
X-18736124Y-29586215D01*
X-18736124Y-29549635D01*
X-18750123Y-29515840D01*
X-18775988Y-29489975D01*
X-18809783Y-29475976D01*
X-18828073Y-29474175D01*
X-19210513Y-29474175D01*
X-19210513Y-29137865D01*
X-18970930Y-29137865D01*
X-18952640Y-29136064D01*
X-18918845Y-29122065D01*
X-18892980Y-29096200D01*
X-18878981Y-29062405D01*
X-18878981Y-29025825D01*
X-18892980Y-28992030D01*
X-18918845Y-28966165D01*
X-18952640Y-28952166D01*
X-18970930Y-28950365D01*
X-19210513Y-28950365D01*
X-19210513Y-28661675D01*
X-18828073Y-28661675D01*
X-18809783Y-28659874D01*
X-18775988Y-28645875D01*
X-18750123Y-28620010D01*
X-18736124Y-28586215D01*
X-18736124Y-28549635D01*
X-18634307Y-28549635D01*
X-18634307Y-28586215D01*
X-18620308Y-28620010D01*
X-18594443Y-28645875D01*
X-18560648Y-28659874D01*
X-18542358Y-28661675D01*
X-18350394Y-28661675D01*
X-18350394Y-29567925D01*
X-18348593Y-29586215D01*
X-18334594Y-29620010D01*
X-18308729Y-29645875D01*
X-18274934Y-29659874D01*
X-18238354Y-29659874D01*
X-18204559Y-29645875D01*
X-18178694Y-29620010D01*
X-18164695Y-29586215D01*
X-18162894Y-29567925D01*
X-18162894Y-28661675D01*
X-17970930Y-28661675D01*
X-17952640Y-28659874D01*
X-17918845Y-28645875D01*
X-17892980Y-28620010D01*
X-17878981Y-28586215D01*
X-17878981Y-28567925D01*
X-17731346Y-28567925D01*
X-17731346Y-29377448D01*
X-17729545Y-29395738D01*
X-17728255Y-29398850D01*
X-17728017Y-29402210D01*
X-17721449Y-29419374D01*
X-17673830Y-29514612D01*
X-17668875Y-29522483D01*
X-17667928Y-29524770D01*
X-17665814Y-29527345D01*
X-17664039Y-29530166D01*
X-17662168Y-29531788D01*
X-17656269Y-29538977D01*
X-17608650Y-29586596D01*
X-17601461Y-29592496D01*
X-17599838Y-29594368D01*
X-17597018Y-29596142D01*
X-17594444Y-29598256D01*
X-17592156Y-29599203D01*
X-17584284Y-29604159D01*
X-17489047Y-29651777D01*
X-17471882Y-29658346D01*
X-17468522Y-29658584D01*
X-17465410Y-29659874D01*
X-17447120Y-29661675D01*
X-17256644Y-29661675D01*
X-17238354Y-29659874D01*
X-17235241Y-29658584D01*
X-17231882Y-29658346D01*
X-17214718Y-29651778D01*
X-17119480Y-29604159D01*
X-17111607Y-29599203D01*
X-17109320Y-29598256D01*
X-17106744Y-29596142D01*
X-17103926Y-29594368D01*
X-17102304Y-29592498D01*
X-17095114Y-29586597D01*
X-17047495Y-29538977D01*
X-17041595Y-29531788D01*
X-17039725Y-29530166D01*
X-17037949Y-29527345D01*
X-17035836Y-29524770D01*
X-17034888Y-29522483D01*
X-17029934Y-29514612D01*
X-16982316Y-29419375D01*
X-16975747Y-29402210D01*
X-16975508Y-29398850D01*
X-16974219Y-29395738D01*
X-16972418Y-29377448D01*
X-16972418Y-28567925D01*
X-16683727Y-28567925D01*
X-16683727Y-29567925D01*
X-16681926Y-29586214D01*
X-16681926Y-29586215D01*
X-16667927Y-29620010D01*
X-16642062Y-29645875D01*
X-16608267Y-29659874D01*
X-16589977Y-29661675D01*
X-16209025Y-29661675D01*
X-16190735Y-29659874D01*
X-16187622Y-29658584D01*
X-16184263Y-29658346D01*
X-16167099Y-29651778D01*
X-16071861Y-29604159D01*
X-16063988Y-29599203D01*
X-16061701Y-29598256D01*
X-16059125Y-29596142D01*
X-16056307Y-29594368D01*
X-16054685Y-29592498D01*
X-16047495Y-29586597D01*
X-15999876Y-29538977D01*
X-15993976Y-29531788D01*
X-15992106Y-29530166D01*
X-15990330Y-29527345D01*
X-15988217Y-29524770D01*
X-15987269Y-29522483D01*
X-15982315Y-29514612D01*
X-15934697Y-29419375D01*
X-15928128Y-29402210D01*
X-15927889Y-29398850D01*
X-15926600Y-29395738D01*
X-15924799Y-29377448D01*
X-15924799Y-29234591D01*
X-15926600Y-29216301D01*
X-15927889Y-29213188D01*
X-15928128Y-29209829D01*
X-15934697Y-29192664D01*
X-15982315Y-29097427D01*
X-15987271Y-29089553D01*
X-15988218Y-29087268D01*
X-15990329Y-29084694D01*
X-15992106Y-29081873D01*
X-15993977Y-29080250D01*
X-15999877Y-29073061D01*
X-16047496Y-29025443D01*
X-16053138Y-29020811D01*
X-16047496Y-29015169D01*
X-16041596Y-29007979D01*
X-16039725Y-29006357D01*
X-16037948Y-29003535D01*
X-16035837Y-29000962D01*
X-16034890Y-28998676D01*
X-16029934Y-28990803D01*
X-15982316Y-28895566D01*
X-15975747Y-28878401D01*
X-15975508Y-28875041D01*
X-15974219Y-28871929D01*
X-15972418Y-28853639D01*
X-15972418Y-28758401D01*
X-15974219Y-28740111D01*
X-15975508Y-28736998D01*
X-15975747Y-28733639D01*
X-15982316Y-28716474D01*
X-16029934Y-28621237D01*
X-16034890Y-28613363D01*
X-16035837Y-28611078D01*
X-16037948Y-28608504D01*
X-16039725Y-28605683D01*
X-16041596Y-28604060D01*
X-16047496Y-28596871D01*
X-16076443Y-28567925D01*
X-15683727Y-28567925D01*
X-15683727Y-29567925D01*
X-15681926Y-29586214D01*
X-15681926Y-29586215D01*
X-15667927Y-29620010D01*
X-15642062Y-29645875D01*
X-15608267Y-29659874D01*
X-15589977Y-29661675D01*
X-15113787Y-29661675D01*
X-15095497Y-29659874D01*
X-15061702Y-29645875D01*
X-15035837Y-29620010D01*
X-15021838Y-29586215D01*
X-15021838Y-29549635D01*
X-15035837Y-29515840D01*
X-15061702Y-29489975D01*
X-15095497Y-29475976D01*
X-15113787Y-29474175D01*
X-15496227Y-29474175D01*
X-15496227Y-29137865D01*
X-15256644Y-29137865D01*
X-15238354Y-29136064D01*
X-15204559Y-29122065D01*
X-15178694Y-29096200D01*
X-15164695Y-29062405D01*
X-15164695Y-29025825D01*
X-15178694Y-28992030D01*
X-15204559Y-28966165D01*
X-15238354Y-28952166D01*
X-15256644Y-28950365D01*
X-15496227Y-28950365D01*
X-15496227Y-28661675D01*
X-15113787Y-28661675D01*
X-15095497Y-28659874D01*
X-15061702Y-28645875D01*
X-15035837Y-28620010D01*
X-15021838Y-28586215D01*
X-15021838Y-28567925D01*
X-14017060Y-28567925D01*
X-14017060Y-29567925D01*
X-14015259Y-29586214D01*
X-14015259Y-29586215D01*
X-14001260Y-29620010D01*
X-13975395Y-29645875D01*
X-13941600Y-29659874D01*
X-13923310Y-29661675D01*
X-13685215Y-29661675D01*
X-13675958Y-29660763D01*
X-13673490Y-29660939D01*
X-13670243Y-29660200D01*
X-13666925Y-29659874D01*
X-13664635Y-29658925D01*
X-13655569Y-29656864D01*
X-13512712Y-29609245D01*
X-13495930Y-29601753D01*
X-13493383Y-29599544D01*
X-13490273Y-29598256D01*
X-13476066Y-29586597D01*
X-13439104Y-29549635D01*
X-13110497Y-29549635D01*
X-13110497Y-29586215D01*
X-13096498Y-29620010D01*
X-13070633Y-29645875D01*
X-13036838Y-29659874D01*
X-13018548Y-29661675D01*
X-12923310Y-29661675D01*
X-12914053Y-29660763D01*
X-12911585Y-29660939D01*
X-12908338Y-29660200D01*
X-12905020Y-29659874D01*
X-12902730Y-29658925D01*
X-12893664Y-29656864D01*
X-12750807Y-29609245D01*
X-12734025Y-29601753D01*
X-12731478Y-29599544D01*
X-12728368Y-29598256D01*
X-12714161Y-29586597D01*
X-12618923Y-29491358D01*
X-12607264Y-29477151D01*
X-12605975Y-29474040D01*
X-12603768Y-29471495D01*
X-12596276Y-29454713D01*
X-12548657Y-29311857D01*
X-12546594Y-29302788D01*
X-12545647Y-29300500D01*
X-12545320Y-29297183D01*
X-12544582Y-29293936D01*
X-12544757Y-29291466D01*
X-12543846Y-29282210D01*
X-12543846Y-28567925D01*
X-11493250Y-28567925D01*
X-11493250Y-29567925D01*
X-11491449Y-29586215D01*
X-11477450Y-29620010D01*
X-11451585Y-29645875D01*
X-11417790Y-29659874D01*
X-11381210Y-29659874D01*
X-11347415Y-29645875D01*
X-11321550Y-29620010D01*
X-11307551Y-29586215D01*
X-11305750Y-29567925D01*
X-11305750Y-28990510D01*
X-11151122Y-29321856D01*
X-11147152Y-29328557D01*
X-11146329Y-29330821D01*
X-11144862Y-29332422D01*
X-11141755Y-29337668D01*
X-11131245Y-29347292D01*
X-11121625Y-29357798D01*
X-11117850Y-29359559D01*
X-11114778Y-29362373D01*
X-11101387Y-29367242D01*
X-11088477Y-29373267D01*
X-11084315Y-29373449D01*
X-11080402Y-29374873D01*
X-11066167Y-29374247D01*
X-11051932Y-29374873D01*
X-11048018Y-29373449D01*
X-11043857Y-29373267D01*
X-11030940Y-29367239D01*
X-11017556Y-29362372D01*
X-11014485Y-29359560D01*
X-11010709Y-29357798D01*
X-11001084Y-29347288D01*
X-10990579Y-29337668D01*
X-10987473Y-29332425D01*
X-10986004Y-29330821D01*
X-10985179Y-29328553D01*
X-10981212Y-29321856D01*
X-10826584Y-28990509D01*
X-10826584Y-29567925D01*
X-10824783Y-29586215D01*
X-10810784Y-29620010D01*
X-10784919Y-29645875D01*
X-10751124Y-29659874D01*
X-10714544Y-29659874D01*
X-10680749Y-29645875D01*
X-10654884Y-29620010D01*
X-10640885Y-29586215D01*
X-10639084Y-29567925D01*
X-10639084Y-28567925D01*
X-10350393Y-28567925D01*
X-10350393Y-29567925D01*
X-10348592Y-29586215D01*
X-10334593Y-29620010D01*
X-10308728Y-29645875D01*
X-10274933Y-29659874D01*
X-10238353Y-29659874D01*
X-10204558Y-29645875D01*
X-10178693Y-29620010D01*
X-10164694Y-29586215D01*
X-10162893Y-29567925D01*
X-10162893Y-28567925D01*
X-9874203Y-28567925D01*
X-9874203Y-29567925D01*
X-9872402Y-29586214D01*
X-9872402Y-29586215D01*
X-9858403Y-29620010D01*
X-9832538Y-29645875D01*
X-9798743Y-29659874D01*
X-9780453Y-29661675D01*
X-9542358Y-29661675D01*
X-9533101Y-29660763D01*
X-9530633Y-29660939D01*
X-9527386Y-29660200D01*
X-9524068Y-29659874D01*
X-9521778Y-29658925D01*
X-9512712Y-29656864D01*
X-9369855Y-29609245D01*
X-9353073Y-29601753D01*
X-9350526Y-29599544D01*
X-9347416Y-29598256D01*
X-9333209Y-29586597D01*
X-9237971Y-29491358D01*
X-9232071Y-29484169D01*
X-9230201Y-29482547D01*
X-9228425Y-29479726D01*
X-9226312Y-29477151D01*
X-9225364Y-29474864D01*
X-9220410Y-29466993D01*
X-9172792Y-29371756D01*
X-9172280Y-29370420D01*
X-9171876Y-29369874D01*
X-9169127Y-29362179D01*
X-9166223Y-29354591D01*
X-9166175Y-29353916D01*
X-9165693Y-29352567D01*
X-9118074Y-29162091D01*
X-9117605Y-29158920D01*
X-9117076Y-29157643D01*
X-9116398Y-29150762D01*
X-9115385Y-29143910D01*
X-9115588Y-29142540D01*
X-9115275Y-29139353D01*
X-9115275Y-28996496D01*
X-9115588Y-28993308D01*
X-9115385Y-28991939D01*
X-9116398Y-28985086D01*
X-9117076Y-28978206D01*
X-9117605Y-28976928D01*
X-9118074Y-28973758D01*
X-9165693Y-28783282D01*
X-9166175Y-28781932D01*
X-9166223Y-28781258D01*
X-9169127Y-28773669D01*
X-9171876Y-28765975D01*
X-9172280Y-28765428D01*
X-9172792Y-28764093D01*
X-9220410Y-28668856D01*
X-9225363Y-28660986D01*
X-9226312Y-28658697D01*
X-9228426Y-28656120D01*
X-9230201Y-28653302D01*
X-9232071Y-28651679D01*
X-9237972Y-28644491D01*
X-9314538Y-28567925D01*
X-8874203Y-28567925D01*
X-8874203Y-29567925D01*
X-8872402Y-29586215D01*
X-8858403Y-29620010D01*
X-8832538Y-29645875D01*
X-8798743Y-29659874D01*
X-8762163Y-29659874D01*
X-8728368Y-29645875D01*
X-8702503Y-29620010D01*
X-8688504Y-29586215D01*
X-8686703Y-29567925D01*
X-8686703Y-28996496D01*
X-7683727Y-28996496D01*
X-7683727Y-29139353D01*
X-7683413Y-29142540D01*
X-7683617Y-29143910D01*
X-7682603Y-29150762D01*
X-7681926Y-29157643D01*
X-7681396Y-29158920D01*
X-7680928Y-29162091D01*
X-7633309Y-29352567D01*
X-7632826Y-29353916D01*
X-7632779Y-29354591D01*
X-7629870Y-29362190D01*
X-7627126Y-29369874D01*
X-7626722Y-29370418D01*
X-7626211Y-29371755D01*
X-7578592Y-29466993D01*
X-7573637Y-29474864D01*
X-7572690Y-29477151D01*
X-7570576Y-29479726D01*
X-7568801Y-29482547D01*
X-7566930Y-29484169D01*
X-7561031Y-29491358D01*
X-7465792Y-29586597D01*
X-7451586Y-29598257D01*
X-7448473Y-29599546D01*
X-7445929Y-29601753D01*
X-7429147Y-29609245D01*
X-7286291Y-29656864D01*
X-7277222Y-29658926D01*
X-7274934Y-29659874D01*
X-7271617Y-29660200D01*
X-7268370Y-29660939D01*
X-7265900Y-29660763D01*
X-7256644Y-29661675D01*
X-7161406Y-29661675D01*
X-7152149Y-29660763D01*
X-7149681Y-29660939D01*
X-7146434Y-29660200D01*
X-7143116Y-29659874D01*
X-7140826Y-29658925D01*
X-7131760Y-29656864D01*
X-6988903Y-29609245D01*
X-6972121Y-29601753D01*
X-6969575Y-29599545D01*
X-6966463Y-29598256D01*
X-6952257Y-29586597D01*
X-6904638Y-29538977D01*
X-6892979Y-29524770D01*
X-6878981Y-29490974D01*
X-6878982Y-29454396D01*
X-6892980Y-29420601D01*
X-6918846Y-29394735D01*
X-6952642Y-29380737D01*
X-6989220Y-29380738D01*
X-7023016Y-29394736D01*
X-7037222Y-29406396D01*
X-7069191Y-29438365D01*
X-7176619Y-29474175D01*
X-7241431Y-29474175D01*
X-7348857Y-29438366D01*
X-7417690Y-29369532D01*
X-7453902Y-29297107D01*
X-7496227Y-29127811D01*
X-7496227Y-29008038D01*
X-7469532Y-28901258D01*
X-6683727Y-28901258D01*
X-6683727Y-29234591D01*
X-6683413Y-29237778D01*
X-6683617Y-29239148D01*
X-6682603Y-29246000D01*
X-6681926Y-29252881D01*
X-6681396Y-29254158D01*
X-6680928Y-29257329D01*
X-6633309Y-29447805D01*
X-6627126Y-29465112D01*
X-6622975Y-29470713D01*
X-6620309Y-29477151D01*
X-6608650Y-29491358D01*
X-6513411Y-29586597D01*
X-6506222Y-29592497D01*
X-6504600Y-29594368D01*
X-6501781Y-29596142D01*
X-6499205Y-29598257D01*
X-6496915Y-29599205D01*
X-6489046Y-29604159D01*
X-6393809Y-29651777D01*
X-6376644Y-29658346D01*
X-6373284Y-29658584D01*
X-6370172Y-29659874D01*
X-6351882Y-29661675D01*
X-6161406Y-29661675D01*
X-6143116Y-29659874D01*
X-6140003Y-29658584D01*
X-6136644Y-29658346D01*
X-6119480Y-29651778D01*
X-6024242Y-29604159D01*
X-6016368Y-29599202D01*
X-6014083Y-29598256D01*
X-6011509Y-29596144D01*
X-6008688Y-29594368D01*
X-6007065Y-29592496D01*
X-5999876Y-29586597D01*
X-5904638Y-29491358D01*
X-5892979Y-29477151D01*
X-5890312Y-29470713D01*
X-5886162Y-29465112D01*
X-5879979Y-29447805D01*
X-5832360Y-29257329D01*
X-5831891Y-29254158D01*
X-5831362Y-29252881D01*
X-5830684Y-29246000D01*
X-5829671Y-29239148D01*
X-5829874Y-29237778D01*
X-5829561Y-29234591D01*
X-5829561Y-28901258D01*
X-5829874Y-28898070D01*
X-5829671Y-28896701D01*
X-5830684Y-28889848D01*
X-5831362Y-28882968D01*
X-5831891Y-28881690D01*
X-5832360Y-28878520D01*
X-5879979Y-28688044D01*
X-5886162Y-28670737D01*
X-5890311Y-28665136D01*
X-5892979Y-28658697D01*
X-5904639Y-28644491D01*
X-5981205Y-28567925D01*
X-5588489Y-28567925D01*
X-5588489Y-29567925D01*
X-5586688Y-29586215D01*
X-5572689Y-29620010D01*
X-5546824Y-29645875D01*
X-5513029Y-29659874D01*
X-5476449Y-29659874D01*
X-5442654Y-29645875D01*
X-5416789Y-29620010D01*
X-5402790Y-29586215D01*
X-5400989Y-29567925D01*
X-5400989Y-28920947D01*
X-5004709Y-29614438D01*
X-5001971Y-29618294D01*
X-5001261Y-29620010D01*
X-4999513Y-29621757D01*
X-4994071Y-29629425D01*
X-4984208Y-29637062D01*
X-4975396Y-29645875D01*
X-4969875Y-29648161D01*
X-4965149Y-29651822D01*
X-4953120Y-29655102D01*
X-4941601Y-29659874D01*
X-4935623Y-29659874D01*
X-4929859Y-29661446D01*
X-4917491Y-29659874D01*
X-4905021Y-29659874D01*
X-4899501Y-29657587D01*
X-4893572Y-29656834D01*
X-4882740Y-29650644D01*
X-4871226Y-29645875D01*
X-4867002Y-29641651D01*
X-4861811Y-29638685D01*
X-4854173Y-29628822D01*
X-4845361Y-29620010D01*
X-4843074Y-29614489D01*
X-4839414Y-29609763D01*
X-4836133Y-29597733D01*
X-4831362Y-29586215D01*
X-4830440Y-29576860D01*
X-4829790Y-29574474D01*
X-4830024Y-29572630D01*
X-4829561Y-29567925D01*
X-4829561Y-28567925D01*
X-4831362Y-28549635D01*
X-4681926Y-28549635D01*
X-4681926Y-28586215D01*
X-4667927Y-28620010D01*
X-4642062Y-28645875D01*
X-4608267Y-28659874D01*
X-4589977Y-28661675D01*
X-4398013Y-28661675D01*
X-4398013Y-29567925D01*
X-4396212Y-29586215D01*
X-4382213Y-29620010D01*
X-4356348Y-29645875D01*
X-4322553Y-29659874D01*
X-4285973Y-29659874D01*
X-4252178Y-29645875D01*
X-4226313Y-29620010D01*
X-4212314Y-29586215D01*
X-4210513Y-29567925D01*
X-4210513Y-28661675D01*
X-4018549Y-28661675D01*
X-4000259Y-28659874D01*
X-3966464Y-28645875D01*
X-3940599Y-28620010D01*
X-3926600Y-28586215D01*
X-3926600Y-28567925D01*
X-3778965Y-28567925D01*
X-3778965Y-29567925D01*
X-3777164Y-29586215D01*
X-3763165Y-29620010D01*
X-3737300Y-29645875D01*
X-3703505Y-29659874D01*
X-3666925Y-29659874D01*
X-3633130Y-29645875D01*
X-3607265Y-29620010D01*
X-3593266Y-29586215D01*
X-3591465Y-29567925D01*
X-3591465Y-29185484D01*
X-3495931Y-29185484D01*
X-3190590Y-29621687D01*
X-3178626Y-29635638D01*
X-3147777Y-29655296D01*
X-3111755Y-29661653D01*
X-3076041Y-29653741D01*
X-3046074Y-29632764D01*
X-3026416Y-29601916D01*
X-3020059Y-29565894D01*
X-3027971Y-29530180D01*
X-3036984Y-29514163D01*
X-3271525Y-29179103D01*
X-3262337Y-29175587D01*
X-3167099Y-29127968D01*
X-3159229Y-29123014D01*
X-3156940Y-29122066D01*
X-3154363Y-29119951D01*
X-3151545Y-29118177D01*
X-3149922Y-29116306D01*
X-3142734Y-29110406D01*
X-3095115Y-29062788D01*
X-3089215Y-29055598D01*
X-3087344Y-29053976D01*
X-3085567Y-29051154D01*
X-3083456Y-29048581D01*
X-3082509Y-29046295D01*
X-3077553Y-29038422D01*
X-3029935Y-28943185D01*
X-3023366Y-28926020D01*
X-3023127Y-28922660D01*
X-3021838Y-28919548D01*
X-3020037Y-28901258D01*
X-2826584Y-28901258D01*
X-2826584Y-29234591D01*
X-2826270Y-29237778D01*
X-2826474Y-29239148D01*
X-2825460Y-29246000D01*
X-2824783Y-29252881D01*
X-2824253Y-29254158D01*
X-2823785Y-29257329D01*
X-2776166Y-29447805D01*
X-2769983Y-29465112D01*
X-2765832Y-29470713D01*
X-2763166Y-29477151D01*
X-2751507Y-29491358D01*
X-2656268Y-29586597D01*
X-2649079Y-29592497D01*
X-2647457Y-29594368D01*
X-2644638Y-29596142D01*
X-2642062Y-29598257D01*
X-2639772Y-29599205D01*
X-2631903Y-29604159D01*
X-2536666Y-29651777D01*
X-2519501Y-29658346D01*
X-2516141Y-29658584D01*
X-2513029Y-29659874D01*
X-2494739Y-29661675D01*
X-2304263Y-29661675D01*
X-2285973Y-29659874D01*
X-2282860Y-29658584D01*
X-2279501Y-29658346D01*
X-2262337Y-29651778D01*
X-2167099Y-29604159D01*
X-2159225Y-29599202D01*
X-2156940Y-29598256D01*
X-2154366Y-29596144D01*
X-2151545Y-29594368D01*
X-2149922Y-29592496D01*
X-2142733Y-29586597D01*
X-2047495Y-29491358D01*
X-2035836Y-29477151D01*
X-2033169Y-29470713D01*
X-2029019Y-29465112D01*
X-2022836Y-29447805D01*
X-1975217Y-29257329D01*
X-1974748Y-29254158D01*
X-1974219Y-29252881D01*
X-1973541Y-29246000D01*
X-1972528Y-29239148D01*
X-1972731Y-29237778D01*
X-1972418Y-29234591D01*
X-1972418Y-28901258D01*
X-1972731Y-28898070D01*
X-1972528Y-28896701D01*
X-1973541Y-28889848D01*
X-1974219Y-28882968D01*
X-1974748Y-28881690D01*
X-1975217Y-28878520D01*
X-2022836Y-28688044D01*
X-2029019Y-28670737D01*
X-2033168Y-28665136D01*
X-2035836Y-28658697D01*
X-2047496Y-28644491D01*
X-2124062Y-28567925D01*
X-1731346Y-28567925D01*
X-1731346Y-29567925D01*
X-1729545Y-29586214D01*
X-1729545Y-29586215D01*
X-1715546Y-29620010D01*
X-1689681Y-29645875D01*
X-1655886Y-29659874D01*
X-1637596Y-29661675D01*
X-1161406Y-29661675D01*
X-1143116Y-29659874D01*
X-1109321Y-29645875D01*
X-1083456Y-29620010D01*
X-1069457Y-29586215D01*
X-1069457Y-29549635D01*
X-1083456Y-29515840D01*
X-1109321Y-29489975D01*
X-1143116Y-29475976D01*
X-1161406Y-29474175D01*
X-1543846Y-29474175D01*
X-1543846Y-28567925D01*
X-921822Y-28567925D01*
X-921822Y-29567925D01*
X-920021Y-29586214D01*
X-920021Y-29586215D01*
X-906022Y-29620010D01*
X-880157Y-29645875D01*
X-846362Y-29659874D01*
X-828072Y-29661675D01*
X-351882Y-29661675D01*
X-333592Y-29659874D01*
X-299797Y-29645875D01*
X-273932Y-29620010D01*
X-259933Y-29586215D01*
X-259933Y-29549635D01*
X-273932Y-29515840D01*
X-299797Y-29489975D01*
X-333592Y-29475976D01*
X-351882Y-29474175D01*
X-734322Y-29474175D01*
X-734322Y-28567925D01*
X-112298Y-28567925D01*
X-112298Y-29567925D01*
X-110497Y-29586214D01*
X-110497Y-29586215D01*
X-96498Y-29620010D01*
X-70633Y-29645875D01*
X-36838Y-29659874D01*
X-18548Y-29661675D01*
X457641Y-29661675D01*
X475931Y-29659874D01*
X509726Y-29645875D01*
X535591Y-29620010D01*
X549590Y-29586215D01*
X549590Y-29549635D01*
X535591Y-29515840D01*
X509726Y-29489975D01*
X475931Y-29475976D01*
X457641Y-29474175D01*
X75202Y-29474175D01*
X75202Y-29137865D01*
X314784Y-29137865D01*
X333074Y-29136064D01*
X366869Y-29122065D01*
X392734Y-29096200D01*
X406733Y-29062405D01*
X406733Y-29025825D01*
X392734Y-28992030D01*
X366869Y-28966165D01*
X333074Y-28952166D01*
X314784Y-28950365D01*
X75202Y-28950365D01*
X75202Y-28661675D01*
X457641Y-28661675D01*
X475931Y-28659874D01*
X509726Y-28645875D01*
X535591Y-28620010D01*
X549590Y-28586215D01*
X549590Y-28567925D01*
X792463Y-28567925D01*
X792463Y-29567925D01*
X794264Y-29586215D01*
X808263Y-29620010D01*
X834128Y-29645875D01*
X867923Y-29659874D01*
X904503Y-29659874D01*
X938298Y-29645875D01*
X964163Y-29620010D01*
X978162Y-29586215D01*
X979963Y-29567925D01*
X979963Y-29185484D01*
X1075497Y-29185484D01*
X1380838Y-29621687D01*
X1392802Y-29635638D01*
X1423651Y-29655296D01*
X1459673Y-29661653D01*
X1495387Y-29653741D01*
X1525354Y-29632764D01*
X1545012Y-29601916D01*
X1551369Y-29565894D01*
X1543457Y-29530180D01*
X1534444Y-29514163D01*
X1299902Y-29179103D01*
X1309091Y-29175587D01*
X1404329Y-29127968D01*
X1412198Y-29123014D01*
X1414488Y-29122066D01*
X1417064Y-29119951D01*
X1419883Y-29118177D01*
X1421505Y-29116306D01*
X1428694Y-29110406D01*
X1476313Y-29062788D01*
X1482212Y-29055598D01*
X1484084Y-29053976D01*
X1485860Y-29051154D01*
X1487972Y-29048581D01*
X1488918Y-29046295D01*
X1493875Y-29038422D01*
X1541493Y-28943185D01*
X1548062Y-28926020D01*
X1548300Y-28922660D01*
X1549590Y-28919548D01*
X1550042Y-28914959D01*
X2460136Y-28914959D01*
X2464592Y-28932789D01*
X2702687Y-29599456D01*
X2710534Y-29616075D01*
X2713693Y-29619564D01*
X2715707Y-29623816D01*
X2725877Y-29633022D01*
X2735084Y-29643193D01*
X2739335Y-29645206D01*
X2742825Y-29648366D01*
X2755748Y-29652981D01*
X2768142Y-29658852D01*
X2772840Y-29659085D01*
X2777274Y-29660669D01*
X2790975Y-29659987D01*
X2804676Y-29660669D01*
X2809108Y-29659085D01*
X2813808Y-29658852D01*
X2826206Y-29652979D01*
X2839125Y-29648365D01*
X2842612Y-29645207D01*
X2846866Y-29643193D01*
X2856077Y-29633017D01*
X2866243Y-29623815D01*
X2868255Y-29619565D01*
X2871416Y-29616075D01*
X2879263Y-29599456D01*
X3111613Y-28948877D01*
X3268654Y-28948877D01*
X3268654Y-29186972D01*
X3268967Y-29190159D01*
X3268764Y-29191529D01*
X3269777Y-29198381D01*
X3270455Y-29205262D01*
X3270984Y-29206539D01*
X3271453Y-29209710D01*
X3319072Y-29400186D01*
X3319554Y-29401535D01*
X3319602Y-29402210D01*
X3322510Y-29409809D01*
X3325255Y-29417493D01*
X3325658Y-29418037D01*
X3326170Y-29419374D01*
X3373789Y-29514612D01*
X3378743Y-29522483D01*
X3379691Y-29524770D01*
X3381804Y-29527345D01*
X3383580Y-29530166D01*
X3385450Y-29531788D01*
X3391350Y-29538977D01*
X3438969Y-29586596D01*
X3446157Y-29592496D01*
X3447781Y-29594368D01*
X3450600Y-29596142D01*
X3453175Y-29598256D01*
X3455462Y-29599203D01*
X3463335Y-29604159D01*
X3558572Y-29651777D01*
X3575737Y-29658346D01*
X3579096Y-29658584D01*
X3582209Y-29659874D01*
X3600499Y-29661675D01*
X3695737Y-29661675D01*
X3714027Y-29659874D01*
X3717139Y-29658584D01*
X3720499Y-29658346D01*
X3737663Y-29651778D01*
X3832901Y-29604159D01*
X3840773Y-29599203D01*
X3843061Y-29598256D01*
X3845636Y-29596142D01*
X3848455Y-29594368D01*
X3850076Y-29592498D01*
X3857267Y-29586597D01*
X3904886Y-29538977D01*
X3910785Y-29531788D01*
X3912656Y-29530166D01*
X3914431Y-29527345D01*
X3916545Y-29524770D01*
X3917492Y-29522483D01*
X3922447Y-29514612D01*
X3970065Y-29419375D01*
X3970576Y-29418039D01*
X3970981Y-29417493D01*
X3973729Y-29409798D01*
X3976634Y-29402210D01*
X3976681Y-29401535D01*
X3977164Y-29400186D01*
X4024783Y-29209710D01*
X4025251Y-29206539D01*
X4025781Y-29205262D01*
X4026458Y-29198381D01*
X4027472Y-29191529D01*
X4027268Y-29190159D01*
X4027582Y-29186972D01*
X4027582Y-28948877D01*
X4027268Y-28945689D01*
X4027472Y-28944320D01*
X4026458Y-28937467D01*
X4025781Y-28930587D01*
X4025251Y-28929309D01*
X4024783Y-28926139D01*
X4003726Y-28841913D01*
X4221771Y-28841913D01*
X4224364Y-28878401D01*
X4240723Y-28911119D01*
X4268358Y-28935086D01*
X4303059Y-28946653D01*
X4339547Y-28944060D01*
X4356711Y-28937492D01*
X4451949Y-28889873D01*
X4459818Y-28884919D01*
X4462108Y-28883971D01*
X4464684Y-28881856D01*
X4467503Y-28880082D01*
X4469125Y-28878211D01*
X4476314Y-28872311D01*
X4506749Y-28841876D01*
X4506749Y-29474175D01*
X4314785Y-29474175D01*
X4296495Y-29475976D01*
X4262700Y-29489975D01*
X4236835Y-29515840D01*
X4222836Y-29549635D01*
X4222836Y-29586215D01*
X4236835Y-29620010D01*
X4262700Y-29645875D01*
X4296495Y-29659874D01*
X4314785Y-29661675D01*
X4886213Y-29661675D01*
X4904503Y-29659874D01*
X4938298Y-29645875D01*
X4964163Y-29620010D01*
X4978162Y-29586215D01*
X4978162Y-29549635D01*
X4964163Y-29515840D01*
X4950340Y-29502017D01*
X5175217Y-29502017D01*
X5175217Y-29538595D01*
X5189215Y-29572391D01*
X5200875Y-29586597D01*
X5248493Y-29634216D01*
X5262694Y-29645870D01*
X5262700Y-29645876D01*
X5281689Y-29653741D01*
X5296495Y-29659874D01*
X5296496Y-29659874D01*
X5333074Y-29659874D01*
X5333075Y-29659874D01*
X5347881Y-29653741D01*
X5366870Y-29645876D01*
X5381076Y-29634216D01*
X5428695Y-29586598D01*
X5440354Y-29572391D01*
X5454352Y-29538596D01*
X5454352Y-29521412D01*
X5454353Y-29502018D01*
X5440355Y-29468222D01*
X5428696Y-29454015D01*
X5381077Y-29406395D01*
X5366871Y-29394736D01*
X5356972Y-29390635D01*
X5333075Y-29380737D01*
X5296495Y-29380737D01*
X5272597Y-29390635D01*
X5262699Y-29394736D01*
X5248493Y-29406396D01*
X5200874Y-29454015D01*
X5189219Y-29468216D01*
X5189215Y-29468221D01*
X5175217Y-29502017D01*
X4950340Y-29502017D01*
X4938298Y-29489975D01*
X4904503Y-29475976D01*
X4886213Y-29474175D01*
X4694249Y-29474175D01*
X4694249Y-28948877D01*
X5649606Y-28948877D01*
X5649606Y-29186972D01*
X5649919Y-29190159D01*
X5649716Y-29191529D01*
X5650729Y-29198381D01*
X5651407Y-29205262D01*
X5651936Y-29206539D01*
X5652405Y-29209710D01*
X5700024Y-29400186D01*
X5700506Y-29401535D01*
X5700554Y-29402210D01*
X5703462Y-29409809D01*
X5706207Y-29417493D01*
X5706610Y-29418037D01*
X5707122Y-29419374D01*
X5754741Y-29514612D01*
X5759695Y-29522483D01*
X5760643Y-29524770D01*
X5762756Y-29527345D01*
X5764532Y-29530166D01*
X5766402Y-29531788D01*
X5772302Y-29538977D01*
X5819921Y-29586596D01*
X5827109Y-29592496D01*
X5828733Y-29594368D01*
X5831552Y-29596142D01*
X5834127Y-29598256D01*
X5836414Y-29599203D01*
X5844287Y-29604159D01*
X5939524Y-29651777D01*
X5956689Y-29658346D01*
X5960048Y-29658584D01*
X5963161Y-29659874D01*
X5981451Y-29661675D01*
X6076689Y-29661675D01*
X6094979Y-29659874D01*
X6098091Y-29658584D01*
X6101451Y-29658346D01*
X6118615Y-29651778D01*
X6213853Y-29604159D01*
X6221725Y-29599203D01*
X6224013Y-29598256D01*
X6226588Y-29596142D01*
X6229407Y-29594368D01*
X6231028Y-29592498D01*
X6238219Y-29586597D01*
X6285838Y-29538977D01*
X6291737Y-29531788D01*
X6293608Y-29530166D01*
X6295383Y-29527345D01*
X6297497Y-29524770D01*
X6298444Y-29522483D01*
X6303399Y-29514612D01*
X6351017Y-29419375D01*
X6351528Y-29418039D01*
X6351933Y-29417493D01*
X6354681Y-29409798D01*
X6357586Y-29402210D01*
X6357633Y-29401535D01*
X6358116Y-29400186D01*
X6405735Y-29209710D01*
X6406203Y-29206539D01*
X6406733Y-29205262D01*
X6407410Y-29198381D01*
X6408424Y-29191529D01*
X6408220Y-29190159D01*
X6408534Y-29186972D01*
X6408534Y-28948877D01*
X6601987Y-28948877D01*
X6601987Y-29186972D01*
X6602300Y-29190159D01*
X6602097Y-29191529D01*
X6603110Y-29198381D01*
X6603788Y-29205262D01*
X6604317Y-29206539D01*
X6604786Y-29209710D01*
X6652405Y-29400186D01*
X6652887Y-29401535D01*
X6652935Y-29402210D01*
X6655843Y-29409809D01*
X6658588Y-29417493D01*
X6658991Y-29418037D01*
X6659503Y-29419374D01*
X6707122Y-29514612D01*
X6712076Y-29522483D01*
X6713024Y-29524770D01*
X6715137Y-29527345D01*
X6716913Y-29530166D01*
X6718783Y-29531788D01*
X6724683Y-29538977D01*
X6772302Y-29586596D01*
X6779490Y-29592496D01*
X6781114Y-29594368D01*
X6783933Y-29596142D01*
X6786508Y-29598256D01*
X6788795Y-29599203D01*
X6796668Y-29604159D01*
X6891905Y-29651777D01*
X6909070Y-29658346D01*
X6912429Y-29658584D01*
X6915542Y-29659874D01*
X6933832Y-29661675D01*
X7029070Y-29661675D01*
X7047360Y-29659874D01*
X7050472Y-29658584D01*
X7053832Y-29658346D01*
X7070996Y-29651778D01*
X7166234Y-29604159D01*
X7174106Y-29599203D01*
X7176394Y-29598256D01*
X7178969Y-29596142D01*
X7181788Y-29594368D01*
X7183409Y-29592498D01*
X7190600Y-29586597D01*
X7238219Y-29538977D01*
X7244118Y-29531788D01*
X7245989Y-29530166D01*
X7247764Y-29527345D01*
X7249878Y-29524770D01*
X7250825Y-29522483D01*
X7255780Y-29514612D01*
X7303398Y-29419375D01*
X7303909Y-29418039D01*
X7304314Y-29417493D01*
X7307062Y-29409798D01*
X7309967Y-29402210D01*
X7310014Y-29401535D01*
X7310497Y-29400186D01*
X7358116Y-29209710D01*
X7358584Y-29206539D01*
X7359114Y-29205262D01*
X7359791Y-29198381D01*
X7360805Y-29191529D01*
X7360601Y-29190159D01*
X7360915Y-29186972D01*
X7360915Y-28948877D01*
X7360601Y-28945689D01*
X7360805Y-28944320D01*
X7359791Y-28937467D01*
X7359114Y-28930587D01*
X7358584Y-28929309D01*
X7358116Y-28926139D01*
X7310497Y-28735663D01*
X7310014Y-28734313D01*
X7309967Y-28733639D01*
X7307062Y-28726050D01*
X7304314Y-28718356D01*
X7303909Y-28717809D01*
X7303398Y-28716474D01*
X7255780Y-28621237D01*
X7250823Y-28613363D01*
X7249877Y-28611078D01*
X7247765Y-28608504D01*
X7245989Y-28605683D01*
X7244117Y-28604060D01*
X7238218Y-28596871D01*
X7190599Y-28549253D01*
X7183410Y-28543352D01*
X7181788Y-28541482D01*
X7178969Y-28539707D01*
X7176393Y-28537593D01*
X7174103Y-28536644D01*
X7166234Y-28531691D01*
X7070996Y-28484072D01*
X7053832Y-28477504D01*
X7050472Y-28477265D01*
X7047360Y-28475976D01*
X7029070Y-28474175D01*
X6933832Y-28474175D01*
X6915542Y-28475976D01*
X6912429Y-28477265D01*
X6909070Y-28477504D01*
X6891905Y-28484073D01*
X6796668Y-28531691D01*
X6788794Y-28536647D01*
X6786509Y-28537594D01*
X6783935Y-28539705D01*
X6781114Y-28541482D01*
X6779491Y-28543353D01*
X6772302Y-28549253D01*
X6724684Y-28596872D01*
X6718783Y-28604060D01*
X6716913Y-28605683D01*
X6715138Y-28608501D01*
X6713024Y-28611078D01*
X6712075Y-28613367D01*
X6707122Y-28621237D01*
X6659503Y-28716475D01*
X6658991Y-28717811D01*
X6658588Y-28718356D01*
X6655843Y-28726039D01*
X6652935Y-28733639D01*
X6652887Y-28734313D01*
X6652405Y-28735663D01*
X6604786Y-28926139D01*
X6604317Y-28929309D01*
X6603788Y-28930587D01*
X6603110Y-28937467D01*
X6602097Y-28944320D01*
X6602300Y-28945689D01*
X6601987Y-28948877D01*
X6408534Y-28948877D01*
X6408220Y-28945689D01*
X6408424Y-28944320D01*
X6407410Y-28937467D01*
X6406733Y-28930587D01*
X6406203Y-28929309D01*
X6405735Y-28926139D01*
X6358116Y-28735663D01*
X6357633Y-28734313D01*
X6357586Y-28733639D01*
X6354681Y-28726050D01*
X6351933Y-28718356D01*
X6351528Y-28717809D01*
X6351017Y-28716474D01*
X6303399Y-28621237D01*
X6298442Y-28613363D01*
X6297496Y-28611078D01*
X6295384Y-28608504D01*
X6293608Y-28605683D01*
X6291736Y-28604060D01*
X6285837Y-28596871D01*
X6238218Y-28549253D01*
X6231029Y-28543352D01*
X6229407Y-28541482D01*
X6226588Y-28539707D01*
X6224012Y-28537593D01*
X6221722Y-28536644D01*
X6213853Y-28531691D01*
X6118615Y-28484072D01*
X6101451Y-28477504D01*
X6098091Y-28477265D01*
X6094979Y-28475976D01*
X6076689Y-28474175D01*
X5981451Y-28474175D01*
X5963161Y-28475976D01*
X5960048Y-28477265D01*
X5956689Y-28477504D01*
X5939524Y-28484073D01*
X5844287Y-28531691D01*
X5836413Y-28536647D01*
X5834128Y-28537594D01*
X5831554Y-28539705D01*
X5828733Y-28541482D01*
X5827110Y-28543353D01*
X5819921Y-28549253D01*
X5772303Y-28596872D01*
X5766402Y-28604060D01*
X5764532Y-28605683D01*
X5762757Y-28608501D01*
X5760643Y-28611078D01*
X5759694Y-28613367D01*
X5754741Y-28621237D01*
X5707122Y-28716475D01*
X5706610Y-28717811D01*
X5706207Y-28718356D01*
X5703462Y-28726039D01*
X5700554Y-28733639D01*
X5700506Y-28734313D01*
X5700024Y-28735663D01*
X5652405Y-28926139D01*
X5651936Y-28929309D01*
X5651407Y-28930587D01*
X5650729Y-28937467D01*
X5649716Y-28944320D01*
X5649919Y-28945689D01*
X5649606Y-28948877D01*
X4694249Y-28948877D01*
X4694249Y-28567925D01*
X4694242Y-28567858D01*
X4694249Y-28567826D01*
X4694229Y-28567729D01*
X4692448Y-28549635D01*
X4688895Y-28541057D01*
X4687075Y-28531958D01*
X4681964Y-28524326D01*
X4678449Y-28515840D01*
X4671886Y-28509277D01*
X4666721Y-28501564D01*
X4659076Y-28496467D01*
X4652584Y-28489975D01*
X4644011Y-28486423D01*
X4636285Y-28481273D01*
X4627273Y-28479490D01*
X4618789Y-28475976D01*
X4609506Y-28475976D01*
X4600401Y-28474175D01*
X4591396Y-28475976D01*
X4582209Y-28475976D01*
X4573631Y-28479529D01*
X4564532Y-28481349D01*
X4556899Y-28486460D01*
X4548414Y-28489975D01*
X4541853Y-28496535D01*
X4534138Y-28501702D01*
X4522616Y-28515772D01*
X4522549Y-28515840D01*
X4522536Y-28515870D01*
X4522494Y-28515922D01*
X4432404Y-28651057D01*
X4354490Y-28728970D01*
X4272859Y-28769786D01*
X4257305Y-28779577D01*
X4233338Y-28807212D01*
X4221771Y-28841913D01*
X4003726Y-28841913D01*
X3977164Y-28735663D01*
X3976681Y-28734313D01*
X3976634Y-28733639D01*
X3973729Y-28726050D01*
X3970981Y-28718356D01*
X3970576Y-28717809D01*
X3970065Y-28716474D01*
X3922447Y-28621237D01*
X3917490Y-28613363D01*
X3916544Y-28611078D01*
X3914432Y-28608504D01*
X3912656Y-28605683D01*
X3910784Y-28604060D01*
X3904885Y-28596871D01*
X3857266Y-28549253D01*
X3850077Y-28543352D01*
X3848455Y-28541482D01*
X3845636Y-28539707D01*
X3843060Y-28537593D01*
X3840770Y-28536644D01*
X3832901Y-28531691D01*
X3737663Y-28484072D01*
X3720499Y-28477504D01*
X3717139Y-28477265D01*
X3714027Y-28475976D01*
X3695737Y-28474175D01*
X3600499Y-28474175D01*
X3582209Y-28475976D01*
X3579096Y-28477265D01*
X3575737Y-28477504D01*
X3558572Y-28484073D01*
X3463335Y-28531691D01*
X3455461Y-28536647D01*
X3453176Y-28537594D01*
X3450602Y-28539705D01*
X3447781Y-28541482D01*
X3446158Y-28543353D01*
X3438969Y-28549253D01*
X3391351Y-28596872D01*
X3385450Y-28604060D01*
X3383580Y-28605683D01*
X3381805Y-28608501D01*
X3379691Y-28611078D01*
X3378742Y-28613367D01*
X3373789Y-28621237D01*
X3326170Y-28716475D01*
X3325658Y-28717811D01*
X3325255Y-28718356D01*
X3322510Y-28726039D01*
X3319602Y-28733639D01*
X3319554Y-28734313D01*
X3319072Y-28735663D01*
X3271453Y-28926139D01*
X3270984Y-28929309D01*
X3270455Y-28930587D01*
X3269777Y-28937467D01*
X3268764Y-28944320D01*
X3268967Y-28945689D01*
X3268654Y-28948877D01*
X3111613Y-28948877D01*
X3117358Y-28932790D01*
X3121814Y-28914960D01*
X3119997Y-28878425D01*
X3104338Y-28845368D01*
X3077220Y-28820818D01*
X3042771Y-28808514D01*
X3006237Y-28810331D01*
X2973179Y-28825990D01*
X2948629Y-28853108D01*
X2940782Y-28869727D01*
X2790975Y-29289186D01*
X2641168Y-28869727D01*
X2633321Y-28853108D01*
X2608771Y-28825990D01*
X2575713Y-28810331D01*
X2539179Y-28808514D01*
X2504730Y-28820817D01*
X2477612Y-28845367D01*
X2461953Y-28878425D01*
X2460136Y-28914959D01*
X1550042Y-28914959D01*
X1551391Y-28901258D01*
X1551391Y-28758401D01*
X1549590Y-28740111D01*
X1548300Y-28736998D01*
X1548062Y-28733639D01*
X1541493Y-28716474D01*
X1493875Y-28621237D01*
X1488918Y-28613363D01*
X1487972Y-28611078D01*
X1485860Y-28608504D01*
X1484084Y-28605683D01*
X1482212Y-28604060D01*
X1476313Y-28596871D01*
X1428694Y-28549253D01*
X1421505Y-28543352D01*
X1419883Y-28541482D01*
X1417064Y-28539707D01*
X1414488Y-28537593D01*
X1412198Y-28536644D01*
X1404329Y-28531691D01*
X1309091Y-28484072D01*
X1291927Y-28477504D01*
X1288567Y-28477265D01*
X1285455Y-28475976D01*
X1267165Y-28474175D01*
X886213Y-28474175D01*
X867923Y-28475976D01*
X834128Y-28489975D01*
X808263Y-28515840D01*
X794264Y-28549635D01*
X792463Y-28567925D01*
X549590Y-28567925D01*
X549590Y-28549635D01*
X535591Y-28515840D01*
X509726Y-28489975D01*
X475931Y-28475976D01*
X457641Y-28474175D01*
X-18548Y-28474175D01*
X-36838Y-28475976D01*
X-70633Y-28489975D01*
X-96498Y-28515840D01*
X-110497Y-28549635D01*
X-112298Y-28567925D01*
X-734322Y-28567925D01*
X-736123Y-28549635D01*
X-750122Y-28515840D01*
X-775987Y-28489975D01*
X-809782Y-28475976D01*
X-846362Y-28475976D01*
X-880157Y-28489975D01*
X-906022Y-28515840D01*
X-920021Y-28549635D01*
X-921822Y-28567925D01*
X-1543846Y-28567925D01*
X-1545647Y-28549635D01*
X-1559646Y-28515840D01*
X-1585511Y-28489975D01*
X-1619306Y-28475976D01*
X-1655886Y-28475976D01*
X-1689681Y-28489975D01*
X-1715546Y-28515840D01*
X-1729545Y-28549635D01*
X-1731346Y-28567925D01*
X-2124062Y-28567925D01*
X-2142734Y-28549253D01*
X-2149922Y-28543352D01*
X-2151545Y-28541482D01*
X-2154363Y-28539707D01*
X-2156940Y-28537593D01*
X-2159229Y-28536644D01*
X-2167099Y-28531691D01*
X-2262337Y-28484072D01*
X-2279501Y-28477504D01*
X-2282860Y-28477265D01*
X-2285973Y-28475976D01*
X-2304263Y-28474175D01*
X-2494739Y-28474175D01*
X-2513029Y-28475976D01*
X-2516141Y-28477265D01*
X-2519501Y-28477504D01*
X-2536666Y-28484073D01*
X-2631903Y-28531691D01*
X-2639772Y-28536644D01*
X-2642062Y-28537593D01*
X-2644638Y-28539707D01*
X-2647457Y-28541482D01*
X-2649079Y-28543352D01*
X-2656268Y-28549253D01*
X-2751506Y-28644491D01*
X-2763166Y-28658697D01*
X-2765833Y-28665136D01*
X-2769983Y-28670737D01*
X-2776166Y-28688044D01*
X-2823785Y-28878520D01*
X-2824253Y-28881690D01*
X-2824783Y-28882968D01*
X-2825460Y-28889848D01*
X-2826474Y-28896701D01*
X-2826270Y-28898070D01*
X-2826584Y-28901258D01*
X-3020037Y-28901258D01*
X-3020037Y-28758401D01*
X-3021838Y-28740111D01*
X-3023127Y-28736998D01*
X-3023366Y-28733639D01*
X-3029935Y-28716474D01*
X-3077553Y-28621237D01*
X-3082509Y-28613363D01*
X-3083456Y-28611078D01*
X-3085567Y-28608504D01*
X-3087344Y-28605683D01*
X-3089215Y-28604060D01*
X-3095115Y-28596871D01*
X-3142734Y-28549253D01*
X-3149922Y-28543352D01*
X-3151545Y-28541482D01*
X-3154363Y-28539707D01*
X-3156940Y-28537593D01*
X-3159229Y-28536644D01*
X-3167099Y-28531691D01*
X-3262337Y-28484072D01*
X-3279501Y-28477504D01*
X-3282860Y-28477265D01*
X-3285973Y-28475976D01*
X-3304263Y-28474175D01*
X-3685215Y-28474175D01*
X-3703505Y-28475976D01*
X-3737300Y-28489975D01*
X-3763165Y-28515840D01*
X-3777164Y-28549635D01*
X-3778965Y-28567925D01*
X-3926600Y-28567925D01*
X-3926600Y-28549635D01*
X-3940599Y-28515840D01*
X-3966464Y-28489975D01*
X-4000259Y-28475976D01*
X-4018549Y-28474175D01*
X-4589977Y-28474175D01*
X-4608267Y-28475976D01*
X-4642062Y-28489975D01*
X-4667927Y-28515840D01*
X-4681926Y-28549635D01*
X-4831362Y-28549635D01*
X-4845361Y-28515840D01*
X-4871226Y-28489975D01*
X-4905021Y-28475976D01*
X-4941601Y-28475976D01*
X-4975396Y-28489975D01*
X-5001261Y-28515840D01*
X-5015260Y-28549635D01*
X-5017061Y-28567925D01*
X-5017061Y-29214902D01*
X-5413341Y-28521412D01*
X-5416078Y-28517555D01*
X-5416789Y-28515840D01*
X-5418536Y-28514092D01*
X-5423979Y-28506425D01*
X-5433839Y-28498789D01*
X-5442654Y-28489975D01*
X-5448176Y-28487687D01*
X-5452901Y-28484029D01*
X-5464925Y-28480749D01*
X-5476449Y-28475976D01*
X-5482427Y-28475976D01*
X-5488191Y-28474404D01*
X-5500557Y-28475976D01*
X-5513029Y-28475976D01*
X-5518551Y-28478263D01*
X-5524478Y-28479017D01*
X-5535304Y-28485203D01*
X-5546824Y-28489975D01*
X-5551047Y-28494198D01*
X-5556239Y-28497165D01*
X-5563874Y-28507025D01*
X-5572689Y-28515840D01*
X-5574976Y-28521362D01*
X-5578635Y-28526087D01*
X-5581914Y-28538111D01*
X-5586688Y-28549635D01*
X-5587609Y-28558991D01*
X-5588260Y-28561377D01*
X-5588025Y-28563220D01*
X-5588489Y-28567925D01*
X-5981205Y-28567925D01*
X-5999877Y-28549253D01*
X-6007065Y-28543352D01*
X-6008688Y-28541482D01*
X-6011506Y-28539707D01*
X-6014083Y-28537593D01*
X-6016372Y-28536644D01*
X-6024242Y-28531691D01*
X-6119480Y-28484072D01*
X-6136644Y-28477504D01*
X-6140003Y-28477265D01*
X-6143116Y-28475976D01*
X-6161406Y-28474175D01*
X-6351882Y-28474175D01*
X-6370172Y-28475976D01*
X-6373284Y-28477265D01*
X-6376644Y-28477504D01*
X-6393809Y-28484073D01*
X-6489046Y-28531691D01*
X-6496915Y-28536644D01*
X-6499205Y-28537593D01*
X-6501781Y-28539707D01*
X-6504600Y-28541482D01*
X-6506222Y-28543352D01*
X-6513411Y-28549253D01*
X-6608649Y-28644491D01*
X-6620309Y-28658697D01*
X-6622976Y-28665136D01*
X-6627126Y-28670737D01*
X-6633309Y-28688044D01*
X-6680928Y-28878520D01*
X-6681396Y-28881690D01*
X-6681926Y-28882968D01*
X-6682603Y-28889848D01*
X-6683617Y-28896701D01*
X-6683413Y-28898070D01*
X-6683727Y-28901258D01*
X-7469532Y-28901258D01*
X-7453902Y-28838741D01*
X-7417689Y-28766314D01*
X-7348859Y-28697484D01*
X-7241431Y-28661675D01*
X-7176619Y-28661675D01*
X-7069190Y-28697484D01*
X-7037222Y-28729454D01*
X-7023015Y-28741113D01*
X-6989220Y-28755111D01*
X-6952641Y-28755111D01*
X-6918846Y-28741113D01*
X-6892980Y-28715247D01*
X-6878982Y-28681452D01*
X-6878982Y-28644873D01*
X-6892980Y-28611078D01*
X-6904639Y-28596871D01*
X-6952258Y-28549253D01*
X-6966464Y-28537593D01*
X-6969576Y-28536303D01*
X-6972121Y-28534097D01*
X-6988903Y-28526605D01*
X-7131760Y-28478986D01*
X-7140826Y-28476924D01*
X-7143116Y-28475976D01*
X-7146434Y-28475649D01*
X-7149681Y-28474911D01*
X-7152149Y-28475086D01*
X-7161406Y-28474175D01*
X-7256644Y-28474175D01*
X-7265900Y-28475086D01*
X-7268370Y-28474911D01*
X-7271617Y-28475649D01*
X-7274934Y-28475976D01*
X-7277222Y-28476923D01*
X-7286291Y-28478986D01*
X-7429147Y-28526605D01*
X-7445929Y-28534097D01*
X-7448473Y-28536303D01*
X-7451586Y-28537593D01*
X-7465792Y-28549253D01*
X-7561030Y-28644491D01*
X-7566930Y-28651679D01*
X-7568801Y-28653302D01*
X-7570575Y-28656120D01*
X-7572690Y-28658697D01*
X-7573638Y-28660986D01*
X-7578592Y-28668856D01*
X-7626211Y-28764094D01*
X-7626722Y-28765430D01*
X-7627126Y-28765975D01*
X-7629870Y-28773658D01*
X-7632779Y-28781258D01*
X-7632826Y-28781932D01*
X-7633309Y-28783282D01*
X-7680928Y-28973758D01*
X-7681396Y-28976928D01*
X-7681926Y-28978206D01*
X-7682603Y-28985086D01*
X-7683617Y-28991939D01*
X-7683413Y-28993308D01*
X-7683727Y-28996496D01*
X-8686703Y-28996496D01*
X-8686703Y-28567925D01*
X-8688504Y-28549635D01*
X-8702503Y-28515840D01*
X-8728368Y-28489975D01*
X-8762163Y-28475976D01*
X-8798743Y-28475976D01*
X-8832538Y-28489975D01*
X-8858403Y-28515840D01*
X-8872402Y-28549635D01*
X-8874203Y-28567925D01*
X-9314538Y-28567925D01*
X-9333210Y-28549253D01*
X-9347416Y-28537593D01*
X-9350528Y-28536303D01*
X-9353073Y-28534097D01*
X-9369855Y-28526605D01*
X-9512712Y-28478986D01*
X-9521778Y-28476924D01*
X-9524068Y-28475976D01*
X-9527386Y-28475649D01*
X-9530633Y-28474911D01*
X-9533101Y-28475086D01*
X-9542358Y-28474175D01*
X-9780453Y-28474175D01*
X-9798743Y-28475976D01*
X-9832538Y-28489975D01*
X-9858403Y-28515840D01*
X-9872402Y-28549635D01*
X-9874203Y-28567925D01*
X-10162893Y-28567925D01*
X-10164694Y-28549635D01*
X-10178693Y-28515840D01*
X-10204558Y-28489975D01*
X-10238353Y-28475976D01*
X-10274933Y-28475976D01*
X-10308728Y-28489975D01*
X-10334593Y-28515840D01*
X-10348592Y-28549635D01*
X-10350393Y-28567925D01*
X-10639084Y-28567925D01*
X-10640268Y-28555899D01*
X-10640171Y-28553690D01*
X-10640602Y-28552503D01*
X-10640885Y-28549635D01*
X-10647109Y-28534607D01*
X-10652671Y-28519314D01*
X-10654084Y-28517770D01*
X-10654884Y-28515840D01*
X-10666382Y-28504341D01*
X-10677376Y-28492337D01*
X-10679271Y-28491452D01*
X-10680749Y-28489975D01*
X-10695776Y-28483749D01*
X-10710524Y-28476868D01*
X-10712612Y-28476776D01*
X-10714544Y-28475976D01*
X-10730822Y-28475976D01*
X-10747069Y-28475262D01*
X-10749033Y-28475976D01*
X-10751124Y-28475976D01*
X-10766151Y-28482200D01*
X-10781445Y-28487762D01*
X-10782988Y-28489175D01*
X-10784919Y-28489975D01*
X-10796417Y-28501473D01*
X-10808422Y-28512467D01*
X-10809891Y-28514947D01*
X-10810784Y-28515840D01*
X-10811629Y-28517882D01*
X-10817789Y-28528279D01*
X-11066167Y-29060517D01*
X-11314545Y-28528279D01*
X-11320704Y-28517882D01*
X-11321550Y-28515840D01*
X-11322442Y-28514947D01*
X-11323912Y-28512467D01*
X-11335911Y-28501478D01*
X-11347415Y-28489975D01*
X-11349347Y-28489174D01*
X-11350889Y-28487763D01*
X-11366171Y-28482205D01*
X-11381210Y-28475976D01*
X-11383302Y-28475976D01*
X-11385265Y-28475262D01*
X-11401512Y-28475976D01*
X-11417790Y-28475976D01*
X-11419721Y-28476776D01*
X-11421810Y-28476868D01*
X-11436557Y-28483749D01*
X-11451585Y-28489975D01*
X-11453062Y-28491452D01*
X-11454958Y-28492337D01*
X-11465946Y-28504336D01*
X-11477450Y-28515840D01*
X-11478250Y-28517772D01*
X-11479662Y-28519314D01*
X-11485219Y-28534596D01*
X-11491449Y-28549635D01*
X-11491731Y-28552503D01*
X-11492163Y-28553690D01*
X-11492065Y-28555899D01*
X-11493250Y-28567925D01*
X-12543846Y-28567925D01*
X-12545647Y-28549635D01*
X-12559646Y-28515840D01*
X-12585511Y-28489975D01*
X-12619306Y-28475976D01*
X-12655886Y-28475976D01*
X-12689681Y-28489975D01*
X-12715546Y-28515840D01*
X-12729545Y-28549635D01*
X-12731346Y-28567925D01*
X-12731346Y-29266997D01*
X-12767155Y-29374425D01*
X-12831095Y-29438365D01*
X-12938523Y-29474175D01*
X-13018548Y-29474175D01*
X-13036838Y-29475976D01*
X-13070633Y-29489975D01*
X-13096498Y-29515840D01*
X-13110497Y-29549635D01*
X-13439104Y-29549635D01*
X-13380828Y-29491358D01*
X-13374928Y-29484169D01*
X-13373058Y-29482547D01*
X-13371282Y-29479726D01*
X-13369169Y-29477151D01*
X-13368221Y-29474864D01*
X-13363267Y-29466993D01*
X-13315649Y-29371756D01*
X-13315137Y-29370420D01*
X-13314733Y-29369874D01*
X-13311984Y-29362179D01*
X-13309080Y-29354591D01*
X-13309032Y-29353916D01*
X-13308550Y-29352567D01*
X-13260931Y-29162091D01*
X-13260462Y-29158920D01*
X-13259933Y-29157643D01*
X-13259255Y-29150762D01*
X-13258242Y-29143910D01*
X-13258445Y-29142540D01*
X-13258132Y-29139353D01*
X-13258132Y-28996496D01*
X-13258445Y-28993308D01*
X-13258242Y-28991939D01*
X-13259255Y-28985086D01*
X-13259933Y-28978206D01*
X-13260462Y-28976928D01*
X-13260931Y-28973758D01*
X-13308550Y-28783282D01*
X-13309032Y-28781932D01*
X-13309080Y-28781258D01*
X-13311984Y-28773669D01*
X-13314733Y-28765975D01*
X-13315137Y-28765428D01*
X-13315649Y-28764093D01*
X-13363267Y-28668856D01*
X-13368220Y-28660986D01*
X-13369169Y-28658697D01*
X-13371283Y-28656120D01*
X-13373058Y-28653302D01*
X-13374928Y-28651679D01*
X-13380829Y-28644491D01*
X-13476067Y-28549253D01*
X-13490273Y-28537593D01*
X-13493385Y-28536303D01*
X-13495930Y-28534097D01*
X-13512712Y-28526605D01*
X-13655569Y-28478986D01*
X-13664635Y-28476924D01*
X-13666925Y-28475976D01*
X-13670243Y-28475649D01*
X-13673490Y-28474911D01*
X-13675958Y-28475086D01*
X-13685215Y-28474175D01*
X-13923310Y-28474175D01*
X-13941600Y-28475976D01*
X-13975395Y-28489975D01*
X-14001260Y-28515840D01*
X-14015259Y-28549635D01*
X-14017060Y-28567925D01*
X-15021838Y-28567925D01*
X-15021838Y-28549635D01*
X-15035837Y-28515840D01*
X-15061702Y-28489975D01*
X-15095497Y-28475976D01*
X-15113787Y-28474175D01*
X-15589977Y-28474175D01*
X-15608267Y-28475976D01*
X-15642062Y-28489975D01*
X-15667927Y-28515840D01*
X-15681926Y-28549635D01*
X-15683727Y-28567925D01*
X-16076443Y-28567925D01*
X-16095115Y-28549253D01*
X-16102303Y-28543352D01*
X-16103926Y-28541482D01*
X-16106744Y-28539707D01*
X-16109321Y-28537593D01*
X-16111610Y-28536644D01*
X-16119480Y-28531691D01*
X-16214718Y-28484072D01*
X-16231882Y-28477504D01*
X-16235241Y-28477265D01*
X-16238354Y-28475976D01*
X-16256644Y-28474175D01*
X-16589977Y-28474175D01*
X-16608267Y-28475976D01*
X-16642062Y-28489975D01*
X-16667927Y-28515840D01*
X-16681926Y-28549635D01*
X-16683727Y-28567925D01*
X-16972418Y-28567925D01*
X-16974219Y-28549635D01*
X-16988218Y-28515840D01*
X-17014083Y-28489975D01*
X-17047878Y-28475976D01*
X-17084458Y-28475976D01*
X-17118253Y-28489975D01*
X-17144118Y-28515840D01*
X-17158117Y-28549635D01*
X-17159918Y-28567925D01*
X-17159918Y-29355316D01*
X-17190837Y-29417154D01*
X-17216940Y-29443257D01*
X-17278776Y-29474175D01*
X-17424988Y-29474175D01*
X-17486823Y-29443257D01*
X-17512928Y-29417151D01*
X-17543846Y-29355316D01*
X-17543846Y-28567925D01*
X-17545647Y-28549635D01*
X-17559646Y-28515840D01*
X-17585511Y-28489975D01*
X-17619306Y-28475976D01*
X-17655886Y-28475976D01*
X-17689681Y-28489975D01*
X-17715546Y-28515840D01*
X-17729545Y-28549635D01*
X-17731346Y-28567925D01*
X-17878981Y-28567925D01*
X-17878981Y-28549635D01*
X-17892980Y-28515840D01*
X-17918845Y-28489975D01*
X-17952640Y-28475976D01*
X-17970930Y-28474175D01*
X-18542358Y-28474175D01*
X-18560648Y-28475976D01*
X-18594443Y-28489975D01*
X-18620308Y-28515840D01*
X-18634307Y-28549635D01*
X-18736124Y-28549635D01*
X-18750123Y-28515840D01*
X-18775988Y-28489975D01*
X-18809783Y-28475976D01*
X-18828073Y-28474175D01*
X-19304263Y-28474175D01*
X-19322553Y-28475976D01*
X-19356348Y-28489975D01*
X-19382213Y-28515840D01*
X-19396212Y-28549635D01*
X-19398013Y-28567925D01*
X-19838348Y-28567925D01*
X-19857020Y-28549253D01*
X-19871226Y-28537593D01*
X-19874338Y-28536303D01*
X-19876883Y-28534097D01*
X-19893665Y-28526605D01*
X-20036522Y-28478986D01*
X-20045588Y-28476924D01*
X-20047878Y-28475976D01*
X-20051196Y-28475649D01*
X-20054443Y-28474911D01*
X-20056911Y-28475086D01*
X-20066168Y-28474175D01*
X-20304263Y-28474175D01*
X-20322553Y-28475976D01*
X-20356348Y-28489975D01*
X-20382213Y-28515840D01*
X-20396212Y-28549635D01*
X-20398013Y-28567925D01*
X-20872109Y-28567925D01*
X-20881991Y-28538279D01*
X-20889483Y-28521497D01*
X-20893873Y-28516434D01*
X-20896868Y-28510446D01*
X-20905747Y-28502744D01*
X-20913451Y-28493863D01*
X-20919442Y-28490867D01*
X-20924502Y-28486479D01*
X-20935651Y-28482762D01*
X-20946168Y-28477504D01*
X-20952850Y-28477029D01*
X-20959205Y-28474911D01*
X-20970927Y-28475744D01*
X-20982655Y-28474911D01*
X-20989012Y-28477030D01*
X-20995692Y-28477505D01*
X-21006200Y-28482758D01*
X-21017358Y-28486478D01*
X-21022420Y-28490868D01*
X-21028409Y-28493863D01*
X-21036111Y-28502743D01*
X-21044992Y-28510446D01*
X-21047986Y-28516435D01*
X-21052377Y-28521497D01*
X-21059869Y-28538279D01*
X-21393202Y-29538279D01*
X-21397277Y-29556200D01*
X-21924799Y-29556200D01*
X-21924799Y-29137865D01*
X-21685216Y-29137865D01*
X-21666926Y-29136064D01*
X-21633131Y-29122065D01*
X-21607266Y-29096200D01*
X-21593267Y-29062405D01*
X-21593267Y-29025825D01*
X-21607266Y-28992030D01*
X-21633131Y-28966165D01*
X-21666926Y-28952166D01*
X-21685216Y-28950365D01*
X-21924799Y-28950365D01*
X-21924799Y-28661675D01*
X-21542359Y-28661675D01*
X-21524069Y-28659874D01*
X-21490274Y-28645875D01*
X-21464409Y-28620010D01*
X-21450410Y-28586215D01*
X-21450410Y-28549635D01*
X-21464409Y-28515840D01*
X-21490274Y-28489975D01*
X-21524069Y-28475976D01*
X-21542359Y-28474175D01*
X-22018549Y-28474175D01*
X-22036839Y-28475976D01*
X-22070634Y-28489975D01*
X-22096499Y-28515840D01*
X-22110498Y-28549635D01*
X-22112299Y-28567925D01*
X-22223410Y-28567925D01*
X-22223410Y-28363064D01*
X7472026Y-28363064D01*
X7472026Y-31620825D01*
G37*
%TD*%
D13*
%TO.P,C1,1*%
%TO.N,GND*%
X-4630000Y4980000D03*
%TO.P,C1,2*%
%TO.N,Net-(ArduinoProMicroATmega32U4USBC-1-VCC)*%
X-4630000Y7480000D03*
%TD*%
D14*
%TO.P,ROTARY_ENCODER_BTN1,1*%
%TO.N,GND*%
X-2500000Y27000000D03*
D15*
%TO.P,ROTARY_ENCODER_BTN1,2*%
%TO.N,Net-(ArduinoProMicroATmega32U4USBC-1-D4{slash}A6)*%
X2500000Y27000000D03*
%TO.P,ROTARY_ENCODER_BTN1,A,A*%
%TO.N,Net-(ArduinoProMicroATmega32U4USBC-1-D2)*%
X-2500000Y12500000D03*
%TO.P,ROTARY_ENCODER_BTN1,B,B*%
%TO.N,Net-(ArduinoProMicroATmega32U4USBC-1-~D3)*%
X2500000Y12500000D03*
%TO.P,ROTARY_ENCODER_BTN1,C,COM*%
%TO.N,GND*%
X0Y12500000D03*
D16*
%TO.P,ROTARY_ENCODER_BTN1,SH1,SHIELD*%
%TO.N,Net-(ROTARY_ENCODER_BTN1-SHIELD-PadSH1)*%
X-5700000Y20000000D03*
%TO.P,ROTARY_ENCODER_BTN1,SH2,SHIELD*%
X5700000Y20000000D03*
%TD*%
D17*
%TO.P,C2,1*%
%TO.N,GND*%
X4580000Y7135100D03*
D13*
%TO.P,C2,2*%
%TO.N,Net-(ArduinoProMicroATmega32U4USBC-1-VCC)*%
X4580000Y5135100D03*
%TD*%
D18*
%TO.P,BTN_B_LOOP_IN1,1,A*%
%TO.N,Net-(ArduinoProMicroATmega32U4USBC-1-D15)*%
X36000000Y30000000D03*
X42500000Y30000000D03*
%TO.P,BTN_B_LOOP_IN1,2,B*%
%TO.N,GND*%
X36000000Y25500000D03*
X42500000Y25500000D03*
%TD*%
D19*
%TO.P,FADER_TEMPO_A1,1*%
%TO.N,GND*%
X79750000Y31250000D03*
D20*
%TO.P,FADER_TEMPO_A1,2*%
%TO.N,Net-(ArduinoProMicroATmega32U4USBC-1-D19{slash}A1)*%
X76250000Y31250000D03*
%TO.P,FADER_TEMPO_A1,3*%
%TO.N,Net-(ArduinoProMicroATmega32U4USBC-1-VCC)*%
X79750000Y-27250000D03*
D21*
%TO.P,FADER_TEMPO_A1,SH1,SHIELD*%
%TO.N,Net-(FADER_TEMPO_A1-SHIELD-PadSH1)*%
X82250000Y25900000D03*
%TO.P,FADER_TEMPO_A1,SH2,SHIELD*%
X73750000Y27100000D03*
%TO.P,FADER_TEMPO_A1,SH3,SHIELD*%
X82250000Y-21900000D03*
%TO.P,FADER_TEMPO_A1,SH4,SHIELD*%
X73750000Y-23100000D03*
%TD*%
D13*
%TO.P,R_PLAY_A1,1*%
%TO.N,Net-(J1_DECK_A1-Pad2)*%
X-8100000Y-24990000D03*
%TO.P,R_PLAY_A1,2*%
%TO.N,Net-(ArduinoProMicroATmega32U4USBC-1-~D9{slash}A9)*%
X-8100000Y-17370000D03*
%TD*%
D19*
%TO.P,FADER_CROSSFADER1,1*%
%TO.N,GND*%
X-29250000Y-8250000D03*
D20*
%TO.P,FADER_CROSSFADER1,2*%
%TO.N,Net-(ArduinoProMicroATmega32U4USBC-1-D18{slash}A0)*%
X-29250000Y-11750000D03*
%TO.P,FADER_CROSSFADER1,3*%
%TO.N,Net-(ArduinoProMicroATmega32U4USBC-1-VCC)*%
X29250000Y-8250000D03*
D21*
%TO.P,FADER_CROSSFADER1,SH1,SHIELD*%
%TO.N,Net-(FADER_CROSSFADER1-SHIELD-PadSH1)*%
X-23900000Y-5750000D03*
%TO.P,FADER_CROSSFADER1,SH2,SHIELD*%
X-25100000Y-14250000D03*
%TO.P,FADER_CROSSFADER1,SH3,SHIELD*%
X23900000Y-5750000D03*
%TO.P,FADER_CROSSFADER1,SH4,SHIELD*%
X25100000Y-14250000D03*
%TD*%
D18*
%TO.P,BTN_A_LOOP_IN1,1,A*%
%TO.N,GND*%
X-54000000Y30000000D03*
X-47500000Y30000000D03*
%TO.P,BTN_A_LOOP_IN1,2,B*%
%TO.N,Net-(ArduinoProMicroATmega32U4USBC-1-D0{slash}RX)*%
X-54000000Y25500000D03*
X-47500000Y25500000D03*
%TD*%
D13*
%TO.P,R_LOAD_A1,1*%
%TO.N,Net-(J1_DECK_A1-Pad6)*%
X-2100000Y-25140000D03*
%TO.P,R_LOAD_A1,2*%
%TO.N,Net-(ArduinoProMicroATmega32U4USBC-1-D16)*%
X-2100000Y-17520000D03*
%TD*%
D18*
%TO.P,BTN_B_LOOP_OUT1,1,A*%
%TO.N,Net-(ArduinoProMicroATmega32U4USBC-1-D21{slash}A3)*%
X48000000Y30000000D03*
X54500000Y30000000D03*
%TO.P,BTN_B_LOOP_OUT1,2,B*%
%TO.N,GND*%
X48000000Y25500000D03*
X54500000Y25500000D03*
%TD*%
%TO.P,BTN_A_LOOP_OUT1,1,A*%
%TO.N,GND*%
X-42000000Y30000000D03*
X-35500000Y30000000D03*
%TO.P,BTN_A_LOOP_OUT1,2,B*%
%TO.N,Net-(ArduinoProMicroATmega32U4USBC-1-D1{slash}TX)*%
X-42000000Y25500000D03*
X-35500000Y25500000D03*
%TD*%
D13*
%TO.P,R_LOAD_B1,1*%
%TO.N,Net-(J2_DECK_B1-Pad6)*%
X3900000Y-25140000D03*
%TO.P,R_LOAD_B1,2*%
%TO.N,Net-(ArduinoProMicroATmega32U4USBC-1-D14)*%
X3900000Y-17520000D03*
%TD*%
%TO.P,R_PLAY_B1,1*%
%TO.N,Net-(J2_DECK_B1-Pad2)*%
X8400000Y-25140000D03*
%TO.P,R_PLAY_B1,2*%
%TO.N,Net-(ArduinoProMicroATmega32U4USBC-1-~D10{slash}A10)*%
X8400000Y-17520000D03*
%TD*%
D19*
%TO.P,FADER_TEMPO_B1,1*%
%TO.N,GND*%
X-76250000Y31250000D03*
D20*
%TO.P,FADER_TEMPO_B1,2*%
%TO.N,Net-(ArduinoProMicroATmega32U4USBC-1-D20{slash}A2)*%
X-79750000Y31250000D03*
%TO.P,FADER_TEMPO_B1,3*%
%TO.N,Net-(ArduinoProMicroATmega32U4USBC-1-VCC)*%
X-76250000Y-27250000D03*
D21*
%TO.P,FADER_TEMPO_B1,SH1,SHIELD*%
%TO.N,Net-(FADER_TEMPO_B1-SHIELD-PadSH1)*%
X-73750000Y25900000D03*
%TO.P,FADER_TEMPO_B1,SH2,SHIELD*%
X-82250000Y27100000D03*
%TO.P,FADER_TEMPO_B1,SH3,SHIELD*%
X-73750000Y-21900000D03*
%TO.P,FADER_TEMPO_B1,SH4,SHIELD*%
X-82250000Y-23100000D03*
%TD*%
D22*
%TO.P,J1_DECK_A1,1,1*%
%TO.N,Net-(ArduinoProMicroATmega32U4USBC-1-~D5)*%
X-28000000Y-20550000D03*
D23*
%TO.P,J1_DECK_A1,2,2*%
%TO.N,Net-(J1_DECK_A1-Pad2)*%
X-26000000Y-20550000D03*
%TO.P,J1_DECK_A1,3,3*%
%TO.N,GND*%
X-24000000Y-20550000D03*
%TO.P,J1_DECK_A1,4,4*%
X-22000000Y-20550000D03*
%TO.P,J1_DECK_A1,5,5*%
%TO.N,Net-(ArduinoProMicroATmega32U4USBC-1-D7)*%
X-20000000Y-20550000D03*
%TO.P,J1_DECK_A1,6,6*%
%TO.N,Net-(J1_DECK_A1-Pad6)*%
X-18000000Y-20550000D03*
%TO.P,J1_DECK_A1,7,7*%
%TO.N,GND*%
X-16000000Y-20550000D03*
%TO.P,J1_DECK_A1,8,8*%
X-14000000Y-20550000D03*
%TD*%
D24*
%TO.P,ArduinoProMicroATmega32U4USBC-1,1,D1/TX*%
%TO.N,Net-(ArduinoProMicroATmega32U4USBC-1-D1{slash}TX)*%
X-12760000Y30440000D03*
D25*
%TO.P,ArduinoProMicroATmega32U4USBC-1,2,D0/RX*%
%TO.N,Net-(ArduinoProMicroATmega32U4USBC-1-D0{slash}RX)*%
X-12760000Y27900000D03*
%TO.P,ArduinoProMicroATmega32U4USBC-1,3,GND*%
%TO.N,GND*%
X-12760000Y25360000D03*
%TO.P,ArduinoProMicroATmega32U4USBC-1,4,GND*%
X-12760000Y22820000D03*
%TO.P,ArduinoProMicroATmega32U4USBC-1,5,D2*%
%TO.N,Net-(ArduinoProMicroATmega32U4USBC-1-D2)*%
X-12760000Y20280000D03*
%TO.P,ArduinoProMicroATmega32U4USBC-1,6,~D3*%
%TO.N,Net-(ArduinoProMicroATmega32U4USBC-1-~D3)*%
X-12760000Y17740000D03*
%TO.P,ArduinoProMicroATmega32U4USBC-1,7,D4/A6*%
%TO.N,Net-(ArduinoProMicroATmega32U4USBC-1-D4{slash}A6)*%
X-12760000Y15200000D03*
%TO.P,ArduinoProMicroATmega32U4USBC-1,8,~D5*%
%TO.N,Net-(ArduinoProMicroATmega32U4USBC-1-~D5)*%
X-12760000Y12660000D03*
%TO.P,ArduinoProMicroATmega32U4USBC-1,9,~D6/A7*%
%TO.N,Net-(ArduinoProMicroATmega32U4USBC-1-~D6{slash}A7)*%
X-12760000Y10120000D03*
%TO.P,ArduinoProMicroATmega32U4USBC-1,10,D7*%
%TO.N,Net-(ArduinoProMicroATmega32U4USBC-1-D7)*%
X-12760000Y7580000D03*
%TO.P,ArduinoProMicroATmega32U4USBC-1,11,D8/A8*%
%TO.N,Net-(ArduinoProMicroATmega32U4USBC-1-D8{slash}A8)*%
X-12760000Y5040000D03*
%TO.P,ArduinoProMicroATmega32U4USBC-1,12,~D9/A9*%
%TO.N,Net-(ArduinoProMicroATmega32U4USBC-1-~D9{slash}A9)*%
X-12760000Y2500000D03*
%TO.P,ArduinoProMicroATmega32U4USBC-1,13,~D10/A10*%
%TO.N,Net-(ArduinoProMicroATmega32U4USBC-1-~D10{slash}A10)*%
X-28000000Y2500000D03*
%TO.P,ArduinoProMicroATmega32U4USBC-1,14,D16*%
%TO.N,Net-(ArduinoProMicroATmega32U4USBC-1-D16)*%
X-28000000Y5040000D03*
%TO.P,ArduinoProMicroATmega32U4USBC-1,15,D14*%
%TO.N,Net-(ArduinoProMicroATmega32U4USBC-1-D14)*%
X-28000000Y7580000D03*
%TO.P,ArduinoProMicroATmega32U4USBC-1,16,D15*%
%TO.N,Net-(ArduinoProMicroATmega32U4USBC-1-D15)*%
X-28000000Y10120000D03*
%TO.P,ArduinoProMicroATmega32U4USBC-1,17,D18/A0*%
%TO.N,Net-(ArduinoProMicroATmega32U4USBC-1-D18{slash}A0)*%
X-28000000Y12660000D03*
%TO.P,ArduinoProMicroATmega32U4USBC-1,18,D19/A1*%
%TO.N,Net-(ArduinoProMicroATmega32U4USBC-1-D19{slash}A1)*%
X-28000000Y15200000D03*
%TO.P,ArduinoProMicroATmega32U4USBC-1,19,D20/A2*%
%TO.N,Net-(ArduinoProMicroATmega32U4USBC-1-D20{slash}A2)*%
X-28000000Y17740000D03*
%TO.P,ArduinoProMicroATmega32U4USBC-1,20,D21/A3*%
%TO.N,Net-(ArduinoProMicroATmega32U4USBC-1-D21{slash}A3)*%
X-28000000Y20280000D03*
%TO.P,ArduinoProMicroATmega32U4USBC-1,21,VCC*%
%TO.N,Net-(ArduinoProMicroATmega32U4USBC-1-VCC)*%
X-28000000Y22820000D03*
%TO.P,ArduinoProMicroATmega32U4USBC-1,22,RST*%
%TO.N,unconnected-(ArduinoProMicroATmega32U4USBC-1-RST-Pad22)*%
X-28000000Y25360000D03*
%TO.P,ArduinoProMicroATmega32U4USBC-1,23,GND*%
%TO.N,unconnected-(ArduinoProMicroATmega32U4USBC-1-GND-Pad23)*%
X-28000000Y27900000D03*
%TO.P,ArduinoProMicroATmega32U4USBC-1,24,RAW*%
%TO.N,unconnected-(ArduinoProMicroATmega32U4USBC-1-RAW-Pad24)*%
X-28000000Y30440000D03*
%TD*%
D22*
%TO.P,J2_DECK_B1,1,1*%
%TO.N,Net-(ArduinoProMicroATmega32U4USBC-1-~D6{slash}A7)*%
X14000000Y-20550000D03*
D23*
%TO.P,J2_DECK_B1,2,2*%
%TO.N,Net-(J2_DECK_B1-Pad2)*%
X16000000Y-20550000D03*
%TO.P,J2_DECK_B1,3,3*%
%TO.N,GND*%
X18000000Y-20550000D03*
%TO.P,J2_DECK_B1,4,4*%
X20000000Y-20550000D03*
%TO.P,J2_DECK_B1,5,5*%
%TO.N,Net-(ArduinoProMicroATmega32U4USBC-1-D8{slash}A8)*%
X22000000Y-20550000D03*
%TO.P,J2_DECK_B1,6,6*%
%TO.N,Net-(J2_DECK_B1-Pad6)*%
X24000000Y-20550000D03*
%TO.P,J2_DECK_B1,7,7*%
%TO.N,GND*%
X26000000Y-20550000D03*
%TO.P,J2_DECK_B1,8,8*%
X28000000Y-20550000D03*
%TD*%
D26*
%TO.N,GND*%
X14800500Y7342400D03*
%TO.N,Net-(ArduinoProMicroATmega32U4USBC-1-D14)*%
X-26112500Y-11068700D03*
%TO.N,Net-(ArduinoProMicroATmega32U4USBC-1-D16)*%
X-14903700Y4387500D03*
%TO.N,Net-(ArduinoProMicroATmega32U4USBC-1-D4{slash}A6)*%
X-481900Y14060700D03*
%TO.N,Net-(ArduinoProMicroATmega32U4USBC-1-~D6{slash}A7)*%
X8862400Y10237500D03*
%TO.N,Net-(ArduinoProMicroATmega32U4USBC-1-D19{slash}A1)*%
X-17586800Y30688000D03*
%TO.N,Net-(ArduinoProMicroATmega32U4USBC-1-~D10{slash}A10)*%
X-5908100Y-1462500D03*
%TO.N,Net-(ArduinoProMicroATmega32U4USBC-1-VCC)*%
X-31909000Y-10237500D03*
X5908300Y-10237500D03*
%TO.N,Net-(ArduinoProMicroATmega32U4USBC-1-D8{slash}A8)*%
X16881100Y3543900D03*
%TO.N,Net-(ArduinoProMicroATmega32U4USBC-1-D15)*%
X-16887700Y32743600D03*
%TO.N,Net-(ArduinoProMicroATmega32U4USBC-1-D1{slash}TX)*%
X-17828000Y32150500D03*
%TO.N,Net-(ArduinoProMicroATmega32U4USBC-1-D21{slash}A3)*%
X-19866700Y31285400D03*
%TD*%
D27*
%TO.N,GND*%
X65683900Y29047000D02*
X76233000Y29047000D01*
X-16000000Y-20550000D02*
X-14000000Y-20550000D01*
X-3926700Y25500000D02*
X-3926700Y27000000D01*
X-3926700Y25500000D02*
X36000000Y25500000D01*
X-14000000Y-20550000D02*
X-12713500Y-21836500D01*
X36000000Y25500000D02*
X41603300Y25500000D01*
X-4066700Y25360000D02*
X-3926700Y25500000D01*
X-16350100Y25360000D02*
X-14161700Y25360000D01*
X62136900Y25500000D02*
X65683900Y29047000D01*
X16713500Y-21836500D02*
X18000000Y-20550000D01*
X58318500Y25500000D02*
X48000000Y25500000D01*
X-2500000Y27000000D02*
X-3926700Y27000000D01*
X76233000Y29047000D02*
X78248300Y31062300D01*
X54500000Y25500000D02*
X58318500Y25500000D01*
X-22871400Y31881300D02*
X-16350100Y25360000D01*
X-54000000Y30000000D02*
X-47500000Y30000000D01*
X20000000Y-20550000D02*
X18000000Y-20550000D01*
X-76250000Y31250000D02*
X-74748300Y31250000D01*
X-12713500Y-21836500D02*
X16713500Y-21836500D01*
X-24000000Y-20550000D02*
X-22000000Y-20550000D01*
X-57472600Y33472600D02*
X-54000000Y30000000D01*
X58318500Y25500000D02*
X62136900Y25500000D01*
X41603300Y25500000D02*
X42500000Y25500000D01*
X28000000Y-20550000D02*
X26000000Y-20550000D01*
X-42000000Y30000000D02*
X-35500000Y30000000D01*
X41603300Y25500000D02*
X48000000Y25500000D01*
X-35500000Y30000000D02*
X-33618700Y31881300D01*
X-74748300Y31250000D02*
X-72525700Y33472600D01*
X79750000Y31250000D02*
X78248300Y31250000D01*
X-72525700Y33472600D02*
X-57472600Y33472600D01*
X14800500Y7342400D02*
X4787300Y7342400D01*
X78248300Y31062300D02*
X78248300Y31250000D01*
X-12760000Y25360000D02*
X-14161700Y25360000D01*
X4787300Y7342400D02*
X4580000Y7135100D01*
X-33618700Y31881300D02*
X-22871400Y31881300D01*
X-12760000Y25360000D02*
X-4066700Y25360000D01*
%TO.N,Net-(ROTARY_ENCODER_BTN1-SHIELD-PadSH1)*%
X5700000Y20000000D02*
X5700000Y23601700D01*
X-5700000Y20000000D02*
X-5700000Y23601700D01*
X5700000Y23601700D02*
X-5700000Y23601700D01*
%TO.N,Net-(J1_DECK_A1-Pad6)*%
X-18000000Y-20550000D02*
X-15422100Y-23127900D01*
X-4112100Y-23127900D02*
X-2100000Y-25140000D01*
X-15422100Y-23127900D02*
X-4112100Y-23127900D01*
%TO.N,Net-(J1_DECK_A1-Pad2)*%
X-21560000Y-24990000D02*
X-26000000Y-20550000D01*
X-8100000Y-24990000D02*
X-21560000Y-24990000D01*
%TO.N,Net-(J2_DECK_B1-Pad6)*%
X20955300Y-23594700D02*
X24000000Y-20550000D01*
X3900000Y-25140000D02*
X5445300Y-23594700D01*
X5445300Y-23594700D02*
X20955300Y-23594700D01*
%TO.N,Net-(ArduinoProMicroATmega32U4USBC-1-D14)*%
X-26112500Y-11068700D02*
X-2551300Y-11068700D01*
X-2551300Y-11068700D02*
X3900000Y-17520000D01*
%TO.N,Net-(ArduinoProMicroATmega32U4USBC-1-D20{slash}A2)*%
X-29401700Y18265600D02*
X-34501500Y23365400D01*
X-72550600Y29748300D02*
X-78248300Y29748300D01*
X-34501500Y23365400D02*
X-66167700Y23365400D01*
X-29401700Y17740000D02*
X-29401700Y18265600D01*
X-28000000Y17740000D02*
X-29401700Y17740000D01*
X-78248300Y29748300D02*
X-79750000Y31250000D01*
X-66167700Y23365400D02*
X-72550600Y29748300D01*
%TO.N,Net-(ArduinoProMicroATmega32U4USBC-1-D16)*%
X-25945800Y4387500D02*
X-26598300Y5040000D01*
X-14903700Y4387500D02*
X-25945800Y4387500D01*
X-28000000Y5040000D02*
X-26598300Y5040000D01*
%TO.N,Net-(ArduinoProMicroATmega32U4USBC-1-D4{slash}A6)*%
X-12760000Y15200000D02*
X-11358300Y15200000D01*
X-481900Y14060700D02*
X-10219000Y14060700D01*
X-10219000Y14060700D02*
X-11358300Y15200000D01*
%TO.N,Net-(ArduinoProMicroATmega32U4USBC-1-~D6{slash}A7)*%
X-12760000Y10120000D02*
X8744900Y10120000D01*
X8744900Y10120000D02*
X8862400Y10237500D01*
%TO.N,Net-(ArduinoProMicroATmega32U4USBC-1-~D3)*%
X2500000Y12500000D02*
X37600Y14962400D01*
X37600Y14962400D02*
X-8580700Y14962400D01*
X-8580700Y14962400D02*
X-11358300Y17740000D01*
X-12760000Y17740000D02*
X-11358300Y17740000D01*
%TO.N,Net-(ArduinoProMicroATmega32U4USBC-1-D19{slash}A1)*%
X-16433100Y31841700D02*
X24776100Y31841700D01*
X63630500Y28527500D02*
X66353000Y31250000D01*
X-17587900Y30686900D02*
X-16433100Y31841700D01*
X66353000Y31250000D02*
X76250000Y31250000D01*
X24776100Y31841700D02*
X28090300Y28527500D01*
X28090300Y28527500D02*
X63630500Y28527500D01*
X-17587900Y30686900D02*
X-17586800Y30688000D01*
%TO.N,Net-(ArduinoProMicroATmega32U4USBC-1-~D10{slash}A10)*%
X-22635800Y-1462500D02*
X-26598300Y2500000D01*
X-28000000Y2500000D02*
X-26598300Y2500000D01*
X-5908100Y-1462500D02*
X-22635800Y-1462500D01*
%TO.N,Net-(ArduinoProMicroATmega32U4USBC-1-VCC)*%
X-31838500Y-10167000D02*
X-31909000Y-10237500D01*
X-2285100Y5135100D02*
X-4630000Y7480000D01*
X5837800Y-10167000D02*
X-31838500Y-10167000D01*
X4580000Y5135100D02*
X-2285100Y5135100D01*
X27262500Y-10237500D02*
X29250000Y-8250000D01*
X5908300Y-10237500D02*
X27262500Y-10237500D01*
X5908300Y-10237500D02*
X5837800Y-10167000D01*
%TO.N,Net-(ArduinoProMicroATmega32U4USBC-1-D8{slash}A8)*%
X-11358300Y5040000D02*
X-9862200Y3543900D01*
X-9862200Y3543900D02*
X16881100Y3543900D01*
X-12760000Y5040000D02*
X-11358300Y5040000D01*
%TO.N,Net-(ArduinoProMicroATmega32U4USBC-1-D0{slash}RX)*%
X-12760000Y27900000D02*
X-14161700Y27900000D01*
X-17756400Y27900000D02*
X-14161700Y27900000D01*
X-47500000Y25500000D02*
X-47500000Y26595100D01*
X-41412100Y32683000D02*
X-22539400Y32683000D01*
X-22539400Y32683000D02*
X-17756400Y27900000D01*
X-47500000Y25500000D02*
X-54000000Y25500000D01*
X-47500000Y26595100D02*
X-41412100Y32683000D01*
%TO.N,Net-(ArduinoProMicroATmega32U4USBC-1-D15)*%
X-16887700Y32743600D02*
X-16169200Y33462100D01*
X-16169200Y33462100D02*
X32537900Y33462100D01*
X32537900Y33462100D02*
X36000000Y30000000D01*
X36000000Y30000000D02*
X42500000Y30000000D01*
%TO.N,Net-(ArduinoProMicroATmega32U4USBC-1-D1{slash}TX)*%
X-42000000Y25500000D02*
X-35500000Y25500000D01*
X-12760000Y30440000D02*
X-14161700Y30440000D01*
X-17828000Y32150500D02*
X-18489600Y31488900D01*
X-14846100Y29755600D02*
X-14161700Y30440000D01*
X-18489600Y30313500D02*
X-17931700Y29755600D01*
X-18489600Y31488900D02*
X-18489600Y30313500D01*
X-17931700Y29755600D02*
X-14846100Y29755600D01*
%TO.N,Net-(ArduinoProMicroATmega32U4USBC-1-D21{slash}A3)*%
X-19866700Y31403800D02*
X-19866700Y31285400D01*
X-16956700Y34313800D02*
X-19866700Y31403800D01*
X48000000Y30000000D02*
X43686200Y34313800D01*
X54500000Y30000000D02*
X48000000Y30000000D01*
X43686200Y34313800D02*
X-16956700Y34313800D01*
%TO.N,Net-(FADER_CROSSFADER1-SHIELD-PadSH1)*%
X23900000Y-5750000D02*
X-23900000Y-5750000D01*
%TO.N,Net-(FADER_TEMPO_A1-SHIELD-PadSH1)*%
X74950000Y-21900000D02*
X73750000Y-23100000D01*
X74950000Y25900000D02*
X82250000Y25900000D01*
X82250000Y-21900000D02*
X74950000Y-21900000D01*
X73750000Y27100000D02*
X74950000Y25900000D01*
%TO.N,Net-(FADER_TEMPO_B1-SHIELD-PadSH1)*%
X-73750000Y-21900000D02*
X-81050000Y-21900000D01*
X-74950000Y27100000D02*
X-73750000Y25900000D01*
X-82250000Y27100000D02*
X-74950000Y27100000D01*
X-81050000Y-21900000D02*
X-82250000Y-23100000D01*
%TD*%
M02*
