%TF.GenerationSoftware,KiCad,Pcbnew,9.0.7*%
%TF.CreationDate,2026-01-26T22:48:02-06:00*%
%TF.ProjectId,FADETUBE_MIDI,46414445-5455-4424-955f-4d4944492e6b,rev?*%
%TF.SameCoordinates,Original*%
%TF.FileFunction,Legend,Bot*%
%TF.FilePolarity,Positive*%
%FSLAX46Y46*%
G04 Gerber Fmt 4.6, Leading zero omitted, Abs format (unit mm)*
G04 Created by KiCad (PCBNEW 9.0.7) date 2026-01-26 22:48:02*
%MOMM*%
%LPD*%
G01*
G04 APERTURE LIST*
G04 Aperture macros list*
%AMRoundRect*
0 Rectangle with rounded corners*
0 $1 Rounding radius*
0 $2 $3 $4 $5 $6 $7 $8 $9 X,Y pos of 4 corners*
0 Add a 4 corners polygon primitive as box body*
4,1,4,$2,$3,$4,$5,$6,$7,$8,$9,$2,$3,0*
0 Add four circle primitives for the rounded corners*
1,1,$1+$1,$2,$3*
1,1,$1+$1,$4,$5*
1,1,$1+$1,$6,$7*
1,1,$1+$1,$8,$9*
0 Add four rect primitives between the rounded corners*
20,1,$1+$1,$2,$3,$4,$5,0*
20,1,$1+$1,$4,$5,$6,$7,0*
20,1,$1+$1,$6,$7,$8,$9,0*
20,1,$1+$1,$8,$9,$2,$3,0*%
G04 Aperture macros list end*
%ADD10C,0.150000*%
%ADD11C,0.127000*%
%ADD12C,0.200000*%
%ADD13C,0.120000*%
%ADD14C,1.600000*%
%ADD15RoundRect,0.102000X-0.825000X-0.825000X0.825000X-0.825000X0.825000X0.825000X-0.825000X0.825000X0*%
%ADD16C,1.854000*%
%ADD17O,3.204000X6.204000*%
%ADD18C,2.200000*%
%ADD19RoundRect,0.250000X-0.550000X0.550000X-0.550000X-0.550000X0.550000X-0.550000X0.550000X0.550000X0*%
%ADD20C,1.700000*%
%ADD21RoundRect,0.102000X-0.900000X0.900000X-0.900000X-0.900000X0.900000X-0.900000X0.900000X0.900000X0*%
%ADD22C,2.004000*%
%ADD23C,2.754000*%
%ADD24RoundRect,0.102000X-0.900000X-0.900000X0.900000X-0.900000X0.900000X0.900000X-0.900000X0.900000X0*%
%ADD25RoundRect,0.102000X0.654000X0.654000X-0.654000X0.654000X-0.654000X-0.654000X0.654000X-0.654000X0*%
%ADD26C,1.512000*%
%ADD27R,1.600000X1.600000*%
%ADD28O,1.600000X1.600000*%
G04 APERTURE END LIST*
D10*
X-12047618Y-16004819D02*
X-12047618Y-16719104D01*
X-12047618Y-16719104D02*
X-11999999Y-16861961D01*
X-11999999Y-16861961D02*
X-11904761Y-16957200D01*
X-11904761Y-16957200D02*
X-11761904Y-17004819D01*
X-11761904Y-17004819D02*
X-11666666Y-17004819D01*
X-13047618Y-17004819D02*
X-12476190Y-17004819D01*
X-12761904Y-17004819D02*
X-12761904Y-16004819D01*
X-12761904Y-16004819D02*
X-12666666Y-16147676D01*
X-12666666Y-16147676D02*
X-12571428Y-16242914D01*
X-12571428Y-16242914D02*
X-12476190Y-16290533D01*
X-13238095Y-17100057D02*
X-13999999Y-17100057D01*
X-14238095Y-17004819D02*
X-14238095Y-16004819D01*
X-14238095Y-16004819D02*
X-14476190Y-16004819D01*
X-14476190Y-16004819D02*
X-14619047Y-16052438D01*
X-14619047Y-16052438D02*
X-14714285Y-16147676D01*
X-14714285Y-16147676D02*
X-14761904Y-16242914D01*
X-14761904Y-16242914D02*
X-14809523Y-16433390D01*
X-14809523Y-16433390D02*
X-14809523Y-16576247D01*
X-14809523Y-16576247D02*
X-14761904Y-16766723D01*
X-14761904Y-16766723D02*
X-14714285Y-16861961D01*
X-14714285Y-16861961D02*
X-14619047Y-16957200D01*
X-14619047Y-16957200D02*
X-14476190Y-17004819D01*
X-14476190Y-17004819D02*
X-14238095Y-17004819D01*
X-15238095Y-16481009D02*
X-15571428Y-16481009D01*
X-15714285Y-17004819D02*
X-15238095Y-17004819D01*
X-15238095Y-17004819D02*
X-15238095Y-16004819D01*
X-15238095Y-16004819D02*
X-15714285Y-16004819D01*
X-16714285Y-16909580D02*
X-16666666Y-16957200D01*
X-16666666Y-16957200D02*
X-16523809Y-17004819D01*
X-16523809Y-17004819D02*
X-16428571Y-17004819D01*
X-16428571Y-17004819D02*
X-16285714Y-16957200D01*
X-16285714Y-16957200D02*
X-16190476Y-16861961D01*
X-16190476Y-16861961D02*
X-16142857Y-16766723D01*
X-16142857Y-16766723D02*
X-16095238Y-16576247D01*
X-16095238Y-16576247D02*
X-16095238Y-16433390D01*
X-16095238Y-16433390D02*
X-16142857Y-16242914D01*
X-16142857Y-16242914D02*
X-16190476Y-16147676D01*
X-16190476Y-16147676D02*
X-16285714Y-16052438D01*
X-16285714Y-16052438D02*
X-16428571Y-16004819D01*
X-16428571Y-16004819D02*
X-16523809Y-16004819D01*
X-16523809Y-16004819D02*
X-16666666Y-16052438D01*
X-16666666Y-16052438D02*
X-16714285Y-16100057D01*
X-17142857Y-17004819D02*
X-17142857Y-16004819D01*
X-17714285Y-17004819D02*
X-17285714Y-16433390D01*
X-17714285Y-16004819D02*
X-17142857Y-16576247D01*
X-17904762Y-17100057D02*
X-18666666Y-17100057D01*
X-18857143Y-16719104D02*
X-19333333Y-16719104D01*
X-18761905Y-17004819D02*
X-19095238Y-16004819D01*
X-19095238Y-16004819D02*
X-19428571Y-17004819D01*
X-20285714Y-17004819D02*
X-19714286Y-17004819D01*
X-20000000Y-17004819D02*
X-20000000Y-16004819D01*
X-20000000Y-16004819D02*
X-19904762Y-16147676D01*
X-19904762Y-16147676D02*
X-19809524Y-16242914D01*
X-19809524Y-16242914D02*
X-19714286Y-16290533D01*
X-30830895Y30294285D02*
X-30830895Y29818095D01*
X-30545180Y30389523D02*
X-31545180Y30056190D01*
X-31545180Y30056190D02*
X-30545180Y29722857D01*
X-30545180Y29389523D02*
X-31211847Y29389523D01*
X-31021371Y29389523D02*
X-31116609Y29341904D01*
X-31116609Y29341904D02*
X-31164228Y29294285D01*
X-31164228Y29294285D02*
X-31211847Y29199047D01*
X-31211847Y29199047D02*
X-31211847Y29103809D01*
X-30545180Y28341904D02*
X-31545180Y28341904D01*
X-30592800Y28341904D02*
X-30545180Y28437142D01*
X-30545180Y28437142D02*
X-30545180Y28627618D01*
X-30545180Y28627618D02*
X-30592800Y28722856D01*
X-30592800Y28722856D02*
X-30640419Y28770475D01*
X-30640419Y28770475D02*
X-30735657Y28818094D01*
X-30735657Y28818094D02*
X-31021371Y28818094D01*
X-31021371Y28818094D02*
X-31116609Y28770475D01*
X-31116609Y28770475D02*
X-31164228Y28722856D01*
X-31164228Y28722856D02*
X-31211847Y28627618D01*
X-31211847Y28627618D02*
X-31211847Y28437142D01*
X-31211847Y28437142D02*
X-31164228Y28341904D01*
X-31211847Y27437142D02*
X-30545180Y27437142D01*
X-31211847Y27865713D02*
X-30688038Y27865713D01*
X-30688038Y27865713D02*
X-30592800Y27818094D01*
X-30592800Y27818094D02*
X-30545180Y27722856D01*
X-30545180Y27722856D02*
X-30545180Y27579999D01*
X-30545180Y27579999D02*
X-30592800Y27484761D01*
X-30592800Y27484761D02*
X-30640419Y27437142D01*
X-30545180Y26960951D02*
X-31211847Y26960951D01*
X-31545180Y26960951D02*
X-31497561Y27008570D01*
X-31497561Y27008570D02*
X-31449942Y26960951D01*
X-31449942Y26960951D02*
X-31497561Y26913332D01*
X-31497561Y26913332D02*
X-31545180Y26960951D01*
X-31545180Y26960951D02*
X-31449942Y26960951D01*
X-31211847Y26484761D02*
X-30545180Y26484761D01*
X-31116609Y26484761D02*
X-31164228Y26437142D01*
X-31164228Y26437142D02*
X-31211847Y26341904D01*
X-31211847Y26341904D02*
X-31211847Y26199047D01*
X-31211847Y26199047D02*
X-31164228Y26103809D01*
X-31164228Y26103809D02*
X-31068990Y26056190D01*
X-31068990Y26056190D02*
X-30545180Y26056190D01*
X-30545180Y25437142D02*
X-30592800Y25532380D01*
X-30592800Y25532380D02*
X-30640419Y25579999D01*
X-30640419Y25579999D02*
X-30735657Y25627618D01*
X-30735657Y25627618D02*
X-31021371Y25627618D01*
X-31021371Y25627618D02*
X-31116609Y25579999D01*
X-31116609Y25579999D02*
X-31164228Y25532380D01*
X-31164228Y25532380D02*
X-31211847Y25437142D01*
X-31211847Y25437142D02*
X-31211847Y25294285D01*
X-31211847Y25294285D02*
X-31164228Y25199047D01*
X-31164228Y25199047D02*
X-31116609Y25151428D01*
X-31116609Y25151428D02*
X-31021371Y25103809D01*
X-31021371Y25103809D02*
X-30735657Y25103809D01*
X-30735657Y25103809D02*
X-30640419Y25151428D01*
X-30640419Y25151428D02*
X-30592800Y25199047D01*
X-30592800Y25199047D02*
X-30545180Y25294285D01*
X-30545180Y25294285D02*
X-30545180Y25437142D01*
X-30545180Y24675237D02*
X-31545180Y24675237D01*
X-31545180Y24675237D02*
X-31545180Y24294285D01*
X-31545180Y24294285D02*
X-31497561Y24199047D01*
X-31497561Y24199047D02*
X-31449942Y24151428D01*
X-31449942Y24151428D02*
X-31354704Y24103809D01*
X-31354704Y24103809D02*
X-31211847Y24103809D01*
X-31211847Y24103809D02*
X-31116609Y24151428D01*
X-31116609Y24151428D02*
X-31068990Y24199047D01*
X-31068990Y24199047D02*
X-31021371Y24294285D01*
X-31021371Y24294285D02*
X-31021371Y24675237D01*
X-30545180Y23675237D02*
X-31211847Y23675237D01*
X-31021371Y23675237D02*
X-31116609Y23627618D01*
X-31116609Y23627618D02*
X-31164228Y23579999D01*
X-31164228Y23579999D02*
X-31211847Y23484761D01*
X-31211847Y23484761D02*
X-31211847Y23389523D01*
X-30545180Y22913332D02*
X-30592800Y23008570D01*
X-30592800Y23008570D02*
X-30640419Y23056189D01*
X-30640419Y23056189D02*
X-30735657Y23103808D01*
X-30735657Y23103808D02*
X-31021371Y23103808D01*
X-31021371Y23103808D02*
X-31116609Y23056189D01*
X-31116609Y23056189D02*
X-31164228Y23008570D01*
X-31164228Y23008570D02*
X-31211847Y22913332D01*
X-31211847Y22913332D02*
X-31211847Y22770475D01*
X-31211847Y22770475D02*
X-31164228Y22675237D01*
X-31164228Y22675237D02*
X-31116609Y22627618D01*
X-31116609Y22627618D02*
X-31021371Y22579999D01*
X-31021371Y22579999D02*
X-30735657Y22579999D01*
X-30735657Y22579999D02*
X-30640419Y22627618D01*
X-30640419Y22627618D02*
X-30592800Y22675237D01*
X-30592800Y22675237D02*
X-30545180Y22770475D01*
X-30545180Y22770475D02*
X-30545180Y22913332D01*
X-30545180Y22151427D02*
X-31545180Y22151427D01*
X-31545180Y22151427D02*
X-30830895Y21818094D01*
X-30830895Y21818094D02*
X-31545180Y21484761D01*
X-31545180Y21484761D02*
X-30545180Y21484761D01*
X-30545180Y21008570D02*
X-31211847Y21008570D01*
X-31545180Y21008570D02*
X-31497561Y21056189D01*
X-31497561Y21056189D02*
X-31449942Y21008570D01*
X-31449942Y21008570D02*
X-31497561Y20960951D01*
X-31497561Y20960951D02*
X-31545180Y21008570D01*
X-31545180Y21008570D02*
X-31449942Y21008570D01*
X-30592800Y20103809D02*
X-30545180Y20199047D01*
X-30545180Y20199047D02*
X-30545180Y20389523D01*
X-30545180Y20389523D02*
X-30592800Y20484761D01*
X-30592800Y20484761D02*
X-30640419Y20532380D01*
X-30640419Y20532380D02*
X-30735657Y20579999D01*
X-30735657Y20579999D02*
X-31021371Y20579999D01*
X-31021371Y20579999D02*
X-31116609Y20532380D01*
X-31116609Y20532380D02*
X-31164228Y20484761D01*
X-31164228Y20484761D02*
X-31211847Y20389523D01*
X-31211847Y20389523D02*
X-31211847Y20199047D01*
X-31211847Y20199047D02*
X-31164228Y20103809D01*
X-30545180Y19675237D02*
X-31211847Y19675237D01*
X-31021371Y19675237D02*
X-31116609Y19627618D01*
X-31116609Y19627618D02*
X-31164228Y19579999D01*
X-31164228Y19579999D02*
X-31211847Y19484761D01*
X-31211847Y19484761D02*
X-31211847Y19389523D01*
X-30545180Y18913332D02*
X-30592800Y19008570D01*
X-30592800Y19008570D02*
X-30640419Y19056189D01*
X-30640419Y19056189D02*
X-30735657Y19103808D01*
X-30735657Y19103808D02*
X-31021371Y19103808D01*
X-31021371Y19103808D02*
X-31116609Y19056189D01*
X-31116609Y19056189D02*
X-31164228Y19008570D01*
X-31164228Y19008570D02*
X-31211847Y18913332D01*
X-31211847Y18913332D02*
X-31211847Y18770475D01*
X-31211847Y18770475D02*
X-31164228Y18675237D01*
X-31164228Y18675237D02*
X-31116609Y18627618D01*
X-31116609Y18627618D02*
X-31021371Y18579999D01*
X-31021371Y18579999D02*
X-30735657Y18579999D01*
X-30735657Y18579999D02*
X-30640419Y18627618D01*
X-30640419Y18627618D02*
X-30592800Y18675237D01*
X-30592800Y18675237D02*
X-30545180Y18770475D01*
X-30545180Y18770475D02*
X-30545180Y18913332D01*
X-30830895Y18199046D02*
X-30830895Y17722856D01*
X-30545180Y18294284D02*
X-31545180Y17960951D01*
X-31545180Y17960951D02*
X-30545180Y17627618D01*
X-31545180Y17437141D02*
X-31545180Y16865713D01*
X-30545180Y17151427D02*
X-31545180Y17151427D01*
X-30545180Y16532379D02*
X-31211847Y16532379D01*
X-31116609Y16532379D02*
X-31164228Y16484760D01*
X-31164228Y16484760D02*
X-31211847Y16389522D01*
X-31211847Y16389522D02*
X-31211847Y16246665D01*
X-31211847Y16246665D02*
X-31164228Y16151427D01*
X-31164228Y16151427D02*
X-31068990Y16103808D01*
X-31068990Y16103808D02*
X-30545180Y16103808D01*
X-31068990Y16103808D02*
X-31164228Y16056189D01*
X-31164228Y16056189D02*
X-31211847Y15960951D01*
X-31211847Y15960951D02*
X-31211847Y15818094D01*
X-31211847Y15818094D02*
X-31164228Y15722855D01*
X-31164228Y15722855D02*
X-31068990Y15675236D01*
X-31068990Y15675236D02*
X-30545180Y15675236D01*
X-30592800Y14818094D02*
X-30545180Y14913332D01*
X-30545180Y14913332D02*
X-30545180Y15103808D01*
X-30545180Y15103808D02*
X-30592800Y15199046D01*
X-30592800Y15199046D02*
X-30688038Y15246665D01*
X-30688038Y15246665D02*
X-31068990Y15246665D01*
X-31068990Y15246665D02*
X-31164228Y15199046D01*
X-31164228Y15199046D02*
X-31211847Y15103808D01*
X-31211847Y15103808D02*
X-31211847Y14913332D01*
X-31211847Y14913332D02*
X-31164228Y14818094D01*
X-31164228Y14818094D02*
X-31068990Y14770475D01*
X-31068990Y14770475D02*
X-30973752Y14770475D01*
X-30973752Y14770475D02*
X-30878514Y15246665D01*
X-31211847Y13913332D02*
X-30402323Y13913332D01*
X-30402323Y13913332D02*
X-30307085Y13960951D01*
X-30307085Y13960951D02*
X-30259466Y14008570D01*
X-30259466Y14008570D02*
X-30211847Y14103808D01*
X-30211847Y14103808D02*
X-30211847Y14246665D01*
X-30211847Y14246665D02*
X-30259466Y14341903D01*
X-30592800Y13913332D02*
X-30545180Y14008570D01*
X-30545180Y14008570D02*
X-30545180Y14199046D01*
X-30545180Y14199046D02*
X-30592800Y14294284D01*
X-30592800Y14294284D02*
X-30640419Y14341903D01*
X-30640419Y14341903D02*
X-30735657Y14389522D01*
X-30735657Y14389522D02*
X-31021371Y14389522D01*
X-31021371Y14389522D02*
X-31116609Y14341903D01*
X-31116609Y14341903D02*
X-31164228Y14294284D01*
X-31164228Y14294284D02*
X-31211847Y14199046D01*
X-31211847Y14199046D02*
X-31211847Y14008570D01*
X-31211847Y14008570D02*
X-31164228Y13913332D01*
X-30545180Y13008570D02*
X-31068990Y13008570D01*
X-31068990Y13008570D02*
X-31164228Y13056189D01*
X-31164228Y13056189D02*
X-31211847Y13151427D01*
X-31211847Y13151427D02*
X-31211847Y13341903D01*
X-31211847Y13341903D02*
X-31164228Y13437141D01*
X-30592800Y13008570D02*
X-30545180Y13103808D01*
X-30545180Y13103808D02*
X-30545180Y13341903D01*
X-30545180Y13341903D02*
X-30592800Y13437141D01*
X-30592800Y13437141D02*
X-30688038Y13484760D01*
X-30688038Y13484760D02*
X-30783276Y13484760D01*
X-30783276Y13484760D02*
X-30878514Y13437141D01*
X-30878514Y13437141D02*
X-30926133Y13341903D01*
X-30926133Y13341903D02*
X-30926133Y13103808D01*
X-30926133Y13103808D02*
X-30973752Y13008570D01*
X-31545180Y12627617D02*
X-31545180Y12008570D01*
X-31545180Y12008570D02*
X-31164228Y12341903D01*
X-31164228Y12341903D02*
X-31164228Y12199046D01*
X-31164228Y12199046D02*
X-31116609Y12103808D01*
X-31116609Y12103808D02*
X-31068990Y12056189D01*
X-31068990Y12056189D02*
X-30973752Y12008570D01*
X-30973752Y12008570D02*
X-30735657Y12008570D01*
X-30735657Y12008570D02*
X-30640419Y12056189D01*
X-30640419Y12056189D02*
X-30592800Y12103808D01*
X-30592800Y12103808D02*
X-30545180Y12199046D01*
X-30545180Y12199046D02*
X-30545180Y12484760D01*
X-30545180Y12484760D02*
X-30592800Y12579998D01*
X-30592800Y12579998D02*
X-30640419Y12627617D01*
X-31449942Y11627617D02*
X-31497561Y11579998D01*
X-31497561Y11579998D02*
X-31545180Y11484760D01*
X-31545180Y11484760D02*
X-31545180Y11246665D01*
X-31545180Y11246665D02*
X-31497561Y11151427D01*
X-31497561Y11151427D02*
X-31449942Y11103808D01*
X-31449942Y11103808D02*
X-31354704Y11056189D01*
X-31354704Y11056189D02*
X-31259466Y11056189D01*
X-31259466Y11056189D02*
X-31116609Y11103808D01*
X-31116609Y11103808D02*
X-30545180Y11675236D01*
X-30545180Y11675236D02*
X-30545180Y11056189D01*
X-31545180Y10627617D02*
X-30735657Y10627617D01*
X-30735657Y10627617D02*
X-30640419Y10579998D01*
X-30640419Y10579998D02*
X-30592800Y10532379D01*
X-30592800Y10532379D02*
X-30545180Y10437141D01*
X-30545180Y10437141D02*
X-30545180Y10246665D01*
X-30545180Y10246665D02*
X-30592800Y10151427D01*
X-30592800Y10151427D02*
X-30640419Y10103808D01*
X-30640419Y10103808D02*
X-30735657Y10056189D01*
X-30735657Y10056189D02*
X-31545180Y10056189D01*
X-31211847Y9151427D02*
X-30545180Y9151427D01*
X-31592800Y9389522D02*
X-30878514Y9627617D01*
X-30878514Y9627617D02*
X-30878514Y9008570D01*
X-31545180Y8627617D02*
X-30735657Y8627617D01*
X-30735657Y8627617D02*
X-30640419Y8579998D01*
X-30640419Y8579998D02*
X-30592800Y8532379D01*
X-30592800Y8532379D02*
X-30545180Y8437141D01*
X-30545180Y8437141D02*
X-30545180Y8246665D01*
X-30545180Y8246665D02*
X-30592800Y8151427D01*
X-30592800Y8151427D02*
X-30640419Y8103808D01*
X-30640419Y8103808D02*
X-30735657Y8056189D01*
X-30735657Y8056189D02*
X-31545180Y8056189D01*
X-30592800Y7627617D02*
X-30545180Y7484760D01*
X-30545180Y7484760D02*
X-30545180Y7246665D01*
X-30545180Y7246665D02*
X-30592800Y7151427D01*
X-30592800Y7151427D02*
X-30640419Y7103808D01*
X-30640419Y7103808D02*
X-30735657Y7056189D01*
X-30735657Y7056189D02*
X-30830895Y7056189D01*
X-30830895Y7056189D02*
X-30926133Y7103808D01*
X-30926133Y7103808D02*
X-30973752Y7151427D01*
X-30973752Y7151427D02*
X-31021371Y7246665D01*
X-31021371Y7246665D02*
X-31068990Y7437141D01*
X-31068990Y7437141D02*
X-31116609Y7532379D01*
X-31116609Y7532379D02*
X-31164228Y7579998D01*
X-31164228Y7579998D02*
X-31259466Y7627617D01*
X-31259466Y7627617D02*
X-31354704Y7627617D01*
X-31354704Y7627617D02*
X-31449942Y7579998D01*
X-31449942Y7579998D02*
X-31497561Y7532379D01*
X-31497561Y7532379D02*
X-31545180Y7437141D01*
X-31545180Y7437141D02*
X-31545180Y7199046D01*
X-31545180Y7199046D02*
X-31497561Y7056189D01*
X-31068990Y6294284D02*
X-31021371Y6151427D01*
X-31021371Y6151427D02*
X-30973752Y6103808D01*
X-30973752Y6103808D02*
X-30878514Y6056189D01*
X-30878514Y6056189D02*
X-30735657Y6056189D01*
X-30735657Y6056189D02*
X-30640419Y6103808D01*
X-30640419Y6103808D02*
X-30592800Y6151427D01*
X-30592800Y6151427D02*
X-30545180Y6246665D01*
X-30545180Y6246665D02*
X-30545180Y6627617D01*
X-30545180Y6627617D02*
X-31545180Y6627617D01*
X-31545180Y6627617D02*
X-31545180Y6294284D01*
X-31545180Y6294284D02*
X-31497561Y6199046D01*
X-31497561Y6199046D02*
X-31449942Y6151427D01*
X-31449942Y6151427D02*
X-31354704Y6103808D01*
X-31354704Y6103808D02*
X-31259466Y6103808D01*
X-31259466Y6103808D02*
X-31164228Y6151427D01*
X-31164228Y6151427D02*
X-31116609Y6199046D01*
X-31116609Y6199046D02*
X-31068990Y6294284D01*
X-31068990Y6294284D02*
X-31068990Y6627617D01*
X-30640419Y5056189D02*
X-30592800Y5103808D01*
X-30592800Y5103808D02*
X-30545180Y5246665D01*
X-30545180Y5246665D02*
X-30545180Y5341903D01*
X-30545180Y5341903D02*
X-30592800Y5484760D01*
X-30592800Y5484760D02*
X-30688038Y5579998D01*
X-30688038Y5579998D02*
X-30783276Y5627617D01*
X-30783276Y5627617D02*
X-30973752Y5675236D01*
X-30973752Y5675236D02*
X-31116609Y5675236D01*
X-31116609Y5675236D02*
X-31307085Y5627617D01*
X-31307085Y5627617D02*
X-31402323Y5579998D01*
X-31402323Y5579998D02*
X-31497561Y5484760D01*
X-31497561Y5484760D02*
X-31545180Y5341903D01*
X-31545180Y5341903D02*
X-31545180Y5246665D01*
X-31545180Y5246665D02*
X-31497561Y5103808D01*
X-31497561Y5103808D02*
X-31449942Y5056189D01*
X-30926133Y4627617D02*
X-30926133Y3865713D01*
X-30545180Y2865713D02*
X-30545180Y3437141D01*
X-30545180Y3151427D02*
X-31545180Y3151427D01*
X-31545180Y3151427D02*
X-31402323Y3246665D01*
X-31402323Y3246665D02*
X-31307085Y3341903D01*
X-31307085Y3341903D02*
X-31259466Y3437141D01*
X29523809Y-15869819D02*
X29523809Y-16584104D01*
X29523809Y-16584104D02*
X29571428Y-16726961D01*
X29571428Y-16726961D02*
X29666666Y-16822200D01*
X29666666Y-16822200D02*
X29809523Y-16869819D01*
X29809523Y-16869819D02*
X29904761Y-16869819D01*
X29095237Y-15965057D02*
X29047618Y-15917438D01*
X29047618Y-15917438D02*
X28952380Y-15869819D01*
X28952380Y-15869819D02*
X28714285Y-15869819D01*
X28714285Y-15869819D02*
X28619047Y-15917438D01*
X28619047Y-15917438D02*
X28571428Y-15965057D01*
X28571428Y-15965057D02*
X28523809Y-16060295D01*
X28523809Y-16060295D02*
X28523809Y-16155533D01*
X28523809Y-16155533D02*
X28571428Y-16298390D01*
X28571428Y-16298390D02*
X29142856Y-16869819D01*
X29142856Y-16869819D02*
X28523809Y-16869819D01*
X28333333Y-16965057D02*
X27571428Y-16965057D01*
X27333332Y-16869819D02*
X27333332Y-15869819D01*
X27333332Y-15869819D02*
X27095237Y-15869819D01*
X27095237Y-15869819D02*
X26952380Y-15917438D01*
X26952380Y-15917438D02*
X26857142Y-16012676D01*
X26857142Y-16012676D02*
X26809523Y-16107914D01*
X26809523Y-16107914D02*
X26761904Y-16298390D01*
X26761904Y-16298390D02*
X26761904Y-16441247D01*
X26761904Y-16441247D02*
X26809523Y-16631723D01*
X26809523Y-16631723D02*
X26857142Y-16726961D01*
X26857142Y-16726961D02*
X26952380Y-16822200D01*
X26952380Y-16822200D02*
X27095237Y-16869819D01*
X27095237Y-16869819D02*
X27333332Y-16869819D01*
X26333332Y-16346009D02*
X25999999Y-16346009D01*
X25857142Y-16869819D02*
X26333332Y-16869819D01*
X26333332Y-16869819D02*
X26333332Y-15869819D01*
X26333332Y-15869819D02*
X25857142Y-15869819D01*
X24857142Y-16774580D02*
X24904761Y-16822200D01*
X24904761Y-16822200D02*
X25047618Y-16869819D01*
X25047618Y-16869819D02*
X25142856Y-16869819D01*
X25142856Y-16869819D02*
X25285713Y-16822200D01*
X25285713Y-16822200D02*
X25380951Y-16726961D01*
X25380951Y-16726961D02*
X25428570Y-16631723D01*
X25428570Y-16631723D02*
X25476189Y-16441247D01*
X25476189Y-16441247D02*
X25476189Y-16298390D01*
X25476189Y-16298390D02*
X25428570Y-16107914D01*
X25428570Y-16107914D02*
X25380951Y-16012676D01*
X25380951Y-16012676D02*
X25285713Y-15917438D01*
X25285713Y-15917438D02*
X25142856Y-15869819D01*
X25142856Y-15869819D02*
X25047618Y-15869819D01*
X25047618Y-15869819D02*
X24904761Y-15917438D01*
X24904761Y-15917438D02*
X24857142Y-15965057D01*
X24428570Y-16869819D02*
X24428570Y-15869819D01*
X23857142Y-16869819D02*
X24285713Y-16298390D01*
X23857142Y-15869819D02*
X24428570Y-16441247D01*
X23666666Y-16965057D02*
X22904761Y-16965057D01*
X22333332Y-16346009D02*
X22190475Y-16393628D01*
X22190475Y-16393628D02*
X22142856Y-16441247D01*
X22142856Y-16441247D02*
X22095237Y-16536485D01*
X22095237Y-16536485D02*
X22095237Y-16679342D01*
X22095237Y-16679342D02*
X22142856Y-16774580D01*
X22142856Y-16774580D02*
X22190475Y-16822200D01*
X22190475Y-16822200D02*
X22285713Y-16869819D01*
X22285713Y-16869819D02*
X22666665Y-16869819D01*
X22666665Y-16869819D02*
X22666665Y-15869819D01*
X22666665Y-15869819D02*
X22333332Y-15869819D01*
X22333332Y-15869819D02*
X22238094Y-15917438D01*
X22238094Y-15917438D02*
X22190475Y-15965057D01*
X22190475Y-15965057D02*
X22142856Y-16060295D01*
X22142856Y-16060295D02*
X22142856Y-16155533D01*
X22142856Y-16155533D02*
X22190475Y-16250771D01*
X22190475Y-16250771D02*
X22238094Y-16298390D01*
X22238094Y-16298390D02*
X22333332Y-16346009D01*
X22333332Y-16346009D02*
X22666665Y-16346009D01*
X21142856Y-16869819D02*
X21714284Y-16869819D01*
X21428570Y-16869819D02*
X21428570Y-15869819D01*
X21428570Y-15869819D02*
X21523808Y-16012676D01*
X21523808Y-16012676D02*
X21619046Y-16107914D01*
X21619046Y-16107914D02*
X21714284Y-16155533D01*
D11*
%TO.C,J1_DECK_A1*%
X-29950000Y-17750000D02*
X-29950000Y-22250000D01*
X-29950000Y-22250000D02*
X-12050000Y-22250000D01*
X-12050000Y-17750000D02*
X-29950000Y-17750000D01*
X-12050000Y-22250000D02*
X-12050000Y-17750000D01*
D12*
X-27900000Y-22950000D02*
G75*
G02*
X-28100000Y-22950000I-100000J0D01*
G01*
X-28100000Y-22950000D02*
G75*
G02*
X-27900000Y-22950000I100000J0D01*
G01*
D13*
%TO.C,ArduinoProMicroATmega32U4USBC-1*%
X-29397000Y34250000D02*
X-24317000Y34250000D01*
X-29397000Y1230000D02*
X-29397000Y34250000D01*
X-26730000Y31710000D02*
X-29400000Y31710000D01*
X-26730000Y3770000D02*
X-26730000Y31710000D01*
X-26730000Y3770000D02*
X-26730000Y1230000D01*
X-26730000Y1230000D02*
X-29397000Y1230000D01*
X-24317000Y36790000D02*
X-24317000Y34250000D01*
X-24317000Y36790000D02*
X-16443000Y36790000D01*
X-16443000Y36790000D02*
X-16443000Y34250000D01*
X-16443000Y34250000D02*
X-11363000Y34250000D01*
X-14030000Y31710000D02*
X-11360000Y31710000D01*
X-14030000Y29170000D02*
X-11360000Y29170000D01*
X-14030000Y1230000D02*
X-14030000Y31710000D01*
X-14030000Y1230000D02*
X-11360000Y1230000D01*
X-11363000Y34250000D02*
X-11360000Y1230000D01*
X-11363000Y1230000D02*
X-26730000Y1230000D01*
D11*
%TO.C,J2_DECK_B1*%
X12050000Y-17750000D02*
X12050000Y-22250000D01*
X12050000Y-22250000D02*
X29950000Y-22250000D01*
X29950000Y-17750000D02*
X12050000Y-17750000D01*
X29950000Y-22250000D02*
X29950000Y-17750000D01*
D12*
X14100000Y-22950000D02*
G75*
G02*
X13900000Y-22950000I-100000J0D01*
G01*
X13900000Y-22950000D02*
G75*
G02*
X14100000Y-22950000I100000J0D01*
G01*
%TD*%
%LPC*%
D14*
%TO.C,C1*%
X-4630000Y4980000D03*
X-4630000Y7480000D03*
%TD*%
D15*
%TO.C,ROTARY_ENCODER_BTN1*%
X-2500000Y27000000D03*
D16*
X2500000Y27000000D03*
X-2500000Y12500000D03*
X2500000Y12500000D03*
X0Y12500000D03*
D17*
X-5700000Y20000000D03*
X5700000Y20000000D03*
%TD*%
D18*
%TO.C,H3*%
X-28000000Y-31500000D03*
%TD*%
D19*
%TO.C,C2*%
X4580000Y7135100D03*
D14*
X4580000Y5135100D03*
%TD*%
D20*
%TO.C,BTN_B_LOOP_IN1*%
X36000000Y30000000D03*
X42500000Y30000000D03*
X36000000Y25500000D03*
X42500000Y25500000D03*
%TD*%
D21*
%TO.C,FADER_TEMPO_A1*%
X79750000Y31250000D03*
D22*
X76250000Y31250000D03*
X79750000Y-27250000D03*
D23*
X82250000Y25900000D03*
X73750000Y27100000D03*
X82250000Y-21900000D03*
X73750000Y-23100000D03*
%TD*%
D14*
%TO.C,R_PLAY_A1*%
X-8100000Y-24990000D03*
X-8100000Y-17370000D03*
%TD*%
D24*
%TO.C,FADER_CROSSFADER1*%
X-29250000Y-8250000D03*
D22*
X-29250000Y-11750000D03*
X29250000Y-8250000D03*
D23*
X-23900000Y-5750000D03*
X-25100000Y-14250000D03*
X23900000Y-5750000D03*
X25100000Y-14250000D03*
%TD*%
D18*
%TO.C,H6*%
X63000000Y31500000D03*
%TD*%
%TO.C,H5*%
X87000000Y0D03*
%TD*%
%TO.C,H1*%
X0Y0D03*
%TD*%
D20*
%TO.C,BTN_A_LOOP_IN1*%
X-54000000Y30000000D03*
X-47500000Y30000000D03*
X-54000000Y25500000D03*
X-47500000Y25500000D03*
%TD*%
D14*
%TO.C,R_LOAD_A1*%
X-2100000Y-25140000D03*
X-2100000Y-17520000D03*
%TD*%
D20*
%TO.C,BTN_B_LOOP_OUT1*%
X48000000Y30000000D03*
X54500000Y30000000D03*
X48000000Y25500000D03*
X54500000Y25500000D03*
%TD*%
D18*
%TO.C,H9*%
X-63000000Y-31500000D03*
%TD*%
%TO.C,H7*%
X-63000000Y31500000D03*
%TD*%
D20*
%TO.C,BTN_A_LOOP_OUT1*%
X-42000000Y30000000D03*
X-35500000Y30000000D03*
X-42000000Y25500000D03*
X-35500000Y25500000D03*
%TD*%
D14*
%TO.C,R_LOAD_B1*%
X3900000Y-25140000D03*
X3900000Y-17520000D03*
%TD*%
%TO.C,R_PLAY_B1*%
X8400000Y-25140000D03*
X8400000Y-17520000D03*
%TD*%
D18*
%TO.C,H4*%
X63000000Y-31500000D03*
%TD*%
%TO.C,H2*%
X28000000Y31500000D03*
%TD*%
%TO.C,H8*%
X-87000000Y0D03*
%TD*%
D21*
%TO.C,FADER_TEMPO_B1*%
X-76250000Y31250000D03*
D22*
X-79750000Y31250000D03*
X-76250000Y-27250000D03*
D23*
X-73750000Y25900000D03*
X-82250000Y27100000D03*
X-73750000Y-21900000D03*
X-82250000Y-23100000D03*
%TD*%
D25*
%TO.C,J1_DECK_A1*%
X-28000000Y-20550000D03*
D26*
X-26000000Y-20550000D03*
X-24000000Y-20550000D03*
X-22000000Y-20550000D03*
X-20000000Y-20550000D03*
X-18000000Y-20550000D03*
X-16000000Y-20550000D03*
X-14000000Y-20550000D03*
%TD*%
D27*
%TO.C,ArduinoProMicroATmega32U4USBC-1*%
X-12760000Y30440000D03*
D28*
X-12760000Y27900000D03*
X-12760000Y25360000D03*
X-12760000Y22820000D03*
X-12760000Y20280000D03*
X-12760000Y17740000D03*
X-12760000Y15200000D03*
X-12760000Y12660000D03*
X-12760000Y10120000D03*
X-12760000Y7580000D03*
X-12760000Y5040000D03*
X-12760000Y2500000D03*
X-28000000Y2500000D03*
X-28000000Y5040000D03*
X-28000000Y7580000D03*
X-28000000Y10120000D03*
X-28000000Y12660000D03*
X-28000000Y15200000D03*
X-28000000Y17740000D03*
X-28000000Y20280000D03*
X-28000000Y22820000D03*
X-28000000Y25360000D03*
X-28000000Y27900000D03*
X-28000000Y30440000D03*
%TD*%
D25*
%TO.C,J2_DECK_B1*%
X14000000Y-20550000D03*
D26*
X16000000Y-20550000D03*
X18000000Y-20550000D03*
X20000000Y-20550000D03*
X22000000Y-20550000D03*
X24000000Y-20550000D03*
X26000000Y-20550000D03*
X28000000Y-20550000D03*
%TD*%
%LPD*%
M02*
