M48
; DRILL file {KiCad 9.0.7} date 2026-01-26T22:47:57-0600
; FORMAT={-:-/ absolute / metric / decimal}
; #@! TF.CreationDate,2026-01-26T22:47:57-06:00
; #@! TF.GenerationSoftware,Kicad,Pcbnew,9.0.7
; #@! TF.FileFunction,Plated,1,2,PTH
FMAT,2
METRIC
; #@! TA.AperFunction,Plated,PTH,ViaDrill
T1C0.300
; #@! TA.AperFunction,Plated,PTH,ComponentDrill
T2C0.800
; #@! TA.AperFunction,Plated,PTH,ComponentDrill
T3C1.000
; #@! TA.AperFunction,Plated,PTH,ComponentDrill
T4C1.100
; #@! TA.AperFunction,Plated,PTH,ComponentDrill
T5C1.200
; #@! TA.AperFunction,Plated,PTH,ComponentDrill
T6C1.700
; #@! TA.AperFunction,Plated,PTH,ComponentDrill
T7C2.000
%
G90
G05
T1
X-31.909Y-10.237
X-26.112Y-11.069
X-19.867Y31.285
X-17.828Y32.151
X-17.587Y30.688
X-16.888Y32.744
X-14.904Y4.388
X-5.908Y-1.462
X-0.482Y14.061
X5.908Y-10.237
X8.862Y10.237
X14.8Y7.342
X16.881Y3.544
T2
X-28.0Y30.44
X-28.0Y27.9
X-28.0Y25.36
X-28.0Y22.82
X-28.0Y20.28
X-28.0Y17.74
X-28.0Y15.2
X-28.0Y12.66
X-28.0Y10.12
X-28.0Y7.58
X-28.0Y5.04
X-28.0Y2.5
X-28.0Y-20.55
X-26.0Y-20.55
X-24.0Y-20.55
X-22.0Y-20.55
X-20.0Y-20.55
X-18.0Y-20.55
X-16.0Y-20.55
X-14.0Y-20.55
X-12.76Y30.44
X-12.76Y27.9
X-12.76Y25.36
X-12.76Y22.82
X-12.76Y20.28
X-12.76Y17.74
X-12.76Y15.2
X-12.76Y12.66
X-12.76Y10.12
X-12.76Y7.58
X-12.76Y5.04
X-12.76Y2.5
X-8.1Y-17.37
X-8.1Y-24.99
X-4.63Y7.48
X-4.63Y4.98
X-2.1Y-17.52
X-2.1Y-25.14
X3.9Y-17.52
X3.9Y-25.14
X4.58Y7.135
X4.58Y5.135
X8.4Y-17.52
X8.4Y-25.14
X14.0Y-20.55
X16.0Y-20.55
X18.0Y-20.55
X20.0Y-20.55
X22.0Y-20.55
X24.0Y-20.55
X26.0Y-20.55
X28.0Y-20.55
T3
X-54.0Y30.0
X-54.0Y25.5
X-47.5Y30.0
X-47.5Y25.5
X-42.0Y30.0
X-42.0Y25.5
X-35.5Y30.0
X-35.5Y25.5
X36.0Y30.0
X36.0Y25.5
X42.5Y30.0
X42.5Y25.5
X48.0Y30.0
X48.0Y25.5
X54.5Y30.0
X54.5Y25.5
T4
X-2.5Y27.0
X-2.5Y12.5
X0.0Y12.5
X2.5Y27.0
X2.5Y12.5
T5
X-79.75Y31.25
X-76.25Y31.25
X-76.25Y-27.25
X-29.25Y-8.25
X-29.25Y-11.75
X29.25Y-8.25
X76.25Y31.25
X79.75Y31.25
X79.75Y-27.25
T6
X-82.25Y27.1
X-82.25Y-23.1
X-73.75Y25.9
X-73.75Y-21.9
X-25.1Y-14.25
X-23.9Y-5.75
X23.9Y-5.75
X25.1Y-14.25
X73.75Y27.1
X73.75Y-23.1
X82.25Y25.9
X82.25Y-21.9
T7
G00X-5.7Y20.4
M15
G01X-5.7Y19.6
M16
G05
G00X5.7Y20.4
M15
G01X5.7Y19.6
M16
G05
M30
