%TF.GenerationSoftware,KiCad,Pcbnew,9.0.7*%
%TF.CreationDate,2026-01-26T22:48:02-06:00*%
%TF.ProjectId,FADETUBE_MIDI,46414445-5455-4424-955f-4d4944492e6b,rev?*%
%TF.SameCoordinates,Original*%
%TF.FileFunction,Soldermask,Bot*%
%TF.FilePolarity,Negative*%
%FSLAX46Y46*%
G04 Gerber Fmt 4.6, Leading zero omitted, Abs format (unit mm)*
G04 Created by KiCad (PCBNEW 9.0.7) date 2026-01-26 22:48:02*
%MOMM*%
%LPD*%
G01*
G04 APERTURE LIST*
G04 Aperture macros list*
%AMRoundRect*
0 Rectangle with rounded corners*
0 $1 Rounding radius*
0 $2 $3 $4 $5 $6 $7 $8 $9 X,Y pos of 4 corners*
0 Add a 4 corners polygon primitive as box body*
4,1,4,$2,$3,$4,$5,$6,$7,$8,$9,$2,$3,0*
0 Add four circle primitives for the rounded corners*
1,1,$1+$1,$2,$3*
1,1,$1+$1,$4,$5*
1,1,$1+$1,$6,$7*
1,1,$1+$1,$8,$9*
0 Add four rect primitives between the rounded corners*
20,1,$1+$1,$2,$3,$4,$5,0*
20,1,$1+$1,$4,$5,$6,$7,0*
20,1,$1+$1,$6,$7,$8,$9,0*
20,1,$1+$1,$8,$9,$2,$3,0*%
G04 Aperture macros list end*
%ADD10C,1.600000*%
%ADD11RoundRect,0.102000X-0.825000X-0.825000X0.825000X-0.825000X0.825000X0.825000X-0.825000X0.825000X0*%
%ADD12C,1.854000*%
%ADD13O,3.204000X6.204000*%
%ADD14C,2.200000*%
%ADD15RoundRect,0.250000X-0.550000X0.550000X-0.550000X-0.550000X0.550000X-0.550000X0.550000X0.550000X0*%
%ADD16C,1.700000*%
%ADD17RoundRect,0.102000X-0.900000X0.900000X-0.900000X-0.900000X0.900000X-0.900000X0.900000X0.900000X0*%
%ADD18C,2.004000*%
%ADD19C,2.754000*%
%ADD20RoundRect,0.102000X-0.900000X-0.900000X0.900000X-0.900000X0.900000X0.900000X-0.900000X0.900000X0*%
%ADD21RoundRect,0.102000X0.654000X0.654000X-0.654000X0.654000X-0.654000X-0.654000X0.654000X-0.654000X0*%
%ADD22C,1.512000*%
%ADD23R,1.600000X1.600000*%
%ADD24O,1.600000X1.600000*%
G04 APERTURE END LIST*
D10*
%TO.C,C1*%
X-4630000Y4980000D03*
X-4630000Y7480000D03*
%TD*%
D11*
%TO.C,ROTARY_ENCODER_BTN1*%
X-2500000Y27000000D03*
D12*
X2500000Y27000000D03*
X-2500000Y12500000D03*
X2500000Y12500000D03*
X0Y12500000D03*
D13*
X-5700000Y20000000D03*
X5700000Y20000000D03*
%TD*%
D14*
%TO.C,H3*%
X-28000000Y-31500000D03*
%TD*%
D15*
%TO.C,C2*%
X4580000Y7135100D03*
D10*
X4580000Y5135100D03*
%TD*%
D16*
%TO.C,BTN_B_LOOP_IN1*%
X36000000Y30000000D03*
X42500000Y30000000D03*
X36000000Y25500000D03*
X42500000Y25500000D03*
%TD*%
D17*
%TO.C,FADER_TEMPO_A1*%
X79750000Y31250000D03*
D18*
X76250000Y31250000D03*
X79750000Y-27250000D03*
D19*
X82250000Y25900000D03*
X73750000Y27100000D03*
X82250000Y-21900000D03*
X73750000Y-23100000D03*
%TD*%
D10*
%TO.C,R_PLAY_A1*%
X-8100000Y-24990000D03*
X-8100000Y-17370000D03*
%TD*%
D20*
%TO.C,FADER_CROSSFADER1*%
X-29250000Y-8250000D03*
D18*
X-29250000Y-11750000D03*
X29250000Y-8250000D03*
D19*
X-23900000Y-5750000D03*
X-25100000Y-14250000D03*
X23900000Y-5750000D03*
X25100000Y-14250000D03*
%TD*%
D14*
%TO.C,H6*%
X63000000Y31500000D03*
%TD*%
%TO.C,H5*%
X87000000Y0D03*
%TD*%
%TO.C,H1*%
X0Y0D03*
%TD*%
D16*
%TO.C,BTN_A_LOOP_IN1*%
X-54000000Y30000000D03*
X-47500000Y30000000D03*
X-54000000Y25500000D03*
X-47500000Y25500000D03*
%TD*%
D10*
%TO.C,R_LOAD_A1*%
X-2100000Y-25140000D03*
X-2100000Y-17520000D03*
%TD*%
D16*
%TO.C,BTN_B_LOOP_OUT1*%
X48000000Y30000000D03*
X54500000Y30000000D03*
X48000000Y25500000D03*
X54500000Y25500000D03*
%TD*%
D14*
%TO.C,H9*%
X-63000000Y-31500000D03*
%TD*%
%TO.C,H7*%
X-63000000Y31500000D03*
%TD*%
D16*
%TO.C,BTN_A_LOOP_OUT1*%
X-42000000Y30000000D03*
X-35500000Y30000000D03*
X-42000000Y25500000D03*
X-35500000Y25500000D03*
%TD*%
D10*
%TO.C,R_LOAD_B1*%
X3900000Y-25140000D03*
X3900000Y-17520000D03*
%TD*%
%TO.C,R_PLAY_B1*%
X8400000Y-25140000D03*
X8400000Y-17520000D03*
%TD*%
D14*
%TO.C,H4*%
X63000000Y-31500000D03*
%TD*%
%TO.C,H2*%
X28000000Y31500000D03*
%TD*%
%TO.C,H8*%
X-87000000Y0D03*
%TD*%
D17*
%TO.C,FADER_TEMPO_B1*%
X-76250000Y31250000D03*
D18*
X-79750000Y31250000D03*
X-76250000Y-27250000D03*
D19*
X-73750000Y25900000D03*
X-82250000Y27100000D03*
X-73750000Y-21900000D03*
X-82250000Y-23100000D03*
%TD*%
D21*
%TO.C,J1_DECK_A1*%
X-28000000Y-20550000D03*
D22*
X-26000000Y-20550000D03*
X-24000000Y-20550000D03*
X-22000000Y-20550000D03*
X-20000000Y-20550000D03*
X-18000000Y-20550000D03*
X-16000000Y-20550000D03*
X-14000000Y-20550000D03*
%TD*%
D23*
%TO.C,ArduinoProMicroATmega32U4USBC-1*%
X-12760000Y30440000D03*
D24*
X-12760000Y27900000D03*
X-12760000Y25360000D03*
X-12760000Y22820000D03*
X-12760000Y20280000D03*
X-12760000Y17740000D03*
X-12760000Y15200000D03*
X-12760000Y12660000D03*
X-12760000Y10120000D03*
X-12760000Y7580000D03*
X-12760000Y5040000D03*
X-12760000Y2500000D03*
X-28000000Y2500000D03*
X-28000000Y5040000D03*
X-28000000Y7580000D03*
X-28000000Y10120000D03*
X-28000000Y12660000D03*
X-28000000Y15200000D03*
X-28000000Y17740000D03*
X-28000000Y20280000D03*
X-28000000Y22820000D03*
X-28000000Y25360000D03*
X-28000000Y27900000D03*
X-28000000Y30440000D03*
%TD*%
D21*
%TO.C,J2_DECK_B1*%
X14000000Y-20550000D03*
D22*
X16000000Y-20550000D03*
X18000000Y-20550000D03*
X20000000Y-20550000D03*
X22000000Y-20550000D03*
X24000000Y-20550000D03*
X26000000Y-20550000D03*
X28000000Y-20550000D03*
%TD*%
M02*
