%TF.GenerationSoftware,KiCad,Pcbnew,9.0.7*%
%TF.CreationDate,2026-01-26T22:48:02-06:00*%
%TF.ProjectId,FADETUBE_MIDI,46414445-5455-4424-955f-4d4944492e6b,rev?*%
%TF.SameCoordinates,Original*%
%TF.FileFunction,Legend,Top*%
%TF.FilePolarity,Positive*%
%FSLAX46Y46*%
G04 Gerber Fmt 4.6, Leading zero omitted, Abs format (unit mm)*
G04 Created by KiCad (PCBNEW 9.0.7) date 2026-01-26 22:48:02*
%MOMM*%
%LPD*%
G01*
G04 APERTURE LIST*
G04 Aperture macros list*
%AMRoundRect*
0 Rectangle with rounded corners*
0 $1 Rounding radius*
0 $2 $3 $4 $5 $6 $7 $8 $9 X,Y pos of 4 corners*
0 Add a 4 corners polygon primitive as box body*
4,1,4,$2,$3,$4,$5,$6,$7,$8,$9,$2,$3,0*
0 Add four circle primitives for the rounded corners*
1,1,$1+$1,$2,$3*
1,1,$1+$1,$4,$5*
1,1,$1+$1,$6,$7*
1,1,$1+$1,$8,$9*
0 Add four rect primitives between the rounded corners*
20,1,$1+$1,$2,$3,$4,$5,0*
20,1,$1+$1,$4,$5,$6,$7,0*
20,1,$1+$1,$6,$7,$8,$9,0*
20,1,$1+$1,$8,$9,$2,$3,0*%
G04 Aperture macros list end*
%ADD10C,0.150000*%
%ADD11C,0.120000*%
%ADD12C,0.127000*%
%ADD13C,0.200000*%
%ADD14C,0.000000*%
%ADD15C,1.500000*%
%ADD16C,1.600000*%
%ADD17RoundRect,0.102000X-0.825000X-0.825000X0.825000X-0.825000X0.825000X0.825000X-0.825000X0.825000X0*%
%ADD18C,1.854000*%
%ADD19O,3.204000X6.204000*%
%ADD20C,2.200000*%
%ADD21RoundRect,0.250000X-0.550000X0.550000X-0.550000X-0.550000X0.550000X-0.550000X0.550000X0.550000X0*%
%ADD22C,1.700000*%
%ADD23RoundRect,0.102000X-0.900000X0.900000X-0.900000X-0.900000X0.900000X-0.900000X0.900000X0.900000X0*%
%ADD24C,2.004000*%
%ADD25C,2.754000*%
%ADD26RoundRect,0.102000X-0.900000X-0.900000X0.900000X-0.900000X0.900000X0.900000X-0.900000X0.900000X0*%
%ADD27RoundRect,0.102000X0.654000X0.654000X-0.654000X0.654000X-0.654000X-0.654000X0.654000X-0.654000X0*%
%ADD28C,1.512000*%
%ADD29R,1.600000X1.600000*%
%ADD30O,1.600000X1.600000*%
G04 APERTURE END LIST*
D10*
X-6320419Y6063333D02*
X-6272800Y6015714D01*
X-6272800Y6015714D02*
X-6225180Y5872857D01*
X-6225180Y5872857D02*
X-6225180Y5777619D01*
X-6225180Y5777619D02*
X-6272800Y5634762D01*
X-6272800Y5634762D02*
X-6368038Y5539524D01*
X-6368038Y5539524D02*
X-6463276Y5491905D01*
X-6463276Y5491905D02*
X-6653752Y5444286D01*
X-6653752Y5444286D02*
X-6796609Y5444286D01*
X-6796609Y5444286D02*
X-6987085Y5491905D01*
X-6987085Y5491905D02*
X-7082323Y5539524D01*
X-7082323Y5539524D02*
X-7177561Y5634762D01*
X-7177561Y5634762D02*
X-7225180Y5777619D01*
X-7225180Y5777619D02*
X-7225180Y5872857D01*
X-7225180Y5872857D02*
X-7177561Y6015714D01*
X-7177561Y6015714D02*
X-7129942Y6063333D01*
X-6225180Y7015714D02*
X-6225180Y6444286D01*
X-6225180Y6730000D02*
X-7225180Y6730000D01*
X-7225180Y6730000D02*
X-7082323Y6634762D01*
X-7082323Y6634762D02*
X-6987085Y6539524D01*
X-6987085Y6539524D02*
X-6939466Y6444286D01*
X-7047619Y29045180D02*
X-7380952Y29521371D01*
X-7619047Y29045180D02*
X-7619047Y30045180D01*
X-7619047Y30045180D02*
X-7238095Y30045180D01*
X-7238095Y30045180D02*
X-7142857Y29997561D01*
X-7142857Y29997561D02*
X-7095238Y29949942D01*
X-7095238Y29949942D02*
X-7047619Y29854704D01*
X-7047619Y29854704D02*
X-7047619Y29711847D01*
X-7047619Y29711847D02*
X-7095238Y29616609D01*
X-7095238Y29616609D02*
X-7142857Y29568990D01*
X-7142857Y29568990D02*
X-7238095Y29521371D01*
X-7238095Y29521371D02*
X-7619047Y29521371D01*
X-6428571Y30045180D02*
X-6238095Y30045180D01*
X-6238095Y30045180D02*
X-6142857Y29997561D01*
X-6142857Y29997561D02*
X-6047619Y29902323D01*
X-6047619Y29902323D02*
X-6000000Y29711847D01*
X-6000000Y29711847D02*
X-6000000Y29378514D01*
X-6000000Y29378514D02*
X-6047619Y29188038D01*
X-6047619Y29188038D02*
X-6142857Y29092800D01*
X-6142857Y29092800D02*
X-6238095Y29045180D01*
X-6238095Y29045180D02*
X-6428571Y29045180D01*
X-6428571Y29045180D02*
X-6523809Y29092800D01*
X-6523809Y29092800D02*
X-6619047Y29188038D01*
X-6619047Y29188038D02*
X-6666666Y29378514D01*
X-6666666Y29378514D02*
X-6666666Y29711847D01*
X-6666666Y29711847D02*
X-6619047Y29902323D01*
X-6619047Y29902323D02*
X-6523809Y29997561D01*
X-6523809Y29997561D02*
X-6428571Y30045180D01*
X-5714285Y30045180D02*
X-5142857Y30045180D01*
X-5428571Y29045180D02*
X-5428571Y30045180D01*
X-4857142Y29330895D02*
X-4380952Y29330895D01*
X-4952380Y29045180D02*
X-4619047Y30045180D01*
X-4619047Y30045180D02*
X-4285714Y29045180D01*
X-3380952Y29045180D02*
X-3714285Y29521371D01*
X-3952380Y29045180D02*
X-3952380Y30045180D01*
X-3952380Y30045180D02*
X-3571428Y30045180D01*
X-3571428Y30045180D02*
X-3476190Y29997561D01*
X-3476190Y29997561D02*
X-3428571Y29949942D01*
X-3428571Y29949942D02*
X-3380952Y29854704D01*
X-3380952Y29854704D02*
X-3380952Y29711847D01*
X-3380952Y29711847D02*
X-3428571Y29616609D01*
X-3428571Y29616609D02*
X-3476190Y29568990D01*
X-3476190Y29568990D02*
X-3571428Y29521371D01*
X-3571428Y29521371D02*
X-3952380Y29521371D01*
X-2761904Y29521371D02*
X-2761904Y29045180D01*
X-3095237Y30045180D02*
X-2761904Y29521371D01*
X-2761904Y29521371D02*
X-2428571Y30045180D01*
X-2333333Y28949942D02*
X-1571428Y28949942D01*
X-1333332Y29568990D02*
X-999999Y29568990D01*
X-857142Y29045180D02*
X-1333332Y29045180D01*
X-1333332Y29045180D02*
X-1333332Y30045180D01*
X-1333332Y30045180D02*
X-857142Y30045180D01*
X-428570Y29045180D02*
X-428570Y30045180D01*
X-428570Y30045180D02*
X142857Y29045180D01*
X142857Y29045180D02*
X142857Y30045180D01*
X1190476Y29140419D02*
X1142857Y29092800D01*
X1142857Y29092800D02*
X1000000Y29045180D01*
X1000000Y29045180D02*
X904762Y29045180D01*
X904762Y29045180D02*
X761905Y29092800D01*
X761905Y29092800D02*
X666667Y29188038D01*
X666667Y29188038D02*
X619048Y29283276D01*
X619048Y29283276D02*
X571429Y29473752D01*
X571429Y29473752D02*
X571429Y29616609D01*
X571429Y29616609D02*
X619048Y29807085D01*
X619048Y29807085D02*
X666667Y29902323D01*
X666667Y29902323D02*
X761905Y29997561D01*
X761905Y29997561D02*
X904762Y30045180D01*
X904762Y30045180D02*
X1000000Y30045180D01*
X1000000Y30045180D02*
X1142857Y29997561D01*
X1142857Y29997561D02*
X1190476Y29949942D01*
X1809524Y30045180D02*
X2000000Y30045180D01*
X2000000Y30045180D02*
X2095238Y29997561D01*
X2095238Y29997561D02*
X2190476Y29902323D01*
X2190476Y29902323D02*
X2238095Y29711847D01*
X2238095Y29711847D02*
X2238095Y29378514D01*
X2238095Y29378514D02*
X2190476Y29188038D01*
X2190476Y29188038D02*
X2095238Y29092800D01*
X2095238Y29092800D02*
X2000000Y29045180D01*
X2000000Y29045180D02*
X1809524Y29045180D01*
X1809524Y29045180D02*
X1714286Y29092800D01*
X1714286Y29092800D02*
X1619048Y29188038D01*
X1619048Y29188038D02*
X1571429Y29378514D01*
X1571429Y29378514D02*
X1571429Y29711847D01*
X1571429Y29711847D02*
X1619048Y29902323D01*
X1619048Y29902323D02*
X1714286Y29997561D01*
X1714286Y29997561D02*
X1809524Y30045180D01*
X2666667Y29045180D02*
X2666667Y30045180D01*
X2666667Y30045180D02*
X2904762Y30045180D01*
X2904762Y30045180D02*
X3047619Y29997561D01*
X3047619Y29997561D02*
X3142857Y29902323D01*
X3142857Y29902323D02*
X3190476Y29807085D01*
X3190476Y29807085D02*
X3238095Y29616609D01*
X3238095Y29616609D02*
X3238095Y29473752D01*
X3238095Y29473752D02*
X3190476Y29283276D01*
X3190476Y29283276D02*
X3142857Y29188038D01*
X3142857Y29188038D02*
X3047619Y29092800D01*
X3047619Y29092800D02*
X2904762Y29045180D01*
X2904762Y29045180D02*
X2666667Y29045180D01*
X3666667Y29568990D02*
X4000000Y29568990D01*
X4142857Y29045180D02*
X3666667Y29045180D01*
X3666667Y29045180D02*
X3666667Y30045180D01*
X3666667Y30045180D02*
X4142857Y30045180D01*
X5142857Y29045180D02*
X4809524Y29521371D01*
X4571429Y29045180D02*
X4571429Y30045180D01*
X4571429Y30045180D02*
X4952381Y30045180D01*
X4952381Y30045180D02*
X5047619Y29997561D01*
X5047619Y29997561D02*
X5095238Y29949942D01*
X5095238Y29949942D02*
X5142857Y29854704D01*
X5142857Y29854704D02*
X5142857Y29711847D01*
X5142857Y29711847D02*
X5095238Y29616609D01*
X5095238Y29616609D02*
X5047619Y29568990D01*
X5047619Y29568990D02*
X4952381Y29521371D01*
X4952381Y29521371D02*
X4571429Y29521371D01*
X5333334Y28949942D02*
X6095238Y28949942D01*
X6666667Y29568990D02*
X6809524Y29521371D01*
X6809524Y29521371D02*
X6857143Y29473752D01*
X6857143Y29473752D02*
X6904762Y29378514D01*
X6904762Y29378514D02*
X6904762Y29235657D01*
X6904762Y29235657D02*
X6857143Y29140419D01*
X6857143Y29140419D02*
X6809524Y29092800D01*
X6809524Y29092800D02*
X6714286Y29045180D01*
X6714286Y29045180D02*
X6333334Y29045180D01*
X6333334Y29045180D02*
X6333334Y30045180D01*
X6333334Y30045180D02*
X6666667Y30045180D01*
X6666667Y30045180D02*
X6761905Y29997561D01*
X6761905Y29997561D02*
X6809524Y29949942D01*
X6809524Y29949942D02*
X6857143Y29854704D01*
X6857143Y29854704D02*
X6857143Y29759466D01*
X6857143Y29759466D02*
X6809524Y29664228D01*
X6809524Y29664228D02*
X6761905Y29616609D01*
X6761905Y29616609D02*
X6666667Y29568990D01*
X6666667Y29568990D02*
X6333334Y29568990D01*
X7190477Y30045180D02*
X7761905Y30045180D01*
X7476191Y29045180D02*
X7476191Y30045180D01*
X8095239Y29045180D02*
X8095239Y30045180D01*
X8095239Y30045180D02*
X8666667Y29045180D01*
X8666667Y29045180D02*
X8666667Y30045180D01*
X9666667Y29045180D02*
X9095239Y29045180D01*
X9380953Y29045180D02*
X9380953Y30045180D01*
X9380953Y30045180D02*
X9285715Y29902323D01*
X9285715Y29902323D02*
X9190477Y29807085D01*
X9190477Y29807085D02*
X9095239Y29759466D01*
X-28761904Y-28804819D02*
X-28761904Y-27804819D01*
X-28761904Y-28281009D02*
X-28190476Y-28281009D01*
X-28190476Y-28804819D02*
X-28190476Y-27804819D01*
X-27809523Y-27804819D02*
X-27190476Y-27804819D01*
X-27190476Y-27804819D02*
X-27523809Y-28185771D01*
X-27523809Y-28185771D02*
X-27380952Y-28185771D01*
X-27380952Y-28185771D02*
X-27285714Y-28233390D01*
X-27285714Y-28233390D02*
X-27238095Y-28281009D01*
X-27238095Y-28281009D02*
X-27190476Y-28376247D01*
X-27190476Y-28376247D02*
X-27190476Y-28614342D01*
X-27190476Y-28614342D02*
X-27238095Y-28709580D01*
X-27238095Y-28709580D02*
X-27285714Y-28757200D01*
X-27285714Y-28757200D02*
X-27380952Y-28804819D01*
X-27380952Y-28804819D02*
X-27666666Y-28804819D01*
X-27666666Y-28804819D02*
X-27761904Y-28757200D01*
X-27761904Y-28757200D02*
X-27809523Y-28709580D01*
X8689580Y5968433D02*
X8737200Y5920814D01*
X8737200Y5920814D02*
X8784819Y5777957D01*
X8784819Y5777957D02*
X8784819Y5682719D01*
X8784819Y5682719D02*
X8737200Y5539862D01*
X8737200Y5539862D02*
X8641961Y5444624D01*
X8641961Y5444624D02*
X8546723Y5397005D01*
X8546723Y5397005D02*
X8356247Y5349386D01*
X8356247Y5349386D02*
X8213390Y5349386D01*
X8213390Y5349386D02*
X8022914Y5397005D01*
X8022914Y5397005D02*
X7927676Y5444624D01*
X7927676Y5444624D02*
X7832438Y5539862D01*
X7832438Y5539862D02*
X7784819Y5682719D01*
X7784819Y5682719D02*
X7784819Y5777957D01*
X7784819Y5777957D02*
X7832438Y5920814D01*
X7832438Y5920814D02*
X7880057Y5968433D01*
X7880057Y6349386D02*
X7832438Y6397005D01*
X7832438Y6397005D02*
X7784819Y6492243D01*
X7784819Y6492243D02*
X7784819Y6730338D01*
X7784819Y6730338D02*
X7832438Y6825576D01*
X7832438Y6825576D02*
X7880057Y6873195D01*
X7880057Y6873195D02*
X7975295Y6920814D01*
X7975295Y6920814D02*
X8070533Y6920814D01*
X8070533Y6920814D02*
X8213390Y6873195D01*
X8213390Y6873195D02*
X8784819Y6301767D01*
X8784819Y6301767D02*
X8784819Y6920814D01*
X31783333Y32368990D02*
X31926190Y32321371D01*
X31926190Y32321371D02*
X31973809Y32273752D01*
X31973809Y32273752D02*
X32021428Y32178514D01*
X32021428Y32178514D02*
X32021428Y32035657D01*
X32021428Y32035657D02*
X31973809Y31940419D01*
X31973809Y31940419D02*
X31926190Y31892800D01*
X31926190Y31892800D02*
X31830952Y31845180D01*
X31830952Y31845180D02*
X31450000Y31845180D01*
X31450000Y31845180D02*
X31450000Y32845180D01*
X31450000Y32845180D02*
X31783333Y32845180D01*
X31783333Y32845180D02*
X31878571Y32797561D01*
X31878571Y32797561D02*
X31926190Y32749942D01*
X31926190Y32749942D02*
X31973809Y32654704D01*
X31973809Y32654704D02*
X31973809Y32559466D01*
X31973809Y32559466D02*
X31926190Y32464228D01*
X31926190Y32464228D02*
X31878571Y32416609D01*
X31878571Y32416609D02*
X31783333Y32368990D01*
X31783333Y32368990D02*
X31450000Y32368990D01*
X32307143Y32845180D02*
X32878571Y32845180D01*
X32592857Y31845180D02*
X32592857Y32845180D01*
X33211905Y31845180D02*
X33211905Y32845180D01*
X33211905Y32845180D02*
X33783333Y31845180D01*
X33783333Y31845180D02*
X33783333Y32845180D01*
X34021429Y31749942D02*
X34783333Y31749942D01*
X35354762Y32368990D02*
X35497619Y32321371D01*
X35497619Y32321371D02*
X35545238Y32273752D01*
X35545238Y32273752D02*
X35592857Y32178514D01*
X35592857Y32178514D02*
X35592857Y32035657D01*
X35592857Y32035657D02*
X35545238Y31940419D01*
X35545238Y31940419D02*
X35497619Y31892800D01*
X35497619Y31892800D02*
X35402381Y31845180D01*
X35402381Y31845180D02*
X35021429Y31845180D01*
X35021429Y31845180D02*
X35021429Y32845180D01*
X35021429Y32845180D02*
X35354762Y32845180D01*
X35354762Y32845180D02*
X35450000Y32797561D01*
X35450000Y32797561D02*
X35497619Y32749942D01*
X35497619Y32749942D02*
X35545238Y32654704D01*
X35545238Y32654704D02*
X35545238Y32559466D01*
X35545238Y32559466D02*
X35497619Y32464228D01*
X35497619Y32464228D02*
X35450000Y32416609D01*
X35450000Y32416609D02*
X35354762Y32368990D01*
X35354762Y32368990D02*
X35021429Y32368990D01*
X35783334Y31749942D02*
X36545238Y31749942D01*
X37259524Y31845180D02*
X36783334Y31845180D01*
X36783334Y31845180D02*
X36783334Y32845180D01*
X37783334Y32845180D02*
X37973810Y32845180D01*
X37973810Y32845180D02*
X38069048Y32797561D01*
X38069048Y32797561D02*
X38164286Y32702323D01*
X38164286Y32702323D02*
X38211905Y32511847D01*
X38211905Y32511847D02*
X38211905Y32178514D01*
X38211905Y32178514D02*
X38164286Y31988038D01*
X38164286Y31988038D02*
X38069048Y31892800D01*
X38069048Y31892800D02*
X37973810Y31845180D01*
X37973810Y31845180D02*
X37783334Y31845180D01*
X37783334Y31845180D02*
X37688096Y31892800D01*
X37688096Y31892800D02*
X37592858Y31988038D01*
X37592858Y31988038D02*
X37545239Y32178514D01*
X37545239Y32178514D02*
X37545239Y32511847D01*
X37545239Y32511847D02*
X37592858Y32702323D01*
X37592858Y32702323D02*
X37688096Y32797561D01*
X37688096Y32797561D02*
X37783334Y32845180D01*
X38830953Y32845180D02*
X39021429Y32845180D01*
X39021429Y32845180D02*
X39116667Y32797561D01*
X39116667Y32797561D02*
X39211905Y32702323D01*
X39211905Y32702323D02*
X39259524Y32511847D01*
X39259524Y32511847D02*
X39259524Y32178514D01*
X39259524Y32178514D02*
X39211905Y31988038D01*
X39211905Y31988038D02*
X39116667Y31892800D01*
X39116667Y31892800D02*
X39021429Y31845180D01*
X39021429Y31845180D02*
X38830953Y31845180D01*
X38830953Y31845180D02*
X38735715Y31892800D01*
X38735715Y31892800D02*
X38640477Y31988038D01*
X38640477Y31988038D02*
X38592858Y32178514D01*
X38592858Y32178514D02*
X38592858Y32511847D01*
X38592858Y32511847D02*
X38640477Y32702323D01*
X38640477Y32702323D02*
X38735715Y32797561D01*
X38735715Y32797561D02*
X38830953Y32845180D01*
X39688096Y31845180D02*
X39688096Y32845180D01*
X39688096Y32845180D02*
X40069048Y32845180D01*
X40069048Y32845180D02*
X40164286Y32797561D01*
X40164286Y32797561D02*
X40211905Y32749942D01*
X40211905Y32749942D02*
X40259524Y32654704D01*
X40259524Y32654704D02*
X40259524Y32511847D01*
X40259524Y32511847D02*
X40211905Y32416609D01*
X40211905Y32416609D02*
X40164286Y32368990D01*
X40164286Y32368990D02*
X40069048Y32321371D01*
X40069048Y32321371D02*
X39688096Y32321371D01*
X40450001Y31749942D02*
X41211905Y31749942D01*
X41450001Y31845180D02*
X41450001Y32845180D01*
X41926191Y31845180D02*
X41926191Y32845180D01*
X41926191Y32845180D02*
X42497619Y31845180D01*
X42497619Y31845180D02*
X42497619Y32845180D01*
X43497619Y31845180D02*
X42926191Y31845180D01*
X43211905Y31845180D02*
X43211905Y32845180D01*
X43211905Y32845180D02*
X43116667Y32702323D01*
X43116667Y32702323D02*
X43021429Y32607085D01*
X43021429Y32607085D02*
X42926191Y32559466D01*
X85191009Y19946666D02*
X85191009Y19613333D01*
X85714819Y19613333D02*
X84714819Y19613333D01*
X84714819Y19613333D02*
X84714819Y20089523D01*
X85429104Y20422857D02*
X85429104Y20899047D01*
X85714819Y20327619D02*
X84714819Y20660952D01*
X84714819Y20660952D02*
X85714819Y20994285D01*
X85714819Y21327619D02*
X84714819Y21327619D01*
X84714819Y21327619D02*
X84714819Y21565714D01*
X84714819Y21565714D02*
X84762438Y21708571D01*
X84762438Y21708571D02*
X84857676Y21803809D01*
X84857676Y21803809D02*
X84952914Y21851428D01*
X84952914Y21851428D02*
X85143390Y21899047D01*
X85143390Y21899047D02*
X85286247Y21899047D01*
X85286247Y21899047D02*
X85476723Y21851428D01*
X85476723Y21851428D02*
X85571961Y21803809D01*
X85571961Y21803809D02*
X85667200Y21708571D01*
X85667200Y21708571D02*
X85714819Y21565714D01*
X85714819Y21565714D02*
X85714819Y21327619D01*
X85191009Y22327619D02*
X85191009Y22660952D01*
X85714819Y22803809D02*
X85714819Y22327619D01*
X85714819Y22327619D02*
X84714819Y22327619D01*
X84714819Y22327619D02*
X84714819Y22803809D01*
X85714819Y23803809D02*
X85238628Y23470476D01*
X85714819Y23232381D02*
X84714819Y23232381D01*
X84714819Y23232381D02*
X84714819Y23613333D01*
X84714819Y23613333D02*
X84762438Y23708571D01*
X84762438Y23708571D02*
X84810057Y23756190D01*
X84810057Y23756190D02*
X84905295Y23803809D01*
X84905295Y23803809D02*
X85048152Y23803809D01*
X85048152Y23803809D02*
X85143390Y23756190D01*
X85143390Y23756190D02*
X85191009Y23708571D01*
X85191009Y23708571D02*
X85238628Y23613333D01*
X85238628Y23613333D02*
X85238628Y23232381D01*
X85810057Y23994286D02*
X85810057Y24756190D01*
X84714819Y24851429D02*
X84714819Y25422857D01*
X85714819Y25137143D02*
X84714819Y25137143D01*
X85191009Y25756191D02*
X85191009Y26089524D01*
X85714819Y26232381D02*
X85714819Y25756191D01*
X85714819Y25756191D02*
X84714819Y25756191D01*
X84714819Y25756191D02*
X84714819Y26232381D01*
X85714819Y26660953D02*
X84714819Y26660953D01*
X84714819Y26660953D02*
X85429104Y26994286D01*
X85429104Y26994286D02*
X84714819Y27327619D01*
X84714819Y27327619D02*
X85714819Y27327619D01*
X85714819Y27803810D02*
X84714819Y27803810D01*
X84714819Y27803810D02*
X84714819Y28184762D01*
X84714819Y28184762D02*
X84762438Y28280000D01*
X84762438Y28280000D02*
X84810057Y28327619D01*
X84810057Y28327619D02*
X84905295Y28375238D01*
X84905295Y28375238D02*
X85048152Y28375238D01*
X85048152Y28375238D02*
X85143390Y28327619D01*
X85143390Y28327619D02*
X85191009Y28280000D01*
X85191009Y28280000D02*
X85238628Y28184762D01*
X85238628Y28184762D02*
X85238628Y27803810D01*
X84714819Y28994286D02*
X84714819Y29184762D01*
X84714819Y29184762D02*
X84762438Y29280000D01*
X84762438Y29280000D02*
X84857676Y29375238D01*
X84857676Y29375238D02*
X85048152Y29422857D01*
X85048152Y29422857D02*
X85381485Y29422857D01*
X85381485Y29422857D02*
X85571961Y29375238D01*
X85571961Y29375238D02*
X85667200Y29280000D01*
X85667200Y29280000D02*
X85714819Y29184762D01*
X85714819Y29184762D02*
X85714819Y28994286D01*
X85714819Y28994286D02*
X85667200Y28899048D01*
X85667200Y28899048D02*
X85571961Y28803810D01*
X85571961Y28803810D02*
X85381485Y28756191D01*
X85381485Y28756191D02*
X85048152Y28756191D01*
X85048152Y28756191D02*
X84857676Y28803810D01*
X84857676Y28803810D02*
X84762438Y28899048D01*
X84762438Y28899048D02*
X84714819Y28994286D01*
X85810057Y29613334D02*
X85810057Y30375238D01*
X85429104Y30565715D02*
X85429104Y31041905D01*
X85714819Y30470477D02*
X84714819Y30803810D01*
X84714819Y30803810D02*
X85714819Y31137143D01*
X85714819Y31994286D02*
X85714819Y31422858D01*
X85714819Y31708572D02*
X84714819Y31708572D01*
X84714819Y31708572D02*
X84857676Y31613334D01*
X84857676Y31613334D02*
X84952914Y31518096D01*
X84952914Y31518096D02*
X85000533Y31422858D01*
X-10015180Y-24299048D02*
X-10491371Y-24632381D01*
X-10015180Y-24870476D02*
X-11015180Y-24870476D01*
X-11015180Y-24870476D02*
X-11015180Y-24489524D01*
X-11015180Y-24489524D02*
X-10967561Y-24394286D01*
X-10967561Y-24394286D02*
X-10919942Y-24346667D01*
X-10919942Y-24346667D02*
X-10824704Y-24299048D01*
X-10824704Y-24299048D02*
X-10681847Y-24299048D01*
X-10681847Y-24299048D02*
X-10586609Y-24346667D01*
X-10586609Y-24346667D02*
X-10538990Y-24394286D01*
X-10538990Y-24394286D02*
X-10491371Y-24489524D01*
X-10491371Y-24489524D02*
X-10491371Y-24870476D01*
X-9919942Y-24108572D02*
X-9919942Y-23346667D01*
X-10015180Y-23108571D02*
X-11015180Y-23108571D01*
X-11015180Y-23108571D02*
X-11015180Y-22727619D01*
X-11015180Y-22727619D02*
X-10967561Y-22632381D01*
X-10967561Y-22632381D02*
X-10919942Y-22584762D01*
X-10919942Y-22584762D02*
X-10824704Y-22537143D01*
X-10824704Y-22537143D02*
X-10681847Y-22537143D01*
X-10681847Y-22537143D02*
X-10586609Y-22584762D01*
X-10586609Y-22584762D02*
X-10538990Y-22632381D01*
X-10538990Y-22632381D02*
X-10491371Y-22727619D01*
X-10491371Y-22727619D02*
X-10491371Y-23108571D01*
X-10015180Y-21632381D02*
X-10015180Y-22108571D01*
X-10015180Y-22108571D02*
X-11015180Y-22108571D01*
X-10300895Y-21346666D02*
X-10300895Y-20870476D01*
X-10015180Y-21441904D02*
X-11015180Y-21108571D01*
X-11015180Y-21108571D02*
X-10015180Y-20775238D01*
X-10491371Y-20251428D02*
X-10015180Y-20251428D01*
X-11015180Y-20584761D02*
X-10491371Y-20251428D01*
X-10491371Y-20251428D02*
X-11015180Y-19918095D01*
X-9919942Y-19822857D02*
X-9919942Y-19060952D01*
X-10300895Y-18870475D02*
X-10300895Y-18394285D01*
X-10015180Y-18965713D02*
X-11015180Y-18632380D01*
X-11015180Y-18632380D02*
X-10015180Y-18299047D01*
X-10015180Y-17441904D02*
X-10015180Y-18013332D01*
X-10015180Y-17727618D02*
X-11015180Y-17727618D01*
X-11015180Y-17727618D02*
X-10872323Y-17822856D01*
X-10872323Y-17822856D02*
X-10777085Y-17918094D01*
X-10777085Y-17918094D02*
X-10729466Y-18013332D01*
X-30280952Y-2541009D02*
X-30614285Y-2541009D01*
X-30614285Y-3064819D02*
X-30614285Y-2064819D01*
X-30614285Y-2064819D02*
X-30138095Y-2064819D01*
X-29804761Y-2779104D02*
X-29328571Y-2779104D01*
X-29899999Y-3064819D02*
X-29566666Y-2064819D01*
X-29566666Y-2064819D02*
X-29233333Y-3064819D01*
X-28899999Y-3064819D02*
X-28899999Y-2064819D01*
X-28899999Y-2064819D02*
X-28661904Y-2064819D01*
X-28661904Y-2064819D02*
X-28519047Y-2112438D01*
X-28519047Y-2112438D02*
X-28423809Y-2207676D01*
X-28423809Y-2207676D02*
X-28376190Y-2302914D01*
X-28376190Y-2302914D02*
X-28328571Y-2493390D01*
X-28328571Y-2493390D02*
X-28328571Y-2636247D01*
X-28328571Y-2636247D02*
X-28376190Y-2826723D01*
X-28376190Y-2826723D02*
X-28423809Y-2921961D01*
X-28423809Y-2921961D02*
X-28519047Y-3017200D01*
X-28519047Y-3017200D02*
X-28661904Y-3064819D01*
X-28661904Y-3064819D02*
X-28899999Y-3064819D01*
X-27899999Y-2541009D02*
X-27566666Y-2541009D01*
X-27423809Y-3064819D02*
X-27899999Y-3064819D01*
X-27899999Y-3064819D02*
X-27899999Y-2064819D01*
X-27899999Y-2064819D02*
X-27423809Y-2064819D01*
X-26423809Y-3064819D02*
X-26757142Y-2588628D01*
X-26995237Y-3064819D02*
X-26995237Y-2064819D01*
X-26995237Y-2064819D02*
X-26614285Y-2064819D01*
X-26614285Y-2064819D02*
X-26519047Y-2112438D01*
X-26519047Y-2112438D02*
X-26471428Y-2160057D01*
X-26471428Y-2160057D02*
X-26423809Y-2255295D01*
X-26423809Y-2255295D02*
X-26423809Y-2398152D01*
X-26423809Y-2398152D02*
X-26471428Y-2493390D01*
X-26471428Y-2493390D02*
X-26519047Y-2541009D01*
X-26519047Y-2541009D02*
X-26614285Y-2588628D01*
X-26614285Y-2588628D02*
X-26995237Y-2588628D01*
X-26233333Y-3160057D02*
X-25471428Y-3160057D01*
X-24661904Y-2969580D02*
X-24709523Y-3017200D01*
X-24709523Y-3017200D02*
X-24852380Y-3064819D01*
X-24852380Y-3064819D02*
X-24947618Y-3064819D01*
X-24947618Y-3064819D02*
X-25090475Y-3017200D01*
X-25090475Y-3017200D02*
X-25185713Y-2921961D01*
X-25185713Y-2921961D02*
X-25233332Y-2826723D01*
X-25233332Y-2826723D02*
X-25280951Y-2636247D01*
X-25280951Y-2636247D02*
X-25280951Y-2493390D01*
X-25280951Y-2493390D02*
X-25233332Y-2302914D01*
X-25233332Y-2302914D02*
X-25185713Y-2207676D01*
X-25185713Y-2207676D02*
X-25090475Y-2112438D01*
X-25090475Y-2112438D02*
X-24947618Y-2064819D01*
X-24947618Y-2064819D02*
X-24852380Y-2064819D01*
X-24852380Y-2064819D02*
X-24709523Y-2112438D01*
X-24709523Y-2112438D02*
X-24661904Y-2160057D01*
X-23661904Y-3064819D02*
X-23995237Y-2588628D01*
X-24233332Y-3064819D02*
X-24233332Y-2064819D01*
X-24233332Y-2064819D02*
X-23852380Y-2064819D01*
X-23852380Y-2064819D02*
X-23757142Y-2112438D01*
X-23757142Y-2112438D02*
X-23709523Y-2160057D01*
X-23709523Y-2160057D02*
X-23661904Y-2255295D01*
X-23661904Y-2255295D02*
X-23661904Y-2398152D01*
X-23661904Y-2398152D02*
X-23709523Y-2493390D01*
X-23709523Y-2493390D02*
X-23757142Y-2541009D01*
X-23757142Y-2541009D02*
X-23852380Y-2588628D01*
X-23852380Y-2588628D02*
X-24233332Y-2588628D01*
X-23042856Y-2064819D02*
X-22852380Y-2064819D01*
X-22852380Y-2064819D02*
X-22757142Y-2112438D01*
X-22757142Y-2112438D02*
X-22661904Y-2207676D01*
X-22661904Y-2207676D02*
X-22614285Y-2398152D01*
X-22614285Y-2398152D02*
X-22614285Y-2731485D01*
X-22614285Y-2731485D02*
X-22661904Y-2921961D01*
X-22661904Y-2921961D02*
X-22757142Y-3017200D01*
X-22757142Y-3017200D02*
X-22852380Y-3064819D01*
X-22852380Y-3064819D02*
X-23042856Y-3064819D01*
X-23042856Y-3064819D02*
X-23138094Y-3017200D01*
X-23138094Y-3017200D02*
X-23233332Y-2921961D01*
X-23233332Y-2921961D02*
X-23280951Y-2731485D01*
X-23280951Y-2731485D02*
X-23280951Y-2398152D01*
X-23280951Y-2398152D02*
X-23233332Y-2207676D01*
X-23233332Y-2207676D02*
X-23138094Y-2112438D01*
X-23138094Y-2112438D02*
X-23042856Y-2064819D01*
X-22233332Y-3017200D02*
X-22090475Y-3064819D01*
X-22090475Y-3064819D02*
X-21852380Y-3064819D01*
X-21852380Y-3064819D02*
X-21757142Y-3017200D01*
X-21757142Y-3017200D02*
X-21709523Y-2969580D01*
X-21709523Y-2969580D02*
X-21661904Y-2874342D01*
X-21661904Y-2874342D02*
X-21661904Y-2779104D01*
X-21661904Y-2779104D02*
X-21709523Y-2683866D01*
X-21709523Y-2683866D02*
X-21757142Y-2636247D01*
X-21757142Y-2636247D02*
X-21852380Y-2588628D01*
X-21852380Y-2588628D02*
X-22042856Y-2541009D01*
X-22042856Y-2541009D02*
X-22138094Y-2493390D01*
X-22138094Y-2493390D02*
X-22185713Y-2445771D01*
X-22185713Y-2445771D02*
X-22233332Y-2350533D01*
X-22233332Y-2350533D02*
X-22233332Y-2255295D01*
X-22233332Y-2255295D02*
X-22185713Y-2160057D01*
X-22185713Y-2160057D02*
X-22138094Y-2112438D01*
X-22138094Y-2112438D02*
X-22042856Y-2064819D01*
X-22042856Y-2064819D02*
X-21804761Y-2064819D01*
X-21804761Y-2064819D02*
X-21661904Y-2112438D01*
X-21280951Y-3017200D02*
X-21138094Y-3064819D01*
X-21138094Y-3064819D02*
X-20899999Y-3064819D01*
X-20899999Y-3064819D02*
X-20804761Y-3017200D01*
X-20804761Y-3017200D02*
X-20757142Y-2969580D01*
X-20757142Y-2969580D02*
X-20709523Y-2874342D01*
X-20709523Y-2874342D02*
X-20709523Y-2779104D01*
X-20709523Y-2779104D02*
X-20757142Y-2683866D01*
X-20757142Y-2683866D02*
X-20804761Y-2636247D01*
X-20804761Y-2636247D02*
X-20899999Y-2588628D01*
X-20899999Y-2588628D02*
X-21090475Y-2541009D01*
X-21090475Y-2541009D02*
X-21185713Y-2493390D01*
X-21185713Y-2493390D02*
X-21233332Y-2445771D01*
X-21233332Y-2445771D02*
X-21280951Y-2350533D01*
X-21280951Y-2350533D02*
X-21280951Y-2255295D01*
X-21280951Y-2255295D02*
X-21233332Y-2160057D01*
X-21233332Y-2160057D02*
X-21185713Y-2112438D01*
X-21185713Y-2112438D02*
X-21090475Y-2064819D01*
X-21090475Y-2064819D02*
X-20852380Y-2064819D01*
X-20852380Y-2064819D02*
X-20709523Y-2112438D01*
X-19947618Y-2541009D02*
X-20280951Y-2541009D01*
X-20280951Y-3064819D02*
X-20280951Y-2064819D01*
X-20280951Y-2064819D02*
X-19804761Y-2064819D01*
X-19471427Y-2779104D02*
X-18995237Y-2779104D01*
X-19566665Y-3064819D02*
X-19233332Y-2064819D01*
X-19233332Y-2064819D02*
X-18899999Y-3064819D01*
X-18566665Y-3064819D02*
X-18566665Y-2064819D01*
X-18566665Y-2064819D02*
X-18328570Y-2064819D01*
X-18328570Y-2064819D02*
X-18185713Y-2112438D01*
X-18185713Y-2112438D02*
X-18090475Y-2207676D01*
X-18090475Y-2207676D02*
X-18042856Y-2302914D01*
X-18042856Y-2302914D02*
X-17995237Y-2493390D01*
X-17995237Y-2493390D02*
X-17995237Y-2636247D01*
X-17995237Y-2636247D02*
X-18042856Y-2826723D01*
X-18042856Y-2826723D02*
X-18090475Y-2921961D01*
X-18090475Y-2921961D02*
X-18185713Y-3017200D01*
X-18185713Y-3017200D02*
X-18328570Y-3064819D01*
X-18328570Y-3064819D02*
X-18566665Y-3064819D01*
X-17566665Y-2541009D02*
X-17233332Y-2541009D01*
X-17090475Y-3064819D02*
X-17566665Y-3064819D01*
X-17566665Y-3064819D02*
X-17566665Y-2064819D01*
X-17566665Y-2064819D02*
X-17090475Y-2064819D01*
X-16090475Y-3064819D02*
X-16423808Y-2588628D01*
X-16661903Y-3064819D02*
X-16661903Y-2064819D01*
X-16661903Y-2064819D02*
X-16280951Y-2064819D01*
X-16280951Y-2064819D02*
X-16185713Y-2112438D01*
X-16185713Y-2112438D02*
X-16138094Y-2160057D01*
X-16138094Y-2160057D02*
X-16090475Y-2255295D01*
X-16090475Y-2255295D02*
X-16090475Y-2398152D01*
X-16090475Y-2398152D02*
X-16138094Y-2493390D01*
X-16138094Y-2493390D02*
X-16185713Y-2541009D01*
X-16185713Y-2541009D02*
X-16280951Y-2588628D01*
X-16280951Y-2588628D02*
X-16661903Y-2588628D01*
X-15138094Y-3064819D02*
X-15709522Y-3064819D01*
X-15423808Y-3064819D02*
X-15423808Y-2064819D01*
X-15423808Y-2064819D02*
X-15519046Y-2207676D01*
X-15519046Y-2207676D02*
X-15614284Y-2302914D01*
X-15614284Y-2302914D02*
X-15709522Y-2350533D01*
X62218095Y27415180D02*
X62218095Y28415180D01*
X62218095Y27938990D02*
X62789523Y27938990D01*
X62789523Y27415180D02*
X62789523Y28415180D01*
X63694285Y28415180D02*
X63503809Y28415180D01*
X63503809Y28415180D02*
X63408571Y28367561D01*
X63408571Y28367561D02*
X63360952Y28319942D01*
X63360952Y28319942D02*
X63265714Y28177085D01*
X63265714Y28177085D02*
X63218095Y27986609D01*
X63218095Y27986609D02*
X63218095Y27605657D01*
X63218095Y27605657D02*
X63265714Y27510419D01*
X63265714Y27510419D02*
X63313333Y27462800D01*
X63313333Y27462800D02*
X63408571Y27415180D01*
X63408571Y27415180D02*
X63599047Y27415180D01*
X63599047Y27415180D02*
X63694285Y27462800D01*
X63694285Y27462800D02*
X63741904Y27510419D01*
X63741904Y27510419D02*
X63789523Y27605657D01*
X63789523Y27605657D02*
X63789523Y27843752D01*
X63789523Y27843752D02*
X63741904Y27938990D01*
X63741904Y27938990D02*
X63694285Y27986609D01*
X63694285Y27986609D02*
X63599047Y28034228D01*
X63599047Y28034228D02*
X63408571Y28034228D01*
X63408571Y28034228D02*
X63313333Y27986609D01*
X63313333Y27986609D02*
X63265714Y27938990D01*
X63265714Y27938990D02*
X63218095Y27843752D01*
X86138095Y3435180D02*
X86138095Y4435180D01*
X86138095Y3958990D02*
X86709523Y3958990D01*
X86709523Y3435180D02*
X86709523Y4435180D01*
X87661904Y4435180D02*
X87185714Y4435180D01*
X87185714Y4435180D02*
X87138095Y3958990D01*
X87138095Y3958990D02*
X87185714Y4006609D01*
X87185714Y4006609D02*
X87280952Y4054228D01*
X87280952Y4054228D02*
X87519047Y4054228D01*
X87519047Y4054228D02*
X87614285Y4006609D01*
X87614285Y4006609D02*
X87661904Y3958990D01*
X87661904Y3958990D02*
X87709523Y3863752D01*
X87709523Y3863752D02*
X87709523Y3625657D01*
X87709523Y3625657D02*
X87661904Y3530419D01*
X87661904Y3530419D02*
X87614285Y3482800D01*
X87614285Y3482800D02*
X87519047Y3435180D01*
X87519047Y3435180D02*
X87280952Y3435180D01*
X87280952Y3435180D02*
X87185714Y3482800D01*
X87185714Y3482800D02*
X87138095Y3530419D01*
X-5011904Y-594819D02*
X-5011904Y405180D01*
X-5011904Y-71009D02*
X-4440476Y-71009D01*
X-4440476Y-594819D02*
X-4440476Y405180D01*
X-3440476Y-594819D02*
X-4011904Y-594819D01*
X-3726190Y-594819D02*
X-3726190Y405180D01*
X-3726190Y405180D02*
X-3821428Y262323D01*
X-3821428Y262323D02*
X-3916666Y167085D01*
X-3916666Y167085D02*
X-4011904Y119466D01*
X-58095238Y32568990D02*
X-57952381Y32521371D01*
X-57952381Y32521371D02*
X-57904762Y32473752D01*
X-57904762Y32473752D02*
X-57857143Y32378514D01*
X-57857143Y32378514D02*
X-57857143Y32235657D01*
X-57857143Y32235657D02*
X-57904762Y32140419D01*
X-57904762Y32140419D02*
X-57952381Y32092800D01*
X-57952381Y32092800D02*
X-58047619Y32045180D01*
X-58047619Y32045180D02*
X-58428571Y32045180D01*
X-58428571Y32045180D02*
X-58428571Y33045180D01*
X-58428571Y33045180D02*
X-58095238Y33045180D01*
X-58095238Y33045180D02*
X-58000000Y32997561D01*
X-58000000Y32997561D02*
X-57952381Y32949942D01*
X-57952381Y32949942D02*
X-57904762Y32854704D01*
X-57904762Y32854704D02*
X-57904762Y32759466D01*
X-57904762Y32759466D02*
X-57952381Y32664228D01*
X-57952381Y32664228D02*
X-58000000Y32616609D01*
X-58000000Y32616609D02*
X-58095238Y32568990D01*
X-58095238Y32568990D02*
X-58428571Y32568990D01*
X-57571428Y33045180D02*
X-57000000Y33045180D01*
X-57285714Y32045180D02*
X-57285714Y33045180D01*
X-56666666Y32045180D02*
X-56666666Y33045180D01*
X-56666666Y33045180D02*
X-56095238Y32045180D01*
X-56095238Y32045180D02*
X-56095238Y33045180D01*
X-55857143Y31949942D02*
X-55095238Y31949942D01*
X-54904761Y32330895D02*
X-54428571Y32330895D01*
X-54999999Y32045180D02*
X-54666666Y33045180D01*
X-54666666Y33045180D02*
X-54333333Y32045180D01*
X-54238095Y31949942D02*
X-53476190Y31949942D01*
X-52761904Y32045180D02*
X-53238094Y32045180D01*
X-53238094Y32045180D02*
X-53238094Y33045180D01*
X-52238094Y33045180D02*
X-52047618Y33045180D01*
X-52047618Y33045180D02*
X-51952380Y32997561D01*
X-51952380Y32997561D02*
X-51857142Y32902323D01*
X-51857142Y32902323D02*
X-51809523Y32711847D01*
X-51809523Y32711847D02*
X-51809523Y32378514D01*
X-51809523Y32378514D02*
X-51857142Y32188038D01*
X-51857142Y32188038D02*
X-51952380Y32092800D01*
X-51952380Y32092800D02*
X-52047618Y32045180D01*
X-52047618Y32045180D02*
X-52238094Y32045180D01*
X-52238094Y32045180D02*
X-52333332Y32092800D01*
X-52333332Y32092800D02*
X-52428570Y32188038D01*
X-52428570Y32188038D02*
X-52476189Y32378514D01*
X-52476189Y32378514D02*
X-52476189Y32711847D01*
X-52476189Y32711847D02*
X-52428570Y32902323D01*
X-52428570Y32902323D02*
X-52333332Y32997561D01*
X-52333332Y32997561D02*
X-52238094Y33045180D01*
X-51190475Y33045180D02*
X-50999999Y33045180D01*
X-50999999Y33045180D02*
X-50904761Y32997561D01*
X-50904761Y32997561D02*
X-50809523Y32902323D01*
X-50809523Y32902323D02*
X-50761904Y32711847D01*
X-50761904Y32711847D02*
X-50761904Y32378514D01*
X-50761904Y32378514D02*
X-50809523Y32188038D01*
X-50809523Y32188038D02*
X-50904761Y32092800D01*
X-50904761Y32092800D02*
X-50999999Y32045180D01*
X-50999999Y32045180D02*
X-51190475Y32045180D01*
X-51190475Y32045180D02*
X-51285713Y32092800D01*
X-51285713Y32092800D02*
X-51380951Y32188038D01*
X-51380951Y32188038D02*
X-51428570Y32378514D01*
X-51428570Y32378514D02*
X-51428570Y32711847D01*
X-51428570Y32711847D02*
X-51380951Y32902323D01*
X-51380951Y32902323D02*
X-51285713Y32997561D01*
X-51285713Y32997561D02*
X-51190475Y33045180D01*
X-50333332Y32045180D02*
X-50333332Y33045180D01*
X-50333332Y33045180D02*
X-49952380Y33045180D01*
X-49952380Y33045180D02*
X-49857142Y32997561D01*
X-49857142Y32997561D02*
X-49809523Y32949942D01*
X-49809523Y32949942D02*
X-49761904Y32854704D01*
X-49761904Y32854704D02*
X-49761904Y32711847D01*
X-49761904Y32711847D02*
X-49809523Y32616609D01*
X-49809523Y32616609D02*
X-49857142Y32568990D01*
X-49857142Y32568990D02*
X-49952380Y32521371D01*
X-49952380Y32521371D02*
X-50333332Y32521371D01*
X-49571428Y31949942D02*
X-48809523Y31949942D01*
X-48571427Y32045180D02*
X-48571427Y33045180D01*
X-48095237Y32045180D02*
X-48095237Y33045180D01*
X-48095237Y33045180D02*
X-47523809Y32045180D01*
X-47523809Y32045180D02*
X-47523809Y33045180D01*
X-46523809Y32045180D02*
X-47095237Y32045180D01*
X-46809523Y32045180D02*
X-46809523Y33045180D01*
X-46809523Y33045180D02*
X-46904761Y32902323D01*
X-46904761Y32902323D02*
X-46999999Y32807085D01*
X-46999999Y32807085D02*
X-47095237Y32759466D01*
X-4015180Y-24544286D02*
X-4491371Y-24877619D01*
X-4015180Y-25115714D02*
X-5015180Y-25115714D01*
X-5015180Y-25115714D02*
X-5015180Y-24734762D01*
X-5015180Y-24734762D02*
X-4967561Y-24639524D01*
X-4967561Y-24639524D02*
X-4919942Y-24591905D01*
X-4919942Y-24591905D02*
X-4824704Y-24544286D01*
X-4824704Y-24544286D02*
X-4681847Y-24544286D01*
X-4681847Y-24544286D02*
X-4586609Y-24591905D01*
X-4586609Y-24591905D02*
X-4538990Y-24639524D01*
X-4538990Y-24639524D02*
X-4491371Y-24734762D01*
X-4491371Y-24734762D02*
X-4491371Y-25115714D01*
X-3919942Y-24353810D02*
X-3919942Y-23591905D01*
X-4015180Y-22877619D02*
X-4015180Y-23353809D01*
X-4015180Y-23353809D02*
X-5015180Y-23353809D01*
X-5015180Y-22353809D02*
X-5015180Y-22163333D01*
X-5015180Y-22163333D02*
X-4967561Y-22068095D01*
X-4967561Y-22068095D02*
X-4872323Y-21972857D01*
X-4872323Y-21972857D02*
X-4681847Y-21925238D01*
X-4681847Y-21925238D02*
X-4348514Y-21925238D01*
X-4348514Y-21925238D02*
X-4158038Y-21972857D01*
X-4158038Y-21972857D02*
X-4062800Y-22068095D01*
X-4062800Y-22068095D02*
X-4015180Y-22163333D01*
X-4015180Y-22163333D02*
X-4015180Y-22353809D01*
X-4015180Y-22353809D02*
X-4062800Y-22449047D01*
X-4062800Y-22449047D02*
X-4158038Y-22544285D01*
X-4158038Y-22544285D02*
X-4348514Y-22591904D01*
X-4348514Y-22591904D02*
X-4681847Y-22591904D01*
X-4681847Y-22591904D02*
X-4872323Y-22544285D01*
X-4872323Y-22544285D02*
X-4967561Y-22449047D01*
X-4967561Y-22449047D02*
X-5015180Y-22353809D01*
X-4300895Y-21544285D02*
X-4300895Y-21068095D01*
X-4015180Y-21639523D02*
X-5015180Y-21306190D01*
X-5015180Y-21306190D02*
X-4015180Y-20972857D01*
X-4015180Y-20639523D02*
X-5015180Y-20639523D01*
X-5015180Y-20639523D02*
X-5015180Y-20401428D01*
X-5015180Y-20401428D02*
X-4967561Y-20258571D01*
X-4967561Y-20258571D02*
X-4872323Y-20163333D01*
X-4872323Y-20163333D02*
X-4777085Y-20115714D01*
X-4777085Y-20115714D02*
X-4586609Y-20068095D01*
X-4586609Y-20068095D02*
X-4443752Y-20068095D01*
X-4443752Y-20068095D02*
X-4253276Y-20115714D01*
X-4253276Y-20115714D02*
X-4158038Y-20163333D01*
X-4158038Y-20163333D02*
X-4062800Y-20258571D01*
X-4062800Y-20258571D02*
X-4015180Y-20401428D01*
X-4015180Y-20401428D02*
X-4015180Y-20639523D01*
X-3919942Y-19877619D02*
X-3919942Y-19115714D01*
X-4300895Y-18925237D02*
X-4300895Y-18449047D01*
X-4015180Y-19020475D02*
X-5015180Y-18687142D01*
X-5015180Y-18687142D02*
X-4015180Y-18353809D01*
X-4015180Y-17496666D02*
X-4015180Y-18068094D01*
X-4015180Y-17782380D02*
X-5015180Y-17782380D01*
X-5015180Y-17782380D02*
X-4872323Y-17877618D01*
X-4872323Y-17877618D02*
X-4777085Y-17972856D01*
X-4777085Y-17972856D02*
X-4729466Y-18068094D01*
X46596666Y32458990D02*
X46739523Y32411371D01*
X46739523Y32411371D02*
X46787142Y32363752D01*
X46787142Y32363752D02*
X46834761Y32268514D01*
X46834761Y32268514D02*
X46834761Y32125657D01*
X46834761Y32125657D02*
X46787142Y32030419D01*
X46787142Y32030419D02*
X46739523Y31982800D01*
X46739523Y31982800D02*
X46644285Y31935180D01*
X46644285Y31935180D02*
X46263333Y31935180D01*
X46263333Y31935180D02*
X46263333Y32935180D01*
X46263333Y32935180D02*
X46596666Y32935180D01*
X46596666Y32935180D02*
X46691904Y32887561D01*
X46691904Y32887561D02*
X46739523Y32839942D01*
X46739523Y32839942D02*
X46787142Y32744704D01*
X46787142Y32744704D02*
X46787142Y32649466D01*
X46787142Y32649466D02*
X46739523Y32554228D01*
X46739523Y32554228D02*
X46691904Y32506609D01*
X46691904Y32506609D02*
X46596666Y32458990D01*
X46596666Y32458990D02*
X46263333Y32458990D01*
X47120476Y32935180D02*
X47691904Y32935180D01*
X47406190Y31935180D02*
X47406190Y32935180D01*
X48025238Y31935180D02*
X48025238Y32935180D01*
X48025238Y32935180D02*
X48596666Y31935180D01*
X48596666Y31935180D02*
X48596666Y32935180D01*
X48834762Y31839942D02*
X49596666Y31839942D01*
X50168095Y32458990D02*
X50310952Y32411371D01*
X50310952Y32411371D02*
X50358571Y32363752D01*
X50358571Y32363752D02*
X50406190Y32268514D01*
X50406190Y32268514D02*
X50406190Y32125657D01*
X50406190Y32125657D02*
X50358571Y32030419D01*
X50358571Y32030419D02*
X50310952Y31982800D01*
X50310952Y31982800D02*
X50215714Y31935180D01*
X50215714Y31935180D02*
X49834762Y31935180D01*
X49834762Y31935180D02*
X49834762Y32935180D01*
X49834762Y32935180D02*
X50168095Y32935180D01*
X50168095Y32935180D02*
X50263333Y32887561D01*
X50263333Y32887561D02*
X50310952Y32839942D01*
X50310952Y32839942D02*
X50358571Y32744704D01*
X50358571Y32744704D02*
X50358571Y32649466D01*
X50358571Y32649466D02*
X50310952Y32554228D01*
X50310952Y32554228D02*
X50263333Y32506609D01*
X50263333Y32506609D02*
X50168095Y32458990D01*
X50168095Y32458990D02*
X49834762Y32458990D01*
X50596667Y31839942D02*
X51358571Y31839942D01*
X52072857Y31935180D02*
X51596667Y31935180D01*
X51596667Y31935180D02*
X51596667Y32935180D01*
X52596667Y32935180D02*
X52787143Y32935180D01*
X52787143Y32935180D02*
X52882381Y32887561D01*
X52882381Y32887561D02*
X52977619Y32792323D01*
X52977619Y32792323D02*
X53025238Y32601847D01*
X53025238Y32601847D02*
X53025238Y32268514D01*
X53025238Y32268514D02*
X52977619Y32078038D01*
X52977619Y32078038D02*
X52882381Y31982800D01*
X52882381Y31982800D02*
X52787143Y31935180D01*
X52787143Y31935180D02*
X52596667Y31935180D01*
X52596667Y31935180D02*
X52501429Y31982800D01*
X52501429Y31982800D02*
X52406191Y32078038D01*
X52406191Y32078038D02*
X52358572Y32268514D01*
X52358572Y32268514D02*
X52358572Y32601847D01*
X52358572Y32601847D02*
X52406191Y32792323D01*
X52406191Y32792323D02*
X52501429Y32887561D01*
X52501429Y32887561D02*
X52596667Y32935180D01*
X53644286Y32935180D02*
X53834762Y32935180D01*
X53834762Y32935180D02*
X53930000Y32887561D01*
X53930000Y32887561D02*
X54025238Y32792323D01*
X54025238Y32792323D02*
X54072857Y32601847D01*
X54072857Y32601847D02*
X54072857Y32268514D01*
X54072857Y32268514D02*
X54025238Y32078038D01*
X54025238Y32078038D02*
X53930000Y31982800D01*
X53930000Y31982800D02*
X53834762Y31935180D01*
X53834762Y31935180D02*
X53644286Y31935180D01*
X53644286Y31935180D02*
X53549048Y31982800D01*
X53549048Y31982800D02*
X53453810Y32078038D01*
X53453810Y32078038D02*
X53406191Y32268514D01*
X53406191Y32268514D02*
X53406191Y32601847D01*
X53406191Y32601847D02*
X53453810Y32792323D01*
X53453810Y32792323D02*
X53549048Y32887561D01*
X53549048Y32887561D02*
X53644286Y32935180D01*
X54501429Y31935180D02*
X54501429Y32935180D01*
X54501429Y32935180D02*
X54882381Y32935180D01*
X54882381Y32935180D02*
X54977619Y32887561D01*
X54977619Y32887561D02*
X55025238Y32839942D01*
X55025238Y32839942D02*
X55072857Y32744704D01*
X55072857Y32744704D02*
X55072857Y32601847D01*
X55072857Y32601847D02*
X55025238Y32506609D01*
X55025238Y32506609D02*
X54977619Y32458990D01*
X54977619Y32458990D02*
X54882381Y32411371D01*
X54882381Y32411371D02*
X54501429Y32411371D01*
X55263334Y31839942D02*
X56025238Y31839942D01*
X56453810Y32935180D02*
X56644286Y32935180D01*
X56644286Y32935180D02*
X56739524Y32887561D01*
X56739524Y32887561D02*
X56834762Y32792323D01*
X56834762Y32792323D02*
X56882381Y32601847D01*
X56882381Y32601847D02*
X56882381Y32268514D01*
X56882381Y32268514D02*
X56834762Y32078038D01*
X56834762Y32078038D02*
X56739524Y31982800D01*
X56739524Y31982800D02*
X56644286Y31935180D01*
X56644286Y31935180D02*
X56453810Y31935180D01*
X56453810Y31935180D02*
X56358572Y31982800D01*
X56358572Y31982800D02*
X56263334Y32078038D01*
X56263334Y32078038D02*
X56215715Y32268514D01*
X56215715Y32268514D02*
X56215715Y32601847D01*
X56215715Y32601847D02*
X56263334Y32792323D01*
X56263334Y32792323D02*
X56358572Y32887561D01*
X56358572Y32887561D02*
X56453810Y32935180D01*
X57310953Y32935180D02*
X57310953Y32125657D01*
X57310953Y32125657D02*
X57358572Y32030419D01*
X57358572Y32030419D02*
X57406191Y31982800D01*
X57406191Y31982800D02*
X57501429Y31935180D01*
X57501429Y31935180D02*
X57691905Y31935180D01*
X57691905Y31935180D02*
X57787143Y31982800D01*
X57787143Y31982800D02*
X57834762Y32030419D01*
X57834762Y32030419D02*
X57882381Y32125657D01*
X57882381Y32125657D02*
X57882381Y32935180D01*
X58215715Y32935180D02*
X58787143Y32935180D01*
X58501429Y31935180D02*
X58501429Y32935180D01*
X59644286Y31935180D02*
X59072858Y31935180D01*
X59358572Y31935180D02*
X59358572Y32935180D01*
X59358572Y32935180D02*
X59263334Y32792323D01*
X59263334Y32792323D02*
X59168096Y32697085D01*
X59168096Y32697085D02*
X59072858Y32649466D01*
X-68281904Y-32374819D02*
X-68281904Y-31374819D01*
X-68281904Y-31851009D02*
X-67710476Y-31851009D01*
X-67710476Y-32374819D02*
X-67710476Y-31374819D01*
X-67186666Y-32374819D02*
X-66996190Y-32374819D01*
X-66996190Y-32374819D02*
X-66900952Y-32327200D01*
X-66900952Y-32327200D02*
X-66853333Y-32279580D01*
X-66853333Y-32279580D02*
X-66758095Y-32136723D01*
X-66758095Y-32136723D02*
X-66710476Y-31946247D01*
X-66710476Y-31946247D02*
X-66710476Y-31565295D01*
X-66710476Y-31565295D02*
X-66758095Y-31470057D01*
X-66758095Y-31470057D02*
X-66805714Y-31422438D01*
X-66805714Y-31422438D02*
X-66900952Y-31374819D01*
X-66900952Y-31374819D02*
X-67091428Y-31374819D01*
X-67091428Y-31374819D02*
X-67186666Y-31422438D01*
X-67186666Y-31422438D02*
X-67234285Y-31470057D01*
X-67234285Y-31470057D02*
X-67281904Y-31565295D01*
X-67281904Y-31565295D02*
X-67281904Y-31803390D01*
X-67281904Y-31803390D02*
X-67234285Y-31898628D01*
X-67234285Y-31898628D02*
X-67186666Y-31946247D01*
X-67186666Y-31946247D02*
X-67091428Y-31993866D01*
X-67091428Y-31993866D02*
X-66900952Y-31993866D01*
X-66900952Y-31993866D02*
X-66805714Y-31946247D01*
X-66805714Y-31946247D02*
X-66758095Y-31898628D01*
X-66758095Y-31898628D02*
X-66710476Y-31803390D01*
X-63781904Y27415180D02*
X-63781904Y28415180D01*
X-63781904Y27938990D02*
X-63210476Y27938990D01*
X-63210476Y27415180D02*
X-63210476Y28415180D01*
X-62829523Y28415180D02*
X-62162857Y28415180D01*
X-62162857Y28415180D02*
X-62591428Y27415180D01*
X-43261905Y32768990D02*
X-43119048Y32721371D01*
X-43119048Y32721371D02*
X-43071429Y32673752D01*
X-43071429Y32673752D02*
X-43023810Y32578514D01*
X-43023810Y32578514D02*
X-43023810Y32435657D01*
X-43023810Y32435657D02*
X-43071429Y32340419D01*
X-43071429Y32340419D02*
X-43119048Y32292800D01*
X-43119048Y32292800D02*
X-43214286Y32245180D01*
X-43214286Y32245180D02*
X-43595238Y32245180D01*
X-43595238Y32245180D02*
X-43595238Y33245180D01*
X-43595238Y33245180D02*
X-43261905Y33245180D01*
X-43261905Y33245180D02*
X-43166667Y33197561D01*
X-43166667Y33197561D02*
X-43119048Y33149942D01*
X-43119048Y33149942D02*
X-43071429Y33054704D01*
X-43071429Y33054704D02*
X-43071429Y32959466D01*
X-43071429Y32959466D02*
X-43119048Y32864228D01*
X-43119048Y32864228D02*
X-43166667Y32816609D01*
X-43166667Y32816609D02*
X-43261905Y32768990D01*
X-43261905Y32768990D02*
X-43595238Y32768990D01*
X-42738095Y33245180D02*
X-42166667Y33245180D01*
X-42452381Y32245180D02*
X-42452381Y33245180D01*
X-41833333Y32245180D02*
X-41833333Y33245180D01*
X-41833333Y33245180D02*
X-41261905Y32245180D01*
X-41261905Y32245180D02*
X-41261905Y33245180D01*
X-41023810Y32149942D02*
X-40261905Y32149942D01*
X-40071428Y32530895D02*
X-39595238Y32530895D01*
X-40166666Y32245180D02*
X-39833333Y33245180D01*
X-39833333Y33245180D02*
X-39500000Y32245180D01*
X-39404762Y32149942D02*
X-38642857Y32149942D01*
X-37928571Y32245180D02*
X-38404761Y32245180D01*
X-38404761Y32245180D02*
X-38404761Y33245180D01*
X-37404761Y33245180D02*
X-37214285Y33245180D01*
X-37214285Y33245180D02*
X-37119047Y33197561D01*
X-37119047Y33197561D02*
X-37023809Y33102323D01*
X-37023809Y33102323D02*
X-36976190Y32911847D01*
X-36976190Y32911847D02*
X-36976190Y32578514D01*
X-36976190Y32578514D02*
X-37023809Y32388038D01*
X-37023809Y32388038D02*
X-37119047Y32292800D01*
X-37119047Y32292800D02*
X-37214285Y32245180D01*
X-37214285Y32245180D02*
X-37404761Y32245180D01*
X-37404761Y32245180D02*
X-37499999Y32292800D01*
X-37499999Y32292800D02*
X-37595237Y32388038D01*
X-37595237Y32388038D02*
X-37642856Y32578514D01*
X-37642856Y32578514D02*
X-37642856Y32911847D01*
X-37642856Y32911847D02*
X-37595237Y33102323D01*
X-37595237Y33102323D02*
X-37499999Y33197561D01*
X-37499999Y33197561D02*
X-37404761Y33245180D01*
X-36357142Y33245180D02*
X-36166666Y33245180D01*
X-36166666Y33245180D02*
X-36071428Y33197561D01*
X-36071428Y33197561D02*
X-35976190Y33102323D01*
X-35976190Y33102323D02*
X-35928571Y32911847D01*
X-35928571Y32911847D02*
X-35928571Y32578514D01*
X-35928571Y32578514D02*
X-35976190Y32388038D01*
X-35976190Y32388038D02*
X-36071428Y32292800D01*
X-36071428Y32292800D02*
X-36166666Y32245180D01*
X-36166666Y32245180D02*
X-36357142Y32245180D01*
X-36357142Y32245180D02*
X-36452380Y32292800D01*
X-36452380Y32292800D02*
X-36547618Y32388038D01*
X-36547618Y32388038D02*
X-36595237Y32578514D01*
X-36595237Y32578514D02*
X-36595237Y32911847D01*
X-36595237Y32911847D02*
X-36547618Y33102323D01*
X-36547618Y33102323D02*
X-36452380Y33197561D01*
X-36452380Y33197561D02*
X-36357142Y33245180D01*
X-35499999Y32245180D02*
X-35499999Y33245180D01*
X-35499999Y33245180D02*
X-35119047Y33245180D01*
X-35119047Y33245180D02*
X-35023809Y33197561D01*
X-35023809Y33197561D02*
X-34976190Y33149942D01*
X-34976190Y33149942D02*
X-34928571Y33054704D01*
X-34928571Y33054704D02*
X-34928571Y32911847D01*
X-34928571Y32911847D02*
X-34976190Y32816609D01*
X-34976190Y32816609D02*
X-35023809Y32768990D01*
X-35023809Y32768990D02*
X-35119047Y32721371D01*
X-35119047Y32721371D02*
X-35499999Y32721371D01*
X-34738095Y32149942D02*
X-33976190Y32149942D01*
X-33547618Y33245180D02*
X-33357142Y33245180D01*
X-33357142Y33245180D02*
X-33261904Y33197561D01*
X-33261904Y33197561D02*
X-33166666Y33102323D01*
X-33166666Y33102323D02*
X-33119047Y32911847D01*
X-33119047Y32911847D02*
X-33119047Y32578514D01*
X-33119047Y32578514D02*
X-33166666Y32388038D01*
X-33166666Y32388038D02*
X-33261904Y32292800D01*
X-33261904Y32292800D02*
X-33357142Y32245180D01*
X-33357142Y32245180D02*
X-33547618Y32245180D01*
X-33547618Y32245180D02*
X-33642856Y32292800D01*
X-33642856Y32292800D02*
X-33738094Y32388038D01*
X-33738094Y32388038D02*
X-33785713Y32578514D01*
X-33785713Y32578514D02*
X-33785713Y32911847D01*
X-33785713Y32911847D02*
X-33738094Y33102323D01*
X-33738094Y33102323D02*
X-33642856Y33197561D01*
X-33642856Y33197561D02*
X-33547618Y33245180D01*
X-32690475Y33245180D02*
X-32690475Y32435657D01*
X-32690475Y32435657D02*
X-32642856Y32340419D01*
X-32642856Y32340419D02*
X-32595237Y32292800D01*
X-32595237Y32292800D02*
X-32499999Y32245180D01*
X-32499999Y32245180D02*
X-32309523Y32245180D01*
X-32309523Y32245180D02*
X-32214285Y32292800D01*
X-32214285Y32292800D02*
X-32166666Y32340419D01*
X-32166666Y32340419D02*
X-32119047Y32435657D01*
X-32119047Y32435657D02*
X-32119047Y33245180D01*
X-31785713Y33245180D02*
X-31214285Y33245180D01*
X-31499999Y32245180D02*
X-31499999Y33245180D01*
X-30357142Y32245180D02*
X-30928570Y32245180D01*
X-30642856Y32245180D02*
X-30642856Y33245180D01*
X-30642856Y33245180D02*
X-30738094Y33102323D01*
X-30738094Y33102323D02*
X-30833332Y33007085D01*
X-30833332Y33007085D02*
X-30928570Y32959466D01*
X1984819Y-24615714D02*
X1508628Y-24949047D01*
X1984819Y-25187142D02*
X984819Y-25187142D01*
X984819Y-25187142D02*
X984819Y-24806190D01*
X984819Y-24806190D02*
X1032438Y-24710952D01*
X1032438Y-24710952D02*
X1080057Y-24663333D01*
X1080057Y-24663333D02*
X1175295Y-24615714D01*
X1175295Y-24615714D02*
X1318152Y-24615714D01*
X1318152Y-24615714D02*
X1413390Y-24663333D01*
X1413390Y-24663333D02*
X1461009Y-24710952D01*
X1461009Y-24710952D02*
X1508628Y-24806190D01*
X1508628Y-24806190D02*
X1508628Y-25187142D01*
X2080057Y-24425238D02*
X2080057Y-23663333D01*
X1984819Y-22949047D02*
X1984819Y-23425237D01*
X1984819Y-23425237D02*
X984819Y-23425237D01*
X984819Y-22425237D02*
X984819Y-22234761D01*
X984819Y-22234761D02*
X1032438Y-22139523D01*
X1032438Y-22139523D02*
X1127676Y-22044285D01*
X1127676Y-22044285D02*
X1318152Y-21996666D01*
X1318152Y-21996666D02*
X1651485Y-21996666D01*
X1651485Y-21996666D02*
X1841961Y-22044285D01*
X1841961Y-22044285D02*
X1937200Y-22139523D01*
X1937200Y-22139523D02*
X1984819Y-22234761D01*
X1984819Y-22234761D02*
X1984819Y-22425237D01*
X1984819Y-22425237D02*
X1937200Y-22520475D01*
X1937200Y-22520475D02*
X1841961Y-22615713D01*
X1841961Y-22615713D02*
X1651485Y-22663332D01*
X1651485Y-22663332D02*
X1318152Y-22663332D01*
X1318152Y-22663332D02*
X1127676Y-22615713D01*
X1127676Y-22615713D02*
X1032438Y-22520475D01*
X1032438Y-22520475D02*
X984819Y-22425237D01*
X1699104Y-21615713D02*
X1699104Y-21139523D01*
X1984819Y-21710951D02*
X984819Y-21377618D01*
X984819Y-21377618D02*
X1984819Y-21044285D01*
X1984819Y-20710951D02*
X984819Y-20710951D01*
X984819Y-20710951D02*
X984819Y-20472856D01*
X984819Y-20472856D02*
X1032438Y-20329999D01*
X1032438Y-20329999D02*
X1127676Y-20234761D01*
X1127676Y-20234761D02*
X1222914Y-20187142D01*
X1222914Y-20187142D02*
X1413390Y-20139523D01*
X1413390Y-20139523D02*
X1556247Y-20139523D01*
X1556247Y-20139523D02*
X1746723Y-20187142D01*
X1746723Y-20187142D02*
X1841961Y-20234761D01*
X1841961Y-20234761D02*
X1937200Y-20329999D01*
X1937200Y-20329999D02*
X1984819Y-20472856D01*
X1984819Y-20472856D02*
X1984819Y-20710951D01*
X2080057Y-19949047D02*
X2080057Y-19187142D01*
X1461009Y-18615713D02*
X1508628Y-18472856D01*
X1508628Y-18472856D02*
X1556247Y-18425237D01*
X1556247Y-18425237D02*
X1651485Y-18377618D01*
X1651485Y-18377618D02*
X1794342Y-18377618D01*
X1794342Y-18377618D02*
X1889580Y-18425237D01*
X1889580Y-18425237D02*
X1937200Y-18472856D01*
X1937200Y-18472856D02*
X1984819Y-18568094D01*
X1984819Y-18568094D02*
X1984819Y-18949046D01*
X1984819Y-18949046D02*
X984819Y-18949046D01*
X984819Y-18949046D02*
X984819Y-18615713D01*
X984819Y-18615713D02*
X1032438Y-18520475D01*
X1032438Y-18520475D02*
X1080057Y-18472856D01*
X1080057Y-18472856D02*
X1175295Y-18425237D01*
X1175295Y-18425237D02*
X1270533Y-18425237D01*
X1270533Y-18425237D02*
X1365771Y-18472856D01*
X1365771Y-18472856D02*
X1413390Y-18520475D01*
X1413390Y-18520475D02*
X1461009Y-18615713D01*
X1461009Y-18615713D02*
X1461009Y-18949046D01*
X1984819Y-17425237D02*
X1984819Y-17996665D01*
X1984819Y-17710951D02*
X984819Y-17710951D01*
X984819Y-17710951D02*
X1127676Y-17806189D01*
X1127676Y-17806189D02*
X1222914Y-17901427D01*
X1222914Y-17901427D02*
X1270533Y-17996665D01*
X6484819Y-24520476D02*
X6008628Y-24853809D01*
X6484819Y-25091904D02*
X5484819Y-25091904D01*
X5484819Y-25091904D02*
X5484819Y-24710952D01*
X5484819Y-24710952D02*
X5532438Y-24615714D01*
X5532438Y-24615714D02*
X5580057Y-24568095D01*
X5580057Y-24568095D02*
X5675295Y-24520476D01*
X5675295Y-24520476D02*
X5818152Y-24520476D01*
X5818152Y-24520476D02*
X5913390Y-24568095D01*
X5913390Y-24568095D02*
X5961009Y-24615714D01*
X5961009Y-24615714D02*
X6008628Y-24710952D01*
X6008628Y-24710952D02*
X6008628Y-25091904D01*
X6580057Y-24330000D02*
X6580057Y-23568095D01*
X6484819Y-23329999D02*
X5484819Y-23329999D01*
X5484819Y-23329999D02*
X5484819Y-22949047D01*
X5484819Y-22949047D02*
X5532438Y-22853809D01*
X5532438Y-22853809D02*
X5580057Y-22806190D01*
X5580057Y-22806190D02*
X5675295Y-22758571D01*
X5675295Y-22758571D02*
X5818152Y-22758571D01*
X5818152Y-22758571D02*
X5913390Y-22806190D01*
X5913390Y-22806190D02*
X5961009Y-22853809D01*
X5961009Y-22853809D02*
X6008628Y-22949047D01*
X6008628Y-22949047D02*
X6008628Y-23329999D01*
X6484819Y-21853809D02*
X6484819Y-22329999D01*
X6484819Y-22329999D02*
X5484819Y-22329999D01*
X6199104Y-21568094D02*
X6199104Y-21091904D01*
X6484819Y-21663332D02*
X5484819Y-21329999D01*
X5484819Y-21329999D02*
X6484819Y-20996666D01*
X6008628Y-20472856D02*
X6484819Y-20472856D01*
X5484819Y-20806189D02*
X6008628Y-20472856D01*
X6008628Y-20472856D02*
X5484819Y-20139523D01*
X6580057Y-20044285D02*
X6580057Y-19282380D01*
X5961009Y-18710951D02*
X6008628Y-18568094D01*
X6008628Y-18568094D02*
X6056247Y-18520475D01*
X6056247Y-18520475D02*
X6151485Y-18472856D01*
X6151485Y-18472856D02*
X6294342Y-18472856D01*
X6294342Y-18472856D02*
X6389580Y-18520475D01*
X6389580Y-18520475D02*
X6437200Y-18568094D01*
X6437200Y-18568094D02*
X6484819Y-18663332D01*
X6484819Y-18663332D02*
X6484819Y-19044284D01*
X6484819Y-19044284D02*
X5484819Y-19044284D01*
X5484819Y-19044284D02*
X5484819Y-18710951D01*
X5484819Y-18710951D02*
X5532438Y-18615713D01*
X5532438Y-18615713D02*
X5580057Y-18568094D01*
X5580057Y-18568094D02*
X5675295Y-18520475D01*
X5675295Y-18520475D02*
X5770533Y-18520475D01*
X5770533Y-18520475D02*
X5865771Y-18568094D01*
X5865771Y-18568094D02*
X5913390Y-18615713D01*
X5913390Y-18615713D02*
X5961009Y-18710951D01*
X5961009Y-18710951D02*
X5961009Y-19044284D01*
X6484819Y-17520475D02*
X6484819Y-18091903D01*
X6484819Y-17806189D02*
X5484819Y-17806189D01*
X5484819Y-17806189D02*
X5627676Y-17901427D01*
X5627676Y-17901427D02*
X5722914Y-17996665D01*
X5722914Y-17996665D02*
X5770533Y-18091903D01*
X57718095Y-32374819D02*
X57718095Y-31374819D01*
X57718095Y-31851009D02*
X58289523Y-31851009D01*
X58289523Y-32374819D02*
X58289523Y-31374819D01*
X59194285Y-31708152D02*
X59194285Y-32374819D01*
X58956190Y-31327200D02*
X58718095Y-32041485D01*
X58718095Y-32041485D02*
X59337142Y-32041485D01*
X27018095Y26925180D02*
X27018095Y27925180D01*
X27018095Y27448990D02*
X27589523Y27448990D01*
X27589523Y26925180D02*
X27589523Y27925180D01*
X28018095Y27829942D02*
X28065714Y27877561D01*
X28065714Y27877561D02*
X28160952Y27925180D01*
X28160952Y27925180D02*
X28399047Y27925180D01*
X28399047Y27925180D02*
X28494285Y27877561D01*
X28494285Y27877561D02*
X28541904Y27829942D01*
X28541904Y27829942D02*
X28589523Y27734704D01*
X28589523Y27734704D02*
X28589523Y27639466D01*
X28589523Y27639466D02*
X28541904Y27496609D01*
X28541904Y27496609D02*
X27970476Y26925180D01*
X27970476Y26925180D02*
X28589523Y26925180D01*
X-88941904Y-4424819D02*
X-88941904Y-3424819D01*
X-88941904Y-3901009D02*
X-88370476Y-3901009D01*
X-88370476Y-4424819D02*
X-88370476Y-3424819D01*
X-87751428Y-3853390D02*
X-87846666Y-3805771D01*
X-87846666Y-3805771D02*
X-87894285Y-3758152D01*
X-87894285Y-3758152D02*
X-87941904Y-3662914D01*
X-87941904Y-3662914D02*
X-87941904Y-3615295D01*
X-87941904Y-3615295D02*
X-87894285Y-3520057D01*
X-87894285Y-3520057D02*
X-87846666Y-3472438D01*
X-87846666Y-3472438D02*
X-87751428Y-3424819D01*
X-87751428Y-3424819D02*
X-87560952Y-3424819D01*
X-87560952Y-3424819D02*
X-87465714Y-3472438D01*
X-87465714Y-3472438D02*
X-87418095Y-3520057D01*
X-87418095Y-3520057D02*
X-87370476Y-3615295D01*
X-87370476Y-3615295D02*
X-87370476Y-3662914D01*
X-87370476Y-3662914D02*
X-87418095Y-3758152D01*
X-87418095Y-3758152D02*
X-87465714Y-3805771D01*
X-87465714Y-3805771D02*
X-87560952Y-3853390D01*
X-87560952Y-3853390D02*
X-87751428Y-3853390D01*
X-87751428Y-3853390D02*
X-87846666Y-3901009D01*
X-87846666Y-3901009D02*
X-87894285Y-3948628D01*
X-87894285Y-3948628D02*
X-87941904Y-4043866D01*
X-87941904Y-4043866D02*
X-87941904Y-4234342D01*
X-87941904Y-4234342D02*
X-87894285Y-4329580D01*
X-87894285Y-4329580D02*
X-87846666Y-4377200D01*
X-87846666Y-4377200D02*
X-87751428Y-4424819D01*
X-87751428Y-4424819D02*
X-87560952Y-4424819D01*
X-87560952Y-4424819D02*
X-87465714Y-4377200D01*
X-87465714Y-4377200D02*
X-87418095Y-4329580D01*
X-87418095Y-4329580D02*
X-87370476Y-4234342D01*
X-87370476Y-4234342D02*
X-87370476Y-4043866D01*
X-87370476Y-4043866D02*
X-87418095Y-3948628D01*
X-87418095Y-3948628D02*
X-87465714Y-3901009D01*
X-87465714Y-3901009D02*
X-87560952Y-3853390D01*
X-85618990Y-15934762D02*
X-85618990Y-16268095D01*
X-85095180Y-16268095D02*
X-86095180Y-16268095D01*
X-86095180Y-16268095D02*
X-86095180Y-15791905D01*
X-85380895Y-15458571D02*
X-85380895Y-14982381D01*
X-85095180Y-15553809D02*
X-86095180Y-15220476D01*
X-86095180Y-15220476D02*
X-85095180Y-14887143D01*
X-85095180Y-14553809D02*
X-86095180Y-14553809D01*
X-86095180Y-14553809D02*
X-86095180Y-14315714D01*
X-86095180Y-14315714D02*
X-86047561Y-14172857D01*
X-86047561Y-14172857D02*
X-85952323Y-14077619D01*
X-85952323Y-14077619D02*
X-85857085Y-14030000D01*
X-85857085Y-14030000D02*
X-85666609Y-13982381D01*
X-85666609Y-13982381D02*
X-85523752Y-13982381D01*
X-85523752Y-13982381D02*
X-85333276Y-14030000D01*
X-85333276Y-14030000D02*
X-85238038Y-14077619D01*
X-85238038Y-14077619D02*
X-85142800Y-14172857D01*
X-85142800Y-14172857D02*
X-85095180Y-14315714D01*
X-85095180Y-14315714D02*
X-85095180Y-14553809D01*
X-85618990Y-13553809D02*
X-85618990Y-13220476D01*
X-85095180Y-13077619D02*
X-85095180Y-13553809D01*
X-85095180Y-13553809D02*
X-86095180Y-13553809D01*
X-86095180Y-13553809D02*
X-86095180Y-13077619D01*
X-85095180Y-12077619D02*
X-85571371Y-12410952D01*
X-85095180Y-12649047D02*
X-86095180Y-12649047D01*
X-86095180Y-12649047D02*
X-86095180Y-12268095D01*
X-86095180Y-12268095D02*
X-86047561Y-12172857D01*
X-86047561Y-12172857D02*
X-85999942Y-12125238D01*
X-85999942Y-12125238D02*
X-85904704Y-12077619D01*
X-85904704Y-12077619D02*
X-85761847Y-12077619D01*
X-85761847Y-12077619D02*
X-85666609Y-12125238D01*
X-85666609Y-12125238D02*
X-85618990Y-12172857D01*
X-85618990Y-12172857D02*
X-85571371Y-12268095D01*
X-85571371Y-12268095D02*
X-85571371Y-12649047D01*
X-84999942Y-11887143D02*
X-84999942Y-11125238D01*
X-86095180Y-11029999D02*
X-86095180Y-10458571D01*
X-85095180Y-10744285D02*
X-86095180Y-10744285D01*
X-85618990Y-10125237D02*
X-85618990Y-9791904D01*
X-85095180Y-9649047D02*
X-85095180Y-10125237D01*
X-85095180Y-10125237D02*
X-86095180Y-10125237D01*
X-86095180Y-10125237D02*
X-86095180Y-9649047D01*
X-85095180Y-9220475D02*
X-86095180Y-9220475D01*
X-86095180Y-9220475D02*
X-85380895Y-8887142D01*
X-85380895Y-8887142D02*
X-86095180Y-8553809D01*
X-86095180Y-8553809D02*
X-85095180Y-8553809D01*
X-85095180Y-8077618D02*
X-86095180Y-8077618D01*
X-86095180Y-8077618D02*
X-86095180Y-7696666D01*
X-86095180Y-7696666D02*
X-86047561Y-7601428D01*
X-86047561Y-7601428D02*
X-85999942Y-7553809D01*
X-85999942Y-7553809D02*
X-85904704Y-7506190D01*
X-85904704Y-7506190D02*
X-85761847Y-7506190D01*
X-85761847Y-7506190D02*
X-85666609Y-7553809D01*
X-85666609Y-7553809D02*
X-85618990Y-7601428D01*
X-85618990Y-7601428D02*
X-85571371Y-7696666D01*
X-85571371Y-7696666D02*
X-85571371Y-8077618D01*
X-86095180Y-6887142D02*
X-86095180Y-6696666D01*
X-86095180Y-6696666D02*
X-86047561Y-6601428D01*
X-86047561Y-6601428D02*
X-85952323Y-6506190D01*
X-85952323Y-6506190D02*
X-85761847Y-6458571D01*
X-85761847Y-6458571D02*
X-85428514Y-6458571D01*
X-85428514Y-6458571D02*
X-85238038Y-6506190D01*
X-85238038Y-6506190D02*
X-85142800Y-6601428D01*
X-85142800Y-6601428D02*
X-85095180Y-6696666D01*
X-85095180Y-6696666D02*
X-85095180Y-6887142D01*
X-85095180Y-6887142D02*
X-85142800Y-6982380D01*
X-85142800Y-6982380D02*
X-85238038Y-7077618D01*
X-85238038Y-7077618D02*
X-85428514Y-7125237D01*
X-85428514Y-7125237D02*
X-85761847Y-7125237D01*
X-85761847Y-7125237D02*
X-85952323Y-7077618D01*
X-85952323Y-7077618D02*
X-86047561Y-6982380D01*
X-86047561Y-6982380D02*
X-86095180Y-6887142D01*
X-84999942Y-6268095D02*
X-84999942Y-5506190D01*
X-85618990Y-4934761D02*
X-85571371Y-4791904D01*
X-85571371Y-4791904D02*
X-85523752Y-4744285D01*
X-85523752Y-4744285D02*
X-85428514Y-4696666D01*
X-85428514Y-4696666D02*
X-85285657Y-4696666D01*
X-85285657Y-4696666D02*
X-85190419Y-4744285D01*
X-85190419Y-4744285D02*
X-85142800Y-4791904D01*
X-85142800Y-4791904D02*
X-85095180Y-4887142D01*
X-85095180Y-4887142D02*
X-85095180Y-5268094D01*
X-85095180Y-5268094D02*
X-86095180Y-5268094D01*
X-86095180Y-5268094D02*
X-86095180Y-4934761D01*
X-86095180Y-4934761D02*
X-86047561Y-4839523D01*
X-86047561Y-4839523D02*
X-85999942Y-4791904D01*
X-85999942Y-4791904D02*
X-85904704Y-4744285D01*
X-85904704Y-4744285D02*
X-85809466Y-4744285D01*
X-85809466Y-4744285D02*
X-85714228Y-4791904D01*
X-85714228Y-4791904D02*
X-85666609Y-4839523D01*
X-85666609Y-4839523D02*
X-85618990Y-4934761D01*
X-85618990Y-4934761D02*
X-85618990Y-5268094D01*
X-85095180Y-3744285D02*
X-85095180Y-4315713D01*
X-85095180Y-4029999D02*
X-86095180Y-4029999D01*
X-86095180Y-4029999D02*
X-85952323Y-4125237D01*
X-85952323Y-4125237D02*
X-85857085Y-4220475D01*
X-85857085Y-4220475D02*
X-85809466Y-4315713D01*
D11*
%TO.C,C1*%
X-5550000Y5465000D02*
X-5550000Y6995000D01*
X-3710000Y6995000D02*
X-3710000Y5465000D01*
D12*
%TO.C,ROTARY_ENCODER_BTN1*%
X-6250000Y26700000D02*
X-3700000Y26700000D01*
X-6250000Y23400000D02*
X-6250000Y26700000D01*
X-6250000Y16600000D02*
X-6250000Y13300000D01*
X-6250000Y13300000D02*
X-3700000Y13300000D01*
X3700000Y26700000D02*
X6250000Y26700000D01*
X3700000Y13300000D02*
X6250000Y13300000D01*
X6250000Y26700000D02*
X6250000Y23400000D01*
X6250000Y13300000D02*
X6250000Y16600000D01*
D13*
X-2400000Y28350000D02*
G75*
G02*
X-2600000Y28350000I-100000J0D01*
G01*
X-2600000Y28350000D02*
G75*
G02*
X-2400000Y28350000I100000J0D01*
G01*
D11*
%TO.C,C2*%
X3540000Y6135100D02*
X2000000Y6135100D01*
X3540000Y6095100D02*
X2000000Y6095100D01*
X3540000Y6055100D02*
X2001000Y6055100D01*
X3540000Y6015100D02*
X2003000Y6015100D01*
X3540000Y5975100D02*
X2005000Y5975100D01*
X3540000Y5935100D02*
X2008000Y5935100D01*
X3540000Y5895100D02*
X2011000Y5895100D01*
X3540000Y5855100D02*
X2015000Y5855100D01*
X3540000Y5815100D02*
X2020000Y5815100D01*
X3540000Y5775100D02*
X2025000Y5775100D01*
X3540000Y5735100D02*
X2031000Y5735100D01*
X3540000Y5695100D02*
X2037000Y5695100D01*
X3540000Y5655100D02*
X2044000Y5655100D01*
X3540000Y5615100D02*
X2052000Y5615100D01*
X3540000Y5575100D02*
X2061000Y5575100D01*
X3540000Y5535100D02*
X2070000Y5535100D01*
X3540000Y5495100D02*
X2079000Y5495100D01*
X3540000Y5455100D02*
X2090000Y5455100D01*
X3540000Y5415100D02*
X2101000Y5415100D01*
X3540000Y5375100D02*
X2113000Y5375100D01*
X3540000Y5335100D02*
X2125000Y5335100D01*
X3540000Y5295100D02*
X2138000Y5295100D01*
X3540000Y5255100D02*
X2152000Y5255100D01*
X3540000Y5215100D02*
X2167000Y5215100D01*
X3540000Y5175100D02*
X2182000Y5175100D01*
X3540000Y5135100D02*
X2198000Y5135100D01*
X3540000Y5095100D02*
X2215000Y5095100D01*
X3540000Y5055100D02*
X2233000Y5055100D01*
X3540000Y5015100D02*
X2251000Y5015100D01*
X3540000Y4975100D02*
X2271000Y4975100D01*
X3540000Y4935100D02*
X2291000Y4935100D01*
X3540000Y4895100D02*
X2312000Y4895100D01*
X3540000Y4855100D02*
X2334000Y4855100D01*
X3540000Y4815100D02*
X2357000Y4815100D01*
X3540000Y4775100D02*
X2381000Y4775100D01*
X3540000Y4735100D02*
X2405000Y4735100D01*
X3540000Y4695100D02*
X2431000Y4695100D01*
X3540000Y4655100D02*
X2458000Y4655100D01*
X3540000Y4615100D02*
X2486000Y4615100D01*
X3540000Y4575100D02*
X2515000Y4575100D01*
X3540000Y4535100D02*
X2545000Y4535100D01*
X3540000Y4495100D02*
X2577000Y4495100D01*
X3540000Y4455100D02*
X2610000Y4455100D01*
X3540000Y4415100D02*
X2644000Y4415100D01*
X3540000Y4375100D02*
X2679000Y4375100D01*
X3540000Y4335100D02*
X2716000Y4335100D01*
X3540000Y4295100D02*
X2755000Y4295100D01*
X3540000Y4255100D02*
X2795000Y4255100D01*
X3540000Y4215100D02*
X2837000Y4215100D01*
X3540000Y4175100D02*
X2881000Y4175100D01*
X3540000Y4135100D02*
X2928000Y4135100D01*
X4863000Y3535100D02*
X4297000Y3535100D01*
X5097000Y3575100D02*
X4063000Y3575100D01*
X5257000Y3615100D02*
X3903000Y3615100D01*
X5385000Y3655100D02*
X3775000Y3655100D01*
X5494000Y3695100D02*
X3666000Y3695100D01*
X5591000Y3735100D02*
X3569000Y3735100D01*
X5678000Y3775100D02*
X3482000Y3775100D01*
X5757000Y3815100D02*
X3403000Y3815100D01*
X5831000Y3855100D02*
X3329000Y3855100D01*
X5899000Y3895100D02*
X3261000Y3895100D01*
X5963000Y3935100D02*
X3197000Y3935100D01*
X6023000Y3975100D02*
X3137000Y3975100D01*
X6055000Y8939875D02*
X6055000Y8439875D01*
X6079000Y4015100D02*
X3081000Y4015100D01*
X6133000Y4055100D02*
X3027000Y4055100D01*
X6184000Y4095100D02*
X2976000Y4095100D01*
X6232000Y4135100D02*
X5620000Y4135100D01*
X6279000Y4175100D02*
X5620000Y4175100D01*
X6305000Y8689875D02*
X5805000Y8689875D01*
X6323000Y4215100D02*
X5620000Y4215100D01*
X6365000Y4255100D02*
X5620000Y4255100D01*
X6405000Y4295100D02*
X5620000Y4295100D01*
X6444000Y4335100D02*
X5620000Y4335100D01*
X6481000Y4375100D02*
X5620000Y4375100D01*
X6516000Y4415100D02*
X5620000Y4415100D01*
X6550000Y4455100D02*
X5620000Y4455100D01*
X6583000Y4495100D02*
X5620000Y4495100D01*
X6615000Y4535100D02*
X5620000Y4535100D01*
X6645000Y4575100D02*
X5620000Y4575100D01*
X6674000Y4615100D02*
X5620000Y4615100D01*
X6702000Y4655100D02*
X5620000Y4655100D01*
X6729000Y4695100D02*
X5620000Y4695100D01*
X6755000Y4735100D02*
X5620000Y4735100D01*
X6779000Y4775100D02*
X5620000Y4775100D01*
X6803000Y4815100D02*
X5620000Y4815100D01*
X6826000Y4855100D02*
X5620000Y4855100D01*
X6848000Y4895100D02*
X5620000Y4895100D01*
X6869000Y4935100D02*
X5620000Y4935100D01*
X6889000Y4975100D02*
X5620000Y4975100D01*
X6909000Y5015100D02*
X5620000Y5015100D01*
X6927000Y5055100D02*
X5620000Y5055100D01*
X6945000Y5095100D02*
X5620000Y5095100D01*
X6962000Y5135100D02*
X5620000Y5135100D01*
X6978000Y5175100D02*
X5620000Y5175100D01*
X6993000Y5215100D02*
X5620000Y5215100D01*
X7008000Y5255100D02*
X5620000Y5255100D01*
X7022000Y5295100D02*
X5620000Y5295100D01*
X7035000Y5335100D02*
X5620000Y5335100D01*
X7047000Y5375100D02*
X5620000Y5375100D01*
X7059000Y5415100D02*
X5620000Y5415100D01*
X7070000Y5455100D02*
X5620000Y5455100D01*
X7081000Y5495100D02*
X5620000Y5495100D01*
X7090000Y5535100D02*
X5620000Y5535100D01*
X7099000Y5575100D02*
X5620000Y5575100D01*
X7108000Y5615100D02*
X5620000Y5615100D01*
X7116000Y5655100D02*
X5620000Y5655100D01*
X7123000Y5695100D02*
X5620000Y5695100D01*
X7129000Y5735100D02*
X5620000Y5735100D01*
X7135000Y5775100D02*
X5620000Y5775100D01*
X7140000Y5815100D02*
X5620000Y5815100D01*
X7145000Y5855100D02*
X5620000Y5855100D01*
X7149000Y5895100D02*
X5620000Y5895100D01*
X7152000Y5935100D02*
X5620000Y5935100D01*
X7155000Y5975100D02*
X5620000Y5975100D01*
X7157000Y6015100D02*
X5620000Y6015100D01*
X7159000Y6055100D02*
X5620000Y6055100D01*
X7160000Y6135100D02*
X5620000Y6135100D01*
X7160000Y6095100D02*
X5620000Y6095100D01*
X7200000Y6135100D02*
G75*
G02*
X1960000Y6135100I-2620000J0D01*
G01*
X1960000Y6135100D02*
G75*
G02*
X7200000Y6135100I2620000J0D01*
G01*
%TO.C,BTN_B_LOOP_IN1*%
X36130000Y26650000D02*
X36130000Y28850000D01*
X36750000Y30870000D02*
X41750000Y30870000D01*
X36750000Y24630000D02*
X41750000Y24630000D01*
X42370000Y28850000D02*
X42370000Y26650000D01*
X41000000Y27750000D02*
G75*
G02*
X37500000Y27750000I-1750000J0D01*
G01*
X37500000Y27750000D02*
G75*
G02*
X41000000Y27750000I1750000J0D01*
G01*
D12*
%TO.C,FADER_TEMPO_A1*%
X73500000Y32000000D02*
X75030000Y32000000D01*
X73500000Y28695000D02*
X73500000Y32000000D01*
X73500000Y25505000D02*
X73500000Y-21505000D01*
X73500000Y-28000000D02*
X73500000Y-24695000D01*
X73500000Y-28000000D02*
X78530000Y-28000000D01*
X80970000Y32000000D02*
X82500000Y32000000D01*
X82500000Y32000000D02*
X82500000Y27495000D01*
X82500000Y24305000D02*
X82500000Y-20305000D01*
X82500000Y-23495000D02*
X82500000Y-28000000D01*
X82500000Y-28000000D02*
X80970000Y-28000000D01*
D13*
X79850000Y33150000D02*
G75*
G02*
X79650000Y33150000I-100000J0D01*
G01*
X79650000Y33150000D02*
G75*
G02*
X79850000Y33150000I100000J0D01*
G01*
D11*
%TO.C,R_PLAY_A1*%
X-9470000Y-17910000D02*
X-9140000Y-17910000D01*
X-9470000Y-24450000D02*
X-9470000Y-17910000D01*
X-9140000Y-24450000D02*
X-9470000Y-24450000D01*
X-7060000Y-24450000D02*
X-6730000Y-24450000D01*
X-6730000Y-17910000D02*
X-7060000Y-17910000D01*
X-6730000Y-24450000D02*
X-6730000Y-17910000D01*
D12*
%TO.C,FADER_CROSSFADER1*%
X-30000000Y-5500000D02*
X-25495000Y-5500000D01*
X-30000000Y-7030000D02*
X-30000000Y-5500000D01*
X-30000000Y-14500000D02*
X-30000000Y-12970000D01*
X-26695000Y-14500000D02*
X-30000000Y-14500000D01*
X-23505000Y-14500000D02*
X23505000Y-14500000D01*
X-22305000Y-5500000D02*
X22305000Y-5500000D01*
X25495000Y-5500000D02*
X30000000Y-5500000D01*
X30000000Y-5500000D02*
X30000000Y-7030000D01*
X30000000Y-14500000D02*
X26695000Y-14500000D01*
X30000000Y-14500000D02*
X30000000Y-9470000D01*
D13*
X-31050000Y-8250000D02*
G75*
G02*
X-31250000Y-8250000I-100000J0D01*
G01*
X-31250000Y-8250000D02*
G75*
G02*
X-31050000Y-8250000I100000J0D01*
G01*
D14*
%TO.C,ONDAAUDIO-LOGO*%
G36*
X27957704Y-31196860D02*
G01*
X27957704Y-31841530D01*
X27887098Y-31841530D01*
X27816491Y-31841530D01*
X27816491Y-31196860D01*
X27816491Y-30552190D01*
X27887098Y-30552190D01*
X27957704Y-30552190D01*
X27957704Y-31196860D01*
G37*
G36*
X25894760Y-29404063D02*
G01*
X25894760Y-30263623D01*
X25730288Y-30263623D01*
X25565816Y-30263623D01*
X25142410Y-29748135D01*
X24719005Y-29232646D01*
X24717435Y-29748135D01*
X24715865Y-30263623D01*
X24516359Y-30263623D01*
X24316853Y-30263623D01*
X24316853Y-29404063D01*
X24316853Y-28544503D01*
X24484161Y-28544853D01*
X24651468Y-28545202D01*
X25075108Y-29063128D01*
X25498748Y-29581053D01*
X25500318Y-29062778D01*
X25501888Y-28544503D01*
X25698324Y-28544503D01*
X25894760Y-28544503D01*
X25894760Y-29404063D01*
G37*
G36*
X24157301Y-30965086D02*
G01*
X24157336Y-31047064D01*
X24157423Y-31117756D01*
X24157586Y-31178154D01*
X24157852Y-31229249D01*
X24158245Y-31272036D01*
X24158790Y-31307505D01*
X24159514Y-31336651D01*
X24160441Y-31360464D01*
X24161596Y-31379939D01*
X24163004Y-31396067D01*
X24164692Y-31409841D01*
X24166683Y-31422254D01*
X24169003Y-31434297D01*
X24169255Y-31435524D01*
X24187870Y-31502214D01*
X24214508Y-31560052D01*
X24249540Y-31609786D01*
X24261807Y-31623308D01*
X24302921Y-31659984D01*
X24348209Y-31688061D01*
X24399147Y-31708072D01*
X24457208Y-31720548D01*
X24523867Y-31726024D01*
X24547093Y-31726384D01*
X24587263Y-31725872D01*
X24619004Y-31723929D01*
X24646120Y-31720174D01*
X24672417Y-31714226D01*
X24674884Y-31713567D01*
X24737937Y-31690873D01*
X24792663Y-31659179D01*
X24838857Y-31618699D01*
X24876311Y-31569646D01*
X24904817Y-31512233D01*
X24921107Y-31460156D01*
X24925391Y-31440905D01*
X24929091Y-31420228D01*
X24932248Y-31397128D01*
X24934903Y-31370611D01*
X24937097Y-31339681D01*
X24938871Y-31303344D01*
X24940264Y-31260604D01*
X24941317Y-31210465D01*
X24942072Y-31151933D01*
X24942569Y-31084012D01*
X24942847Y-31005707D01*
X24942946Y-30925177D01*
X24943104Y-30552190D01*
X25010641Y-30552190D01*
X25078178Y-30552190D01*
X25078161Y-30946666D01*
X25078103Y-31033898D01*
X25077907Y-31109877D01*
X25077524Y-31175629D01*
X25076909Y-31232182D01*
X25076015Y-31280561D01*
X25074793Y-31321792D01*
X25073197Y-31356903D01*
X25071180Y-31386919D01*
X25068696Y-31412868D01*
X25065696Y-31435775D01*
X25062134Y-31456666D01*
X25057962Y-31476568D01*
X25053135Y-31496508D01*
X25052913Y-31497374D01*
X25028463Y-31569224D01*
X24993847Y-31634699D01*
X24949815Y-31693055D01*
X24897113Y-31743547D01*
X24836491Y-31785430D01*
X24768697Y-31817960D01*
X24712865Y-31835960D01*
X24679542Y-31842448D01*
X24637537Y-31847364D01*
X24590361Y-31850600D01*
X24541522Y-31852042D01*
X24494532Y-31851580D01*
X24452900Y-31849103D01*
X24423326Y-31845138D01*
X24353828Y-31828260D01*
X24293074Y-31805268D01*
X24238505Y-31774846D01*
X24187562Y-31735679D01*
X24160000Y-31709772D01*
X24122210Y-31668270D01*
X24092021Y-31625953D01*
X24067673Y-31579672D01*
X24047404Y-31526277D01*
X24036102Y-31488174D01*
X24019450Y-31427099D01*
X24017426Y-30989644D01*
X24015402Y-30552190D01*
X24086312Y-30552190D01*
X24157221Y-30552190D01*
X24157301Y-30965086D01*
G37*
G36*
X29044089Y-28545956D02*
G01*
X29243290Y-28547573D01*
X29625829Y-29403135D01*
X29669208Y-29500169D01*
X29711201Y-29594134D01*
X29751536Y-29684419D01*
X29789941Y-29770415D01*
X29826144Y-29851513D01*
X29859875Y-29927103D01*
X29890860Y-29996575D01*
X29918828Y-30059319D01*
X29943507Y-30114727D01*
X29964626Y-30162188D01*
X29981913Y-30201092D01*
X29995095Y-30230831D01*
X30003902Y-30250795D01*
X30008062Y-30260374D01*
X30008369Y-30261160D01*
X30002463Y-30261735D01*
X29985683Y-30262254D01*
X29959432Y-30262702D01*
X29925116Y-30263064D01*
X29884138Y-30263323D01*
X29837904Y-30263464D01*
X29798084Y-30263482D01*
X29587799Y-30263340D01*
X29511922Y-30079290D01*
X29436045Y-29895240D01*
X29039164Y-29895365D01*
X28642282Y-29895489D01*
X28566155Y-30079556D01*
X28490028Y-30263623D01*
X28284752Y-30263623D01*
X28231330Y-30263462D01*
X28184362Y-30262997D01*
X28144917Y-30262258D01*
X28114068Y-30261274D01*
X28092885Y-30260075D01*
X28082441Y-30258691D01*
X28081522Y-30258033D01*
X28084212Y-30251884D01*
X28091629Y-30235133D01*
X28103500Y-30208394D01*
X28119551Y-30172281D01*
X28139510Y-30127407D01*
X28163102Y-30074386D01*
X28190056Y-30013832D01*
X28220097Y-29946358D01*
X28252953Y-29872579D01*
X28288350Y-29793106D01*
X28326015Y-29708556D01*
X28365675Y-29619540D01*
X28379615Y-29588255D01*
X28773459Y-29588255D01*
X29041033Y-29588255D01*
X29308606Y-29588255D01*
X29300386Y-29568301D01*
X29258513Y-29466746D01*
X29221044Y-29376066D01*
X29187765Y-29295758D01*
X29158460Y-29225319D01*
X29132913Y-29164246D01*
X29110911Y-29112037D01*
X29092237Y-29068189D01*
X29076677Y-29032199D01*
X29064015Y-29003564D01*
X29054035Y-28981782D01*
X29046524Y-28966349D01*
X29041266Y-28956764D01*
X29038045Y-28952523D01*
X29036840Y-28952541D01*
X29033425Y-28960070D01*
X29025855Y-28977658D01*
X29014667Y-29004014D01*
X29000399Y-29037849D01*
X28983587Y-29077874D01*
X28964769Y-29122799D01*
X28944480Y-29171334D01*
X28923259Y-29222191D01*
X28901643Y-29274078D01*
X28880167Y-29325708D01*
X28859370Y-29375789D01*
X28839789Y-29423034D01*
X28821960Y-29466151D01*
X28806420Y-29503853D01*
X28793707Y-29534848D01*
X28784357Y-29557848D01*
X28778908Y-29571562D01*
X28777796Y-29574590D01*
X28773459Y-29588255D01*
X28379615Y-29588255D01*
X28407056Y-29526673D01*
X28449887Y-29430568D01*
X28464228Y-29398391D01*
X28844887Y-28544339D01*
X29044089Y-28545956D01*
G37*
G36*
X26221700Y-30553759D02*
G01*
X26294400Y-30554285D01*
X26355942Y-30554793D01*
X26407448Y-30555328D01*
X26450039Y-30555936D01*
X26484838Y-30556666D01*
X26512965Y-30557562D01*
X26535542Y-30558671D01*
X26553691Y-30560040D01*
X26568533Y-30561715D01*
X26581190Y-30563742D01*
X26592783Y-30566168D01*
X26604434Y-30569039D01*
X26606967Y-30569696D01*
X26699127Y-30599092D01*
X26782551Y-30636830D01*
X26857021Y-30682664D01*
X26922320Y-30736349D01*
X26978230Y-30797640D01*
X27024532Y-30866293D01*
X27061009Y-30942062D01*
X27087442Y-31024702D01*
X27103615Y-31113968D01*
X27105350Y-31130013D01*
X27108686Y-31222169D01*
X27100620Y-31310480D01*
X27081603Y-31394319D01*
X27052084Y-31473060D01*
X27012510Y-31546077D01*
X26963333Y-31612741D01*
X26905001Y-31672428D01*
X26837962Y-31724511D01*
X26762667Y-31768362D01*
X26679564Y-31803357D01*
X26607359Y-31824652D01*
X26595231Y-31827455D01*
X26583030Y-31829833D01*
X26569630Y-31831829D01*
X26553905Y-31833488D01*
X26534730Y-31834855D01*
X26510980Y-31835973D01*
X26481530Y-31836888D01*
X26445253Y-31837642D01*
X26401025Y-31838282D01*
X26347721Y-31838851D01*
X26284214Y-31839394D01*
X26221700Y-31839866D01*
X25888620Y-31842293D01*
X25888620Y-31719477D01*
X26029834Y-31719477D01*
X26283097Y-31717284D01*
X26346119Y-31716705D01*
X26398197Y-31716118D01*
X26440669Y-31715454D01*
X26474869Y-31714643D01*
X26502134Y-31713618D01*
X26523799Y-31712309D01*
X26541201Y-31710646D01*
X26555676Y-31708563D01*
X26568560Y-31705989D01*
X26581189Y-31702855D01*
X26585478Y-31701700D01*
X26612348Y-31692999D01*
X26645052Y-31680378D01*
X26678657Y-31665817D01*
X26698156Y-31656495D01*
X26761547Y-31618480D01*
X26818585Y-31571632D01*
X26867779Y-31517528D01*
X26907635Y-31457748D01*
X26929987Y-31411402D01*
X26948827Y-31353481D01*
X26961771Y-31288474D01*
X26968411Y-31220281D01*
X26968339Y-31152800D01*
X26962651Y-31098624D01*
X26944437Y-31022766D01*
X26915601Y-30952595D01*
X26876690Y-30888702D01*
X26828255Y-30831676D01*
X26770845Y-30782110D01*
X26705008Y-30740593D01*
X26631294Y-30707716D01*
X26585478Y-30692932D01*
X26572747Y-30689503D01*
X26560354Y-30686672D01*
X26546963Y-30684368D01*
X26531241Y-30682518D01*
X26511853Y-30681050D01*
X26487466Y-30679892D01*
X26456746Y-30678974D01*
X26418357Y-30678222D01*
X26370967Y-30677564D01*
X26313240Y-30676929D01*
X26283097Y-30676628D01*
X26029834Y-30674135D01*
X26029834Y-31196806D01*
X26029834Y-31719477D01*
X25888620Y-31719477D01*
X25888620Y-31196860D01*
X25888620Y-31196806D01*
X25888620Y-30551426D01*
X26221700Y-30553759D01*
G37*
G36*
X22780180Y-30553539D02*
G01*
X22849982Y-30555260D01*
X23127892Y-31163091D01*
X23165484Y-31245310D01*
X23201876Y-31324901D01*
X23236714Y-31401092D01*
X23269645Y-31473109D01*
X23300314Y-31540179D01*
X23328369Y-31601529D01*
X23353455Y-31656385D01*
X23375219Y-31703974D01*
X23393308Y-31743522D01*
X23407367Y-31774257D01*
X23417043Y-31795404D01*
X23421982Y-31806191D01*
X23422084Y-31806413D01*
X23438366Y-31841904D01*
X23363478Y-31840182D01*
X23288590Y-31838460D01*
X23212302Y-31668034D01*
X23136013Y-31497609D01*
X22777235Y-31499192D01*
X22418457Y-31500776D01*
X22343057Y-31669618D01*
X22267657Y-31838460D01*
X22196316Y-31840190D01*
X22168370Y-31840482D01*
X22145558Y-31839985D01*
X22130288Y-31838805D01*
X22124962Y-31837120D01*
X22127464Y-31831018D01*
X22134758Y-31814457D01*
X22146525Y-31788141D01*
X22162446Y-31752775D01*
X22182200Y-31709064D01*
X22205468Y-31657713D01*
X22231930Y-31599426D01*
X22261266Y-31534908D01*
X22293156Y-31464865D01*
X22327280Y-31390001D01*
X22331388Y-31380998D01*
X22474939Y-31380998D01*
X22481058Y-31382601D01*
X22499336Y-31383969D01*
X22529656Y-31385098D01*
X22571898Y-31385987D01*
X22625946Y-31386634D01*
X22691682Y-31387035D01*
X22768987Y-31387189D01*
X22778855Y-31387191D01*
X22838639Y-31387105D01*
X22894526Y-31386860D01*
X22945348Y-31386472D01*
X22989936Y-31385957D01*
X23027122Y-31385333D01*
X23055737Y-31384616D01*
X23074614Y-31383823D01*
X23082584Y-31382971D01*
X23082771Y-31382818D01*
X23080348Y-31376779D01*
X23073432Y-31360717D01*
X23062548Y-31335816D01*
X23048225Y-31303260D01*
X23030989Y-31264231D01*
X23011368Y-31219912D01*
X22989888Y-31171489D01*
X22967077Y-31120142D01*
X22943461Y-31067057D01*
X22919569Y-31013416D01*
X22895926Y-30960404D01*
X22873060Y-30909202D01*
X22851498Y-30860995D01*
X22831767Y-30816966D01*
X22814394Y-30778298D01*
X22799907Y-30746175D01*
X22788832Y-30721780D01*
X22781697Y-30706297D01*
X22779052Y-30700925D01*
X22776307Y-30705959D01*
X22769120Y-30721052D01*
X22758013Y-30745031D01*
X22743512Y-30776724D01*
X22726139Y-30814959D01*
X22706420Y-30858566D01*
X22684878Y-30906371D01*
X22662037Y-30957202D01*
X22638421Y-31009889D01*
X22614555Y-31063259D01*
X22590962Y-31116140D01*
X22568166Y-31167360D01*
X22546692Y-31215747D01*
X22527063Y-31260130D01*
X22509803Y-31299337D01*
X22495437Y-31332196D01*
X22484489Y-31357534D01*
X22477482Y-31374181D01*
X22474941Y-31380963D01*
X22474939Y-31380998D01*
X22331388Y-31380998D01*
X22363319Y-31311021D01*
X22400952Y-31228629D01*
X22417663Y-31192069D01*
X22710377Y-30551819D01*
X22780180Y-30553539D01*
G37*
G36*
X26743576Y-28544623D02*
G01*
X26834822Y-28544701D01*
X26914629Y-28544891D01*
X26983836Y-28545208D01*
X27043282Y-28545666D01*
X27093806Y-28546280D01*
X27136248Y-28547065D01*
X27171447Y-28548033D01*
X27200243Y-28549200D01*
X27223474Y-28550581D01*
X27241981Y-28552189D01*
X27251637Y-28553331D01*
X27356969Y-28572630D01*
X27457244Y-28601529D01*
X27551711Y-28639542D01*
X27639618Y-28686180D01*
X27720216Y-28740958D01*
X27792752Y-28803388D01*
X27856475Y-28872983D01*
X27910636Y-28949256D01*
X27938650Y-28998842D01*
X27968296Y-29061417D01*
X27991192Y-29121621D01*
X28008082Y-29182508D01*
X28019713Y-29247129D01*
X28026831Y-29318537D01*
X28029399Y-29370295D01*
X28029447Y-29461483D01*
X28022771Y-29544539D01*
X28008901Y-29621898D01*
X27987367Y-29695996D01*
X27957700Y-29769266D01*
X27948775Y-29788113D01*
X27900695Y-29873079D01*
X27842887Y-29950932D01*
X27775942Y-30021220D01*
X27700449Y-30083488D01*
X27616997Y-30137284D01*
X27526175Y-30182155D01*
X27428574Y-30217646D01*
X27369129Y-30233747D01*
X27345940Y-30239132D01*
X27323890Y-30243825D01*
X27301981Y-30247874D01*
X27279214Y-30251327D01*
X27254589Y-30254230D01*
X27227108Y-30256632D01*
X27195771Y-30258579D01*
X27159581Y-30260120D01*
X27117537Y-30261302D01*
X27068641Y-30262172D01*
X27011894Y-30262778D01*
X26946298Y-30263167D01*
X26870852Y-30263388D01*
X26784558Y-30263486D01*
X26743576Y-30263503D01*
X26299981Y-30263623D01*
X26299981Y-29932079D01*
X26699063Y-29932079D01*
X26925554Y-29932079D01*
X26989366Y-29931971D01*
X27042262Y-29931616D01*
X27085607Y-29930968D01*
X27120763Y-29929979D01*
X27149093Y-29928601D01*
X27171959Y-29926788D01*
X27190726Y-29924492D01*
X27202541Y-29922500D01*
X27280452Y-29902521D01*
X27352083Y-29873597D01*
X27416388Y-29836320D01*
X27472321Y-29791282D01*
X27512786Y-29746974D01*
X27556566Y-29681448D01*
X27589754Y-29610010D01*
X27612179Y-29533241D01*
X27623670Y-29451723D01*
X27624128Y-29367234D01*
X27613980Y-29285054D01*
X27593601Y-29208813D01*
X27563334Y-29139047D01*
X27523522Y-29076291D01*
X27474508Y-29021081D01*
X27416633Y-28973951D01*
X27350240Y-28935437D01*
X27346803Y-28933794D01*
X27320224Y-28921379D01*
X27296649Y-28911047D01*
X27274618Y-28902594D01*
X27252668Y-28895814D01*
X27229338Y-28890503D01*
X27203168Y-28886457D01*
X27172695Y-28883471D01*
X27136458Y-28881340D01*
X27092996Y-28879860D01*
X27040848Y-28878825D01*
X26978553Y-28878032D01*
X26946186Y-28877693D01*
X26699063Y-28875181D01*
X26699063Y-29403630D01*
X26699063Y-29932079D01*
X26299981Y-29932079D01*
X26299981Y-29404063D01*
X26299981Y-29403630D01*
X26299981Y-28544503D01*
X26743576Y-28544623D01*
G37*
G36*
X29419150Y-30543573D02*
G01*
X29505990Y-30557612D01*
X29589365Y-30581562D01*
X29668230Y-30615081D01*
X29741543Y-30657826D01*
X29808258Y-30709456D01*
X29867332Y-30769628D01*
X29899260Y-30810510D01*
X29944497Y-30883188D01*
X29978764Y-30959372D01*
X30002475Y-31040290D01*
X30016041Y-31127169D01*
X30018834Y-31166161D01*
X30018444Y-31251130D01*
X30008288Y-31330633D01*
X29987795Y-31407346D01*
X29956389Y-31483945D01*
X29946533Y-31503846D01*
X29901441Y-31578831D01*
X29847268Y-31645904D01*
X29784731Y-31704555D01*
X29714543Y-31754274D01*
X29637422Y-31794554D01*
X29554083Y-31824884D01*
X29467905Y-31844328D01*
X29428663Y-31848977D01*
X29382132Y-31851817D01*
X29332664Y-31852800D01*
X29284610Y-31851876D01*
X29242323Y-31848998D01*
X29226076Y-31847015D01*
X29143165Y-31829132D01*
X29061493Y-31800386D01*
X28983517Y-31761938D01*
X28911695Y-31714951D01*
X28864719Y-31676071D01*
X28815693Y-31624149D01*
X28770988Y-31563094D01*
X28732300Y-31495768D01*
X28701325Y-31425034D01*
X28684159Y-31371403D01*
X28678249Y-31348289D01*
X28673955Y-31328003D01*
X28671018Y-31307818D01*
X28669183Y-31285004D01*
X28668190Y-31256833D01*
X28667785Y-31220576D01*
X28667720Y-31196860D01*
X28667748Y-31184536D01*
X28802178Y-31184536D01*
X28805575Y-31258257D01*
X28820014Y-31337169D01*
X28845103Y-31411180D01*
X28880067Y-31479454D01*
X28924131Y-31541156D01*
X28976521Y-31595449D01*
X29036464Y-31641497D01*
X29103184Y-31678464D01*
X29175908Y-31705514D01*
X29231695Y-31718405D01*
X29278322Y-31725600D01*
X29318251Y-31729215D01*
X29356480Y-31729411D01*
X29398007Y-31726350D01*
X29415887Y-31724343D01*
X29495886Y-31708944D01*
X29570187Y-31683099D01*
X29638121Y-31647565D01*
X29699020Y-31603098D01*
X29752218Y-31550454D01*
X29797045Y-31490389D01*
X29832836Y-31423658D01*
X29858921Y-31351019D01*
X29874634Y-31273227D01*
X29879354Y-31199522D01*
X29873911Y-31115588D01*
X29857407Y-31036866D01*
X29829918Y-30963528D01*
X29791520Y-30895744D01*
X29742291Y-30833688D01*
X29696685Y-30789598D01*
X29656671Y-30759788D01*
X29608347Y-30731498D01*
X29555676Y-30706698D01*
X29502619Y-30687363D01*
X29477284Y-30680384D01*
X29421733Y-30670746D01*
X29360197Y-30666470D01*
X29297428Y-30667557D01*
X29238178Y-30674010D01*
X29207136Y-30680252D01*
X29129760Y-30705086D01*
X29059095Y-30739713D01*
X28995732Y-30783278D01*
X28940267Y-30834928D01*
X28893293Y-30893808D01*
X28855404Y-30959063D01*
X28827192Y-31029839D01*
X28809253Y-31105282D01*
X28802178Y-31184536D01*
X28667748Y-31184536D01*
X28667814Y-31155178D01*
X28668374Y-31123088D01*
X28669645Y-31097905D01*
X28671871Y-31076944D01*
X28675299Y-31057520D01*
X28680173Y-31036947D01*
X28683431Y-31024639D01*
X28712183Y-30941086D01*
X28751323Y-30863243D01*
X28800026Y-30791928D01*
X28857464Y-30727959D01*
X28922811Y-30672155D01*
X28995241Y-30625334D01*
X29073927Y-30588314D01*
X29148276Y-30564344D01*
X29239249Y-30546597D01*
X29329888Y-30539787D01*
X29419150Y-30543573D01*
G37*
G36*
X23181684Y-28388562D02*
G01*
X23234167Y-28391619D01*
X23280349Y-28396348D01*
X23313917Y-28402002D01*
X23422617Y-28431623D01*
X23525681Y-28471734D01*
X23622520Y-28521809D01*
X23712543Y-28581318D01*
X23795162Y-28649734D01*
X23869787Y-28726527D01*
X23935829Y-28811171D01*
X23992698Y-28903136D01*
X24039804Y-29001893D01*
X24067516Y-29077439D01*
X24081516Y-29122549D01*
X24092233Y-29162145D01*
X24100075Y-29199139D01*
X24105454Y-29236441D01*
X24108779Y-29276965D01*
X24110460Y-29323623D01*
X24110907Y-29379324D01*
X24110899Y-29385644D01*
X24110185Y-29445416D01*
X24107978Y-29495945D01*
X24103816Y-29540224D01*
X24097237Y-29581246D01*
X24087779Y-29622003D01*
X24074980Y-29665488D01*
X24061481Y-29705816D01*
X24019278Y-29809131D01*
X23967089Y-29905676D01*
X23905492Y-29994941D01*
X23835063Y-30076420D01*
X23756381Y-30149602D01*
X23670021Y-30213980D01*
X23576562Y-30269045D01*
X23476580Y-30314288D01*
X23370653Y-30349202D01*
X23316080Y-30362531D01*
X23289239Y-30367635D01*
X23260737Y-30371429D01*
X23227931Y-30374128D01*
X23188178Y-30375950D01*
X23138835Y-30377110D01*
X23138028Y-30377123D01*
X23099402Y-30377589D01*
X23063654Y-30377723D01*
X23033119Y-30377538D01*
X23010129Y-30377051D01*
X22997017Y-30376274D01*
X22996815Y-30376248D01*
X22899248Y-30358087D01*
X22801247Y-30329609D01*
X22705776Y-30291944D01*
X22615802Y-30246219D01*
X22554356Y-30207759D01*
X22465632Y-30139739D01*
X22423889Y-30099832D01*
X22895509Y-30099832D01*
X22941557Y-30111048D01*
X23019131Y-30126217D01*
X23093581Y-30132582D01*
X23169971Y-30130491D01*
X23193286Y-30128345D01*
X23286970Y-30112382D01*
X23378283Y-30084671D01*
X23465839Y-30045705D01*
X23528523Y-30009186D01*
X23568043Y-29980381D01*
X23610506Y-29943916D01*
X23653123Y-29902628D01*
X23693102Y-29859351D01*
X23727653Y-29816922D01*
X23751028Y-29783062D01*
X23796653Y-29697968D01*
X23830795Y-29609580D01*
X23853463Y-29518867D01*
X23864666Y-29426793D01*
X23864415Y-29334326D01*
X23852718Y-29242430D01*
X23829585Y-29152073D01*
X23795025Y-29064221D01*
X23749048Y-28979839D01*
X23743151Y-28970591D01*
X23714346Y-28931071D01*
X23677881Y-28888607D01*
X23636593Y-28845991D01*
X23593316Y-28806012D01*
X23550887Y-28771461D01*
X23517027Y-28748085D01*
X23435895Y-28704598D01*
X23350211Y-28671115D01*
X23261563Y-28647894D01*
X23171539Y-28635194D01*
X23081728Y-28633270D01*
X22993715Y-28642381D01*
X22938487Y-28654273D01*
X22895509Y-28665558D01*
X22926208Y-28669905D01*
X22998959Y-28684478D01*
X23073566Y-28707233D01*
X23146108Y-28736677D01*
X23212662Y-28771314D01*
X23243202Y-28790612D01*
X23283028Y-28820952D01*
X23325396Y-28858938D01*
X23367139Y-28901347D01*
X23405088Y-28944955D01*
X23436073Y-28986539D01*
X23436640Y-28987389D01*
X23479243Y-29058573D01*
X23511459Y-29129506D01*
X23534118Y-29202813D01*
X23548048Y-29281116D01*
X23553808Y-29358015D01*
X23554820Y-29402131D01*
X23554336Y-29437569D01*
X23552186Y-29467860D01*
X23548196Y-29496535D01*
X23546611Y-29505368D01*
X23523033Y-29598254D01*
X23487982Y-29686836D01*
X23441631Y-29770695D01*
X23425949Y-29794291D01*
X23402538Y-29824574D01*
X23372000Y-29858912D01*
X23337300Y-29894376D01*
X23301404Y-29928036D01*
X23267279Y-29956964D01*
X23243202Y-29974760D01*
X23179172Y-30012388D01*
X23107217Y-30045204D01*
X23031232Y-30071728D01*
X22955111Y-30090477D01*
X22926208Y-30095364D01*
X22895509Y-30099832D01*
X22423889Y-30099832D01*
X22386025Y-30063634D01*
X22315844Y-29979911D01*
X22255395Y-29889037D01*
X22204986Y-29791481D01*
X22164924Y-29687709D01*
X22135516Y-29578190D01*
X22133137Y-29566766D01*
X22131725Y-29557301D01*
X22487134Y-29557301D01*
X22504061Y-29561035D01*
X22518685Y-29564593D01*
X22527127Y-29567120D01*
X22540263Y-29568380D01*
X22560853Y-29566505D01*
X22584692Y-29562207D01*
X22607571Y-29556197D01*
X22621049Y-29551228D01*
X22661794Y-29527420D01*
X22692981Y-29496015D01*
X22715033Y-29456510D01*
X22723975Y-29429031D01*
X22729750Y-29383059D01*
X22723860Y-29338462D01*
X22706918Y-29296908D01*
X22679535Y-29260064D01*
X22653719Y-29237406D01*
X22629338Y-29223667D01*
X22599135Y-29212573D01*
X22567803Y-29205389D01*
X22540032Y-29203380D01*
X22530992Y-29204305D01*
X22508075Y-29208611D01*
X22496098Y-29212898D01*
X22493945Y-29219482D01*
X22500499Y-29230678D01*
X22511479Y-29244785D01*
X22539310Y-29289305D01*
X22555914Y-29337132D01*
X22561292Y-29386604D01*
X22555444Y-29436059D01*
X22538372Y-29483833D01*
X22511289Y-29526743D01*
X22487134Y-29557301D01*
X22131725Y-29557301D01*
X22127487Y-29528891D01*
X22123623Y-29481945D01*
X22121524Y-29429004D01*
X22121166Y-29373140D01*
X22122527Y-29317429D01*
X22125584Y-29264946D01*
X22130313Y-29218765D01*
X22135967Y-29185196D01*
X22165724Y-29076068D01*
X22205992Y-28972789D01*
X22212346Y-28960533D01*
X22632511Y-28960533D01*
X22668844Y-28971029D01*
X22734899Y-28996267D01*
X22794823Y-29031458D01*
X22847772Y-29075472D01*
X22892904Y-29127181D01*
X22929375Y-29185452D01*
X22956342Y-29249158D01*
X22972960Y-29317169D01*
X22978396Y-29385644D01*
X22972578Y-29458746D01*
X22955452Y-29527659D01*
X22927508Y-29591598D01*
X22889236Y-29649776D01*
X22841127Y-29701406D01*
X22783671Y-29745704D01*
X22737164Y-29772428D01*
X22712475Y-29784100D01*
X22689241Y-29793757D01*
X22671561Y-29799728D01*
X22668146Y-29800516D01*
X22654341Y-29804393D01*
X22651292Y-29809128D01*
X22659370Y-29815103D01*
X22678949Y-29822697D01*
X22694745Y-29827700D01*
X22755971Y-29842978D01*
X22813131Y-29849906D01*
X22870764Y-29848900D01*
X22896966Y-29846111D01*
X22971197Y-29830521D01*
X23040447Y-29803715D01*
X23104582Y-29765762D01*
X23163466Y-29716729D01*
X23171797Y-29708463D01*
X23219429Y-29653300D01*
X23256115Y-29594915D01*
X23282700Y-29531543D01*
X23300025Y-29461416D01*
X23304718Y-29429726D01*
X23307181Y-29360461D01*
X23298213Y-29291325D01*
X23278583Y-29223844D01*
X23249060Y-29159540D01*
X23210413Y-29099937D01*
X23163412Y-29046561D01*
X23108824Y-29000933D01*
X23078354Y-28981163D01*
X23013026Y-28949462D01*
X22943179Y-28928195D01*
X22870741Y-28917493D01*
X22797641Y-28917493D01*
X22725808Y-28928327D01*
X22657169Y-28950130D01*
X22653495Y-28951662D01*
X22632511Y-28960533D01*
X22212346Y-28960533D01*
X22256226Y-28875899D01*
X22315880Y-28785938D01*
X22384405Y-28703445D01*
X22423495Y-28665558D01*
X22461258Y-28628958D01*
X22545890Y-28563018D01*
X22637755Y-28506163D01*
X22736308Y-28458933D01*
X22841002Y-28421867D01*
X22932348Y-28399172D01*
X22970222Y-28393522D01*
X23017168Y-28389658D01*
X23070110Y-28387559D01*
X23125973Y-28387201D01*
X23181684Y-28388562D01*
G37*
D11*
%TO.C,BTN_A_LOOP_IN1*%
X-53870000Y26650000D02*
X-53870000Y28850000D01*
X-53250000Y30870000D02*
X-48250000Y30870000D01*
X-53250000Y24630000D02*
X-48250000Y24630000D01*
X-47630000Y28850000D02*
X-47630000Y26650000D01*
X-49000000Y27750000D02*
G75*
G02*
X-52500000Y27750000I-1750000J0D01*
G01*
X-52500000Y27750000D02*
G75*
G02*
X-49000000Y27750000I1750000J0D01*
G01*
%TO.C,R_LOAD_A1*%
X-3470000Y-18060000D02*
X-3140000Y-18060000D01*
X-3470000Y-24600000D02*
X-3470000Y-18060000D01*
X-3140000Y-24600000D02*
X-3470000Y-24600000D01*
X-1060000Y-24600000D02*
X-730000Y-24600000D01*
X-730000Y-18060000D02*
X-1060000Y-18060000D01*
X-730000Y-24600000D02*
X-730000Y-18060000D01*
%TO.C,BTN_B_LOOP_OUT1*%
X48130000Y26650000D02*
X48130000Y28850000D01*
X48750000Y30870000D02*
X53750000Y30870000D01*
X48750000Y24630000D02*
X53750000Y24630000D01*
X54370000Y28850000D02*
X54370000Y26650000D01*
X53000000Y27750000D02*
G75*
G02*
X49500000Y27750000I-1750000J0D01*
G01*
X49500000Y27750000D02*
G75*
G02*
X53000000Y27750000I1750000J0D01*
G01*
%TO.C,BTN_A_LOOP_OUT1*%
X-41870000Y26650000D02*
X-41870000Y28850000D01*
X-41250000Y30870000D02*
X-36250000Y30870000D01*
X-41250000Y24630000D02*
X-36250000Y24630000D01*
X-35630000Y28850000D02*
X-35630000Y26650000D01*
X-37000000Y27750000D02*
G75*
G02*
X-40500000Y27750000I-1750000J0D01*
G01*
X-40500000Y27750000D02*
G75*
G02*
X-37000000Y27750000I1750000J0D01*
G01*
%TO.C,R_LOAD_B1*%
X2530000Y-18060000D02*
X2860000Y-18060000D01*
X2530000Y-24600000D02*
X2530000Y-18060000D01*
X2860000Y-24600000D02*
X2530000Y-24600000D01*
X4940000Y-24600000D02*
X5270000Y-24600000D01*
X5270000Y-18060000D02*
X4940000Y-18060000D01*
X5270000Y-24600000D02*
X5270000Y-18060000D01*
D14*
%TO.C,FADETUBE-LOGO*%
G36*
X17615987Y-29677251D02*
G01*
X17615987Y-29760722D01*
X17461411Y-29760722D01*
X17306834Y-29760722D01*
X17306834Y-30184262D01*
X17306834Y-30607801D01*
X17198631Y-30607801D01*
X17090427Y-30607801D01*
X17090427Y-30184262D01*
X17090427Y-29760722D01*
X16938942Y-29760722D01*
X16787458Y-29760722D01*
X16787458Y-29677251D01*
X16787458Y-29593780D01*
X17201722Y-29593780D01*
X17615987Y-29593780D01*
X17615987Y-29677251D01*
G37*
G36*
X18203378Y-30230485D02*
G01*
X18203378Y-30607801D01*
X18104449Y-30607801D01*
X18005520Y-30607801D01*
X18005520Y-30573801D01*
X18005520Y-30539800D01*
X17969945Y-30567426D01*
X17945778Y-30583851D01*
X17918807Y-30598705D01*
X17898544Y-30607379D01*
X17858171Y-30617404D01*
X17812258Y-30622684D01*
X17766867Y-30622749D01*
X17739912Y-30619666D01*
X17688242Y-30605120D01*
X17644158Y-30581247D01*
X17608259Y-30548470D01*
X17581928Y-30508769D01*
X17574257Y-30493189D01*
X17567835Y-30478515D01*
X17562553Y-30463511D01*
X17558299Y-30446941D01*
X17554963Y-30427569D01*
X17552433Y-30404157D01*
X17550599Y-30375468D01*
X17549349Y-30340268D01*
X17548573Y-30297318D01*
X17548159Y-30245382D01*
X17547997Y-30183225D01*
X17547974Y-30130407D01*
X17547974Y-29853468D01*
X17649994Y-29853468D01*
X17752014Y-29853468D01*
X17752014Y-30118029D01*
X17752027Y-30182139D01*
X17752104Y-30235089D01*
X17752301Y-30278087D01*
X17752678Y-30312339D01*
X17753290Y-30339053D01*
X17754196Y-30359436D01*
X17755453Y-30374694D01*
X17757119Y-30386035D01*
X17759251Y-30394665D01*
X17761907Y-30401791D01*
X17765143Y-30408621D01*
X17765926Y-30410179D01*
X17783002Y-30434690D01*
X17805936Y-30450353D01*
X17836535Y-30458111D01*
X17860218Y-30459364D01*
X17899008Y-30456939D01*
X17929434Y-30448995D01*
X17954682Y-30434432D01*
X17968758Y-30421973D01*
X17993024Y-30397707D01*
X17994634Y-30127133D01*
X17996245Y-29856560D01*
X18099811Y-29854864D01*
X18203378Y-29853169D01*
X18203378Y-30230485D01*
G37*
G36*
X16144420Y-30072967D02*
G01*
X16144420Y-30607801D01*
X16052395Y-30607801D01*
X16015329Y-30607754D01*
X15988846Y-30607043D01*
X15971166Y-30604809D01*
X15960506Y-30600196D01*
X15955086Y-30592345D01*
X15953124Y-30580401D01*
X15952840Y-30563506D01*
X15952829Y-30559882D01*
X15951767Y-30546196D01*
X15949294Y-30539843D01*
X15949016Y-30539787D01*
X15942863Y-30543618D01*
X15930367Y-30553646D01*
X15914710Y-30567279D01*
X15874964Y-30594996D01*
X15828487Y-30613778D01*
X15777621Y-30623091D01*
X15724708Y-30622403D01*
X15694609Y-30617350D01*
X15641196Y-30599222D01*
X15594259Y-30570585D01*
X15553852Y-30531494D01*
X15520026Y-30482008D01*
X15492835Y-30422182D01*
X15481351Y-30387061D01*
X15476085Y-30367409D01*
X15472316Y-30348718D01*
X15469807Y-30328318D01*
X15468320Y-30303540D01*
X15467619Y-30271713D01*
X15467528Y-30247237D01*
X15671260Y-30247237D01*
X15672489Y-30286136D01*
X15675269Y-30320915D01*
X15679586Y-30348458D01*
X15683009Y-30360479D01*
X15702031Y-30400264D01*
X15724898Y-30429942D01*
X15747143Y-30446613D01*
X15776068Y-30456289D01*
X15810587Y-30459475D01*
X15845777Y-30456183D01*
X15876716Y-30446431D01*
X15877152Y-30446221D01*
X15898302Y-30432389D01*
X15917782Y-30413961D01*
X15922385Y-30408195D01*
X15940379Y-30383356D01*
X15940379Y-30229686D01*
X15940379Y-30076017D01*
X15911009Y-30045740D01*
X15884015Y-30022306D01*
X15859012Y-30009316D01*
X15856907Y-30008696D01*
X15813977Y-30002248D01*
X15775384Y-30007230D01*
X15741726Y-30023289D01*
X15713599Y-30050067D01*
X15691603Y-30087210D01*
X15682074Y-30112762D01*
X15676987Y-30136981D01*
X15673497Y-30169544D01*
X15671592Y-30207334D01*
X15671260Y-30247237D01*
X15467528Y-30247237D01*
X15467467Y-30230635D01*
X15468495Y-30173979D01*
X15471812Y-30126930D01*
X15477932Y-30086854D01*
X15487365Y-30051120D01*
X15500624Y-30017097D01*
X15514406Y-29989196D01*
X15547554Y-29938559D01*
X15587301Y-29898319D01*
X15633268Y-29868688D01*
X15685079Y-29849879D01*
X15742355Y-29842105D01*
X15775350Y-29842564D01*
X15823186Y-29848925D01*
X15863753Y-29862355D01*
X15900764Y-29884240D01*
X15913608Y-29894190D01*
X15940379Y-29916127D01*
X15940379Y-29727129D01*
X15940379Y-29538132D01*
X16042399Y-29538132D01*
X16144420Y-29538132D01*
X16144420Y-30072967D01*
G37*
G36*
X16571818Y-29845940D02*
G01*
X16632633Y-29860472D01*
X16685916Y-29884808D01*
X16731694Y-29918964D01*
X16769991Y-29962957D01*
X16800834Y-30016805D01*
X16814435Y-30050089D01*
X16826428Y-30092100D01*
X16835504Y-30141461D01*
X16841006Y-30193364D01*
X16842281Y-30243000D01*
X16841970Y-30252275D01*
X16840014Y-30295557D01*
X16600320Y-30297175D01*
X16360627Y-30298794D01*
X16364564Y-30315724D01*
X16381109Y-30362678D01*
X16406408Y-30401390D01*
X16439432Y-30431180D01*
X16479152Y-30451368D01*
X16524538Y-30461275D01*
X16574561Y-30460221D01*
X16581820Y-30459169D01*
X16625551Y-30448455D01*
X16662912Y-30430286D01*
X16698575Y-30402389D01*
X16698603Y-30402363D01*
X16725997Y-30377112D01*
X16770639Y-30425328D01*
X16789497Y-30445933D01*
X16805300Y-30463642D01*
X16816073Y-30476213D01*
X16819632Y-30480873D01*
X16819346Y-30491740D01*
X16809670Y-30506628D01*
X16792360Y-30524202D01*
X16769173Y-30543126D01*
X16741864Y-30562066D01*
X16712191Y-30579687D01*
X16681909Y-30594654D01*
X16657509Y-30604124D01*
X16612214Y-30615351D01*
X16560839Y-30621991D01*
X16508961Y-30623595D01*
X16463037Y-30619851D01*
X16395514Y-30603642D01*
X16335001Y-30577453D01*
X16282033Y-30541761D01*
X16237149Y-30497047D01*
X16200884Y-30443789D01*
X16173774Y-30382466D01*
X16165095Y-30353849D01*
X16158830Y-30319472D01*
X16155399Y-30276954D01*
X16154754Y-30230182D01*
X16156844Y-30183040D01*
X16161367Y-30141720D01*
X16366534Y-30141720D01*
X16370429Y-30148559D01*
X16380440Y-30152890D01*
X16397833Y-30155278D01*
X16423871Y-30156288D01*
X16459816Y-30156486D01*
X16503902Y-30156438D01*
X16640794Y-30156438D01*
X16637254Y-30122140D01*
X16627929Y-30080787D01*
X16609618Y-30047716D01*
X16582785Y-30023392D01*
X16547891Y-30008279D01*
X16519174Y-30003449D01*
X16478208Y-30004971D01*
X16443536Y-30016840D01*
X16414732Y-30039349D01*
X16391371Y-30072795D01*
X16378921Y-30100491D01*
X16372044Y-30118251D01*
X16367494Y-30131805D01*
X16366534Y-30141720D01*
X16161367Y-30141720D01*
X16161620Y-30139413D01*
X16168248Y-30106086D01*
X16190967Y-30041340D01*
X16222584Y-29984646D01*
X16262395Y-29936562D01*
X16309695Y-29897644D01*
X16363778Y-29868450D01*
X16423940Y-29849536D01*
X16489476Y-29841460D01*
X16503447Y-29841193D01*
X16571818Y-29845940D01*
G37*
G36*
X14883076Y-29677251D02*
G01*
X14883076Y-29760722D01*
X14657394Y-29760722D01*
X14431713Y-29760722D01*
X14431713Y-29893658D01*
X14431713Y-30026594D01*
X14632147Y-30026594D01*
X14690191Y-30026701D01*
X14736879Y-30027050D01*
X14773222Y-30027678D01*
X14800227Y-30028623D01*
X14818905Y-30029924D01*
X14830265Y-30031619D01*
X14835316Y-30033747D01*
X14835700Y-30034323D01*
X14838409Y-30036355D01*
X14839306Y-30031025D01*
X14843792Y-30013701D01*
X14854656Y-29990948D01*
X14869788Y-29966333D01*
X14887079Y-29943422D01*
X14898263Y-29931340D01*
X14940367Y-29898523D01*
X14990570Y-29872783D01*
X15046636Y-29854402D01*
X15106332Y-29843663D01*
X15167424Y-29840847D01*
X15227679Y-29846236D01*
X15284861Y-29860112D01*
X15326464Y-29877296D01*
X15363238Y-29901294D01*
X15397181Y-29933447D01*
X15424942Y-29970141D01*
X15440450Y-30000336D01*
X15444017Y-30009715D01*
X15446955Y-30019071D01*
X15449346Y-30029714D01*
X15451275Y-30042953D01*
X15452823Y-30060097D01*
X15454074Y-30082456D01*
X15455112Y-30111339D01*
X15456019Y-30148054D01*
X15456879Y-30193913D01*
X15457775Y-30250222D01*
X15458223Y-30280099D01*
X15459174Y-30341897D01*
X15460063Y-30392656D01*
X15460972Y-30433703D01*
X15461981Y-30466366D01*
X15463171Y-30491971D01*
X15464622Y-30511844D01*
X15466416Y-30527314D01*
X15468634Y-30539706D01*
X15471355Y-30550348D01*
X15474662Y-30560566D01*
X15475437Y-30562779D01*
X15482361Y-30582847D01*
X15487253Y-30597909D01*
X15489015Y-30604515D01*
X15483168Y-30605595D01*
X15466967Y-30606527D01*
X15442424Y-30607245D01*
X15411553Y-30607688D01*
X15384383Y-30607801D01*
X15279751Y-30607801D01*
X15272618Y-30584615D01*
X15267257Y-30567289D01*
X15263165Y-30554239D01*
X15262666Y-30552678D01*
X15258342Y-30549394D01*
X15249052Y-30554741D01*
X15239950Y-30562848D01*
X15208940Y-30585990D01*
X15170296Y-30605151D01*
X15128621Y-30618129D01*
X15121285Y-30619614D01*
X15091010Y-30624267D01*
X15065427Y-30625391D01*
X15038987Y-30622852D01*
X15007700Y-30616854D01*
X14953011Y-30599824D01*
X14907217Y-30574301D01*
X14870023Y-30540068D01*
X14841135Y-30496906D01*
X14838476Y-30491652D01*
X14828767Y-30470865D01*
X14822764Y-30453803D01*
X14819598Y-30436159D01*
X14818398Y-30413624D01*
X14818265Y-30391503D01*
X14818332Y-30387875D01*
X15021047Y-30387875D01*
X15027017Y-30417027D01*
X15039802Y-30438377D01*
X15063194Y-30456407D01*
X15093641Y-30466544D01*
X15128480Y-30468543D01*
X15165046Y-30462157D01*
X15190690Y-30452351D01*
X15211860Y-30439023D01*
X15231597Y-30421671D01*
X15235518Y-30417254D01*
X15243889Y-30406503D01*
X15249266Y-30396681D01*
X15252310Y-30384722D01*
X15253684Y-30367557D01*
X15254048Y-30342119D01*
X15254059Y-30331246D01*
X15254059Y-30267733D01*
X15190683Y-30267767D01*
X15149889Y-30268720D01*
X15118706Y-30271978D01*
X15094487Y-30278217D01*
X15074586Y-30288112D01*
X15056810Y-30301925D01*
X15036322Y-30327292D01*
X15024275Y-30356953D01*
X15021047Y-30387875D01*
X14818332Y-30387875D01*
X14818824Y-30361372D01*
X14820859Y-30339358D01*
X14825115Y-30321235D01*
X14832335Y-30302776D01*
X14834843Y-30297286D01*
X14861531Y-30254432D01*
X14898485Y-30218468D01*
X14945701Y-30189398D01*
X15003172Y-30167225D01*
X15010892Y-30164990D01*
X15038124Y-30159664D01*
X15077374Y-30155537D01*
X15128352Y-30152636D01*
X15151259Y-30151846D01*
X15255592Y-30148793D01*
X15252731Y-30104697D01*
X15246504Y-30063081D01*
X15233516Y-30031505D01*
X15213192Y-30009295D01*
X15184954Y-29995782D01*
X15154644Y-29990657D01*
X15115376Y-29992192D01*
X15083191Y-30002561D01*
X15059025Y-30021192D01*
X15043809Y-30047514D01*
X15040302Y-30060783D01*
X15036276Y-30082241D01*
X14934944Y-30082241D01*
X14833611Y-30082241D01*
X14833611Y-30137889D01*
X14833611Y-30193536D01*
X14632662Y-30193536D01*
X14431713Y-30193536D01*
X14431713Y-30400669D01*
X14431713Y-30607801D01*
X14323509Y-30607801D01*
X14215306Y-30607801D01*
X14215306Y-30100790D01*
X14215306Y-29593780D01*
X14549191Y-29593780D01*
X14883076Y-29593780D01*
X14883076Y-29677251D01*
G37*
G36*
X18438334Y-29727356D02*
G01*
X18438334Y-29916580D01*
X18461238Y-29896469D01*
X18480341Y-29882251D01*
X18504257Y-29867790D01*
X18518431Y-29860606D01*
X18560326Y-29847207D01*
X18608094Y-29841562D01*
X18658158Y-29843453D01*
X18706940Y-29852660D01*
X18750861Y-29868966D01*
X18763167Y-29875566D01*
X18799805Y-29903202D01*
X18833640Y-29940425D01*
X18862803Y-29984491D01*
X18885423Y-30032657D01*
X18897736Y-30073092D01*
X18905801Y-30108603D01*
X18913908Y-30081510D01*
X18937768Y-30022301D01*
X18971256Y-29970054D01*
X19013281Y-29925568D01*
X19062751Y-29889640D01*
X19118573Y-29863070D01*
X19179655Y-29846655D01*
X19242542Y-29841193D01*
X19310913Y-29845940D01*
X19371727Y-29860472D01*
X19425011Y-29884808D01*
X19470789Y-29918964D01*
X19509086Y-29962957D01*
X19539928Y-30016805D01*
X19553529Y-30050089D01*
X19565523Y-30092100D01*
X19574598Y-30141461D01*
X19580101Y-30193364D01*
X19581376Y-30243000D01*
X19581064Y-30252275D01*
X19579108Y-30295557D01*
X19339415Y-30297175D01*
X19099722Y-30298794D01*
X19103659Y-30315724D01*
X19120203Y-30362678D01*
X19145502Y-30401390D01*
X19178527Y-30431180D01*
X19218247Y-30451368D01*
X19263633Y-30461275D01*
X19313656Y-30460221D01*
X19320914Y-30459169D01*
X19364645Y-30448455D01*
X19402006Y-30430286D01*
X19437669Y-30402389D01*
X19437697Y-30402363D01*
X19465092Y-30377112D01*
X19509734Y-30425328D01*
X19528592Y-30445933D01*
X19544395Y-30463642D01*
X19555167Y-30476213D01*
X19558726Y-30480873D01*
X19558495Y-30491839D01*
X19548803Y-30506780D01*
X19531375Y-30524396D01*
X19507934Y-30543385D01*
X19480205Y-30562448D01*
X19449912Y-30580284D01*
X19418779Y-30595592D01*
X19393616Y-30605419D01*
X19368671Y-30613181D01*
X19346495Y-30618152D01*
X19322836Y-30620927D01*
X19293446Y-30622101D01*
X19273047Y-30622280D01*
X19218370Y-30620380D01*
X19171386Y-30613801D01*
X19128025Y-30601695D01*
X19084222Y-30583210D01*
X19082777Y-30582508D01*
X19034903Y-30552810D01*
X18991305Y-30513412D01*
X18954162Y-30466800D01*
X18925658Y-30415461D01*
X18916906Y-30393430D01*
X18905692Y-30361459D01*
X18892817Y-30405796D01*
X18872205Y-30463434D01*
X18846476Y-30510844D01*
X18814714Y-30549428D01*
X18780835Y-30577339D01*
X18738181Y-30600113D01*
X18688714Y-30615629D01*
X18636132Y-30623144D01*
X18584134Y-30621914D01*
X18569577Y-30619796D01*
X18524296Y-30606333D01*
X18481565Y-30583450D01*
X18450489Y-30558126D01*
X18425968Y-30533604D01*
X18425968Y-30551381D01*
X18424670Y-30571127D01*
X18422103Y-30588479D01*
X18418239Y-30607801D01*
X18326266Y-30607801D01*
X18234293Y-30607801D01*
X18234293Y-30229728D01*
X18438334Y-30229728D01*
X18438434Y-30279781D01*
X18438912Y-30319102D01*
X18440033Y-30349325D01*
X18442061Y-30372083D01*
X18445260Y-30389011D01*
X18449897Y-30401741D01*
X18456235Y-30411907D01*
X18464540Y-30421143D01*
X18470252Y-30426614D01*
X18497181Y-30444259D01*
X18531089Y-30455550D01*
X18568098Y-30460059D01*
X18604332Y-30457356D01*
X18635915Y-30447014D01*
X18639144Y-30445276D01*
X18664836Y-30423636D01*
X18684821Y-30391100D01*
X18699070Y-30347758D01*
X18707554Y-30293700D01*
X18710245Y-30230635D01*
X18707041Y-30167121D01*
X18702496Y-30141720D01*
X19105629Y-30141720D01*
X19109523Y-30148559D01*
X19119535Y-30152890D01*
X19136928Y-30155278D01*
X19162965Y-30156288D01*
X19198911Y-30156486D01*
X19242996Y-30156438D01*
X19379889Y-30156438D01*
X19376349Y-30122140D01*
X19367023Y-30080787D01*
X19348713Y-30047716D01*
X19321880Y-30023392D01*
X19286985Y-30008279D01*
X19258269Y-30003449D01*
X19217302Y-30004971D01*
X19182630Y-30016840D01*
X19153827Y-30039349D01*
X19130466Y-30072795D01*
X19118015Y-30100491D01*
X19111138Y-30118251D01*
X19106588Y-30131805D01*
X19105629Y-30141720D01*
X18702496Y-30141720D01*
X18697555Y-30114105D01*
X18681722Y-30071395D01*
X18659478Y-30038799D01*
X18640267Y-30022041D01*
X18625635Y-30012990D01*
X18611560Y-30007817D01*
X18593696Y-30005484D01*
X18568707Y-30004953D01*
X18526955Y-30008764D01*
X18493489Y-30020696D01*
X18466665Y-30041500D01*
X18453876Y-30057386D01*
X18438334Y-30079814D01*
X18438334Y-30229728D01*
X18234293Y-30229728D01*
X18234293Y-30079814D01*
X18234293Y-30072967D01*
X18234293Y-29538132D01*
X18336313Y-29538132D01*
X18438334Y-29538132D01*
X18438334Y-29727356D01*
G37*
G36*
X12910486Y-29632857D02*
G01*
X12991236Y-29634451D01*
X13068921Y-29637091D01*
X13142001Y-29640798D01*
X13208937Y-29645591D01*
X13256087Y-29650117D01*
X13314801Y-29658973D01*
X13362661Y-29671780D01*
X13400691Y-29689045D01*
X13429914Y-29711273D01*
X13451353Y-29738971D01*
X13456920Y-29749452D01*
X13466041Y-29769671D01*
X13473606Y-29789923D01*
X13479756Y-29811573D01*
X13484629Y-29835986D01*
X13488368Y-29864527D01*
X13491111Y-29898561D01*
X13493000Y-29939454D01*
X13494175Y-29988571D01*
X13494775Y-30047277D01*
X13494942Y-30116937D01*
X13494942Y-30119340D01*
X13494869Y-30180957D01*
X13494633Y-30231667D01*
X13494174Y-30272927D01*
X13493434Y-30306194D01*
X13492353Y-30332928D01*
X13490873Y-30354584D01*
X13488934Y-30372623D01*
X13486478Y-30388500D01*
X13483445Y-30403674D01*
X13483426Y-30403760D01*
X13471947Y-30447969D01*
X13457816Y-30484213D01*
X13439711Y-30513436D01*
X13416309Y-30536580D01*
X13386288Y-30554588D01*
X13348326Y-30568402D01*
X13301101Y-30578965D01*
X13243290Y-30587220D01*
X13222925Y-30589466D01*
X13204675Y-30590751D01*
X13175631Y-30592016D01*
X13137365Y-30593243D01*
X13091449Y-30594413D01*
X13039454Y-30595507D01*
X12982953Y-30596508D01*
X12923518Y-30597396D01*
X12862720Y-30598154D01*
X12802131Y-30598762D01*
X12743324Y-30599202D01*
X12687870Y-30599455D01*
X12637341Y-30599504D01*
X12593310Y-30599329D01*
X12557348Y-30598911D01*
X12531027Y-30598234D01*
X12521148Y-30597738D01*
X12448191Y-30592303D01*
X12386473Y-30586343D01*
X12334866Y-30579498D01*
X12292243Y-30571407D01*
X12257479Y-30561711D01*
X12229445Y-30550048D01*
X12207016Y-30536059D01*
X12189065Y-30519384D01*
X12174464Y-30499663D01*
X12165779Y-30484140D01*
X12156107Y-30462092D01*
X12148411Y-30437185D01*
X12142284Y-30407256D01*
X12137319Y-30370140D01*
X12133108Y-30323676D01*
X12131568Y-30302334D01*
X12131115Y-30293877D01*
X12348897Y-30293877D01*
X12359568Y-30310798D01*
X12368117Y-30317265D01*
X12386055Y-30323728D01*
X12413267Y-30328082D01*
X12446841Y-30330334D01*
X12483867Y-30330487D01*
X12521434Y-30328547D01*
X12556632Y-30324519D01*
X12586549Y-30318408D01*
X12591821Y-30316881D01*
X12614159Y-30308915D01*
X12633017Y-30299052D01*
X12652220Y-30284861D01*
X12675591Y-30263908D01*
X12676723Y-30262841D01*
X12720565Y-30221483D01*
X12684631Y-30188828D01*
X12667155Y-30173659D01*
X12653023Y-30162706D01*
X12644752Y-30157884D01*
X12643922Y-30157851D01*
X12637531Y-30162467D01*
X12624237Y-30173513D01*
X12606284Y-30189094D01*
X12594334Y-30199719D01*
X12549521Y-30239909D01*
X12461759Y-30243001D01*
X12425989Y-30244471D01*
X12400435Y-30246164D01*
X12382948Y-30248396D01*
X12371379Y-30251484D01*
X12363578Y-30255747D01*
X12361010Y-30257871D01*
X12349266Y-30275297D01*
X12348897Y-30293877D01*
X12131115Y-30293877D01*
X12128166Y-30238835D01*
X12126289Y-30172306D01*
X12125876Y-30104793D01*
X12126861Y-30038340D01*
X12129182Y-29974992D01*
X12130436Y-29954679D01*
X12347455Y-29954679D01*
X12354422Y-29972811D01*
X12364314Y-29982864D01*
X12372517Y-29988326D01*
X12382333Y-29991988D01*
X12396278Y-29994199D01*
X12416866Y-29995309D01*
X12446614Y-29995666D01*
X12456657Y-29995678D01*
X12487397Y-29996121D01*
X12514708Y-29997325D01*
X12535601Y-29999106D01*
X12547023Y-30001254D01*
X12554846Y-30006787D01*
X12570352Y-30019878D01*
X12592365Y-30039457D01*
X12619711Y-30064454D01*
X12651212Y-30093798D01*
X12685693Y-30126422D01*
X12706640Y-30146468D01*
X12752818Y-30190622D01*
X12791479Y-30226849D01*
X12823861Y-30255954D01*
X12851199Y-30278746D01*
X12874731Y-30296031D01*
X12895694Y-30308615D01*
X12915325Y-30317307D01*
X12934860Y-30322911D01*
X12955537Y-30326236D01*
X12978593Y-30328088D01*
X12985639Y-30328452D01*
X13040525Y-30331076D01*
X13040525Y-30355333D01*
X13045619Y-30381076D01*
X13060128Y-30399273D01*
X13082896Y-30408791D01*
X13096298Y-30409943D01*
X13115977Y-30408258D01*
X13132319Y-30404093D01*
X13134737Y-30402975D01*
X13144611Y-30396784D01*
X13162072Y-30384966D01*
X13184716Y-30369177D01*
X13210137Y-30351076D01*
X13211962Y-30349762D01*
X13238451Y-30330477D01*
X13256374Y-30316597D01*
X13267314Y-30306461D01*
X13272849Y-30298406D01*
X13274562Y-30290768D01*
X13274278Y-30284208D01*
X13272152Y-30274969D01*
X13266575Y-30265716D01*
X13255872Y-30254749D01*
X13238366Y-30240367D01*
X13212383Y-30220871D01*
X13210559Y-30219531D01*
X13176716Y-30195165D01*
X13150617Y-30177762D01*
X13130406Y-30166490D01*
X13114228Y-30160518D01*
X13100228Y-30159012D01*
X13086551Y-30161141D01*
X13082781Y-30162198D01*
X13058933Y-30174228D01*
X13045020Y-30193423D01*
X13040525Y-30220342D01*
X13040525Y-30244396D01*
X12997892Y-30241987D01*
X12955260Y-30239578D01*
X12864581Y-30153181D01*
X12813440Y-30104479D01*
X12770374Y-30063583D01*
X12734515Y-30029757D01*
X12720231Y-30016454D01*
X12787467Y-30016454D01*
X12822796Y-30049069D01*
X12840302Y-30064592D01*
X12854692Y-30076186D01*
X12863330Y-30081755D01*
X12864152Y-30081962D01*
X12870889Y-30077982D01*
X12884026Y-30067063D01*
X12901336Y-30051123D01*
X12912032Y-30040710D01*
X12953884Y-29999179D01*
X12997205Y-29996731D01*
X13040525Y-29994283D01*
X13040525Y-30017028D01*
X13043953Y-30043266D01*
X13055270Y-30061411D01*
X13075255Y-30073668D01*
X13091604Y-30078381D01*
X13108563Y-30078144D01*
X13127915Y-30072245D01*
X13151442Y-30059972D01*
X13180929Y-30040614D01*
X13209013Y-30020286D01*
X13240754Y-29996268D01*
X13262471Y-29977529D01*
X13274201Y-29962159D01*
X13275982Y-29948249D01*
X13267853Y-29933888D01*
X13249850Y-29917168D01*
X13222012Y-29896178D01*
X13211619Y-29888670D01*
X13180681Y-29866509D01*
X13157726Y-29850611D01*
X13140758Y-29839938D01*
X13127780Y-29833453D01*
X13116794Y-29830117D01*
X13105803Y-29828893D01*
X13096298Y-29828736D01*
X13069935Y-29833701D01*
X13051413Y-29847932D01*
X13041734Y-29870431D01*
X13040525Y-29884102D01*
X13040525Y-29909116D01*
X13001634Y-29909116D01*
X12963993Y-29911738D01*
X12926513Y-29918918D01*
X12893400Y-29929623D01*
X12871278Y-29941096D01*
X12856789Y-29952274D01*
X12837838Y-29968580D01*
X12819704Y-29985372D01*
X12787467Y-30016454D01*
X12720231Y-30016454D01*
X12704995Y-30002265D01*
X12680947Y-29980373D01*
X12661503Y-29963344D01*
X12645794Y-29950444D01*
X12632953Y-29940937D01*
X12622111Y-29934088D01*
X12612402Y-29929162D01*
X12602957Y-29925423D01*
X12592908Y-29922135D01*
X12591300Y-29921637D01*
X12563060Y-29915164D01*
X12528886Y-29910758D01*
X12491694Y-29908423D01*
X12454399Y-29908162D01*
X12419915Y-29909977D01*
X12391160Y-29913871D01*
X12371048Y-29919847D01*
X12368117Y-29921414D01*
X12352070Y-29936749D01*
X12347455Y-29954679D01*
X12130436Y-29954679D01*
X12132776Y-29916794D01*
X12137577Y-29865791D01*
X12143524Y-29824027D01*
X12146958Y-29807030D01*
X12161732Y-29761687D01*
X12183545Y-29725504D01*
X12213448Y-29697487D01*
X12252494Y-29676640D01*
X12299956Y-29662360D01*
X12338980Y-29655422D01*
X12388801Y-29649352D01*
X12447879Y-29644171D01*
X12514673Y-29639899D01*
X12587644Y-29636555D01*
X12665250Y-29634159D01*
X12745953Y-29632731D01*
X12828212Y-29632291D01*
X12910486Y-29632857D01*
G37*
D11*
%TO.C,R_PLAY_B1*%
X7030000Y-18060000D02*
X7360000Y-18060000D01*
X7030000Y-24600000D02*
X7030000Y-18060000D01*
X7360000Y-24600000D02*
X7030000Y-24600000D01*
X9440000Y-24600000D02*
X9770000Y-24600000D01*
X9770000Y-18060000D02*
X9440000Y-18060000D01*
X9770000Y-24600000D02*
X9770000Y-18060000D01*
D12*
%TO.C,FADER_TEMPO_B1*%
X-82500000Y32000000D02*
X-80970000Y32000000D01*
X-82500000Y28695000D02*
X-82500000Y32000000D01*
X-82500000Y25505000D02*
X-82500000Y-21505000D01*
X-82500000Y-28000000D02*
X-82500000Y-24695000D01*
X-82500000Y-28000000D02*
X-77470000Y-28000000D01*
X-75030000Y32000000D02*
X-73500000Y32000000D01*
X-73500000Y32000000D02*
X-73500000Y27495000D01*
X-73500000Y24305000D02*
X-73500000Y-20305000D01*
X-73500000Y-23495000D02*
X-73500000Y-28000000D01*
X-73500000Y-28000000D02*
X-75030000Y-28000000D01*
D13*
X-76150000Y33150000D02*
G75*
G02*
X-76350000Y33150000I-100000J0D01*
G01*
X-76350000Y33150000D02*
G75*
G02*
X-76150000Y33150000I100000J0D01*
G01*
%TD*%
%LPC*%
D15*
X18510000Y20000000D02*
G75*
G02*
X14510000Y20000000I-2000000J0D01*
G01*
X14510000Y20000000D02*
G75*
G02*
X18510000Y20000000I2000000J0D01*
G01*
X26146039Y20000000D02*
G75*
G02*
X14146039Y20000000I-6000000J0D01*
G01*
X14146039Y20000000D02*
G75*
G02*
X26146039Y20000000I6000000J0D01*
G01*
X16010000Y20000000D02*
G75*
G02*
X15010000Y20000000I-500000J0D01*
G01*
X15010000Y20000000D02*
G75*
G02*
X16010000Y20000000I500000J0D01*
G01*
X22146039Y20000000D02*
G75*
G02*
X14146039Y20000000I-4000000J0D01*
G01*
X14146039Y20000000D02*
G75*
G02*
X22146039Y20000000I4000000J0D01*
G01*
D16*
%TO.C,C1*%
X-4630000Y4980000D03*
X-4630000Y7480000D03*
%TD*%
D17*
%TO.C,ROTARY_ENCODER_BTN1*%
X-2500000Y27000000D03*
D18*
X2500000Y27000000D03*
X-2500000Y12500000D03*
X2500000Y12500000D03*
X0Y12500000D03*
D19*
X-5700000Y20000000D03*
X5700000Y20000000D03*
%TD*%
D20*
%TO.C,H3*%
X-28000000Y-31500000D03*
%TD*%
D21*
%TO.C,C2*%
X4580000Y7135100D03*
D16*
X4580000Y5135100D03*
%TD*%
D22*
%TO.C,BTN_B_LOOP_IN1*%
X36000000Y30000000D03*
X42500000Y30000000D03*
X36000000Y25500000D03*
X42500000Y25500000D03*
%TD*%
D23*
%TO.C,FADER_TEMPO_A1*%
X79750000Y31250000D03*
D24*
X76250000Y31250000D03*
X79750000Y-27250000D03*
D25*
X82250000Y25900000D03*
X73750000Y27100000D03*
X82250000Y-21900000D03*
X73750000Y-23100000D03*
%TD*%
D16*
%TO.C,R_PLAY_A1*%
X-8100000Y-24990000D03*
X-8100000Y-17370000D03*
%TD*%
D26*
%TO.C,FADER_CROSSFADER1*%
X-29250000Y-8250000D03*
D24*
X-29250000Y-11750000D03*
X29250000Y-8250000D03*
D25*
X-23900000Y-5750000D03*
X-25100000Y-14250000D03*
X23900000Y-5750000D03*
X25100000Y-14250000D03*
%TD*%
D20*
%TO.C,H6*%
X63000000Y31500000D03*
%TD*%
%TO.C,H5*%
X87000000Y0D03*
%TD*%
%TO.C,H1*%
X0Y0D03*
%TD*%
D22*
%TO.C,BTN_A_LOOP_IN1*%
X-54000000Y30000000D03*
X-47500000Y30000000D03*
X-54000000Y25500000D03*
X-47500000Y25500000D03*
%TD*%
D16*
%TO.C,R_LOAD_A1*%
X-2100000Y-25140000D03*
X-2100000Y-17520000D03*
%TD*%
D22*
%TO.C,BTN_B_LOOP_OUT1*%
X48000000Y30000000D03*
X54500000Y30000000D03*
X48000000Y25500000D03*
X54500000Y25500000D03*
%TD*%
D20*
%TO.C,H9*%
X-63000000Y-31500000D03*
%TD*%
%TO.C,H7*%
X-63000000Y31500000D03*
%TD*%
D22*
%TO.C,BTN_A_LOOP_OUT1*%
X-42000000Y30000000D03*
X-35500000Y30000000D03*
X-42000000Y25500000D03*
X-35500000Y25500000D03*
%TD*%
D16*
%TO.C,R_LOAD_B1*%
X3900000Y-25140000D03*
X3900000Y-17520000D03*
%TD*%
%TO.C,R_PLAY_B1*%
X8400000Y-25140000D03*
X8400000Y-17520000D03*
%TD*%
D20*
%TO.C,H4*%
X63000000Y-31500000D03*
%TD*%
%TO.C,H2*%
X28000000Y31500000D03*
%TD*%
%TO.C,H8*%
X-87000000Y0D03*
%TD*%
D23*
%TO.C,FADER_TEMPO_B1*%
X-76250000Y31250000D03*
D24*
X-79750000Y31250000D03*
X-76250000Y-27250000D03*
D25*
X-73750000Y25900000D03*
X-82250000Y27100000D03*
X-73750000Y-21900000D03*
X-82250000Y-23100000D03*
%TD*%
D27*
%TO.C,J1_DECK_A1*%
X-28000000Y-20550000D03*
D28*
X-26000000Y-20550000D03*
X-24000000Y-20550000D03*
X-22000000Y-20550000D03*
X-20000000Y-20550000D03*
X-18000000Y-20550000D03*
X-16000000Y-20550000D03*
X-14000000Y-20550000D03*
%TD*%
D29*
%TO.C,ArduinoProMicroATmega32U4USBC-1*%
X-12760000Y30440000D03*
D30*
X-12760000Y27900000D03*
X-12760000Y25360000D03*
X-12760000Y22820000D03*
X-12760000Y20280000D03*
X-12760000Y17740000D03*
X-12760000Y15200000D03*
X-12760000Y12660000D03*
X-12760000Y10120000D03*
X-12760000Y7580000D03*
X-12760000Y5040000D03*
X-12760000Y2500000D03*
X-28000000Y2500000D03*
X-28000000Y5040000D03*
X-28000000Y7580000D03*
X-28000000Y10120000D03*
X-28000000Y12660000D03*
X-28000000Y15200000D03*
X-28000000Y17740000D03*
X-28000000Y20280000D03*
X-28000000Y22820000D03*
X-28000000Y25360000D03*
X-28000000Y27900000D03*
X-28000000Y30440000D03*
%TD*%
D27*
%TO.C,J2_DECK_B1*%
X14000000Y-20550000D03*
D28*
X16000000Y-20550000D03*
X18000000Y-20550000D03*
X20000000Y-20550000D03*
X22000000Y-20550000D03*
X24000000Y-20550000D03*
X26000000Y-20550000D03*
X28000000Y-20550000D03*
%TD*%
%LPD*%
M02*
